<?xml version="1.0" encoding="utf-8"?>
<!-- Generator: Adobe Illustrator 16.0.0, SVG Export Plug-In . SVG Version: 6.00 Build 0)  -->
<!DOCTYPE svg PUBLIC "-//W3C//DTD SVG 1.1//EN" "http://www.w3.org/Graphics/SVG/1.1/DTD/svg11.dtd">
<svg version="1.1" id="Layer_1" xmlns="http://www.w3.org/2000/svg" xmlns:xlink="http://www.w3.org/1999/xlink" x="0px" y="0px"
	 width="319.024px" height="51.306px" viewBox="116.696 16.089 319.024 51.306"
	 enable-background="new 116.696 16.089 319.024 51.306" xml:space="preserve">
<g>
	<g>
		<path fill="#04436A" d="M143.054,40.973c0,4.297-1.603,7.119-4.681,8.465l4.425,16.803c0.192,0.771-0.192,1.154-0.898,1.154h-6.67
			c-0.641,0-0.961-0.32-1.09-0.898l-4.297-16.289h-4.425v16.162c0,0.643-0.384,1.025-1.026,1.025h-6.67
			c-0.641,0-1.026-0.385-1.026-1.025V17.114c0-0.641,0.385-1.025,1.026-1.025h16.097c6.028,0,9.235,3.207,9.235,9.234V40.973
			L143.054,40.973z M131.767,41.741c1.667,0,2.565-0.897,2.565-2.564V27.119c0-1.667-0.898-2.563-2.565-2.563h-6.349v17.187
			L131.767,41.741L131.767,41.741z"/>
		<path fill="#04436A" d="M148.181,25.323c0-6.027,3.206-9.234,9.234-9.234h7.184c6.027,0,9.234,3.207,9.234,9.234v32.836
			c0,6.027-3.207,9.234-9.234,9.234h-7.184c-6.028,0-9.234-3.207-9.234-9.234V25.323z M162.995,59.12
			c1.666,0,2.564-0.834,2.564-2.564V26.928c0-1.667-0.898-2.565-2.564-2.565h-3.719c-1.668,0-2.566,0.898-2.566,2.565v29.629
			c0,1.729,0.898,2.563,2.566,2.563H162.995L162.995,59.12z"/>
		<path fill="#04436A" d="M205.96,32.249c0,0.643-0.385,1.026-1.025,1.026h-6.413c-0.706,0-1.026-0.384-1.026-1.026v-5.13
			c0-1.667-0.896-2.563-2.563-2.563h-3.335c-1.73,0-2.564,0.896-2.564,2.563v29.246c0,1.731,0.896,2.563,2.564,2.563h3.335
			c1.667,0,2.563-0.833,2.563-2.563v-5.132c0-0.642,0.32-1.026,1.026-1.026h6.413c0.643,0,1.025,0.385,1.025,1.026v6.927
			c0,6.027-3.271,9.234-9.234,9.234h-7.184c-6.027,0-9.299-3.207-9.299-9.234V25.323c0-6.027,3.271-9.234,9.299-9.234h7.184
			c5.964,0,9.234,3.207,9.234,9.234V32.249z"/>
		<path fill="#04436A" d="M233.019,67.395c-0.77,0-1.217-0.32-1.475-0.961l-8.08-19.048l-2.373,4.554v14.172
			c0,0.834-0.449,1.283-1.283,1.283h-6.156c-0.834,0-1.283-0.449-1.283-1.283v-48.74c0-0.833,0.449-1.282,1.283-1.282h6.156
			c0.834,0,1.283,0.448,1.283,1.282v19.881l9.875-20.201c0.322-0.642,0.771-0.962,1.477-0.962h6.732
			c0.963,0,1.348,0.642,0.896,1.538l-10.9,22.383l11.605,25.91c0.449,0.834,0.064,1.475-0.961,1.475H233.019z"/>
		<path fill="#04436A" d="M271.048,23.528c0,0.641-0.258,1.09-1.027,1.09h-16.033v12.826h12.25c0.643,0,1.025,0.385,1.025,1.09v6.35
			c0,0.706-0.385,1.091-1.025,1.091h-12.25v12.954h16.033c0.771,0,1.027,0.32,1.027,1.025v6.415c0,0.641-0.258,1.023-1.027,1.023
			h-23.6c-0.578,0-0.963-0.385-0.963-1.023V17.114c0-0.641,0.385-1.025,0.963-1.025h23.6c0.771,0,1.027,0.385,1.027,1.025V23.528z"
			/>
		<path fill="#04436A" d="M300.802,16.089c0.705,0,1.025,0.385,1.025,1.025v6.414c0,0.641-0.32,1.026-1.025,1.026h-7.439v41.814
			c0,0.705-0.32,1.023-1.025,1.023h-6.67c-0.643,0-1.025-0.318-1.025-1.023V24.555h-7.438c-0.645,0-1.027-0.386-1.027-1.026v-6.414
			c0-0.641,0.385-1.025,1.027-1.025H300.802z"/>
		<path fill="#04436A" d="M301.183,60.21c0-0.834,0.449-1.281,1.283-1.281h5.836c0.834,0,1.281,0.447,1.281,1.281v5.899
			c0,0.836-0.447,1.283-1.281,1.283h-5.836c-0.834,0-1.283-0.447-1.283-1.283V60.21z"/>
		<path fill="#04436A" d="M341.712,32.249c0,0.643-0.387,1.026-1.027,1.026h-6.412c-0.705,0-1.025-0.384-1.025-1.026v-5.13
			c0-1.667-0.896-2.563-2.564-2.563h-3.334c-1.732,0-2.564,0.896-2.564,2.563v29.246c0,1.731,0.896,2.563,2.564,2.563h3.334
			c1.668,0,2.564-0.833,2.564-2.563v-5.132c0-0.642,0.32-1.026,1.025-1.026h6.412c0.645,0,1.027,0.385,1.027,1.026v6.927
			c0,6.027-3.271,9.234-9.236,9.234h-7.182c-6.029,0-9.299-3.207-9.299-9.234V25.323c0-6.027,3.27-9.234,9.299-9.234h7.182
			c5.965,0,9.236,3.207,9.236,9.234V32.249z"/>
		<path fill="#04436A" d="M365.052,17.114c0-0.641,0.385-1.025,1.025-1.025h6.605c0.77,0,1.088,0.385,1.088,1.025v49.255
			c0,0.641-0.318,1.023-1.088,1.023h-6.605c-0.643,0-1.025-0.385-1.025-1.023V45.975h-8.209v20.395c0,0.643-0.385,1.025-1.025,1.025
			h-6.604c-0.771,0-1.092-0.385-1.092-1.025V17.114c0-0.641,0.32-1.025,1.092-1.025h6.604c0.643,0,1.025,0.385,1.025,1.025v20.395
			h8.209V17.114L365.052,17.114z"/>
		<path fill="#04436A" d="M403.017,67.395c-0.578,0-0.896-0.32-1.027-0.898l-1.795-9.361h-11.416l-1.729,9.361
			c-0.129,0.578-0.449,0.898-1.027,0.898h-6.859c-0.705,0-1.027-0.385-0.836-1.09l10.646-49.318c0.129-0.641,0.512-0.897,1.09-0.897
			h8.914c0.578,0,0.963,0.257,1.09,0.897l10.646,49.318c0.129,0.705-0.127,1.09-0.896,1.09H403.017z M394.485,27.312l-4.104,22.382
			h8.209L394.485,27.312z"/>
		<path fill="#04436A" d="M434.694,16.089c0.705,0,1.025,0.385,1.025,1.025v6.414c0,0.641-0.32,1.026-1.025,1.026h-7.438v41.814
			c0,0.705-0.322,1.023-1.027,1.023h-6.67c-0.641,0-1.023-0.318-1.023-1.023V24.555h-7.439c-0.641,0-1.025-0.386-1.025-1.026v-6.414
			c0-0.641,0.387-1.025,1.025-1.025H434.694z"/>
	</g>
</g>
</svg>
