<?xml version="1.0" encoding="utf-8"?>
<!-- Generator: Adobe Illustrator 16.0.0, SVG Export Plug-In . SVG Version: 6.00 Build 0)  -->
<!DOCTYPE svg PUBLIC "-//W3C//DTD SVG 1.1//EN" "http://www.w3.org/Graphics/SVG/1.1/DTD/svg11.dtd">
<svg version="1.1" id="Layer_1" xmlns="http://www.w3.org/2000/svg" xmlns:xlink="http://www.w3.org/1999/xlink" x="0px" y="0px"
	 width="1077.17px" height="1077.17px" viewBox="0 0 1077.17 1077.17" enable-background="new 0 0 1077.17 1077.17"
	 xml:space="preserve">
<g>
	<path fill-rule="evenodd" clip-rule="evenodd" fill="#BB0000" d="M1077.167,537.856c0-54.094-16.185-105.95-48.101-154.175
		c-28.666-43.277-68.827-81.589-119.355-113.876c-97.56-62.316-225.792-96.646-361.038-96.646
		c-45.185,0-89.712,3.814-132.901,11.386c-26.796-25.082-58.174-47.65-91.363-65.492C147.062,33.104,0,117.036,0,117.036
		s136.725,112.319,114.493,210.775C53.329,388.497,20.164,461.675,20.164,537.85c0,0.236,0.011,0.485,0.011,0.732
		c0,0.236-0.011,0.472-0.011,0.732c0,76.178,33.152,149.352,94.329,210.031C136.733,847.817,0,960.141,0,960.141
		s147.062,83.92,324.409-2.021c33.188-17.825,64.555-40.418,91.363-65.485c43.203,7.552,87.716,11.373,132.901,11.373
		c135.259,0,263.479-34.307,361.038-96.633c50.528-32.282,90.689-70.583,119.355-113.88
		c31.916-48.213,48.101-100.097,48.101-154.166c0-0.251-0.013-0.487-0.013-0.731C1077.154,538.349,1077.167,538.09,1077.167,537.856
		"/>
	<path fill-rule="evenodd" clip-rule="evenodd" fill="#FEFEFE" d="M548.667,249.636c250.445,0,453.49,129.69,453.49,289.671
		c0,159.973-203.045,289.674-453.49,289.674c-55.768,0-109.175-6.457-158.519-18.203
		c-50.144,60.315-160.456,144.192-267.627,117.084c34.86-37.44,86.505-100.698,75.45-204.912
		C133.734,672.98,95.177,609.007,95.177,539.307C95.171,379.318,298.209,249.636,548.667,249.636"/>
	<path fill-rule="evenodd" clip-rule="evenodd" fill="#BB0000" d="M608.91,548.628c0-33.269-26.966-60.238-60.243-60.238
		c-33.271,0-60.237,26.97-60.237,60.238c0,33.271,26.967,60.246,60.237,60.246C581.944,608.874,608.91,581.898,608.91,548.628"/>
	<path fill-rule="evenodd" clip-rule="evenodd" fill="#BB0000" d="M818.362,548.628c0-33.269-26.977-60.238-60.237-60.238
		c-33.277,0-60.25,26.97-60.25,60.238c0,33.271,26.973,60.246,60.25,60.246C791.386,608.874,818.362,581.898,818.362,548.628"/>
	<path fill-rule="evenodd" clip-rule="evenodd" fill="#BB0000" d="M399.436,548.628c0-33.264-26.96-60.234-60.223-60.234
		c-33.271,0-60.239,26.971-60.239,60.234c0,33.267,26.967,60.233,60.239,60.233C372.475,608.861,399.436,581.895,399.436,548.628"/>
	<path fill-rule="evenodd" clip-rule="evenodd" fill="#AAAAAA" d="M548.667,790.862c-55.768,0-109.175-5.588-158.519-15.781
		c-44.281,46.166-135.47,108.229-229.979,105.952c-12.456,18.865-25.993,34.294-37.648,46.82
		c107.171,27.104,217.483-56.753,267.627-117.092c49.344,11.769,102.759,18.203,158.519,18.203
		c248.446,0,450.188-127.634,453.405-285.84C998.854,680.25,797.113,790.862,548.667,790.862"/>
</g>
</svg>
