<?xml version="1.0" encoding="utf-8"?>
<!-- Generator: Adobe Illustrator 16.0.0, SVG Export Plug-In . SVG Version: 6.00 Build 0)  -->
<!DOCTYPE svg PUBLIC "-//W3C//DTD SVG 1.1//EN" "http://www.w3.org/Graphics/SVG/1.1/DTD/svg11.dtd">
<svg version="1.1" id="Layer_1" xmlns="http://www.w3.org/2000/svg" xmlns:xlink="http://www.w3.org/1999/xlink" x="0px" y="0px"
	 width="1077.17px" height="1077.17px" viewBox="0 0 1077.17 1077.17" enable-background="new 0 0 1077.17 1077.17"
	 xml:space="preserve">
<g>
	<g>
		<path fill="#04436A" d="M353.649,101.291c0,10.623-3.962,17.6-11.571,20.926l10.939,41.539c0.476,1.907-0.476,2.854-2.221,2.854
			h-16.489c-1.583,0-2.375-0.792-2.694-2.221l-10.623-40.27h-10.938v39.956c0,1.588-0.949,2.535-2.538,2.535h-16.489
			c-1.583,0-2.535-0.951-2.535-2.535V42.309c0-1.583,0.951-2.535,2.535-2.535h39.796c14.9,0,22.829,7.928,22.829,22.829V101.291
			L353.649,101.291z M325.745,103.191c4.121,0,6.342-2.219,6.342-6.34V67.043c0-4.121-2.221-6.337-6.342-6.337h-15.694v42.488
			L325.745,103.191L325.745,103.191z"/>
		<path fill="#04436A" d="M366.324,62.603c0-14.9,7.926-22.829,22.829-22.829h17.759c14.901,0,22.829,7.928,22.829,22.829v81.176
			c0,14.9-7.928,22.829-22.829,22.829h-17.759c-14.903,0-22.829-7.928-22.829-22.829V62.603z M402.947,146.154
			c4.119,0,6.34-2.062,6.34-6.34V66.57c0-4.121-2.221-6.342-6.34-6.342h-9.193c-4.124,0-6.345,2.221-6.345,6.342v73.247
			c0,4.276,2.221,6.337,6.345,6.337H402.947L402.947,146.154z"/>
		<path fill="#04436A" d="M509.163,79.725c0,1.589-0.951,2.538-2.535,2.538h-15.854c-1.746,0-2.537-0.949-2.537-2.538V67.043
			c0-4.121-2.216-6.337-6.337-6.337h-8.245c-4.278,0-6.34,2.216-6.34,6.337v72.301c0,4.28,2.216,6.337,6.34,6.337h8.245
			c4.121,0,6.337-2.059,6.337-6.337v-12.687c0-1.586,0.792-2.538,2.537-2.538h15.854c1.589,0,2.535,0.951,2.535,2.538v17.124
			c0,14.9-8.088,22.829-22.829,22.829h-17.759c-14.9,0-22.988-7.928-22.988-22.829V62.603c0-14.9,8.088-22.829,22.988-22.829h17.759
			c14.744,0,22.829,7.928,22.829,22.829V79.725z"/>
		<path fill="#04436A" d="M576.057,166.61c-1.903,0-3.009-0.792-3.646-2.375l-19.976-47.089l-5.866,11.258v35.035
			c0,2.062-1.111,3.172-3.173,3.172h-15.219c-2.062,0-3.172-1.11-3.172-3.172V42.944c0-2.06,1.111-3.17,3.172-3.17h15.219
			c2.062,0,3.173,1.108,3.173,3.17v49.148l24.412-49.94c0.797-1.586,1.907-2.378,3.65-2.378h16.644c2.381,0,3.332,1.586,2.216,3.802
			l-26.947,55.334l28.69,64.054c1.111,2.062,0.16,3.646-2.375,3.646H576.057z"/>
		<path fill="#04436A" d="M670.07,58.166c0,1.583-0.637,2.694-2.539,2.694h-39.637v31.708h30.283c1.589,0,2.535,0.951,2.535,2.694
			v15.697c0,1.746-0.951,2.697-2.535,2.697h-30.283v32.024h39.637c1.907,0,2.539,0.792,2.539,2.535v15.859
			c0,1.583-0.637,2.53-2.539,2.53h-58.343c-1.429,0-2.38-0.951-2.38-2.53V42.309c0-1.583,0.951-2.535,2.38-2.535h58.343
			c1.907,0,2.539,0.951,2.539,2.535V58.166z"/>
		<path fill="#04436A" d="M743.627,39.774c1.743,0,2.535,0.951,2.535,2.535v15.857c0,1.583-0.792,2.537-2.535,2.537h-18.392v103.372
			c0,1.743-0.792,2.53-2.535,2.53h-16.489c-1.588,0-2.534-0.787-2.534-2.53V60.703H685.29c-1.594,0-2.54-0.954-2.54-2.537V42.309
			c0-1.583,0.951-2.535,2.54-2.535H743.627z"/>
		<path fill="#04436A" d="M744.568,148.849c0-2.062,1.11-3.167,3.172-3.167h14.428c2.062,0,3.168,1.106,3.168,3.167v14.584
			c0,2.066-1.106,3.172-3.168,3.172H747.74c-2.062,0-3.172-1.105-3.172-3.172V148.849z"/>
		<path fill="#04436A" d="M844.764,79.725c0,1.589-0.956,2.538-2.54,2.538h-15.852c-1.743,0-2.535-0.949-2.535-2.538V67.043
			c0-4.121-2.217-6.337-6.34-6.337h-8.242c-4.283,0-6.34,2.216-6.34,6.337v72.301c0,4.28,2.217,6.337,6.34,6.337h8.242
			c4.123,0,6.34-2.059,6.34-6.337v-12.687c0-1.586,0.792-2.538,2.535-2.538h15.852c1.593,0,2.54,0.951,2.54,2.538v17.124
			c0,14.9-8.088,22.829-22.834,22.829h-17.754c-14.905,0-22.988-7.928-22.988-22.829V62.603c0-14.9,8.083-22.829,22.988-22.829
			h17.754c14.746,0,22.834,7.928,22.834,22.829V79.725z"/>
		<path fill="#04436A" d="M902.463,42.309c0-1.583,0.951-2.535,2.535-2.535h16.33c1.902,0,2.689,0.951,2.689,2.535v121.766
			c0,1.583-0.787,2.53-2.689,2.53h-16.33c-1.589,0-2.535-0.951-2.535-2.53v-50.418h-20.294v50.418c0,1.588-0.951,2.535-2.535,2.535
			H863.31c-1.907,0-2.699-0.951-2.699-2.535V42.309c0-1.583,0.792-2.535,2.699-2.535h16.324c1.589,0,2.535,0.951,2.535,2.535v50.418
			h20.294V42.309L902.463,42.309z"/>
		<path fill="#04436A" d="M996.318,166.61c-1.43,0-2.217-0.792-2.54-2.221l-4.438-23.143h-28.222l-4.273,23.143
			c-0.318,1.429-1.11,2.221-2.54,2.221h-16.957c-1.743,0-2.54-0.951-2.066-2.694l26.319-121.922
			c0.318-1.584,1.266-2.219,2.694-2.219h22.037c1.429,0,2.38,0.635,2.694,2.219l26.319,121.922c0.319,1.743-0.313,2.694-2.216,2.694
			H996.318z M975.228,67.519l-10.145,55.332h20.294L975.228,67.519z"/>
		<path fill="#04436A" d="M1074.631,39.774c1.742,0,2.534,0.951,2.534,2.535v15.857c0,1.583-0.792,2.537-2.534,2.537h-18.387
			v103.372c0,1.743-0.797,2.53-2.54,2.53h-16.489c-1.584,0-2.53-0.787-2.53-2.53V60.703h-18.392c-1.583,0-2.534-0.954-2.534-2.537
			V42.309c0-1.583,0.956-2.535,2.534-2.535H1074.631z"/>
	</g>
	<path fill="#C1272D" d="M247.667,105.2c0-12.438-3.72-24.362-11.059-35.448c-6.591-9.951-15.825-18.761-27.44-26.185
		c-22.433-14.328-51.915-22.22-83.013-22.22c-10.388,0-20.629,0.876-30.559,2.617C89.435,18.196,82.221,13.008,74.59,8.906
		C33.813-10.856,0,8.44,0,8.44s31.438,25.827,26.325,48.465C12.262,70.857,4.638,87.685,4.638,105.2
		c0,0.053,0.002,0.111,0.002,0.167s-0.002,0.108-0.002,0.169c0,17.515,7.622,34.34,21.687,48.292
		C31.438,176.467,0,202.292,0,202.292s33.813,19.297,74.59-0.463c7.631-4.102,14.842-9.292,21.006-15.058
		c9.932,1.736,20.171,2.615,30.559,2.615c31.1,0,60.58-7.89,83.013-22.216c11.615-7.426,20.85-16.23,27.44-26.187
		c7.339-11.086,11.059-23.012,11.059-35.445c0-0.058-0.002-0.111-0.002-0.169C247.665,105.313,247.667,105.253,247.667,105.2z"/>
	<path fill="#FFFFFF" d="M126.155,38.929c57.584,0,104.268,29.821,104.268,66.604c0,36.781-46.684,66.604-104.268,66.604
		c-12.824,0-25.103-1.485-36.447-4.187c-11.53,13.87-36.894,33.155-61.536,26.921c8.015-8.606,19.888-23.152,17.349-47.113
		c-14.77-11.492-23.635-26.197-23.635-42.225C21.882,68.748,68.568,38.929,126.155,38.929"/>
	<g>
		<g>
			<circle fill="#C1272D" cx="126.155" cy="107.675" r="13.852"/>
		</g>
		<g>
			<circle fill="#C1272D" cx="174.311" cy="107.675" r="13.852"/>
		</g>
		<g>
			<circle fill="#C1272D" cx="77.994" cy="107.675" r="13.849"/>
		</g>
	</g>
</g>
</svg>
