<?xml version="1.0" encoding="utf-8"?>
<!-- Generator: Adobe Illustrator 16.0.0, SVG Export Plug-In . SVG Version: 6.00 Build 0)  -->
<!DOCTYPE svg PUBLIC "-//W3C//DTD SVG 1.1//EN" "http://www.w3.org/Graphics/SVG/1.1/DTD/svg11.dtd">
<svg version="1.1" id="Layer_1" xmlns="http://www.w3.org/2000/svg" xmlns:xlink="http://www.w3.org/1999/xlink" x="0px" y="0px"
	 width="208.307px" height="244.886px" viewBox="107.404 -224.765 208.307 244.886"
	 enable-background="new 107.404 -224.765 208.307 244.886" xml:space="preserve">
<g>
	<path fill="#F4F4F4" d="M124.615,2.869c0,2.806-1.047,4.648-3.057,5.527l2.89,10.971c0.125,0.504-0.126,0.754-0.587,0.754h-4.355
		c-0.418,0-0.627-0.209-0.711-0.586l-2.806-10.636h-2.89v10.553c0,0.419-0.25,0.669-0.67,0.669h-4.355
		c-0.418,0-0.67-0.251-0.67-0.669v-32.161c0-0.418,0.251-0.67,0.67-0.67h10.511c3.936,0,6.03,2.094,6.03,6.03V2.869L124.615,2.869z
		 M117.245,3.371c1.088,0,1.675-0.586,1.675-1.675v-7.873c0-1.088-0.586-1.674-1.675-1.674h-4.146V3.372L117.245,3.371
		L117.245,3.371z"/>
	<path fill="#F4F4F4" d="M127.962-7.349c0-3.936,2.093-6.03,6.029-6.03h4.691c3.936,0,6.029,2.094,6.029,6.03v21.44
		c0,3.935-2.094,6.029-6.029,6.029h-4.691c-3.936,0-6.029-2.094-6.029-6.029V-7.349z M137.635,14.719
		c1.088,0,1.675-0.545,1.675-1.675V-6.302c0-1.088-0.587-1.675-1.675-1.675h-2.428c-1.089,0-1.676,0.586-1.676,1.675v19.346
		c0,1.129,0.587,1.674,1.676,1.674H137.635L137.635,14.719z"/>
	<path fill="#F4F4F4" d="M165.689-2.827c0,0.419-0.251,0.669-0.67,0.669h-4.187c-0.461,0-0.67-0.25-0.67-0.669v-3.35
		c0-1.088-0.585-1.674-1.674-1.674h-2.178c-1.13,0-1.674,0.586-1.674,1.674V12.92c0,1.13,0.585,1.673,1.674,1.673h2.178
		c1.088,0,1.674-0.544,1.674-1.673V9.569c0-0.419,0.209-0.67,0.67-0.67h4.187c0.42,0,0.67,0.251,0.67,0.67v4.523
		c0,3.935-2.136,6.029-6.03,6.029h-4.69c-3.936,0-6.072-2.094-6.072-6.029V-7.349c0-3.936,2.136-6.03,6.072-6.03h4.69
		c3.894,0,6.03,2.094,6.03,6.03V-2.827z"/>
	<path fill="#F4F4F4" d="M183.357,20.121c-0.502,0-0.794-0.209-0.963-0.627l-5.275-12.437l-1.55,2.973v9.253
		c0,0.544-0.292,0.838-0.837,0.838h-4.02c-0.544,0-0.838-0.293-0.838-0.838v-31.825c0-0.544,0.293-0.837,0.838-0.837h4.02
		c0.544,0,0.837,0.293,0.837,0.837V0.44l6.448-13.191c0.21-0.418,0.504-0.628,0.964-0.628h4.396c0.629,0,0.88,0.419,0.585,1.005
		L180.845,2.24l7.578,16.918c0.293,0.544,0.042,0.963-0.627,0.963H183.357z"/>
	<path fill="#F4F4F4" d="M208.188-8.521c0,0.418-0.168,0.711-0.671,0.711h-10.469v8.375h7.999c0.42,0,0.67,0.251,0.67,0.711v4.146
		c0,0.461-0.251,0.712-0.67,0.712h-7.999v8.458h10.469c0.504,0,0.671,0.209,0.671,0.67v4.188c0,0.418-0.168,0.668-0.671,0.668
		h-15.409c-0.377,0-0.628-0.251-0.628-0.668v-32.161c0-0.418,0.251-0.67,0.628-0.67h15.409c0.504,0,0.671,0.251,0.671,0.67V-8.521z"
		/>
	<path fill="#F4F4F4" d="M227.616-13.379c0.461,0,0.67,0.251,0.67,0.67v4.188c0,0.418-0.209,0.67-0.67,0.67h-4.857v27.303
		c0,0.46-0.209,0.668-0.67,0.668h-4.354c-0.42,0-0.67-0.208-0.67-0.668V-7.851h-4.856c-0.421,0-0.671-0.251-0.671-0.67v-4.188
		c0-0.418,0.251-0.67,0.671-0.67H227.616z"/>
	<path fill="#F4F4F4" d="M227.865,15.43c0-0.544,0.293-0.837,0.838-0.837h3.811c0.544,0,0.837,0.292,0.837,0.837v3.852
		c0,0.546-0.293,0.838-0.837,0.838h-3.811c-0.545,0-0.838-0.292-0.838-0.838V15.43z"/>
	<path fill="#F4F4F4" d="M254.329-2.827c0,0.419-0.253,0.669-0.671,0.669h-4.188c-0.46,0-0.669-0.25-0.669-0.669v-3.35
		c0-1.088-0.586-1.674-1.675-1.674h-2.177c-1.131,0-1.676,0.586-1.676,1.674V12.92c0,1.13,0.587,1.673,1.676,1.673h2.177
		c1.089,0,1.675-0.544,1.675-1.673V9.569c0-0.419,0.209-0.67,0.669-0.67h4.188c0.421,0,0.671,0.251,0.671,0.67v4.523
		c0,3.935-2.137,6.029-6.031,6.029h-4.689c-3.937,0-6.071-2.094-6.071-6.029V-7.349c0-3.936,2.135-6.03,6.071-6.03h4.689
		c3.895,0,6.031,2.094,6.031,6.03V-2.827z"/>
	<path fill="#F4F4F4" d="M269.568-12.709c0-0.418,0.251-0.67,0.67-0.67h4.312c0.503,0,0.711,0.251,0.711,0.67v32.161
		c0,0.418-0.21,0.668-0.711,0.668h-4.312c-0.42,0-0.67-0.251-0.67-0.668V6.135h-5.36v13.317c0,0.419-0.251,0.669-0.669,0.669h-4.312
		c-0.504,0-0.713-0.251-0.713-0.669v-32.161c0-0.418,0.209-0.67,0.713-0.67h4.312c0.419,0,0.669,0.251,0.669,0.67V0.607h5.36
		V-12.709L269.568-12.709z"/>
	<path fill="#F4F4F4" d="M294.357,20.121c-0.378,0-0.585-0.209-0.671-0.586l-1.172-6.113h-7.454l-1.129,6.113
		c-0.084,0.377-0.293,0.586-0.671,0.586h-4.479c-0.46,0-0.671-0.251-0.546-0.711l6.952-32.202c0.084-0.418,0.334-0.586,0.711-0.586
		h5.82c0.378,0,0.629,0.168,0.712,0.586l6.952,32.202c0.084,0.46-0.083,0.711-0.586,0.711H294.357z M288.787-6.051l-2.68,14.614
		h5.36L288.787-6.051z"/>
	<path fill="#F4F4F4" d="M315.041-13.379c0.461,0,0.67,0.251,0.67,0.67v4.188c0,0.418-0.209,0.67-0.67,0.67h-4.855v27.303
		c0,0.46-0.211,0.668-0.671,0.668h-4.355c-0.418,0-0.67-0.208-0.67-0.668V-7.851h-4.855c-0.419,0-0.67-0.251-0.67-0.67v-4.188
		c0-0.418,0.252-0.67,0.67-0.67H315.041z"/>
</g>
<g>
	<path fill="#C1272D" d="M315.711-136.285c0-10.461-3.129-20.489-9.302-29.814c-5.543-8.37-13.311-15.778-23.079-22.022
		c-18.868-12.051-43.665-18.69-69.822-18.69c-8.735,0-17.349,0.738-25.702,2.201c-5.181-4.851-11.248-9.215-17.666-12.665
		c-34.296-16.622-62.735-0.391-62.735-0.391s26.441,21.723,22.141,40.762c-11.83,11.735-18.242,25.887-18.242,40.619
		c0,0.046,0.004,0.094,0.004,0.142c0,0.045-0.004,0.091-0.004,0.141c0,14.732,6.412,28.884,18.242,40.617
		c4.301,19.042-22.141,40.763-22.141,40.763s28.439,16.23,62.735-0.39c6.418-3.45,12.483-7.815,17.666-12.664
		c8.355,1.46,16.967,2.199,25.702,2.199c26.157,0,50.954-6.636,69.822-18.685c9.769-6.246,17.536-13.651,23.079-22.024
		c6.173-9.325,9.302-19.356,9.302-29.813c0-0.048-0.002-0.094-0.002-0.141C315.709-136.189,315.711-136.239,315.711-136.285z"/>
	<path fill="#FFFFFF" d="M213.508-192.022c48.433,0,87.699,25.081,87.699,56.018c0,30.936-39.267,56.019-87.699,56.019
		c-10.784,0-21.113-1.249-30.653-3.521c-9.697,11.665-31.03,27.885-51.756,22.643c6.741-7.239,16.729-19.473,14.589-39.626
		c-12.421-9.664-19.877-22.033-19.877-35.514C125.809-166.944,165.075-192.022,213.508-192.022"/>
	<g>
		<g>
			<circle fill="#C1272D" cx="213.508" cy="-134.201" r="11.65"/>
		</g>
		<g>
			<circle fill="#C1272D" cx="254.013" cy="-134.201" r="11.65"/>
		</g>
		<g>
			<circle fill="#C1272D" cx="173.003" cy="-134.201" r="11.648"/>
		</g>
	</g>
	<g>
		<path fill="#CCCCCC" d="M213.508-87.359c-10.784,0-21.113-1.081-30.653-3.05c-8.564,8.926-26.2,20.929-44.477,20.488
			c-2.408,3.649-5.025,6.632-7.279,9.057c20.726,5.241,42.059-10.978,51.756-22.645c9.54,2.274,19.871,3.521,30.653,3.521
			c48.045,0,87.062-24.683,87.683-55.278C300.569-108.747,261.553-87.359,213.508-87.359z"/>
	</g>
</g>
</svg>
