<?xml version="1.0" encoding="utf-8"?>
<!-- Generator: Adobe Illustrator 16.0.0, SVG Export Plug-In . SVG Version: 6.00 Build 0)  -->
<!DOCTYPE svg PUBLIC "-//W3C//DTD SVG 1.1//EN" "http://www.w3.org/Graphics/SVG/1.1/DTD/svg11.dtd">
<svg version="1.1" id="Layer_1" xmlns="http://www.w3.org/2000/svg" xmlns:xlink="http://www.w3.org/1999/xlink" x="0px" y="0px"
	 width="1077.17px" height="1077.17px" viewBox="0 0 1077.17 1077.17" enable-background="new 0 0 1077.17 1077.17"
	 xml:space="preserve">
<g>
	<path id="path575" fill="#FFFFFF" stroke="#000000" stroke-width="30" stroke-linejoin="round" d="M440.162,462.711
		c5.802-9.003,32.808-75.777,52.237-67.409c69.708,28.054,169.222-18.294,162.5,163.529
		c135.049,136.139-39.165,141.776-166.247,88.959C363.062,595.642,287.903,463.73,440.162,462.711L440.162,462.711z"/>
	<path id="path576" stroke="#000000" stroke-width="5" d="M437.524,457.169c55.997,89.654,203.771,121.643,221.187,99.231
		c3.446,12.347-15.625,32.63-15.625,32.63c-56.674,29.017-220.543-61.486-223.406-102.968
		C421.67,476.319,434.876,459.914,437.524,457.169L437.524,457.169z"/>
	<path id="path578" fill="#999999" d="M486.603,414.301c27.731-10.848,109.574,48.87,116.49,67.486
		C598.699,507.386,488.72,446,486.603,414.301z"/>
</g>
<g>
</g>
<g>
</g>
<g>
</g>
<g>
</g>
<g>
</g>
<g>
</g>
<g>
</g>
<g>
</g>
<g>
</g>
<g>
</g>
<g>
</g>
<g>
</g>
<g>
</g>
<g>
</g>
<g>
</g>
</svg>
