<?xml version="1.0" encoding="utf-8"?>
<!-- Generator: Adobe Illustrator 16.0.0, SVG Export Plug-In . SVG Version: 6.00 Build 0)  -->
<!DOCTYPE svg PUBLIC "-//W3C//DTD SVG 1.1//EN" "http://www.w3.org/Graphics/SVG/1.1/DTD/svg11.dtd">
<svg version="1.1" id="Layer_1" xmlns="http://www.w3.org/2000/svg" xmlns:xlink="http://www.w3.org/1999/xlink" x="0px" y="0px"
	 width="533.333px" height="533.333px" viewBox="0 0 533.333 533.333" enable-background="new 0 0 533.333 533.333"
	 xml:space="preserve">
<title>Layer 1</title>
<g>
	<path id="path575" fill="#FFFFFF" stroke="#000000" stroke-width="10" stroke-linejoin="round" d="M114.601,229.017
		c2.914-12.972,5.827-102.336,32.049-100.895c93.232,2.882,189.379-93.688,259.305,121.073
		c215.6,100.895,14.99,181.97-155.693,174.764C81.604,416.898-62.396,295.319,114.601,229.017L114.601,229.017z"/>
	<path id="path576" stroke="#000000" stroke-width="5" d="M107.23,260.843c107.801,67.744,285.527,25.945,292.81-7.207
		c10.197,11.531,0,43.241,0,43.241c-46.617,60.536-272.416,47.565-297.18,4.324C99.946,289.671,105.773,265.167,107.23,260.843
		L107.23,260.843z"/>
	<path id="path590" fill="#AAAAAA" d="M124.712,276.699c17.48,8.648,71.381,20.179,91.775,21.62
		c14.568,10.089,7.284,25.944,1.457,37.476c-39.333,0-84.492-10.09-96.146-23.062C114.515,299.76,117.428,289.671,124.712,276.699z"
		/>
	<path fill="#AAAAAA" d="M295.197,195.016c11.774-1.917,18.766-6.223,17.438-13.447c-16.023-18.738-136.936-53.33-164.615-28.827
		c0.974,2.19,2.463,4.336,4.392,6.431L295.197,195.016z"/>
</g>
</svg>
