<?xml version="1.0" encoding="utf-8"?>
<!-- Generator: Adobe Illustrator 16.0.0, SVG Export Plug-In . SVG Version: 6.00 Build 0)  -->
<!DOCTYPE svg PUBLIC "-//W3C//DTD SVG 1.1//EN" "http://www.w3.org/Graphics/SVG/1.1/DTD/svg11.dtd">
<svg version="1.1" id="Layer_1" xmlns="http://www.w3.org/2000/svg" xmlns:xlink="http://www.w3.org/1999/xlink" x="0px" y="0px"
	 width="1077.17px" height="1077.17px" viewBox="0 0 1077.17 1077.17" enable-background="new 0 0 1077.17 1077.17"
	 xml:space="preserve">
<path id="path575" fill="#FFFFFF" stroke="#000000" stroke-width="10" stroke-linejoin="round" d="M424.703,450.58
	c6.728-10.439,38.041-87.865,60.57-78.163c80.828,32.53,196.217-21.212,188.423,189.616
	c156.593,157.856-45.412,164.394-192.767,103.15C335.304,604.716,248.156,451.761,424.703,450.58L424.703,450.58z"/>
<path id="path576" stroke="#000000" stroke-width="5" d="M423.756,452.38c62.518,100.095,227.502,135.809,246.946,110.788
	c3.849,13.784-17.444,36.43-17.444,36.43c-63.273,32.396-246.229-68.647-249.424-114.96
	C406.056,473.76,420.799,455.444,423.756,452.38L423.756,452.38z"/>
<path id="path578" fill="#231F20" d="M478.553,394.448c32.155-12.579,127.054,56.666,135.073,78.252
	C608.531,502.381,481.008,431.203,478.553,394.448z"/>
<g>
</g>
<g>
</g>
<g>
</g>
<g>
</g>
<g>
</g>
<g>
</g>
<g>
</g>
<g>
</g>
<g>
</g>
<g>
</g>
<g>
</g>
<g>
</g>
<g>
</g>
<g>
</g>
<g>
</g>
</svg>
