<?xml version="1.0" encoding="utf-8"?>
<!-- Generator: Adobe Illustrator 16.0.0, SVG Export Plug-In . SVG Version: 6.00 Build 0)  -->
<!DOCTYPE svg PUBLIC "-//W3C//DTD SVG 1.1//EN" "http://www.w3.org/Graphics/SVG/1.1/DTD/svg11.dtd">
<svg version="1.1" xmlns="http://www.w3.org/2000/svg" xmlns:xlink="http://www.w3.org/1999/xlink" x="0px" y="0px" width="506px"
	 height="692px" viewBox="0 0 506 692" enable-background="new 0 0 506 692" xml:space="preserve">
<g id="Layer_3">
</g>
<g id="Layer_1">
	<g>
		<path fill="#717171" d="M216.825,172.31v11.357h-1.727v-15.68h2.407l1.971,9.385v-9.385h1.709v15.68h-1.971L216.825,172.31z"/>
		<path fill="#717171" d="M222.403,171.75c0-2.509,1.029-3.942,2.913-3.942c1.884,0,2.913,1.434,2.913,3.942v8.154
			c0,2.509-1.029,3.942-2.913,3.942c-1.883,0-2.913-1.434-2.913-3.942V171.75z M224.322,180.061c0,1.12,0.384,1.546,0.994,1.546
			s0.994-0.426,0.994-1.546v-8.467c0-1.12-0.384-1.545-0.994-1.545s-0.994,0.426-0.994,1.545V180.061z"/>
		<path fill="#717171" d="M228.941,167.987h5.93v2.24h-2.006v13.44h-1.918v-13.44h-2.006V167.987z"/>
		<path fill="#717171" d="M235.741,167.987h1.918v15.68h-1.918V167.987z"/>
		<path fill="#717171" d="M240.972,174.954h2.477v2.24h-2.477v6.474h-1.918v-15.68h5.075v2.24h-3.157V174.954z"/>
		<path fill="#717171" d="M245.05,167.987h1.918v15.68h-1.918V167.987z"/>
		<path fill="#717171" d="M253.926,177.821v2.083c0,2.509-0.977,3.942-2.86,3.942c-1.883,0-2.86-1.434-2.86-3.942v-8.154
			c0-2.509,0.977-3.942,2.86-3.942c1.884,0,2.86,1.434,2.86,3.942v1.523h-1.814v-1.68c0-1.12-0.384-1.545-0.994-1.545
			s-0.994,0.426-0.994,1.545v8.467c0,1.12,0.384,1.523,0.994,1.523s0.994-0.403,0.994-1.523v-2.24H253.926z"/>
		<path fill="#717171" d="M261.301,183.667h-1.936l-0.332-2.845h-2.354l-0.332,2.845h-1.761l1.953-15.68h2.808L261.301,183.667z
			 M256.923,178.694h1.849l-0.924-7.93L256.923,178.694z"/>
		<path fill="#717171" d="M261.002,167.987h5.93v2.24h-2.006v13.44h-1.918v-13.44h-2.006V167.987z"/>
		<path fill="#717171" d="M267.802,167.987h1.918v15.68h-1.918V167.987z"/>
		<path fill="#717171" d="M270.957,171.75c0-2.509,1.029-3.942,2.913-3.942c1.884,0,2.913,1.434,2.913,3.942v8.154
			c0,2.509-1.029,3.942-2.913,3.942c-1.883,0-2.913-1.434-2.913-3.942V171.75z M272.875,180.061c0,1.12,0.384,1.546,0.994,1.546
			s0.994-0.426,0.994-1.546v-8.467c0-1.12-0.384-1.545-0.994-1.545s-0.994,0.426-0.994,1.545V180.061z"/>
		<path fill="#717171" d="M279.727,172.31v11.357H278v-15.68h2.407l1.971,9.385v-9.385h1.709v15.68h-1.971L279.727,172.31z"/>
		<path fill="#717171" d="M288.043,167.808c1.866,0,2.826,1.434,2.826,3.942v0.605h-1.814v-0.762c0-1.12-0.349-1.545-0.959-1.545
			s-0.959,0.426-0.959,1.545c0,3.226,3.75,3.831,3.75,8.311c0,2.509-0.977,3.942-2.86,3.942c-1.883,0-2.86-1.434-2.86-3.942v-1.075
			h1.813v1.232c0,1.12,0.384,1.523,0.994,1.523s0.994-0.403,0.994-1.523c0-3.226-3.75-3.83-3.75-8.311
			C285.218,169.241,286.177,167.808,288.043,167.808z"/>
	</g>
	<g>
		<path fill="#717171" d="M239.555,163.475h-1.719v-14.046h1.719v6.02h1.953v-6.02h1.75v14.046h-1.75v-6.02h-1.953V163.475z"/>
		<path fill="#717171" d="M246.146,149.429v10.835c0,1.003,0.344,1.364,0.891,1.364s0.891-0.361,0.891-1.364v-10.835h1.625v10.695
			c0,2.248-0.875,3.532-2.562,3.532s-2.562-1.284-2.562-3.532v-10.695H246.146z"/>
		<path fill="#717171" d="M255.861,152.66v0.502c0,1.445-0.344,2.368-1.109,2.829c0.922,0.461,1.281,1.525,1.281,3.01v1.144
			c0,2.167-0.891,3.331-2.609,3.331h-2.703v-14.046h2.594C255.096,149.429,255.861,150.493,255.861,152.66z M252.439,151.436v3.712
			h0.672c0.641,0,1.031-0.361,1.031-1.485v-0.782c0-1.003-0.266-1.445-0.875-1.445H252.439z M252.439,157.154v4.314h0.984
			c0.578,0,0.891-0.341,0.891-1.385v-1.224c0-1.304-0.328-1.706-1.109-1.706H252.439z"/>
		<path fill="#717171" d="M256.921,152.8c0-2.247,0.922-3.531,2.609-3.531s2.609,1.284,2.609,3.531v7.304
			c0,2.248-0.922,3.532-2.609,3.532s-2.609-1.284-2.609-3.532V152.8z M258.64,160.245c0,1.003,0.344,1.384,0.891,1.384
			s0.891-0.381,0.891-1.384v-7.585c0-1.003-0.344-1.384-0.891-1.384s-0.891,0.381-0.891,1.384V160.245z"/>
		<path fill="#717171" d="M262.778,149.429h5.312v2.007h-1.797v12.039h-1.719v-12.039h-1.797V149.429z"/>
	</g>
	<g>
		<path fill="#717171" d="M200.385,210.883c0.361,0.041,0.783,0.041,1.144,0.041c1.053,0,1.896-0.533,1.896-2.747v-21.894h3.31
			v21.566c0,5.74-2.257,7.216-4.754,7.216c-0.602,0-1.053,0-1.595-0.082V210.883z"/>
		<path fill="#717171" d="M219.702,214.983h-3.34l-0.572-5.207h-4.062l-0.572,5.207h-3.039l3.37-28.7h4.844L219.702,214.983z
			 M212.15,205.881h3.189l-1.595-14.514L212.15,205.881z"/>
		<path fill="#717171" d="M225.479,209.694l2.527-23.411h3.039l-3.25,28.7h-4.935l-3.25-28.7h3.34L225.479,209.694z"/>
		<path fill="#717171" d="M242.539,214.983h-3.34l-0.572-5.207h-4.062l-0.572,5.207h-3.039l3.37-28.7h4.844L242.539,214.983z
			 M234.987,205.881h3.189l-1.595-14.514L234.987,205.881z"/>
		<path fill="#717171" d="M248.526,185.955c3.219,0,4.875,2.624,4.875,7.216v1.107h-3.129v-1.394c0-2.05-0.602-2.829-1.655-2.829
			c-1.053,0-1.655,0.779-1.655,2.829c0,5.904,6.469,7.011,6.469,15.211c0,4.592-1.685,7.216-4.935,7.216
			c-3.25,0-4.935-2.624-4.935-7.216v-1.968h3.129v2.255c0,2.05,0.662,2.788,1.715,2.788s1.715-0.738,1.715-2.788
			c0-5.904-6.47-7.011-6.47-15.211C243.651,188.579,245.307,185.955,248.526,185.955z"/>
		<path fill="#717171" d="M264.924,204.282v3.813c0,4.592-1.685,7.216-4.935,7.216c-3.25,0-4.935-2.624-4.935-7.216v-14.924
			c0-4.592,1.685-7.216,4.935-7.216c3.25,0,4.935,2.624,4.935,7.216v2.788h-3.129v-3.075c0-2.05-0.662-2.829-1.715-2.829
			s-1.715,0.779-1.715,2.829v15.498c0,2.05,0.662,2.788,1.715,2.788s1.715-0.738,1.715-2.788v-4.1H264.924z"/>
		<path fill="#717171" d="M273.86,214.983c-0.181-0.738-0.301-1.189-0.301-3.526v-4.51c0-2.665-0.662-3.649-2.166-3.649h-1.144
			v11.685h-3.31v-28.7h4.995c3.43,0,4.905,2.173,4.905,6.601v2.255c0,2.952-0.692,4.879-2.167,5.822
			c1.655,0.943,2.196,3.116,2.196,6.109v4.428c0,1.394,0.03,2.419,0.361,3.485H273.86z M270.249,190.383v8.815h1.294
			c1.233,0,1.986-0.738,1.986-3.034v-2.829c0-2.05-0.512-2.952-1.685-2.952H270.249z"/>
		<path fill="#717171" d="M279.034,186.283h3.31v28.7h-3.31V186.283z"/>
		<path fill="#717171" d="M294.56,193.375v3.731c0,4.592-1.625,7.093-4.935,7.093h-1.564v10.783h-3.31v-28.7h4.875
			C292.935,186.283,294.56,188.784,294.56,193.375z M288.06,190.383v9.717h1.564c1.053,0,1.625-0.656,1.625-2.706v-4.305
			c0-2.05-0.572-2.706-1.625-2.706H288.06z"/>
		<path fill="#717171" d="M295.19,186.283h10.231v4.1h-3.46v24.6h-3.31v-24.6h-3.46V186.283z"/>
	</g>
	<g>
		<path fill="#717171" d="M199.912,230.644h4.333v4.213h-4.333v12.175h-3.357v-29.491h8.88v4.213h-5.523V230.644z"/>
		<path fill="#717171" d="M207.053,217.541h3.357v29.491h-3.357V217.541z"/>
		<path fill="#717171" d="M212.85,217.541h3.357v25.278h5.523v4.213h-8.88V217.541z"/>
		<path fill="#717171" d="M226.613,229.969h4.608v4.213h-4.608v8.637h5.798v4.213h-9.155v-29.491h9.155v4.213h-5.798V229.969z"/>
		<path fill="#717171" d="M234.333,230.18h6.104v4.213h-6.104V230.18z"/>
		<path fill="#717171" d="M245.93,217.541v22.75c0,2.106,0.671,2.865,1.739,2.865s1.739-0.758,1.739-2.865v-22.75h3.174v22.455
			c0,4.719-1.709,7.415-5.005,7.415s-5.005-2.696-5.005-7.415v-22.455H245.93z"/>
		<path fill="#717171" d="M264.819,224.83v3.833c0,4.719-1.648,7.289-5.005,7.289h-1.587v11.08h-3.357v-29.491h4.944
			C263.171,217.541,264.819,220.111,264.819,224.83z M258.227,221.754v9.985h1.587c1.068,0,1.648-0.674,1.648-2.781v-4.423
			c0-2.106-0.58-2.781-1.648-2.781H258.227z"/>
		<path fill="#717171" d="M266.375,217.541h3.357v25.278h5.524v4.213h-8.881V217.541z"/>
		<path fill="#717171" d="M276.506,224.619c0-4.718,1.8-7.415,5.096-7.415s5.096,2.696,5.096,7.415v15.335
			c0,4.718-1.8,7.415-5.096,7.415s-5.096-2.696-5.096-7.415V224.619z M279.862,240.249c0,2.106,0.672,2.907,1.74,2.907
			s1.74-0.8,1.74-2.907v-15.925c0-2.106-0.672-2.907-1.74-2.907s-1.74,0.8-1.74,2.907V240.249z"/>
		<path fill="#717171" d="M299.699,247.032h-3.387l-0.58-5.351h-4.12l-0.58,5.351h-3.083l3.418-29.491h4.914L299.699,247.032z
			 M292.039,237.679h3.234l-1.617-14.914L292.039,237.679z"/>
		<path fill="#717171" d="M301.254,217.541h5.31c3.357,0,5.005,2.57,5.005,7.289v14.914c0,4.719-1.648,7.289-5.005,7.289h-5.31
			V217.541z M304.611,221.754v21.065h1.892c1.068,0,1.709-0.758,1.709-2.865v-15.335c0-2.106-0.641-2.865-1.709-2.865H304.611z"/>
	</g>
	<g>
		<path fill="#717171" d="M184.517,264.254h4.906v4.642h-4.906v13.415h-3.8v-32.492h10.053v4.642h-6.253V264.254z"/>
		<path fill="#717171" d="M192.599,249.818h3.8v32.492h-3.8V249.818z"/>
		<path fill="#717171" d="M199.161,249.818h3.8v27.851h6.253v4.642h-10.053V249.818z"/>
		<path fill="#717171" d="M214.739,263.512h5.216v4.642h-5.216v9.516h6.563v4.642h-10.364v-32.492h10.364v4.642h-6.563V263.512z"/>
		<path fill="#717171" d="M223.477,263.744h6.909v4.642h-6.909V263.744z"/>
		<path fill="#717171" d="M238.088,249.447c3.696,0,5.596,2.971,5.596,8.169v1.253h-3.593v-1.578c0-2.321-0.69-3.203-1.9-3.203
			c-1.209,0-1.9,0.882-1.9,3.203c0,6.684,7.427,7.938,7.427,17.221c0,5.198-1.935,8.169-5.666,8.169s-5.666-2.971-5.666-8.169
			v-2.229h3.593v2.553c0,2.321,0.76,3.156,1.969,3.156s1.969-0.835,1.969-3.156c0-6.684-7.427-7.938-7.427-17.221
			C232.492,252.418,234.392,249.447,238.088,249.447z"/>
		<path fill="#717171" d="M249.693,282.311h-3.8v-32.492h3.8v13.925h4.318v-13.925h3.869v32.492h-3.869v-13.925h-4.318V282.311z"/>
		<path fill="#717171" d="M272.94,282.311h-3.834l-0.657-5.895h-4.664l-0.656,5.895h-3.489l3.869-32.492h5.562L272.94,282.311z
			 M264.27,272.006h3.662l-1.831-16.432L264.27,272.006z"/>
		<path fill="#717171" d="M282.646,282.311c-0.207-0.835-0.345-1.346-0.345-3.992v-5.106c0-3.017-0.76-4.131-2.487-4.131H278.5
			v13.229h-3.8v-32.492h5.734c3.938,0,5.631,2.46,5.631,7.473v2.553c0,3.342-0.794,5.523-2.487,6.591
			c1.9,1.067,2.522,3.527,2.522,6.916v5.013c0,1.578,0.034,2.738,0.414,3.945H282.646z M278.5,254.46v9.98h1.486
			c1.417,0,2.28-0.835,2.28-3.435v-3.203c0-2.321-0.587-3.342-1.935-3.342H278.5z"/>
		<path fill="#717171" d="M288.585,249.818h3.8v32.492h-3.8V249.818z"/>
		<path fill="#717171" d="M298.533,258.777v23.534h-3.42v-32.492h4.768l3.904,19.449v-19.449h3.385v32.492h-3.904L298.533,258.777z"
			/>
		<path fill="#717171" d="M315.596,264.208h5.32v10.305c0,5.198-1.935,8.169-5.666,8.169s-5.666-2.971-5.666-8.169v-16.896
			c0-5.199,1.935-8.169,5.666-8.169s5.666,2.971,5.666,8.169v3.156h-3.593v-3.481c0-2.321-0.76-3.203-1.969-3.203
			c-1.209,0-1.969,0.882-1.969,3.203v17.546c0,2.321,0.76,3.156,1.969,3.156c1.209,0,1.969-0.835,1.969-3.156v-5.988h-1.727V264.208
			z"/>
	</g>
	<g>
		<path fill="#717171" d="M324.429,271.665h1.175v8.615h1.934v1.436h-3.108V271.665z"/>
		<path fill="#717171" d="M328.072,271.665h1.858c1.175,0,1.752,0.875,1.752,2.484v5.083c0,1.608-0.577,2.484-1.752,2.484h-1.858
			V271.665z M329.247,273.101v7.179h0.662c0.374,0,0.599-0.258,0.599-0.976v-5.227c0-0.718-0.225-0.977-0.599-0.977H329.247z"/>
		<path fill="#717171" d="M336.224,281.716h-1.186l-0.203-1.824h-1.442l-0.203,1.824h-1.079l1.196-10.051h1.72L336.224,281.716z
			 M333.542,278.528h1.132l-0.566-5.083L333.542,278.528z"/>
		<path fill="#717171" d="M340.251,274.149v1.307c0,1.608-0.577,2.484-1.751,2.484h-0.556v3.776h-1.175v-10.051h1.73
			C339.675,271.665,340.251,272.541,340.251,274.149z M337.944,273.101v3.403h0.556c0.374,0,0.577-0.23,0.577-0.948v-1.508
			c0-0.718-0.203-0.948-0.577-0.948H337.944z"/>
	</g>
	<g>
		<path fill="#717171" d="M161.081,321.33v1.673c0,2.015-0.75,3.167-2.195,3.167s-2.194-1.151-2.194-3.167v-6.548
			c0-2.015,0.749-3.166,2.194-3.166s2.195,1.151,2.195,3.166v1.223h-1.392v-1.349c0-0.899-0.294-1.241-0.763-1.241
			c-0.468,0-0.763,0.342-0.763,1.241v6.8c0,0.899,0.294,1.224,0.763,1.224c0.469,0,0.763-0.324,0.763-1.224v-1.799H161.081z"/>
		<path fill="#717171" d="M161.857,316.455c0-2.015,0.79-3.166,2.234-3.166c1.445,0,2.235,1.151,2.235,3.166v6.548
			c0,2.015-0.79,3.167-2.235,3.167c-1.445,0-2.234-1.151-2.234-3.167V316.455z M163.329,323.129c0,0.899,0.294,1.241,0.763,1.241
			c0.469,0,0.763-0.342,0.763-1.241v-6.8c0-0.899-0.294-1.241-0.763-1.241c-0.468,0-0.763,0.342-0.763,1.241V323.129z"/>
		<path fill="#717171" d="M170.354,326.025c-0.081-0.324-0.134-0.521-0.134-1.547V322.5c0-1.169-0.294-1.601-0.964-1.601h-0.508
			v5.127h-1.472v-12.593h2.222c1.525,0,2.181,0.954,2.181,2.896v0.99c0,1.295-0.308,2.141-0.963,2.554
			c0.736,0.414,0.977,1.368,0.977,2.681v1.943c0,0.612,0.014,1.062,0.161,1.529H170.354z M168.749,315.231v3.868h0.575
			c0.549,0,0.883-0.324,0.883-1.331v-1.242c0-0.899-0.228-1.295-0.75-1.295H168.749z"/>
		<path fill="#717171" d="M172.656,313.432h2.329c1.472,0,2.195,1.098,2.195,3.112v6.369c0,2.015-0.723,3.112-2.195,3.112h-2.329
			V313.432z M174.128,315.231v8.995h0.83c0.468,0,0.75-0.324,0.75-1.224v-6.548c0-0.899-0.281-1.223-0.75-1.223H174.128z"/>
		<path fill="#717171" d="M177.996,316.455c0-2.015,0.79-3.166,2.234-3.166c1.445,0,2.235,1.151,2.235,3.166v6.548
			c0,2.015-0.79,3.167-2.235,3.167c-1.445,0-2.234-1.151-2.234-3.167V316.455z M179.467,323.129c0,0.899,0.294,1.241,0.763,1.241
			c0.469,0,0.763-0.342,0.763-1.241v-6.8c0-0.899-0.294-1.241-0.763-1.241c-0.468,0-0.763,0.342-0.763,1.241V323.129z"/>
		<path fill="#717171" d="M185.623,323.705l1.124-10.272h1.352l-1.445,12.593h-2.195l-1.445-12.593h1.486L185.623,323.705z"/>
		<path fill="#717171" d="M193.211,326.025h-1.485l-0.254-2.285h-1.807l-0.254,2.285h-1.352l1.499-12.593h2.154L193.211,326.025z
			 M189.852,322.032h1.418l-0.709-6.369L189.852,322.032z"/>
	</g>
	<g>
		<path fill="#717171" d="M163.746,310.588c-0.06-0.242-0.1-0.39-0.1-1.156v-1.479c0-0.874-0.22-1.196-0.721-1.196h-0.38v3.831
			h-1.101v-9.41h1.662c1.141,0,1.631,0.712,1.631,2.165v0.739c0,0.968-0.23,1.6-0.721,1.909c0.551,0.31,0.731,1.022,0.731,2.003
			v1.452c0,0.457,0.01,0.793,0.12,1.143H163.746z M162.544,302.522v2.89h0.43c0.411,0,0.661-0.242,0.661-0.995v-0.927
			c0-0.672-0.17-0.968-0.561-0.968H162.544z"/>
		<path fill="#717171" d="M166.567,305.144h1.512v1.344h-1.512v2.756h1.902v1.344h-3.003v-9.41h3.003v1.344h-1.902V305.144z"/>
		<path fill="#717171" d="M170.63,301.07c1.071,0,1.622,0.86,1.622,2.366v0.363h-1.041v-0.457c0-0.672-0.2-0.928-0.551-0.928
			c-0.35,0-0.55,0.255-0.55,0.928c0,1.936,2.152,2.298,2.152,4.987c0,1.505-0.561,2.366-1.642,2.366s-1.642-0.86-1.642-2.366v-0.646
			h1.041v0.739c0,0.672,0.221,0.915,0.571,0.915s0.571-0.242,0.571-0.915c0-1.936-2.152-2.298-2.152-4.987
			C169.009,301.931,169.56,301.07,170.63,301.07z"/>
		<path fill="#717171" d="M172.592,301.178h3.403v1.344h-1.151v8.066h-1.101v-8.066h-1.151V301.178z"/>
		<path fill="#717171" d="M176.124,305.211h2.002v1.344h-2.002V305.211z"/>
		<path fill="#717171" d="M179.977,305.358h1.421v1.344h-1.421v3.885h-1.101v-9.41h2.913v1.344h-1.812V305.358z"/>
		<path fill="#717171" d="M183.37,301.178v7.259c0,0.672,0.22,0.914,0.57,0.914s0.57-0.242,0.57-0.914v-7.259h1.041v7.165
			c0,1.506-0.561,2.366-1.642,2.366s-1.642-0.86-1.642-2.366v-7.165H183.37z"/>
		<path fill="#717171" d="M186.302,301.178h1.101v8.066h1.812v1.344h-2.913V301.178z"/>
		<path fill="#717171" d="M189.714,301.178h1.101v8.066h1.812v1.344h-2.913V301.178z"/>
	</g>
	<g>
		<path fill="#717171" d="M171.225,289.382v1.448c0,1.783-0.639,2.753-1.941,2.753h-0.616v4.186h-1.302v-11.141h1.918
			C170.585,286.629,171.225,287.6,171.225,289.382z M168.667,288.221v3.771h0.616c0.414,0,0.639-0.254,0.639-1.05v-1.671
			c0-0.796-0.225-1.05-0.639-1.05H168.667z"/>
		<path fill="#717171" d="M173.074,286.629v8.594c0,0.796,0.261,1.082,0.675,1.082c0.414,0,0.675-0.286,0.675-1.082v-8.594h1.231
			v8.483c0,1.782-0.663,2.801-1.942,2.801s-1.942-1.019-1.942-2.801v-8.483H173.074z"/>
		<path fill="#717171" d="M180.44,289.191v0.398c0,1.146-0.26,1.878-0.841,2.244c0.699,0.366,0.971,1.209,0.971,2.387v0.907
			c0,1.719-0.675,2.642-1.978,2.642h-2.048v-11.141h1.966C179.86,286.629,180.44,287.473,180.44,289.191z M177.848,288.221v2.944
			h0.509c0.485,0,0.782-0.287,0.782-1.178v-0.621c0-0.795-0.202-1.146-0.663-1.146H177.848z M177.848,292.756v3.422h0.746
			c0.438,0,0.675-0.271,0.675-1.098v-0.971c0-1.034-0.249-1.353-0.841-1.353H177.848z"/>
		<path fill="#717171" d="M181.354,286.629h1.302v9.549h2.144v1.591h-3.446V286.629z"/>
		<path fill="#717171" d="M185.394,286.629h1.303v11.141h-1.303V286.629z"/>
		<path fill="#717171" d="M191.421,293.616v1.48c0,1.783-0.663,2.801-1.942,2.801s-1.942-1.019-1.942-2.801v-5.793
			c0-1.782,0.663-2.801,1.942-2.801s1.942,1.019,1.942,2.801v1.082h-1.231v-1.193c0-0.796-0.261-1.098-0.675-1.098
			c-0.415,0-0.675,0.302-0.675,1.098v6.016c0,0.796,0.261,1.083,0.675,1.083c0.414,0,0.675-0.287,0.675-1.083v-1.591H191.421z"/>
	</g>
	<g>
		<path fill="#717171" d="M329.154,344.206h-1.365v-12.048h1.365v5.164h1.551v-5.164h1.389v12.048h-1.389v-5.164h-1.551V344.206z"/>
		<path fill="#717171" d="M333.087,332.158h1.365v12.048h-1.365V332.158z"/>
		<path fill="#717171" d="M337.28,332.02c1.328,0,2.01,1.102,2.01,3.029v0.465H338v-0.585c0-0.86-0.248-1.188-0.682-1.188
			c-0.435,0-0.683,0.327-0.683,1.188c0,2.479,2.667,2.943,2.667,6.386c0,1.928-0.695,3.029-2.035,3.029s-2.035-1.102-2.035-3.029
			v-0.826h1.291v0.947c0,0.86,0.273,1.17,0.707,1.17s0.707-0.31,0.707-1.17c0-2.479-2.667-2.943-2.667-6.386
			C335.271,333.122,335.953,332.02,337.28,332.02z"/>
		<path fill="#717171" d="M339.713,332.158h4.218v1.721h-1.427v10.327h-1.364v-10.327h-1.427V332.158z"/>
		<path fill="#717171" d="M344.44,335.049c0-1.928,0.732-3.029,2.071-3.029c1.34,0,2.072,1.102,2.072,3.029v6.265
			c0,1.928-0.732,3.029-2.072,3.029c-1.339,0-2.071-1.102-2.071-3.029V335.049z M345.805,341.435c0,0.86,0.273,1.188,0.707,1.188
			c0.435,0,0.708-0.327,0.708-1.188v-6.506c0-0.86-0.273-1.188-0.708-1.188c-0.434,0-0.707,0.327-0.707,1.188V341.435z"/>
		<path fill="#717171" d="M352.319,344.206c-0.075-0.31-0.124-0.499-0.124-1.48v-1.893c0-1.119-0.273-1.532-0.894-1.532h-0.471
			v4.905h-1.365v-12.048h2.06c1.414,0,2.022,0.912,2.022,2.771v0.947c0,1.239-0.285,2.048-0.893,2.444
			c0.682,0.396,0.905,1.309,0.905,2.565v1.859c0,0.585,0.013,1.016,0.149,1.463H352.319z M350.83,333.879v3.701h0.533
			c0.509,0,0.819-0.31,0.819-1.274v-1.188c0-0.86-0.211-1.239-0.695-1.239H350.83z"/>
		<path fill="#717171" d="M355.607,340.213l-1.724-8.055h1.426l1.042,5.491l1.042-5.491h1.302l-1.724,8.055v3.993h-1.365V340.213z"
			/>
	</g>
	<g>
		<path fill="#717171" d="M337.009,353.993v0.944c0,2.72-0.599,4.458-1.934,5.327c1.607,0.869,2.233,2.872,2.233,5.667v2.154
			c0,4.08-1.553,6.271-4.549,6.271h-4.712V347.91h4.521C335.675,347.91,337.009,349.912,337.009,353.993z M331.044,351.688v6.989
			h1.171c1.117,0,1.797-0.68,1.797-2.795v-1.474c0-1.889-0.463-2.72-1.525-2.72H331.044z M331.044,362.456v8.123h1.716
			c1.008,0,1.553-0.642,1.553-2.606v-2.305c0-2.456-0.572-3.211-1.934-3.211H331.044z"/>
		<path fill="#717171" d="M341.505,365.591l-3.786-17.681h3.132l2.288,12.052l2.288-12.052h2.86l-3.786,17.681v8.765h-2.996V365.591
			z"/>
		<path fill="#717171" d="M348.833,354.257c0-4.231,1.607-6.649,4.549-6.649c2.941,0,4.548,2.418,4.548,6.649v13.752
			c0,4.231-1.607,6.649-4.548,6.649c-2.942,0-4.549-2.418-4.549-6.649V354.257z M351.829,368.274c0,1.889,0.599,2.607,1.553,2.607
			c0.953,0,1.552-0.718,1.552-2.607v-14.281c0-1.889-0.599-2.607-1.552-2.607c-0.954,0-1.553,0.718-1.553,2.607V368.274z"/>
		<path fill="#717171" d="M363.896,347.607c2.914,0,4.412,2.418,4.412,6.649v1.021h-2.833v-1.285c0-1.889-0.544-2.607-1.498-2.607
			c-0.953,0-1.498,0.718-1.498,2.607c0,5.44,5.856,6.46,5.856,14.017c0,4.231-1.525,6.649-4.467,6.649s-4.467-2.418-4.467-6.649
			v-1.813h2.833v2.078c0,1.889,0.599,2.569,1.553,2.569c0.953,0,1.552-0.68,1.552-2.569c0-5.44-5.856-6.46-5.856-14.017
			C359.483,350.025,360.981,347.607,363.896,347.607z"/>
	</g>
	<g>
		<path fill="#717171" d="M332.541,389.314h3.713v7.551c0,3.809-1.35,5.986-3.954,5.986c-2.604,0-3.954-2.177-3.954-5.986v-12.38
			c0-3.81,1.35-5.986,3.954-5.986c2.604,0,3.954,2.177,3.954,5.986v2.312h-2.507v-2.551c0-1.701-0.531-2.347-1.375-2.347
			s-1.374,0.646-1.374,2.347v12.856c0,1.701,0.53,2.313,1.374,2.313s1.375-0.612,1.375-2.313v-4.387h-1.206V389.314z"/>
		<path fill="#717171" d="M343.512,402.579c-0.145-0.612-0.241-0.986-0.241-2.925v-3.742c0-2.21-0.53-3.027-1.735-3.027h-0.917
			v9.693h-2.652v-23.808h4.002c2.749,0,3.93,1.802,3.93,5.476v1.871c0,2.449-0.554,4.047-1.736,4.83
			c1.326,0.782,1.76,2.584,1.76,5.067v3.673c0,1.157,0.024,2.007,0.289,2.891H343.512z M340.619,382.171v7.312h1.037
			c0.989,0,1.591-0.612,1.591-2.517v-2.347c0-1.7-0.41-2.449-1.35-2.449H340.619z"/>
		<path fill="#717171" d="M347.443,384.484c0-3.81,1.422-5.986,4.026-5.986c2.604,0,4.026,2.177,4.026,5.986v12.38
			c0,3.809-1.422,5.986-4.026,5.986c-2.604,0-4.026-2.177-4.026-5.986V384.484z M350.095,397.103c0,1.701,0.53,2.347,1.374,2.347
			s1.375-0.646,1.375-2.347v-12.856c0-1.701-0.531-2.347-1.375-2.347s-1.374,0.646-1.374,2.347V397.103z"/>
		<path fill="#717171" d="M359.74,378.771v18.366c0,1.701,0.531,2.313,1.375,2.313s1.374-0.612,1.374-2.313v-18.366h2.507v18.128
			c0,3.81-1.35,5.986-3.954,5.986c-2.604,0-3.954-2.177-3.954-5.986v-18.128H359.74z"/>
		<path fill="#717171" d="M374.665,384.654v3.095c0,3.809-1.302,5.884-3.954,5.884h-1.254v8.945h-2.652v-23.808h3.906
			C373.363,378.771,374.665,380.845,374.665,384.654z M369.457,382.171v8.061h1.254c0.844,0,1.302-0.544,1.302-2.245v-3.571
			c0-1.701-0.458-2.245-1.302-2.245H369.457z"/>
		<path fill="#717171" d="M379.464,378.498c2.58,0,3.906,2.177,3.906,5.986v0.918h-2.507v-1.157c0-1.701-0.482-2.347-1.326-2.347
			c-0.844,0-1.326,0.646-1.326,2.347c0,4.898,5.184,5.816,5.184,12.619c0,3.809-1.35,5.986-3.954,5.986
			c-2.604,0-3.954-2.177-3.954-5.986v-1.633h2.507v1.871c0,1.701,0.53,2.313,1.374,2.313s1.374-0.612,1.374-2.313
			c0-4.897-5.183-5.816-5.183-12.618C375.559,380.675,376.884,378.498,379.464,378.498z"/>
	</g>
	<g>
		<path fill="#717171" d="M233.078,421.855h-1.747l-0.299-2.817h-2.124l-0.299,2.817h-1.589l1.762-15.53h2.533L233.078,421.855z
			 M229.129,416.93h1.667l-0.834-7.854L229.129,416.93z"/>
		<path fill="#717171" d="M239.006,410.163v2.02c0,2.484-0.85,3.838-2.58,3.838h-0.818v5.835h-1.73v-15.53h2.548
			C238.157,406.325,239.006,407.678,239.006,410.163z M235.608,408.544v5.258h0.818c0.551,0,0.85-0.354,0.85-1.464v-2.33
			c0-1.109-0.299-1.464-0.85-1.464H235.608z"/>
		<path fill="#717171" d="M239.807,406.325h1.73v15.53h-1.73V406.325z"/>
		<path fill="#717171" d="M245.123,406.147c1.684,0,2.549,1.42,2.549,3.905v0.599h-1.636v-0.754c0-1.109-0.315-1.531-0.865-1.531
			c-0.551,0-0.865,0.421-0.865,1.531c0,3.195,3.382,3.794,3.382,8.231c0,2.485-0.881,3.905-2.58,3.905s-2.58-1.42-2.58-3.905v-1.064
			h1.636v1.22c0,1.109,0.346,1.509,0.896,1.509c0.551,0,0.897-0.399,0.897-1.509c0-3.194-3.382-3.794-3.382-8.231
			C242.575,407.567,243.44,406.147,245.123,406.147z"/>
	</g>
	<g>
		<path fill="#717171" d="M231.974,425.648l-1.307,5.452l1.398,5.773h-1.319l-1.023-4.442l-1.035,4.442h-1.171l1.398-5.773
			l-1.308-5.452h1.296l0.943,4.137l0.966-4.137H231.974z"/>
		<path fill="#717171" d="M235.338,433.618l0.853-7.97h1.739v11.226h-1.182v-8.051l-0.864,8.051h-1.182l-0.932-7.938v7.938h-1.091
			v-11.226h1.739L235.338,433.618z"/>
		<path fill="#717171" d="M242.543,428.422v1.46c0,1.796-0.614,2.774-1.864,2.774h-0.591v4.218h-1.25v-11.226h1.842
			C241.929,425.648,242.543,426.627,242.543,428.422z M240.087,427.252v3.801h0.591c0.398,0,0.614-0.257,0.614-1.059v-1.684
			c0-0.803-0.216-1.059-0.614-1.059H240.087z"/>
		<path fill="#717171" d="M246.828,428.422v1.46c0,1.796-0.614,2.774-1.864,2.774h-0.591v4.218h-1.25v-11.226h1.842
			C246.214,425.648,246.828,426.627,246.828,428.422z M244.372,427.252v3.801h0.591c0.398,0,0.614-0.257,0.614-1.059v-1.684
			c0-0.803-0.216-1.059-0.614-1.059H244.372z"/>
	</g>
	<g>
		<path fill="#717171" d="M126.788,496.517l0.831-7.766h1.695v10.938h-1.152v-7.844l-0.842,7.844h-1.152l-0.908-7.734v7.734h-1.063
			v-10.938h1.695L126.788,496.517z"/>
		<path fill="#717171" d="M130.096,491.376c0-1.75,0.654-2.75,1.85-2.75s1.85,1,1.85,2.75v5.688c0,1.75-0.654,2.75-1.85,2.75
			s-1.85-1-1.85-2.75V491.376z M131.314,497.173c0,0.781,0.244,1.078,0.631,1.078s0.631-0.297,0.631-1.078v-5.906
			c0-0.781-0.244-1.078-0.631-1.078s-0.631,0.297-0.631,1.078V497.173z"/>
		<path fill="#717171" d="M138.225,491.267v0.391c0,1.125-0.244,1.844-0.787,2.203c0.653,0.359,0.908,1.188,0.908,2.344v0.891
			c0,1.688-0.631,2.594-1.85,2.594h-1.917v-10.938h1.839C137.682,488.751,138.225,489.579,138.225,491.267z M135.798,490.313v2.891
			h0.477c0.454,0,0.731-0.281,0.731-1.156v-0.609c0-0.781-0.188-1.125-0.62-1.125H135.798z M135.798,494.767v3.359h0.698
			c0.41,0,0.632-0.266,0.632-1.078v-0.953c0-1.016-0.233-1.328-0.787-1.328H135.798z"/>
		<path fill="#717171" d="M139.074,488.751h1.219v10.938h-1.219V488.751z"/>
		<path fill="#717171" d="M141.177,488.751h1.219v9.375h2.005v1.562h-3.224V488.751z"/>
		<path fill="#717171" d="M146.171,493.36h1.673v1.562h-1.673v3.203h2.105v1.562h-3.323v-10.938h3.323v1.562h-2.105V493.36z"/>
		<path fill="#717171" d="M152.97,499.688h-1.229l-0.21-1.984h-1.496l-0.21,1.984h-1.119l1.241-10.938h1.783L152.97,499.688z
			 M150.189,496.22h1.174l-0.587-5.531L150.189,496.22z"/>
		<path fill="#717171" d="M157.144,491.454v1.422c0,1.75-0.598,2.703-1.817,2.703h-0.576v4.109h-1.219v-10.938h1.795
			C156.545,488.751,157.144,489.704,157.144,491.454z M154.75,490.313v3.703h0.576c0.388,0,0.598-0.25,0.598-1.031v-1.641
			c0-0.781-0.21-1.031-0.598-1.031H154.75z"/>
		<path fill="#717171" d="M161.317,491.454v1.422c0,1.75-0.599,2.703-1.817,2.703h-0.576v4.109h-1.218v-10.938h1.794
			C160.718,488.751,161.317,489.704,161.317,491.454z M158.924,490.313v3.703h0.576c0.388,0,0.598-0.25,0.598-1.031v-1.641
			c0-0.781-0.21-1.031-0.598-1.031H158.924z"/>
	</g>
	<g>
		<path fill="#717171" d="M173.408,509.895l3.796-36.411h4.565l-4.881,44.637h-7.412l-4.881-44.637h5.017L173.408,509.895z"/>
		<path fill="#717171" d="M184.076,473.483h4.972v44.637h-4.972V473.483z"/>
		<path fill="#717171" d="M192.664,473.483h7.864c4.972,0,7.413,3.89,7.413,11.032v22.573c0,7.142-2.441,11.031-7.413,11.031h-7.864
			V473.483z M197.636,479.86v31.883h2.802c1.582,0,2.531-1.147,2.531-4.336v-23.211c0-3.188-0.949-4.336-2.531-4.336H197.636z"/>
		<path fill="#717171" d="M216.078,492.295h6.825v6.376h-6.825v13.072h8.587v6.377h-13.559v-44.637h13.559v6.377h-8.587V492.295z"/>
		<path fill="#717171" d="M227.333,484.196c0-7.142,2.667-11.223,7.548-11.223c4.881,0,7.548,4.081,7.548,11.223v23.211
			c0,7.142-2.667,11.223-7.548,11.223c-4.881,0-7.548-4.081-7.548-11.223V484.196z M232.305,507.854c0,3.188,0.995,4.4,2.576,4.4
			c1.582,0,2.576-1.212,2.576-4.4V483.75c0-3.188-0.994-4.399-2.576-4.399c-1.582,0-2.576,1.211-2.576,4.399V507.854z"/>
	</g>
	<g>
		<path fill="#717171" d="M264.484,505.952v6.993c0,8.422-3.141,13.234-9.199,13.234c-6.058,0-9.199-4.812-9.199-13.234v-27.371
			c0-8.422,3.141-13.234,9.199-13.234c6.058,0,9.199,4.812,9.199,13.234v5.113h-5.833v-5.64c0-3.76-1.234-5.188-3.197-5.188
			c-1.963,0-3.197,1.429-3.197,5.188v28.424c0,3.76,1.234,5.113,3.197,5.113c1.963,0,3.197-1.354,3.197-5.113v-7.52H264.484z"/>
		<path fill="#717171" d="M274.413,525.578h-6.17v-52.637h6.17V495.5h7.012v-22.559h6.282v52.637h-6.282V503.02h-7.012V525.578z"/>
		<path fill="#717171" d="M312.163,525.578h-6.227l-1.065-9.55h-7.572l-1.066,9.55h-5.665l6.282-52.637h9.031L312.163,525.578z
			 M298.084,508.885h5.946l-2.973-26.619L298.084,508.885z"/>
		<path fill="#717171" d="M311.21,472.941h19.071v7.52h-6.45v45.117h-6.17v-45.117h-6.45V472.941z"/>
	</g>
	<g>
		<path fill="#717171" d="M336.819,479.881l0.786-6.984h1.604v9.837h-1.09v-7.055l-0.797,7.055h-1.09l-0.86-6.956v6.956h-1.006
			v-9.837h1.604L336.819,479.881z"/>
		<path fill="#717171" d="M341.202,477.042h1.583v1.405h-1.583v2.881h1.992v1.405h-3.145v-9.837h3.145v1.405h-1.992V477.042z"/>
		<path fill="#717171" d="M343.907,472.896h1.824c1.153,0,1.719,0.856,1.719,2.431v4.975c0,1.574-0.566,2.432-1.719,2.432h-1.824
			V472.896z M345.06,474.302v7.026h0.65c0.367,0,0.587-0.253,0.587-0.956v-5.115c0-0.702-0.22-0.955-0.587-0.955H345.06z"/>
		<path fill="#717171" d="M348.184,472.896h1.153v9.837h-1.153V472.896z"/>
		<path fill="#717171" d="M353.908,482.733h-1.164l-0.199-1.785h-1.416l-0.199,1.785h-1.059l1.174-9.837h1.688L353.908,482.733z
			 M351.276,479.613h1.111l-0.556-4.975L351.276,479.613z"/>
		<path fill="#717171" d="M354.286,477.112h2.097v1.405h-2.097V477.112z"/>
		<path fill="#717171" d="M358.322,477.042h1.583v1.405h-1.583v2.881h1.992v1.405h-3.145v-9.837h3.145v1.405h-1.992V477.042z"/>
		<path fill="#717171" d="M363.469,479.881l0.786-6.984h1.604v9.837h-1.09v-7.055l-0.797,7.055h-1.09l-0.86-6.956v6.956h-1.006
			v-9.837h1.604L363.469,479.881z"/>
		<path fill="#717171" d="M370.147,475.158v0.352c0,1.012-0.23,1.658-0.744,1.981c0.618,0.323,0.859,1.068,0.859,2.108v0.801
			c0,1.518-0.598,2.333-1.75,2.333h-1.813v-9.837h1.74C369.634,472.896,370.147,473.641,370.147,475.158z M367.852,474.302v2.6
			h0.451c0.43,0,0.692-0.253,0.692-1.04v-0.548c0-0.703-0.178-1.012-0.587-1.012H367.852z M367.852,478.307v3.021h0.661
			c0.388,0,0.598-0.239,0.598-0.97v-0.857c0-0.913-0.22-1.194-0.745-1.194H367.852z"/>
		<path fill="#717171" d="M372.108,477.042h1.583v1.405h-1.583v2.881h1.992v1.405h-3.145v-9.837h3.145v1.405h-1.992V477.042z"/>
		<path fill="#717171" d="M374.813,472.896h1.824c1.153,0,1.719,0.856,1.719,2.431v4.975c0,1.574-0.566,2.432-1.719,2.432h-1.824
			V472.896z M375.966,474.302v7.026h0.65c0.367,0,0.587-0.253,0.587-0.956v-5.115c0-0.702-0.22-0.955-0.587-0.955H375.966z"/>
		<path fill="#717171" d="M380.642,472.783c1.122,0,1.698,0.899,1.698,2.474v0.38h-1.09v-0.479c0-0.702-0.209-0.97-0.576-0.97
			c-0.367,0-0.577,0.268-0.577,0.97c0,2.024,2.254,2.403,2.254,5.214c0,1.574-0.587,2.474-1.719,2.474
			c-1.132,0-1.719-0.899-1.719-2.474v-0.674h1.09v0.772c0,0.703,0.23,0.956,0.597,0.956c0.367,0,0.598-0.253,0.598-0.956
			c0-2.023-2.254-2.403-2.254-5.214C378.943,473.683,379.52,472.783,380.642,472.783z"/>
	</g>
	<g>
		<path fill="#717171" d="M337.963,491.618v3.168c0,3.897-1.403,6.021-4.259,6.021h-1.351v9.153h-2.856v-24.363h4.207
			C336.561,485.598,337.963,487.721,337.963,491.618z M332.354,489.078v8.248h1.351c0.909,0,1.402-0.557,1.402-2.297v-3.654
			c0-1.74-0.494-2.297-1.402-2.297H332.354z"/>
		<path fill="#717171" d="M345.261,509.961c-0.156-0.627-0.26-1.01-0.26-2.993v-3.829c0-2.262-0.571-3.098-1.87-3.098h-0.987v9.92
			h-2.857v-24.363h4.312c2.96,0,4.233,1.845,4.233,5.604v1.914c0,2.506-0.597,4.142-1.87,4.942c1.428,0.801,1.896,2.646,1.896,5.186
			v3.76c0,1.183,0.026,2.053,0.312,2.958H345.261z M342.144,489.078v7.482h1.117c1.065,0,1.714-0.626,1.714-2.575v-2.401
			c0-1.74-0.442-2.506-1.455-2.506H342.144z"/>
		<path fill="#717171" d="M349.727,485.598h2.857v24.363h-2.857V485.598z"/>
		<path fill="#717171" d="M358.972,505.471l2.181-19.873h2.623l-2.805,24.363h-4.259l-2.805-24.363h2.883L358.972,505.471z"/>
		<path fill="#717171" d="M373.696,509.961h-2.883l-0.493-4.42h-3.506l-0.494,4.42h-2.623l2.909-24.363h4.181L373.696,509.961z
			 M367.178,502.234h2.753l-1.376-12.321L367.178,502.234z"/>
		<path fill="#717171" d="M373.255,485.598h8.83v3.48h-2.987v20.883h-2.857v-20.883h-2.986V485.598z"/>
		<path fill="#717171" d="M386.239,495.865h3.921v3.48h-3.921v7.135h4.935v3.48h-7.791v-24.363h7.791v3.48h-4.935V495.865z"/>
	</g>
	<g>
		<path fill="#717171" d="M328.729,513.986h2.268c1.434,0,2.137,1.065,2.137,3.021v6.18c0,1.955-0.704,3.02-2.137,3.02h-2.268
			V513.986z M330.162,515.732v8.729h0.808c0.456,0,0.729-0.314,0.729-1.188v-6.354c0-0.873-0.273-1.188-0.729-1.188H330.162z"/>
		<path fill="#717171" d="M334.043,513.986h1.434v12.22h-1.434V513.986z"/>
		<path fill="#717171" d="M339.515,526.206c-0.079-0.314-0.13-0.506-0.13-1.501v-1.92c0-1.135-0.287-1.554-0.938-1.554h-0.495v4.975
			h-1.434v-12.22h2.164c1.485,0,2.124,0.926,2.124,2.811v0.961c0,1.256-0.3,2.077-0.938,2.479c0.717,0.401,0.951,1.326,0.951,2.601
			v1.886c0,0.593,0.013,1.029,0.157,1.483H339.515z M337.951,515.732v3.753h0.561c0.534,0,0.86-0.314,0.86-1.292v-1.204
			c0-0.873-0.222-1.257-0.729-1.257H337.951z"/>
		<path fill="#717171" d="M343.188,519.137h1.968v1.745h-1.968v3.579h2.476v1.745h-3.91v-12.22h3.91v1.746h-2.476V519.137z"/>
		<path fill="#717171" d="M350.705,521.65v1.623c0,1.955-0.73,3.072-2.137,3.072s-2.137-1.117-2.137-3.072v-6.354
			c0-1.955,0.73-3.072,2.137-3.072s2.137,1.117,2.137,3.072v1.187h-1.355v-1.31c0-0.872-0.287-1.204-0.743-1.204
			s-0.743,0.332-0.743,1.204v6.599c0,0.873,0.287,1.188,0.743,1.188s0.743-0.314,0.743-1.188v-1.745H350.705z"/>
		<path fill="#717171" d="M351.185,513.986h4.431v1.746h-1.499v10.474h-1.434v-10.474h-1.499V513.986z"/>
		<path fill="#717171" d="M355.783,519.224h2.606v1.745h-2.606V519.224z"/>
		<path fill="#717171" d="M362.401,522.662l0.977-8.676h1.994v12.22h-1.355v-8.763l-0.99,8.763h-1.355l-1.068-8.641v8.641h-1.251
			v-12.22h1.994L362.401,522.662z"/>
		<path fill="#717171" d="M367.845,519.137h1.968v1.745h-1.968v3.579h2.476v1.745h-3.909v-12.22h3.909v1.746h-2.476V519.137z"/>
		<path fill="#717171" d="M373.134,513.848c1.395,0,2.111,1.117,2.111,3.072v0.471h-1.355v-0.594c0-0.872-0.261-1.204-0.717-1.204
			s-0.717,0.332-0.717,1.204c0,2.514,2.802,2.985,2.802,6.477c0,1.955-0.729,3.072-2.137,3.072c-1.408,0-2.137-1.117-2.137-3.072
			v-0.838h1.355v0.96c0,0.873,0.287,1.188,0.743,1.188c0.456,0,0.743-0.314,0.743-1.188c0-2.514-2.802-2.985-2.802-6.476
			C371.023,514.965,371.74,513.848,373.134,513.848z"/>
		<path fill="#717171" d="M378.005,513.848c1.395,0,2.111,1.117,2.111,3.072v0.471h-1.355v-0.594c0-0.872-0.261-1.204-0.717-1.204
			s-0.716,0.332-0.716,1.204c0,2.514,2.801,2.985,2.801,6.477c0,1.955-0.729,3.072-2.137,3.072c-1.408,0-2.137-1.117-2.137-3.072
			v-0.838h1.355v0.96c0,0.873,0.287,1.188,0.743,1.188c0.457,0,0.743-0.314,0.743-1.188c0-2.514-2.802-2.985-2.802-6.476
			C375.895,514.965,376.611,513.848,378.005,513.848z"/>
		<path fill="#717171" d="M385.587,526.206h-1.446l-0.248-2.217h-1.759l-0.248,2.217h-1.316l1.459-12.22h2.098L385.587,526.206z
			 M382.317,522.331h1.381l-0.691-6.18L382.317,522.331z"/>
		<path fill="#717171" d="M388.388,519.398h2.007v3.875c0,1.955-0.73,3.072-2.137,3.072s-2.137-1.117-2.137-3.072v-6.354
			c0-1.955,0.73-3.072,2.137-3.072s2.137,1.117,2.137,3.072v1.187h-1.355v-1.31c0-0.872-0.287-1.204-0.743-1.204
			s-0.743,0.332-0.743,1.204v6.599c0,0.873,0.287,1.188,0.743,1.188s0.743-0.314,0.743-1.188v-2.252h-0.651V519.398z"/>
		<path fill="#717171" d="M392.751,519.137h1.968v1.745h-1.968v3.579h2.476v1.745h-3.91v-12.22h3.91v1.746h-2.476V519.137z"/>
		<path fill="#717171" d="M398.04,513.848c1.395,0,2.111,1.117,2.111,3.072v0.471h-1.355v-0.594c0-0.872-0.261-1.204-0.717-1.204
			s-0.716,0.332-0.716,1.204c0,2.514,2.801,2.985,2.801,6.477c0,1.955-0.729,3.072-2.137,3.072c-1.408,0-2.137-1.117-2.137-3.072
			v-0.838h1.355v0.96c0,0.873,0.287,1.188,0.743,1.188c0.457,0,0.743-0.314,0.743-1.188c0-2.514-2.802-2.985-2.802-6.476
			C395.929,514.965,396.646,513.848,398.04,513.848z"/>
	</g>
	<g>
		<path fill="#717171" d="M130.763,478.642l-0.497,6.209h-1.875l-0.969-11.653h1.329l0.733,9.189l0.658-9.189h1.317l0.683,9.256
			l0.708-9.256h1.192l-0.969,11.653h-1.813L130.763,478.642z"/>
		<path fill="#717171" d="M136.092,478.108h1.875v1.665h-1.875v3.412h2.36v1.665h-3.727v-11.653h3.727v1.665h-2.36V478.108z"/>
		<path fill="#717171" d="M143.382,475.878v0.416c0,1.198-0.273,1.964-0.882,2.348c0.733,0.383,1.019,1.265,1.019,2.497v0.948
			c0,1.798-0.708,2.764-2.074,2.764h-2.148v-11.653h2.062C142.774,473.197,143.382,474.08,143.382,475.878z M140.663,474.862v3.08
			h0.534c0.509,0,0.82-0.3,0.82-1.232v-0.649c0-0.832-0.211-1.198-0.695-1.198H140.663z M140.663,479.606v3.579h0.782
			c0.459,0,0.708-0.282,0.708-1.148v-1.016c0-1.082-0.261-1.415-0.882-1.415H140.663z"/>
		<path fill="#717171" d="M148.76,484.851h-1.378l-0.236-2.114h-1.677l-0.236,2.114h-1.254l1.391-11.653h2L148.76,484.851z
			 M145.643,481.155h1.317l-0.658-5.894L145.643,481.155z"/>
		<path fill="#717171" d="M153.443,476.077v1.516c0,1.864-0.671,2.88-2.037,2.88h-0.646v4.378h-1.366v-11.653h2.012
			C152.772,473.197,153.443,474.213,153.443,476.077z M150.76,474.862v3.945h0.646c0.435,0,0.671-0.267,0.671-1.099v-1.748
			c0-0.832-0.236-1.099-0.671-1.099H150.76z"/>
		<path fill="#717171" d="M158.125,476.077v1.516c0,1.864-0.671,2.88-2.037,2.88h-0.646v4.378h-1.366v-11.653h2.012
			C157.455,473.197,158.125,474.213,158.125,476.077z M155.443,474.862v3.945h0.646c0.435,0,0.671-0.267,0.671-1.099v-1.748
			c0-0.832-0.236-1.099-0.671-1.099H155.443z"/>
	</g>
	<g>
		<path fill="#717171" d="M112.4,521.749h1.623v13.843H112.4V521.749z"/>
		<path fill="#717171" d="M116.649,525.565v10.026h-1.46v-13.843h2.036l1.667,8.286v-8.286h1.446v13.843h-1.667L116.649,525.565z"/>
		<path fill="#717171" d="M121.06,521.749h5.017v1.978h-1.697v11.865h-1.623v-11.865h-1.697V521.749z"/>
		<path fill="#717171" d="M128.437,527.583h2.228v1.978h-2.228v4.054h2.803v1.978h-4.426v-13.843h4.426v1.978h-2.803V527.583z"/>
		<path fill="#717171" d="M134.678,527.879h2.272v4.391c0,2.215-0.827,3.48-2.42,3.48c-1.594,0-2.42-1.266-2.42-3.48v-7.198
			c0-2.215,0.826-3.48,2.42-3.48c1.593,0,2.42,1.266,2.42,3.48v1.345h-1.535v-1.483c0-0.988-0.325-1.364-0.841-1.364
			c-0.516,0-0.841,0.376-0.841,1.364v7.476c0,0.988,0.325,1.345,0.841,1.345c0.517,0,0.841-0.356,0.841-1.345v-2.551h-0.738V527.879
			z"/>
		<path fill="#717171" d="M141.391,535.592c-0.088-0.355-0.147-0.573-0.147-1.701v-2.175c0-1.285-0.325-1.76-1.062-1.76h-0.561
			v5.636h-1.623v-13.843h2.449c1.682,0,2.405,1.048,2.405,3.184v1.088c0,1.424-0.339,2.354-1.062,2.808
			c0.812,0.455,1.077,1.504,1.077,2.947v2.136c0,0.672,0.015,1.167,0.177,1.681H141.391z M139.621,523.727v4.252h0.634
			c0.605,0,0.974-0.356,0.974-1.464v-1.364c0-0.988-0.251-1.424-0.827-1.424H139.621z"/>
		<path fill="#717171" d="M149.182,535.592h-1.638l-0.28-2.512h-1.992l-0.28,2.512H143.5l1.653-13.843h2.375L149.182,535.592z
			 M145.478,531.201h1.564l-0.782-7L145.478,531.201z"/>
		<path fill="#717171" d="M148.93,521.749h5.017v1.978h-1.697v11.865h-1.623v-11.865h-1.697V521.749z"/>
		<path fill="#717171" d="M154.684,521.749h1.623v13.843h-1.623V521.749z"/>
		<path fill="#717171" d="M157.354,525.071c0-2.215,0.871-3.48,2.464-3.48c1.594,0,2.464,1.266,2.464,3.48v7.198
			c0,2.215-0.871,3.48-2.464,3.48c-1.593,0-2.464-1.266-2.464-3.48V525.071z M158.978,532.408c0,0.988,0.325,1.364,0.841,1.364
			c0.517,0,0.841-0.376,0.841-1.364v-7.476c0-0.988-0.325-1.364-0.841-1.364c-0.516,0-0.841,0.376-0.841,1.364V532.408z"/>
		<path fill="#717171" d="M164.775,525.565v10.026h-1.46v-13.843h2.036l1.667,8.286v-8.286h1.446v13.843h-1.667L164.775,525.565z"/>
	</g>
	<g>
		<path fill="#717171" d="M103.846,542.062c0-1.889,0.742-2.968,2.1-2.968c1.357,0,2.1,1.079,2.1,2.968v6.137
			c0,1.889-0.742,2.968-2.1,2.968c-1.358,0-2.1-1.079-2.1-2.968V542.062z M105.229,548.316c0,0.844,0.276,1.164,0.717,1.164
			c0.44,0,0.716-0.32,0.716-1.164v-6.373c0-0.843-0.276-1.163-0.716-1.163c-0.44,0-0.717,0.32-0.717,1.163V548.316z"/>
		<path fill="#717171" d="M110.324,544.473h1.785v1.686h-1.785v4.873h-1.383v-11.803h3.659v1.687h-2.275V544.473z"/>
		<path fill="#717171" d="M114.651,544.473h1.786v1.686h-1.786v4.873h-1.383v-11.803h3.659v1.687h-2.276V544.473z"/>
		<path fill="#717171" d="M117.483,542.062c0-1.889,0.742-2.968,2.1-2.968c1.357,0,2.1,1.079,2.1,2.968v6.137
			c0,1.889-0.742,2.968-2.1,2.968c-1.358,0-2.1-1.079-2.1-2.968V542.062z M118.866,548.316c0,0.844,0.276,1.164,0.717,1.164
			c0.44,0,0.716-0.32,0.716-1.164v-6.373c0-0.843-0.276-1.163-0.716-1.163c-0.44,0-0.717,0.32-0.717,1.163V548.316z"/>
		<path fill="#717171" d="M122.2,539.229h4.275v1.687h-1.446v10.116h-1.383v-10.116H122.2V539.229z"/>
		<path fill="#717171" d="M128.489,551.031h-1.383v-11.803h1.383v5.059h1.572v-5.059h1.408v11.803h-1.408v-5.059h-1.572V551.031z"/>
		<path fill="#717171" d="M133.86,544.202h1.899v1.687h-1.899v3.456h2.389v1.687h-3.772v-11.803h3.772v1.687h-2.389V544.202z"/>
		<path fill="#717171" d="M137.044,544.287h2.515v1.686h-2.515V544.287z"/>
		<path fill="#717171" d="M143.396,551.031c-0.076-0.304-0.126-0.489-0.126-1.45v-1.854c0-1.096-0.276-1.501-0.905-1.501h-0.478
			v4.806h-1.383v-11.803h2.087c1.433,0,2.049,0.894,2.049,2.715v0.927c0,1.215-0.29,2.007-0.905,2.395
			c0.691,0.388,0.917,1.281,0.917,2.513v1.82c0,0.573,0.013,0.995,0.151,1.434H143.396z M141.887,540.915v3.625h0.541
			c0.515,0,0.83-0.304,0.83-1.248v-1.163c0-0.844-0.214-1.214-0.704-1.214H141.887z"/>
		<path fill="#717171" d="M146.943,544.202h1.899v1.687h-1.899v3.456h2.389v1.687h-3.772v-11.803h3.772v1.687h-2.389V544.202z"/>
		<path fill="#717171" d="M154.201,546.631v1.567c0,1.889-0.704,2.968-2.062,2.968s-2.062-1.079-2.062-2.968v-6.137
			c0-1.889,0.704-2.968,2.062-2.968s2.062,1.079,2.062,2.968v1.146h-1.308v-1.265c0-0.843-0.276-1.163-0.716-1.163
			c-0.44,0-0.717,0.32-0.717,1.163v6.373c0,0.844,0.276,1.146,0.717,1.146c0.44,0,0.716-0.303,0.716-1.146v-1.686H154.201z"/>
		<path fill="#717171" d="M154.933,542.062c0-1.889,0.742-2.968,2.1-2.968c1.358,0,2.1,1.079,2.1,2.968v6.137
			c0,1.889-0.742,2.968-2.1,2.968c-1.357,0-2.1-1.079-2.1-2.968V542.062z M156.316,548.316c0,0.844,0.276,1.164,0.716,1.164
			c0.44,0,0.717-0.32,0.717-1.164v-6.373c0-0.843-0.276-1.163-0.717-1.163c-0.44,0-0.716,0.32-0.716,1.163V548.316z"/>
		<path fill="#717171" d="M162.919,551.031c-0.075-0.304-0.125-0.489-0.125-1.45v-1.854c0-1.096-0.277-1.501-0.905-1.501h-0.478
			v4.806h-1.383v-11.803h2.087c1.434,0,2.05,0.894,2.05,2.715v0.927c0,1.215-0.289,2.007-0.905,2.395
			c0.691,0.388,0.918,1.281,0.918,2.513v1.82c0,0.573,0.012,0.995,0.15,1.434H162.919z M161.41,540.915v3.625h0.541
			c0.516,0,0.83-0.304,0.83-1.248v-1.163c0-0.844-0.213-1.214-0.704-1.214H161.41z"/>
		<path fill="#717171" d="M165.084,539.229h2.188c1.383,0,2.062,1.028,2.062,2.917v5.969c0,1.889-0.679,2.917-2.062,2.917h-2.188
			V539.229z M166.468,540.915v8.43h0.779c0.44,0,0.704-0.303,0.704-1.146v-6.137c0-0.844-0.264-1.146-0.704-1.146H166.468z"/>
	</g>
	<g>
		<path fill="#717171" d="M176.634,529.928v20.168h-2.877V522.25h4.011l3.285,16.668V522.25h2.849v27.846h-3.285L176.634,529.928z"
			/>
		<path fill="#717171" d="M185.935,528.933c0-4.455,1.715-7.001,4.854-7.001c3.14,0,4.854,2.546,4.854,7.001v14.48
			c0,4.455-1.715,7.001-4.854,7.001c-3.139,0-4.854-2.546-4.854-7.001V528.933z M189.132,543.691c0,1.988,0.64,2.744,1.657,2.744
			c1.018,0,1.657-0.756,1.657-2.744v-15.037c0-1.989-0.639-2.744-1.657-2.744c-1.017,0-1.657,0.755-1.657,2.744V543.691z"/>
		<path fill="#717171" d="M197.707,522.25h5.058c3.197,0,4.767,2.427,4.767,6.882v14.082c0,4.455-1.57,6.882-4.767,6.882h-5.058
			V522.25z M200.904,526.228v19.891h1.802c1.017,0,1.627-0.717,1.627-2.705v-14.48c0-1.988-0.61-2.705-1.627-2.705H200.904z"/>
		<path fill="#717171" d="M212.763,533.985h4.389v3.978h-4.389v8.155h5.523v3.978h-8.721V522.25h8.721v3.978h-5.523V533.985z"/>
		<path fill="#717171" d="M219.39,546.118c0.349,0.039,0.756,0.039,1.105,0.039c1.017,0,1.831-0.517,1.831-2.665V522.25h3.197
			v20.924c0,5.569-2.18,7.001-4.593,7.001c-0.581,0-1.017,0-1.541-0.079V546.118z"/>
		<path fill="#717171" d="M232.005,521.932c3.11,0,4.709,2.546,4.709,7.001v1.074h-3.023v-1.353c0-1.989-0.582-2.744-1.599-2.744
			c-1.017,0-1.599,0.755-1.599,2.744c0,5.729,6.25,6.803,6.25,14.759c0,4.455-1.627,7.001-4.767,7.001
			c-3.139,0-4.767-2.546-4.767-7.001v-1.91h3.023v2.188c0,1.988,0.64,2.705,1.657,2.705c1.017,0,1.657-0.717,1.657-2.705
			c0-5.729-6.25-6.803-6.25-14.759C227.296,524.478,228.895,521.932,232.005,521.932z"/>
	</g>
	<g>
		<path fill="#717171" d="M245.134,544.446l1.491-13.567h3.042v19.108H247.6v-13.703l-1.511,13.703h-2.068l-1.63-13.513v13.513
			h-1.909v-19.108h3.042L245.134,544.446z"/>
		<path fill="#717171" d="M253.443,538.932h3.002v2.729h-3.002v5.597h3.777v2.729h-5.964v-19.108h5.964v2.729h-3.777V538.932z"/>
		<path fill="#717171" d="M257.975,530.879h6.76v2.729h-2.287v16.379h-2.187v-16.379h-2.287V530.879z"/>
		<path fill="#717171" d="M267.915,538.932h3.002v2.729h-3.002v5.597h3.777v2.729h-5.964v-19.108h5.964v2.729h-3.777V538.932z"/>
		<path fill="#717171" d="M272.864,535.465c0-3.058,1.173-4.805,3.32-4.805c2.147,0,3.32,1.747,3.32,4.805v9.937
			c0,3.058-1.173,4.805-3.32,4.805c-2.147,0-3.32-1.747-3.32-4.805V535.465z M275.051,545.593c0,1.364,0.438,1.883,1.133,1.883
			s1.133-0.519,1.133-1.883v-10.319c0-1.364-0.438-1.883-1.133-1.883s-1.133,0.519-1.133,1.883V545.593z"/>
		<path fill="#717171" d="M285.488,549.987c-0.119-0.491-0.199-0.792-0.199-2.348v-3.003c0-1.774-0.438-2.43-1.432-2.43h-0.755v7.78
			h-2.187v-19.108h3.3c2.267,0,3.241,1.446,3.241,4.395v1.502c0,1.965-0.457,3.248-1.432,3.876c1.094,0.628,1.452,2.074,1.452,4.067
			v2.948c0,0.928,0.02,1.61,0.239,2.32H285.488z M283.102,533.608v5.869h0.855c0.815,0,1.312-0.491,1.312-2.02v-1.884
			c0-1.365-0.338-1.966-1.113-1.966H283.102z"/>
	</g>
	<g>
		<path fill="#717171" d="M302.816,579.938l2.732-25.155h5.572v35.43h-3.788v-25.408l-2.768,25.408h-3.788l-2.987-25.054v25.054
			h-3.497v-35.43h5.573L302.816,579.938z"/>
		<path fill="#717171" d="M326.999,590.212h-4.043l-0.692-6.428h-4.917l-0.692,6.428h-3.678l4.079-35.43h5.864L326.999,590.212z
			 M317.856,578.976h3.861l-1.93-17.917L317.856,578.976z"/>
		<path fill="#717171" d="M337.231,590.212c-0.218-0.911-0.364-1.468-0.364-4.353v-5.567c0-3.29-0.801-4.505-2.622-4.505h-1.384
			v14.425h-4.006v-35.43h6.046c4.152,0,5.937,2.683,5.937,8.149v2.783c0,3.645-0.838,6.023-2.623,7.188
			c2.003,1.164,2.659,3.847,2.659,7.541v5.467c0,1.721,0.036,2.985,0.437,4.302H337.231z M332.861,559.844v10.882h1.566
			c1.493,0,2.404-0.911,2.404-3.745v-3.492c0-2.531-0.619-3.645-2.04-3.645H332.861z"/>
		<path fill="#717171" d="M348.739,576.091l-1.238,3.239v10.882h-4.006v-35.43h4.006v15.438l5.318-15.438h3.934l-5.573,15.792
			l5.573,19.638h-4.116L348.739,576.091z"/>
		<path fill="#717171" d="M358.572,554.782h6.337c4.006,0,5.973,3.088,5.973,8.757v17.917c0,5.668-1.967,8.756-5.973,8.756h-6.337
			V554.782z M362.578,559.844v25.307h2.258c1.275,0,2.04-0.911,2.04-3.441v-18.424c0-2.53-0.765-3.441-2.04-3.441H362.578z"/>
		<path fill="#717171" d="M373.102,563.285c0-5.668,2.149-8.907,6.083-8.907c3.934,0,6.083,3.239,6.083,8.907v18.424
			c0,5.669-2.149,8.908-6.083,8.908c-3.934,0-6.083-3.239-6.083-8.908V563.285z M377.109,582.063c0,2.53,0.801,3.492,2.076,3.492
			c1.274,0,2.076-0.962,2.076-3.492v-19.132c0-2.531-0.801-3.492-2.076-3.492c-1.275,0-2.076,0.961-2.076,3.492V582.063z"/>
		<path fill="#717171" d="M396.739,571.333l-1.457,18.879h-5.5l-2.841-35.43h3.897l2.149,27.938l1.931-27.938h3.861l2.003,28.142
			l2.076-28.142h3.497l-2.841,35.43h-5.318L396.739,571.333z"/>
		<path fill="#717171" d="M411.925,564.551v25.661h-3.606v-35.43h5.026l4.116,21.207v-21.207h3.569v35.43h-4.116L411.925,564.551z"
			/>
	</g>
	<g>
		<path fill="#717171" d="M359.788,538.823h3.327v3.079h-3.327v6.312h4.186v3.079h-6.61v-21.555h6.61v3.079h-4.186V538.823z"/>
		<path fill="#717171" d="M370.605,545.043l1.652-15.304h3.372v21.555h-2.292v-15.458l-1.675,15.458h-2.292l-1.807-15.242v15.242
			h-2.115v-21.555h3.371L370.605,545.043z"/>
		<path fill="#717171" d="M377.193,534.912c0-3.448,1.3-5.419,3.68-5.419c2.379,0,3.68,1.971,3.68,5.419v11.209
			c0,3.448-1.3,5.419-3.68,5.419c-2.38,0-3.68-1.971-3.68-5.419V534.912z M379.617,546.336c0,1.54,0.484,2.125,1.256,2.125
			c0.771,0,1.256-0.585,1.256-2.125v-11.639c0-1.54-0.485-2.125-1.256-2.125c-0.771,0-1.256,0.585-1.256,2.125V546.336z"/>
		<path fill="#717171" d="M385.455,548.215c0.265,0.03,0.573,0.03,0.837,0.03c0.771,0,1.388-0.399,1.388-2.062v-16.443h2.424v16.197
			c0,4.311-1.653,5.419-3.481,5.419c-0.441,0-0.771,0-1.168-0.062V548.215z"/>
		<path fill="#717171" d="M391.756,529.739h2.424v21.555h-2.424V529.739z"/>
		<path fill="#717171" d="M399.203,529.493c2.357,0,3.569,1.971,3.569,5.419v0.832h-2.292v-1.047c0-1.54-0.441-2.125-1.212-2.125
			s-1.212,0.585-1.212,2.125c0,4.434,4.737,5.266,4.737,11.424c0,3.448-1.234,5.419-3.614,5.419c-2.379,0-3.613-1.971-3.613-5.419
			v-1.479h2.292v1.693c0,1.54,0.485,2.095,1.256,2.095s1.256-0.555,1.256-2.095c0-4.434-4.737-5.265-4.737-11.424
			C395.633,531.464,396.845,529.493,399.203,529.493z"/>
	</g>
	<g>
		<path fill="#717171" d="M302.289,550.393h-2.593l-0.444-3.709h-3.153l-0.444,3.709h-2.359l2.617-20.443h3.761L302.289,550.393z
			 M296.425,543.909h2.477l-1.238-10.339L296.425,543.909z"/>
		<path fill="#717171" d="M306.777,546.625l1.962-16.676h2.359l-2.523,20.443h-3.832l-2.523-20.443h2.593L306.777,546.625z"/>
		<path fill="#717171" d="M320.025,550.393h-2.593l-0.444-3.709h-3.153l-0.444,3.709h-2.359l2.617-20.443h3.761L320.025,550.393z
			 M314.162,543.909h2.477L315.4,533.57L314.162,543.909z"/>
		<path fill="#717171" d="M319.631,529.949h7.943v2.92h-2.687v17.523h-2.57v-17.523h-2.687V529.949z"/>
		<path fill="#717171" d="M336.173,550.393h-2.593l-0.444-3.709h-3.153l-0.444,3.709h-2.359l2.617-20.443h3.761L336.173,550.393z
			 M330.309,543.909h2.477l-1.238-10.339L330.309,543.909z"/>
		<path fill="#717171" d="M342.74,550.393c-0.14-0.525-0.234-0.847-0.234-2.512v-3.213c0-1.898-0.514-2.599-1.682-2.599h-0.888
			v8.323h-2.57v-20.443h3.878c2.663,0,3.808,1.548,3.808,4.702v1.605c0,2.104-0.537,3.476-1.682,4.147
			c1.285,0.672,1.705,2.22,1.705,4.352v3.154c0,0.993,0.023,1.723,0.28,2.482H342.74z M339.937,532.869v6.279h1.004
			c0.958,0,1.542-0.525,1.542-2.161v-2.015c0-1.461-0.397-2.104-1.309-2.104H339.937z"/>
		<path fill="#717171" d="M350.219,529.715c2.5,0,3.784,1.869,3.784,5.141v0.788h-2.429v-0.992c0-1.461-0.467-2.016-1.285-2.016
			c-0.817,0-1.285,0.555-1.285,2.016c0,4.205,5.022,4.993,5.022,10.835c0,3.271-1.308,5.14-3.831,5.14s-3.832-1.869-3.832-5.14
			v-1.402h2.43v1.606c0,1.46,0.514,1.986,1.332,1.986c0.818,0,1.332-0.526,1.332-1.986c0-4.205-5.022-4.994-5.022-10.835
			C346.434,531.584,347.719,529.715,350.219,529.715z"/>
	</g>
	<g>
		<path fill="#717171" d="M84.314,587.455h0.722v0.635h-0.722v1.834h-0.559v-4.443h1.479v0.635h-0.919V587.455z"/>
		<path fill="#717171" d="M86.036,585.48v3.428c0,0.317,0.112,0.432,0.29,0.432s0.29-0.114,0.29-0.432v-3.428h0.528v3.383
			c0,0.711-0.284,1.117-0.833,1.117s-0.833-0.406-0.833-1.117v-3.383H86.036z"/>
		<path fill="#717171" d="M87.523,585.48h0.559v3.809h0.919v0.635h-1.479V585.48z"/>
		<path fill="#717171" d="M89.254,585.48h0.559v3.809h0.919v0.635h-1.479V585.48z"/>
		<path fill="#717171" d="M90.757,587.385h1.016v0.635h-1.016V587.385z"/>
		<path fill="#717171" d="M91.839,585.48h1.728v0.635h-0.584v3.809h-0.559v-3.809h-0.584V585.48z"/>
		<path fill="#717171" d="M94.378,587.354h0.767v0.635h-0.767v1.301h0.965v0.635h-1.524v-4.443h1.524v0.635h-0.965V587.354z"/>
		<path fill="#717171" d="M97.553,585.48l-0.584,2.158l0.625,2.285h-0.59l-0.457-1.758l-0.462,1.758h-0.523l0.625-2.285
			l-0.584-2.158h0.58l0.421,1.638l0.432-1.638H97.553z"/>
		<path fill="#717171" d="M97.719,585.48h1.728v0.635h-0.584v3.809h-0.559v-3.809h-0.584V585.48z"/>
		<path fill="#717171" d="M99.511,587.385h1.016v0.635h-1.016V587.385z"/>
		<path fill="#717171" d="M101.66,585.43c0.544,0,0.823,0.406,0.823,1.117v0.172h-0.528v-0.217c0-0.316-0.102-0.438-0.279-0.438
			c-0.178,0-0.28,0.121-0.28,0.438c0,0.914,1.093,1.086,1.093,2.355c0,0.711-0.285,1.117-0.833,1.117s-0.833-0.406-0.833-1.117
			v-0.305h0.529v0.35c0,0.316,0.112,0.432,0.29,0.432s0.29-0.115,0.29-0.432c0-0.914-1.092-1.086-1.092-2.355
			C100.837,585.836,101.116,585.43,101.66,585.43z"/>
		<path fill="#717171" d="M103.366,587.354h0.767v0.635h-0.767v1.301h0.965v0.635h-1.524v-4.443h1.524v0.635h-0.965V587.354z"/>
		<path fill="#717171" d="M106.484,589.924h-0.564l-0.097-0.807h-0.686l-0.097,0.807h-0.513l0.569-4.443h0.818L106.484,589.924z
			 M105.209,588.515h0.539l-0.27-2.247L105.209,588.515z"/>
		<path fill="#717171" d="M107.911,589.924c-0.031-0.114-0.051-0.184-0.051-0.546v-0.698c0-0.412-0.112-0.564-0.366-0.564h-0.193
			v1.809h-0.559v-4.443h0.844c0.579,0,0.828,0.336,0.828,1.021v0.35c0,0.457-0.117,0.756-0.366,0.901
			c0.279,0.146,0.371,0.482,0.371,0.946v0.686c0,0.215,0.005,0.374,0.061,0.539H107.911z M107.301,586.115v1.365h0.218
			c0.208,0,0.335-0.115,0.335-0.471v-0.438c0-0.317-0.086-0.457-0.285-0.457H107.301z"/>
		<path fill="#717171" d="M110.404,588.268v0.59c0,0.711-0.285,1.117-0.833,1.117s-0.833-0.406-0.833-1.117v-2.311
			c0-0.711,0.284-1.117,0.833-1.117s0.833,0.406,0.833,1.117v0.432h-0.528v-0.477c0-0.316-0.112-0.438-0.29-0.438
			c-0.178,0-0.29,0.121-0.29,0.438v2.4c0,0.316,0.112,0.432,0.29,0.432c0.178,0,0.29-0.115,0.29-0.432v-0.635H110.404z"/>
		<path fill="#717171" d="M111.302,589.924h-0.559v-4.443h0.559v1.904h0.635v-1.904h0.569v4.443h-0.569v-1.904h-0.635V589.924z"/>
	</g>
	<g>
		<path fill="#717171" d="M90.776,577.527l-0.397,4.627h-1.5l-0.775-8.684h1.063l0.586,6.848l0.526-6.848h1.053l0.546,6.897
			l0.566-6.897h0.954l-0.774,8.684h-1.451L90.776,577.527z"/>
		<path fill="#717171" d="M95.036,577.13h1.5v1.241h-1.5v2.543h1.887v1.24h-2.98v-8.684h2.98v1.24h-1.887V577.13z"/>
		<path fill="#717171" d="M100.866,575.468v0.311c0,0.893-0.219,1.464-0.706,1.749c0.586,0.285,0.815,0.942,0.815,1.86v0.707
			c0,1.34-0.566,2.06-1.659,2.06h-1.718v-8.684h1.649C100.379,573.471,100.866,574.128,100.866,575.468z M98.69,574.711v2.295h0.427
			c0.407,0,0.656-0.223,0.656-0.918v-0.483c0-0.62-0.169-0.894-0.556-0.894H98.69z M98.69,578.247v2.667h0.625
			c0.368,0,0.566-0.211,0.566-0.856v-0.757c0-0.806-0.208-1.054-0.706-1.054H98.69z"/>
		<path fill="#717171" d="M103.914,582.154c-0.06-0.224-0.1-0.359-0.1-1.066v-1.365c0-0.807-0.218-1.104-0.715-1.104h-0.377v3.535
			h-1.093v-8.684h1.649c1.132,0,1.619,0.657,1.619,1.997v0.683c0,0.893-0.229,1.476-0.715,1.762
			c0.546,0.285,0.725,0.942,0.725,1.848v1.34c0,0.422,0.01,0.732,0.119,1.055H103.914z M102.722,574.711v2.667h0.427
			c0.407,0,0.656-0.223,0.656-0.918v-0.855c0-0.62-0.169-0.894-0.556-0.894H102.722z"/>
		<path fill="#717171" d="M105.323,573.471h3.377v1.24h-1.142v7.443h-1.093v-7.443h-1.143V573.471z"/>
		<path fill="#717171" d="M112.364,578.916v1.154c0,1.39-0.556,2.184-1.629,2.184s-1.629-0.794-1.629-2.184v-4.516
			c0-1.39,0.556-2.184,1.629-2.184s1.629,0.794,1.629,2.184v0.844h-1.033v-0.931c0-0.62-0.219-0.856-0.566-0.856
			s-0.566,0.236-0.566,0.856v4.689c0,0.62,0.219,0.844,0.566,0.844s0.566-0.224,0.566-0.844v-1.241H112.364z"/>
	</g>
	<g>
		<path fill="#717171" d="M245.442,564.374v1.831c0,2.204-0.882,3.464-2.583,3.464s-2.583-1.26-2.583-3.464v-7.165
			c0-2.205,0.882-3.465,2.583-3.465s2.583,1.26,2.583,3.465v1.339h-1.638v-1.477c0-0.984-0.347-1.358-0.898-1.358
			c-0.551,0-0.897,0.374-0.897,1.358v7.44c0,0.984,0.347,1.338,0.897,1.338c0.551,0,0.898-0.354,0.898-1.338v-1.969H245.442z"/>
		<path fill="#717171" d="M248.23,569.512h-1.732v-13.778h1.732v5.905h1.968v-5.905h1.764v13.778h-1.764v-5.905h-1.968V569.512z"/>
		<path fill="#717171" d="M258.83,569.512h-1.748l-0.299-2.5h-2.125l-0.299,2.5h-1.59l1.764-13.778h2.535L258.83,569.512z
			 M254.877,565.142h1.669l-0.834-6.968L254.877,565.142z"/>
		<path fill="#717171" d="M261.178,559.532v9.979h-1.559v-13.778h2.173l1.78,8.247v-8.247h1.543v13.778h-1.779L261.178,559.532z"/>
		<path fill="#717171" d="M267.903,559.532v9.979h-1.559v-13.778h2.173l1.78,8.247v-8.247h1.543v13.778h-1.779L267.903,559.532z"/>
		<path fill="#717171" d="M274.817,561.54h2.378v1.968h-2.378v4.035h2.992v1.969h-4.724v-13.778h4.724v1.968h-2.992V561.54z"/>
		<path fill="#717171" d="M278.882,555.733h1.732v11.81h2.85v1.969h-4.583V555.733z"/>
		<path fill="#717171" d="M286.583,555.575c1.685,0,2.551,1.26,2.551,3.465v0.531h-1.638v-0.669c0-0.984-0.315-1.358-0.866-1.358
			c-0.551,0-0.866,0.374-0.866,1.358c0,2.834,3.386,3.365,3.386,7.303c0,2.204-0.882,3.464-2.583,3.464s-2.583-1.26-2.583-3.464
			v-0.945h1.638v1.083c0,0.984,0.346,1.338,0.897,1.338s0.897-0.354,0.897-1.338c0-2.835-3.386-3.366-3.386-7.303
			C284.032,556.835,284.898,555.575,286.583,555.575z"/>
	</g>
	<g>
		<path fill="#717171" d="M100.781,562.85l-0.584,1.375v4.619h-1.892v-15.039h1.892v6.553l2.511-6.553h1.857l-2.631,6.703
			l2.631,8.336h-1.943L100.781,562.85z"/>
		<path fill="#717171" d="M107.313,560.143h2.597v2.148h-2.597v4.404h3.267v2.148h-5.159v-15.039h5.159v2.148h-3.267V560.143z"/>
		<path fill="#717171" d="M115.703,568.844c-0.103-0.387-0.172-0.623-0.172-1.848v-2.363c0-1.396-0.378-1.912-1.238-1.912h-0.653
			v6.123h-1.892v-15.039h2.854c1.96,0,2.803,1.139,2.803,3.459v1.182c0,1.547-0.396,2.557-1.238,3.051
			c0.946,0.494,1.255,1.633,1.255,3.201v2.32c0,0.73,0.017,1.268,0.207,1.826H115.703z M113.639,555.953v4.619h0.739
			c0.705,0,1.135-0.387,1.135-1.59V557.5c0-1.074-0.292-1.547-0.963-1.547H113.639z"/>
		<path fill="#717171" d="M124.316,557.264v0.537c0,1.547-0.378,2.535-1.221,3.029c1.015,0.494,1.41,1.633,1.41,3.223v1.225
			c0,2.32-0.98,3.566-2.872,3.566h-2.975v-15.039h2.854C123.473,553.805,124.316,554.943,124.316,557.264z M120.55,555.953v3.975
			h0.739c0.705,0,1.135-0.387,1.135-1.59V557.5c0-1.074-0.292-1.547-0.963-1.547H120.55z M120.55,562.076v4.619h1.083
			c0.636,0,0.98-0.365,0.98-1.482v-1.311c0-1.396-0.361-1.826-1.221-1.826H120.55z"/>
		<path fill="#717171" d="M127.529,560.143h2.597v2.148h-2.597v4.404h3.267v2.148h-5.159v-15.039h5.159v2.148h-3.267V560.143z"/>
		<path fill="#717171" d="M135.918,568.844c-0.103-0.387-0.172-0.623-0.172-1.848v-2.363c0-1.396-0.378-1.912-1.238-1.912h-0.653
			v6.123h-1.892v-15.039h2.854c1.96,0,2.803,1.139,2.803,3.459v1.182c0,1.547-0.396,2.557-1.238,3.051
			c0.946,0.494,1.255,1.633,1.255,3.201v2.32c0,0.73,0.017,1.268,0.207,1.826H135.918z M133.854,555.953v4.619h0.739
			c0.705,0,1.135-0.387,1.135-1.59V557.5c0-1.074-0.292-1.547-0.963-1.547H133.854z"/>
		<path fill="#717171" d="M138.719,557.414c0-2.406,1.015-3.781,2.872-3.781c1.857,0,2.872,1.375,2.872,3.781v7.82
			c0,2.406-1.015,3.781-2.872,3.781c-1.857,0-2.872-1.375-2.872-3.781V557.414z M140.61,565.385c0,1.074,0.378,1.482,0.98,1.482
			c0.602,0,0.98-0.408,0.98-1.482v-8.121c0-1.074-0.378-1.482-0.98-1.482c-0.602,0-0.98,0.408-0.98,1.482V565.385z"/>
		<path fill="#717171" d="M148.226,553.633c1.84,0,2.786,1.375,2.786,3.781v0.58h-1.789v-0.73c0-1.074-0.344-1.482-0.946-1.482
			c-0.602,0-0.946,0.408-0.946,1.482c0,3.094,3.697,3.674,3.697,7.971c0,2.406-0.963,3.781-2.82,3.781s-2.82-1.375-2.82-3.781
			v-1.031h1.789v1.182c0,1.074,0.378,1.461,0.98,1.461c0.602,0,0.98-0.387,0.98-1.461c0-3.094-3.697-3.674-3.697-7.971
			C145.44,555.008,146.386,553.633,148.226,553.633z"/>
	</g>
	<g>
		<path fill="#717171" d="M121.028,581.146l-0.799,9.3h-3.014l-1.557-17.453h2.136l1.177,13.763l1.058-13.763h2.115l1.098,13.862
			l1.137-13.862h1.916l-1.557,17.453h-2.914L121.028,581.146z"/>
		<path fill="#717171" d="M129.587,580.349h3.014v2.493h-3.014v5.111h3.792v2.493h-5.987v-17.453h5.987v2.493h-3.792V580.349z"/>
		<path fill="#717171" d="M141.302,577.008v0.623c0,1.795-0.439,2.942-1.417,3.516c1.177,0.573,1.636,1.895,1.636,3.74v1.421
			c0,2.692-1.137,4.139-3.333,4.139h-3.453v-17.453h3.313C140.324,572.993,141.302,574.314,141.302,577.008z M136.931,575.486v4.613
			h0.858c0.818,0,1.317-0.449,1.317-1.846v-0.973c0-1.246-0.339-1.795-1.118-1.795H136.931z M136.931,582.593v5.36h1.257
			c0.739,0,1.138-0.424,1.138-1.721v-1.521c0-1.621-0.419-2.119-1.417-2.119H136.931z"/>
		<path fill="#717171" d="M145.791,572.794c2.135,0,3.233,1.596,3.233,4.388v0.674h-2.076v-0.848c0-1.247-0.399-1.721-1.098-1.721
			c-0.698,0-1.098,0.474-1.098,1.721c0,3.59,4.291,4.264,4.291,9.25c0,2.792-1.118,4.388-3.273,4.388
			c-2.156,0-3.273-1.596-3.273-4.388v-1.197h2.076v1.371c0,1.247,0.439,1.696,1.138,1.696s1.138-0.449,1.138-1.696
			c0-3.59-4.291-4.263-4.291-9.25C142.557,574.39,143.655,572.794,145.791,572.794z"/>
		<path fill="#717171" d="M150.12,577.182c0-2.792,1.178-4.388,3.333-4.388c2.156,0,3.333,1.596,3.333,4.388v9.076
			c0,2.792-1.177,4.388-3.333,4.388c-2.155,0-3.333-1.596-3.333-4.388V577.182z M152.315,586.432c0,1.247,0.439,1.721,1.138,1.721
			c0.699,0,1.138-0.474,1.138-1.721v-9.424c0-1.247-0.439-1.721-1.138-1.721c-0.698,0-1.138,0.474-1.138,1.721V586.432z"/>
		<path fill="#717171" d="M164.568,583.938v2.319c0,2.792-1.118,4.388-3.273,4.388c-2.156,0-3.273-1.596-3.273-4.388v-9.076
			c0-2.792,1.118-4.388,3.273-4.388c2.155,0,3.273,1.596,3.273,4.388v1.695h-2.076v-1.869c0-1.247-0.439-1.721-1.138-1.721
			c-0.698,0-1.138,0.474-1.138,1.721v9.424c0,1.247,0.439,1.696,1.138,1.696c0.699,0,1.138-0.449,1.138-1.696v-2.493H164.568z"/>
		<path fill="#717171" d="M168.778,583.49l-0.679,1.596v5.36h-2.195v-17.453h2.195v7.604l2.914-7.604h2.155l-3.053,7.779
			l3.053,9.674h-2.255L168.778,583.49z"/>
		<path fill="#717171" d="M176.36,580.349h3.014v2.493h-3.014v5.111h3.792v2.493h-5.987v-17.453h5.987v2.493h-3.792V580.349z"/>
		<path fill="#717171" d="M180.909,572.993h6.786v2.493H185.4v14.96h-2.196v-14.96h-2.295V572.993z"/>
		<path fill="#717171" d="M191.645,572.794c2.136,0,3.233,1.596,3.233,4.388v0.674h-2.076v-0.848c0-1.247-0.399-1.721-1.098-1.721
			s-1.098,0.474-1.098,1.721c0,3.59,4.291,4.264,4.291,9.25c0,2.792-1.118,4.388-3.273,4.388c-2.156,0-3.273-1.596-3.273-4.388
			v-1.197h2.076v1.371c0,1.247,0.439,1.696,1.138,1.696s1.138-0.449,1.138-1.696c0-3.59-4.291-4.263-4.291-9.25
			C188.412,574.39,189.51,572.794,191.645,572.794z"/>
	</g>
	<g>
		<path fill="#717171" d="M158.753,564.269l1.181-9.782h2.409v13.778h-1.638v-9.881l-1.197,9.881h-1.638l-1.291-9.743v9.743h-1.512
			v-13.778h2.409L158.753,564.269z"/>
		<path fill="#717171" d="M165.258,554.486v10.629c0,0.984,0.347,1.339,0.897,1.339c0.551,0,0.898-0.354,0.898-1.339v-10.629h1.638
			v10.491c0,2.204-0.882,3.464-2.583,3.464s-2.583-1.26-2.583-3.464v-10.491H165.258z"/>
		<path fill="#717171" d="M169.873,554.486h1.732v11.81h2.85v1.969h-4.583V554.486z"/>
		<path fill="#717171" d="M173.983,554.486h5.354v1.968h-1.811v11.811h-1.732v-11.811h-1.811V554.486z"/>
		<path fill="#717171" d="M180.126,554.486h1.732v13.778h-1.732V554.486z"/>
		<path fill="#717171" d="M188.252,557.892v1.791c0,2.204-0.851,3.405-2.583,3.405h-0.818v5.177h-1.732v-13.778h2.551
			C187.401,554.486,188.252,555.687,188.252,557.892z M184.851,556.454v4.665h0.818c0.551,0,0.851-0.314,0.851-1.299v-2.066
			c0-0.984-0.299-1.3-0.851-1.3H184.851z"/>
		<path fill="#717171" d="M189.056,554.486h1.732v11.81h2.851v1.969h-4.583V554.486z"/>
		<path fill="#717171" d="M196.159,560.293h2.377v1.968h-2.377v4.035h2.992v1.969h-4.724v-13.778h4.724v1.968h-2.992V560.293z"/>
		<path fill="#717171" d="M200.144,560.391h3.149v1.969h-3.149V560.391z"/>
		<path fill="#717171" d="M208.097,568.265c-0.094-0.354-0.157-0.571-0.157-1.692v-2.166c0-1.279-0.347-1.752-1.134-1.752h-0.599
			v5.61h-1.732v-13.778h2.614c1.795,0,2.567,1.043,2.567,3.169v1.082c0,1.418-0.362,2.343-1.134,2.796
			c0.866,0.452,1.15,1.495,1.15,2.933v2.126c0,0.669,0.016,1.161,0.188,1.673H208.097z M206.207,556.454v4.232h0.677
			c0.646,0,1.04-0.354,1.04-1.457v-1.358c0-0.983-0.268-1.417-0.882-1.417H206.207z"/>
		<path fill="#717171" d="M210.665,557.793c0-2.205,0.929-3.465,2.63-3.465c1.7,0,2.629,1.26,2.629,3.465v7.165
			c0,2.204-0.929,3.464-2.629,3.464c-1.701,0-2.63-1.26-2.63-3.464V557.793z M212.397,565.096c0,0.984,0.347,1.358,0.898,1.358
			c0.551,0,0.897-0.374,0.897-1.358v-7.44c0-0.984-0.347-1.358-0.897-1.358c-0.551,0-0.898,0.374-0.898,1.358V565.096z"/>
		<path fill="#717171" d="M216.902,557.793c0-2.205,0.929-3.465,2.629-3.465c1.701,0,2.63,1.26,2.63,3.465v7.165
			c0,2.204-0.929,3.464-2.63,3.464c-1.7,0-2.629-1.26-2.629-3.464V557.793z M218.634,565.096c0,0.984,0.347,1.358,0.897,1.358
			c0.551,0,0.898-0.374,0.898-1.358v-7.44c0-0.984-0.347-1.358-0.898-1.358c-0.551,0-0.897,0.374-0.897,1.358V565.096z"/>
		<path fill="#717171" d="M226.949,564.269l1.181-9.782h2.409v13.778h-1.638v-9.881l-1.197,9.881h-1.638l-1.291-9.743v9.743h-1.512
			v-13.778h2.409L226.949,564.269z"/>
		<path fill="#717171" d="M234.132,554.328c1.685,0,2.551,1.26,2.551,3.465v0.531h-1.638v-0.669c0-0.984-0.314-1.358-0.866-1.358
			s-0.866,0.374-0.866,1.358c0,2.834,3.386,3.366,3.386,7.303c0,2.204-0.882,3.464-2.583,3.464s-2.583-1.26-2.583-3.464v-0.945
			h1.638v1.083c0,0.984,0.346,1.338,0.897,1.338s0.897-0.354,0.897-1.338c0-2.835-3.385-3.366-3.385-7.303
			C231.581,555.588,232.447,554.328,234.132,554.328z"/>
	</g>
	<g>
		<path fill="#717171" d="M200.055,573.012h2.111v14.393h3.474v2.398h-5.585V573.012z"/>
		<path fill="#717171" d="M206.599,573.012h2.112v16.791h-2.112V573.012z"/>
		<path fill="#717171" d="M212.126,577.642v12.161h-1.9v-16.791h2.649l2.169,10.051v-10.051h1.881v16.791h-2.169L212.126,577.642z"
			/>
		<path fill="#717171" d="M221.204,583.11l-0.653,1.535v5.157h-2.112v-16.791h2.112v7.316l2.802-7.316h2.073l-2.937,7.484
			l2.937,9.307h-2.169L221.204,583.11z"/>
		<path fill="#717171" d="M226.289,580.208h3.839v2.398h-3.839V580.208z"/>
		<path fill="#717171" d="M237.824,577.162v2.183c0,2.687-1.036,4.149-3.148,4.149h-0.998v6.309h-2.112v-16.791h3.11
			C236.788,573.012,237.824,574.476,237.824,577.162z M233.678,575.41v5.686h0.998c0.672,0,1.037-0.384,1.037-1.583v-2.519
			c0-1.199-0.365-1.584-1.037-1.584H233.678z"/>
		<path fill="#717171" d="M243.217,589.803c-0.115-0.432-0.192-0.695-0.192-2.062v-2.639c0-1.56-0.422-2.135-1.382-2.135h-0.729
			v6.836h-2.112v-16.791h3.187c2.188,0,3.129,1.271,3.129,3.862v1.319c0,1.727-0.441,2.854-1.382,3.406
			c1.056,0.552,1.401,1.822,1.401,3.573v2.591c0,0.815,0.019,1.415,0.23,2.039H243.217z M240.914,575.41v5.157h0.825
			c0.787,0,1.267-0.432,1.267-1.774v-1.655c0-1.199-0.326-1.728-1.075-1.728H240.914z"/>
		<path fill="#717171" d="M248.628,580.088h2.898v2.398h-2.898v4.918h3.647v2.398h-5.759v-16.791h5.759v2.398h-3.647V580.088z"/>
		<path fill="#717171" d="M256.766,586.708l1.613-13.696h1.938l-2.073,16.791h-3.148l-2.073-16.791h2.131L256.766,586.708z"/>
		<path fill="#717171" d="M261.295,573.012h2.111v16.791h-2.111V573.012z"/>
		<path fill="#717171" d="M267.053,580.088h2.898v2.398h-2.898v4.918h3.647v2.398h-5.758v-16.791h5.758v2.398h-3.647V580.088z"/>
		<path fill="#717171" d="M276.688,580.855l-0.768,8.947h-2.898l-1.497-16.791h2.054l1.133,13.241l1.017-13.241h2.035l1.056,13.337
			l1.094-13.337h1.843l-1.497,16.791h-2.803L276.688,580.855z"/>
		<path fill="#717171" d="M285.649,572.82c2.054,0,3.109,1.535,3.109,4.222v0.647h-1.996v-0.815c0-1.199-0.384-1.655-1.056-1.655
			s-1.056,0.456-1.056,1.655c0,3.454,4.127,4.102,4.127,8.899c0,2.686-1.075,4.221-3.148,4.221c-2.073,0-3.148-1.535-3.148-4.221
			v-1.152h1.997v1.319c0,1.2,0.422,1.632,1.094,1.632c0.672,0,1.094-0.432,1.094-1.632c0-3.454-4.127-4.102-4.127-8.898
			C282.54,574.355,283.595,572.82,285.649,572.82z"/>
	</g>
	<g>
		<path fill="#717171" d="M114.238,503.613h2.291c1.449,0,2.16,1.134,2.16,3.216v6.579c0,2.081-0.711,3.215-2.16,3.215h-2.291
			V503.613z M115.687,505.472v9.293h0.816c0.461,0,0.738-0.335,0.738-1.264v-6.766c0-0.929-0.277-1.264-0.738-1.264H115.687z"/>
		<path fill="#717171" d="M121.06,509.096h1.989v1.858h-1.989v3.811h2.502v1.858h-3.95v-13.01h3.95v1.858h-2.502V509.096z"/>
		<path fill="#717171" d="M126.407,503.465c1.409,0,2.133,1.189,2.133,3.271v0.502h-1.37v-0.632c0-0.929-0.263-1.282-0.724-1.282
			s-0.724,0.354-0.724,1.282c0,2.677,2.831,3.178,2.831,6.896c0,2.081-0.737,3.271-2.16,3.271c-1.422,0-2.16-1.189-2.16-3.271
			v-0.893h1.37v1.022c0,0.93,0.29,1.264,0.75,1.264s0.75-0.334,0.75-1.264c0-2.677-2.831-3.178-2.831-6.896
			C124.274,504.654,124.998,503.465,126.407,503.465z"/>
		<path fill="#717171" d="M131.28,511.438l-0.448,1.189v3.996h-1.448v-13.01h1.448v5.669l1.923-5.669h1.422l-2.015,5.799
			l2.015,7.211h-1.488L131.28,511.438z"/>
		<path fill="#717171" d="M134.442,503.613h4.477v1.858h-1.514v11.151h-1.449v-11.151h-1.514V503.613z"/>
		<path fill="#717171" d="M139.459,506.735c0-2.081,0.777-3.271,2.199-3.271c1.422,0,2.199,1.189,2.199,3.271v6.766
			c0,2.081-0.777,3.271-2.199,3.271c-1.422,0-2.199-1.189-2.199-3.271V506.735z M140.908,513.631c0,0.93,0.29,1.282,0.75,1.282
			s0.75-0.353,0.75-1.282v-7.025c0-0.929-0.29-1.282-0.75-1.282s-0.75,0.354-0.75,1.282V513.631z"/>
		<path fill="#717171" d="M149.087,506.829v1.69c0,2.082-0.711,3.216-2.16,3.216h-0.685v4.888h-1.448v-13.01h2.133
			C148.375,503.613,149.087,504.747,149.087,506.829z M146.242,505.472v4.405h0.685c0.461,0,0.711-0.298,0.711-1.227v-1.952
			c0-0.929-0.25-1.227-0.711-1.227H146.242z"/>
		<path fill="#717171" d="M154.276,516.623h-1.462l-0.25-2.36h-1.778l-0.25,2.36h-1.33l1.475-13.01h2.12L154.276,516.623z
			 M150.971,512.497h1.396l-0.698-6.579L150.971,512.497z"/>
		<path fill="#717171" d="M159.242,506.829v1.69c0,2.082-0.711,3.216-2.16,3.216h-0.685v4.888h-1.448v-13.01h2.133
			C158.53,503.613,159.242,504.747,159.242,506.829z M156.397,505.472v4.405h0.685c0.461,0,0.711-0.298,0.711-1.227v-1.952
			c0-0.929-0.25-1.227-0.711-1.227H156.397z"/>
		<path fill="#717171" d="M164.207,506.829v1.69c0,2.082-0.711,3.216-2.16,3.216h-0.685v4.888h-1.448v-13.01h2.133
			C163.496,503.613,164.207,504.747,164.207,506.829z M161.362,505.472v4.405h0.685c0.461,0,0.711-0.298,0.711-1.227v-1.952
			c0-0.929-0.25-1.227-0.711-1.227H161.362z"/>
	</g>
	<g>
		<path fill="#717171" d="M144.884,397.026l2.037-18.398h4.156v25.913h-2.825v-18.583l-2.064,18.583h-2.825l-2.228-18.324v18.324
			h-2.607v-25.913h4.156L144.884,397.026z"/>
		<path fill="#717171" d="M156.235,389.548h4.101v3.702h-4.101v7.589h5.16v3.702h-8.148v-25.913h8.148v3.702h-5.16V389.548z"/>
		<path fill="#717171" d="M165.903,385.772v18.768h-2.689v-25.913h3.749l3.069,15.511v-15.511h2.662v25.913h-3.069L165.903,385.772z
			"/>
		<path fill="#717171" d="M174.022,378.628h9.235v3.702h-3.124v22.21h-2.988v-22.21h-3.124V378.628z"/>
		<path fill="#717171" d="M184.614,378.628h2.988v25.913h-2.988V378.628z"/>
		<path fill="#717171" d="M189.529,384.847c0-4.146,1.603-6.515,4.536-6.515c2.933,0,4.536,2.369,4.536,6.515v13.474
			c0,4.146-1.603,6.516-4.536,6.516c-2.934,0-4.536-2.369-4.536-6.516V384.847z M192.517,398.581c0,1.851,0.598,2.554,1.548,2.554
			s1.548-0.703,1.548-2.554v-13.993c0-1.851-0.597-2.554-1.548-2.554s-1.548,0.703-1.548,2.554V398.581z"/>
		<path fill="#717171" d="M203.189,385.772v18.768H200.5v-25.913h3.749l3.069,15.511v-15.511h2.662v25.913h-3.069L203.189,385.772z"
			/>
		<path fill="#717171" d="M216.143,378.332c2.906,0,4.4,2.369,4.4,6.515v1h-2.825v-1.259c0-1.851-0.543-2.554-1.494-2.554
			s-1.494,0.703-1.494,2.554c0,5.331,5.839,6.33,5.839,13.733c0,4.146-1.521,6.516-4.454,6.516c-2.934,0-4.455-2.369-4.455-6.516
			v-1.776h2.825v2.036c0,1.851,0.598,2.517,1.548,2.517s1.548-0.666,1.548-2.517c0-5.331-5.84-6.33-5.84-13.733
			C211.743,380.701,213.237,378.332,216.143,378.332z"/>
	</g>
	<g>
		<path fill="#717171" d="M227.775,466.475h-1.135l-0.194-1.771h-1.38l-0.194,1.771h-1.033l1.145-9.763h1.646L227.775,466.475z
			 M225.209,463.379h1.083l-0.542-4.938L225.209,463.379z"/>
		<path fill="#717171" d="M229.301,459.403v7.071h-1.012v-9.763h1.411l1.155,5.844v-5.844h1.002v9.763h-1.155L229.301,459.403z"/>
		<path fill="#717171" d="M232.667,456.712h1.779c1.125,0,1.676,0.851,1.676,2.413v4.937c0,1.562-0.552,2.413-1.676,2.413h-1.779
			V456.712z M233.792,458.106v6.974h0.634c0.358,0,0.572-0.251,0.572-0.948v-5.077c0-0.697-0.214-0.948-0.572-0.948H233.792z"/>
		<path fill="#717171" d="M239.191,466.475c-0.062-0.251-0.102-0.404-0.102-1.199v-1.534c0-0.906-0.225-1.241-0.736-1.241h-0.388
			v3.975h-1.125v-9.763h1.697c1.166,0,1.667,0.739,1.667,2.245v0.768c0,1.004-0.235,1.659-0.736,1.98
			c0.562,0.32,0.747,1.06,0.747,2.078v1.506c0,0.475,0.01,0.823,0.123,1.186H239.191z M237.964,458.106v2.999h0.439
			c0.419,0,0.675-0.251,0.675-1.032v-0.962c0-0.698-0.174-1.005-0.573-1.005H237.964z"/>
		<path fill="#717171" d="M240.86,459.055c0-1.562,0.603-2.454,1.708-2.454c1.104,0,1.707,0.893,1.707,2.454v5.077
			c0,1.562-0.603,2.454-1.707,2.454c-1.104,0-1.708-0.893-1.708-2.454V459.055z M241.984,464.229c0,0.697,0.225,0.962,0.583,0.962
			c0.357,0,0.583-0.265,0.583-0.962v-5.272c0-0.697-0.225-0.962-0.583-0.962c-0.358,0-0.583,0.265-0.583,0.962V464.229z"/>
		<path fill="#717171" d="M245.002,456.712h1.125v9.763h-1.125V456.712z"/>
		<path fill="#717171" d="M246.946,456.712h1.779c1.125,0,1.676,0.851,1.676,2.413v4.937c0,1.562-0.552,2.413-1.676,2.413h-1.779
			V456.712z M248.07,458.106v6.974h0.634c0.358,0,0.572-0.251,0.572-0.948v-5.077c0-0.697-0.214-0.948-0.572-0.948H248.07z"/>
	</g>
	<g>
		<path fill="#717171" d="M209.698,312.629v5.536c0,6.667-2.26,10.476-6.619,10.476s-6.619-3.81-6.619-10.476v-21.667
			c0-6.667,2.26-10.477,6.619-10.477s6.619,3.81,6.619,10.477v4.048H205.5v-4.464c0-2.977-0.888-4.107-2.3-4.107
			s-2.3,1.131-2.3,4.107v22.5c0,2.976,0.888,4.048,2.3,4.048s2.3-1.072,2.3-4.048v-5.953H209.698z"/>
		<path fill="#717171" d="M212.038,296.498c0-6.667,2.381-10.477,6.74-10.477s6.74,3.81,6.74,10.477v21.667
			c0,6.667-2.381,10.476-6.74,10.476s-6.74-3.81-6.74-10.476V296.498z M216.478,318.582c0,2.976,0.888,4.107,2.3,4.107
			s2.3-1.131,2.3-4.107v-22.5c0-2.977-0.888-4.107-2.3-4.107s-2.3,1.131-2.3,4.107V318.582z"/>
		<path fill="#717171" d="M232.338,297.986v30.179h-3.996v-41.667h5.569l4.561,24.94v-24.94h3.956v41.667h-4.561L232.338,297.986z"
			/>
		<path fill="#717171" d="M250.054,305.01h5.731v5.953h-5.731v17.203h-4.439v-41.667h11.745v5.952h-7.305V305.01z"/>
		<path fill="#717171" d="M263.937,304.058h6.095v5.953h-6.095v12.202h7.668v5.953h-12.108v-41.667h12.108v5.952h-7.668V304.058z"/>
		<path fill="#717171" d="M283.631,328.165c-0.242-1.071-0.403-1.726-0.403-5.119v-6.548c0-3.869-0.888-5.297-2.906-5.297h-1.534
			v16.964h-4.439v-41.667h6.7c4.601,0,6.579,3.155,6.579,9.583v3.273c0,4.286-0.928,7.083-2.906,8.453
			c2.22,1.369,2.946,4.524,2.946,8.869v6.429c0,2.024,0.04,3.512,0.484,5.06H283.631z M278.788,292.45v12.798h1.736
			c1.655,0,2.664-1.071,2.664-4.405v-4.107c0-2.977-0.686-4.286-2.26-4.286H278.788z"/>
		<path fill="#717171" d="M295.012,304.058h6.095v5.953h-6.095v12.202h7.668v5.953h-12.108v-41.667h12.108v5.952h-7.668V304.058z"/>
		<path fill="#717171" d="M309.379,297.986v30.179h-3.996v-41.667h5.569l4.561,24.94v-24.94h3.956v41.667h-4.561L309.379,297.986z"
			/>
		<path fill="#717171" d="M335.531,312.629v5.536c0,6.667-2.26,10.476-6.619,10.476s-6.619-3.81-6.619-10.476v-21.667
			c0-6.667,2.26-10.477,6.619-10.477s6.619,3.81,6.619,10.477v4.048h-4.198v-4.464c0-2.977-0.888-4.107-2.3-4.107
			s-2.3,1.131-2.3,4.107v22.5c0,2.976,0.888,4.048,2.3,4.048s2.3-1.072,2.3-4.048v-5.953H335.531z"/>
		<path fill="#717171" d="M342.673,304.058h6.095v5.953h-6.095v12.202h7.668v5.953h-12.108v-41.667h12.108v5.952h-7.668V304.058z"/>
	</g>
	<g>
		<path fill="#717171" d="M165.517,374.565h-4.665l-0.798-7.693h-5.673l-0.798,7.693h-4.244l4.707-42.404h6.766L165.517,374.565z
			 M154.969,361.117h4.455l-2.228-21.444L154.969,361.117z"/>
		<path fill="#717171" d="M172.069,332.161v32.712c0,3.029,0.924,4.119,2.396,4.119c1.471,0,2.395-1.09,2.395-4.119v-32.712h4.371
			v32.288c0,6.785-2.354,10.662-6.892,10.662c-4.538,0-6.892-3.877-6.892-10.662v-32.288H172.069z"/>
		<path fill="#717171" d="M184.379,332.161h7.312c4.623,0,6.892,3.695,6.892,10.48v21.444c0,6.785-2.27,10.48-6.892,10.48h-7.312
			V332.161z M189.001,338.219v30.289h2.605c1.471,0,2.354-1.09,2.354-4.12v-22.05c0-3.029-0.883-4.119-2.354-4.119H189.001z"/>
		<path fill="#717171" d="M201.522,332.161h4.622v42.404h-4.622V332.161z"/>
		<path fill="#717171" d="M209.126,342.338c0-6.785,2.479-10.662,7.018-10.662c4.539,0,7.018,3.877,7.018,10.662v22.05
			c0,6.785-2.479,10.662-7.018,10.662c-4.538,0-7.018-3.877-7.018-10.662V342.338z M213.749,364.812c0,3.029,0.924,4.18,2.395,4.18
			c1.471,0,2.396-1.151,2.396-4.18v-22.898c0-3.029-0.924-4.18-2.396-4.18c-1.471,0-2.395,1.151-2.395,4.18V364.812z"/>
	</g>
	<g>
		<path fill="#717171" d="M131.855,423.746c0-9.628,3.459-15.13,9.79-15.13c6.332,0,9.791,5.502,9.791,15.13v31.293
			c0,9.628-3.459,15.13-9.791,15.13c-6.331,0-9.79-5.502-9.79-15.13V423.746z M138.304,455.641c0,4.299,1.29,5.932,3.341,5.932
			c2.052,0,3.342-1.633,3.342-5.932v-32.496c0-4.298-1.29-5.932-3.342-5.932c-2.052,0-3.341,1.634-3.341,5.932V455.641z"/>
		<path fill="#717171" d="M174.709,424.177v7.822c0,9.629-3.166,14.873-9.614,14.873h-3.049v22.609h-6.448v-60.178h9.497
			C171.543,409.304,174.709,414.548,174.709,424.177z M162.046,417.9v20.375h3.049c2.052,0,3.166-1.376,3.166-5.674v-9.027
			c0-4.298-1.114-5.674-3.166-5.674H162.046z"/>
		<path fill="#717171" d="M184.146,434.664h8.853v8.597h-8.853v17.624h11.139v8.597h-17.587v-60.178h17.587v8.597h-11.139V434.664z"
			/>
		<path fill="#717171" d="M205.017,425.896v43.586h-5.804v-60.178h8.09l6.625,36.021v-36.021h5.745v60.178h-6.625L205.017,425.896z"
			/>
	</g>
	<g>
		<path fill="#717171" d="M262.556,408.616c6.272,0,9.497,5.502,9.497,15.13v2.321h-6.097v-2.923c0-4.298-1.172-5.932-3.224-5.932
			s-3.224,1.634-3.224,5.932c0,12.38,12.604,14.7,12.604,31.895c0,9.628-3.283,15.13-9.614,15.13c-6.332,0-9.615-5.502-9.615-15.13
			v-4.127h6.097v4.729c0,4.299,1.29,5.846,3.341,5.846c2.052,0,3.342-1.547,3.342-5.846c0-12.38-12.604-14.7-12.604-31.895
			C253.059,414.118,256.283,408.616,262.556,408.616z"/>
		<path fill="#717171" d="M275.277,423.746c0-9.628,3.459-15.13,9.79-15.13c6.332,0,9.791,5.502,9.791,15.13v31.293
			c0,9.628-3.459,15.13-9.791,15.13c-6.331,0-9.79-5.502-9.79-15.13V423.746z M281.726,455.641c0,4.299,1.29,5.932,3.341,5.932
			c2.052,0,3.342-1.633,3.342-5.932v-32.496c0-4.298-1.29-5.932-3.342-5.932c-2.052,0-3.341,1.634-3.341,5.932V455.641z"/>
		<path fill="#717171" d="M305.174,409.304v46.423c0,4.299,1.29,5.846,3.342,5.846c2.052,0,3.341-1.547,3.341-5.846v-46.423h6.097
			v45.821c0,9.628-3.283,15.13-9.615,15.13c-6.331,0-9.614-5.502-9.614-15.13v-45.821H305.174z"/>
		<path fill="#717171" d="M335.834,469.481c-0.352-1.548-0.586-2.493-0.586-7.394v-9.456c0-5.588-1.29-7.651-4.221-7.651h-2.228
			v24.501h-6.449v-60.178h9.732c6.683,0,9.556,4.557,9.556,13.841v4.729c0,6.189-1.348,10.23-4.221,12.207
			c3.224,1.978,4.279,6.534,4.279,12.81v9.284c0,2.923,0.059,5.072,0.704,7.308H335.834z M328.799,417.9v18.483h2.521
			c2.404,0,3.869-1.548,3.869-6.361v-5.932c0-4.299-0.997-6.19-3.283-6.19H328.799z"/>
		<path fill="#717171" d="M364.618,447.044v7.995c0,9.628-3.283,15.13-9.614,15.13s-9.614-5.502-9.614-15.13v-31.293
			c0-9.628,3.283-15.13,9.614-15.13s9.614,5.502,9.614,15.13v5.847h-6.097v-6.448c0-4.298-1.29-5.932-3.342-5.932
			c-2.052,0-3.341,1.634-3.341,5.932v32.496c0,4.299,1.29,5.846,3.341,5.846c2.052,0,3.342-1.547,3.342-5.846v-8.597H364.618z"/>
		<path fill="#717171" d="M374.993,434.664h8.853v8.597h-8.853v17.624h11.139v8.597h-17.587v-60.178h17.587v8.597h-11.139V434.664z"
			/>
	</g>
	<g>
		<g>
			<path fill="#717171" d="M233.151,363.122h9.73v9.88h-9.73v28.553h-7.538v-69.161h19.941v9.88h-12.403V363.122z"/>
			<path fill="#717171" d="M264.948,401.556c-0.411-1.778-0.686-2.865-0.686-8.497v-10.868c0-6.422-1.507-8.793-4.934-8.793h-2.604
				v28.158h-7.538v-69.161h11.375c7.812,0,11.17,5.237,11.17,15.907v5.434c0,7.113-1.576,11.757-4.934,14.029
				c3.769,2.272,5.002,7.509,5.002,14.722v10.67c0,3.359,0.069,5.829,0.822,8.398H264.948z M256.725,342.275v21.242h2.946
				c2.81,0,4.523-1.779,4.523-7.312v-6.817c0-4.94-1.165-7.113-3.837-7.113H256.725z"/>
			<path fill="#717171" d="M284.272,361.542h10.347v9.88h-10.347v20.254h13.02v9.88h-20.558v-69.161h20.558v9.88h-13.02V361.542z"/>
			<path fill="#717171" d="M309.49,361.542h10.347v9.88H309.49v20.254h13.02v9.88h-20.558v-69.161h20.558v9.88h-13.02V361.542z"/>
		</g>
	</g>
	<g>
		<g>
			<path fill="#717171" d="M229.052,440.613h11.725v8.597h-11.725V440.613z"/>
		</g>
	</g>
</g>
<g id="Layer_4">
	<g>
		<path fill="#FFFFFF" d="M102.206,624.807c0,4.868-1.812,8.062-5.297,9.587l5.006,19.031c0.222,0.877-0.21,1.303-1.019,1.303
			h-7.549c-0.724,0-1.084-0.36-1.233-1.012l-4.868-18.449h-5.014v18.308c0,0.728-0.425,1.153-1.153,1.153h-7.561
			c-0.724,0-1.161-0.43-1.161-1.153v-55.781c0-0.728,0.437-1.164,1.161-1.164h18.235c6.825,0,10.453,3.635,10.453,10.46V624.807z
			 M89.429,625.684c1.884,0,2.903-1.019,2.903-2.911v-13.649c0-1.889-1.019-2.907-2.903-2.907h-7.197v19.468H89.429z"/>
		<path fill="#FFFFFF" d="M108.018,607.093c0-6.829,3.627-10.468,10.46-10.468h8.131c6.829,0,10.456,3.639,10.456,10.468v37.179
			c0,6.825-3.627,10.456-10.456,10.456h-8.131c-6.833,0-10.46-3.631-10.46-10.456V607.093z M124.79,645.363
			c1.892,0,2.911-0.95,2.911-2.907v-33.552c0-1.888-1.019-2.903-2.911-2.903h-4.213c-1.884,0-2.899,1.016-2.899,2.903v33.552
			c0,1.957,1.015,2.907,2.899,2.907H124.79z"/>
		<path fill="#FFFFFF" d="M173.443,614.932c0,0.725-0.433,1.157-1.161,1.157h-7.262c-0.793,0-1.161-0.433-1.161-1.157v-5.81
			c0-1.889-1.019-2.903-2.903-2.903h-3.776c-1.953,0-2.903,1.015-2.903,2.903v33.114c0,1.965,1.019,2.911,2.903,2.911h3.776
			c1.885,0,2.903-0.95,2.903-2.911v-5.81c0-0.725,0.368-1.157,1.161-1.157h7.262c0.728,0,1.161,0.433,1.161,1.157v7.848
			c0,6.829-3.696,10.452-10.453,10.452h-8.131c-6.829,0-10.541-3.623-10.541-10.452v-37.187c0-6.825,3.711-10.46,10.541-10.46h8.131
			c6.756,0,10.453,3.635,10.453,10.46V614.932z"/>
		<path fill="#FFFFFF" d="M204.091,654.728c-0.877,0-1.375-0.36-1.67-1.084l-9.146-21.571l-2.693,5.155v16.048
			c0,0.946-0.509,1.452-1.459,1.452h-6.967c-0.95,0-1.448-0.506-1.448-1.452V598.08c0-0.941,0.498-1.447,1.448-1.447h6.967
			c0.95,0,1.459,0.506,1.459,1.447v22.514l11.184-22.873c0.364-0.724,0.873-1.088,1.674-1.088h7.622
			c1.092,0,1.528,0.724,1.019,1.739l-12.344,25.347l13.137,29.343c0.509,0.945,0.076,1.666-1.092,1.666H204.091z"/>
		<path fill="#FFFFFF" d="M247.157,605.056c0,0.724-0.299,1.233-1.168,1.233h-18.154v14.527h13.869c0.735,0,1.168,0.437,1.168,1.233
			v7.189c0,0.8-0.433,1.232-1.168,1.232h-13.869v14.674h18.154c0.877,0,1.168,0.363,1.168,1.16v7.266
			c0,0.724-0.299,1.156-1.168,1.156h-26.726c-0.651,0-1.084-0.433-1.084-1.156V597.79c0-0.72,0.433-1.164,1.084-1.164h26.726
			c0.877,0,1.168,0.444,1.168,1.164V605.056z"/>
		<path fill="#FFFFFF" d="M280.85,596.627c0.801,0,1.161,0.437,1.161,1.164v7.266c0,0.729-0.36,1.161-1.161,1.161h-8.422v47.354
			c0,0.797-0.368,1.149-1.168,1.149h-7.549c-0.724,0-1.156-0.353-1.156-1.149v-47.354h-8.426c-0.724,0-1.165-0.433-1.165-1.161
			v-7.266c0-0.728,0.44-1.164,1.165-1.164H280.85z"/>
		<path fill="#FFFFFF" d="M281.276,646.598c0-0.95,0.525-1.455,1.459-1.455h6.61c0.946,0,1.444,0.505,1.444,1.455v6.68
			c0,0.945-0.498,1.451-1.444,1.451h-6.61c-0.935,0-1.459-0.506-1.459-1.451V646.598z"/>
		<path fill="#FFFFFF" d="M327.177,614.932c0,0.725-0.44,1.157-1.161,1.157h-7.262c-0.793,0-1.161-0.433-1.161-1.157v-5.81
			c0-1.889-1.019-2.903-2.911-2.903h-3.769c-1.961,0-2.911,1.015-2.911,2.903v33.114c0,1.961,1.026,2.903,2.911,2.903h3.769
			c1.892,0,2.911-0.942,2.911-2.903v-5.81c0-0.725,0.368-1.157,1.161-1.157h7.262c0.728,0,1.161,0.433,1.161,1.157v7.848
			c0,6.829-3.704,10.452-10.456,10.452h-8.135c-6.829,0-10.533-3.623-10.533-10.452v-37.187c0-6.825,3.704-10.46,10.533-10.46h8.135
			c6.752,0,10.456,3.635,10.456,10.46V614.932z"/>
		<path fill="#FFFFFF" d="M353.606,597.79c0-0.72,0.448-1.164,1.168-1.164h7.473c0.873,0,1.233,0.444,1.233,1.164v55.781
			c0,0.721-0.36,1.157-1.233,1.157h-7.473c-0.728,0-1.168-0.437-1.168-1.157v-23.099h-9.292v23.099c0,0.729-0.433,1.157-1.161,1.157
			h-7.48c-0.866,0-1.233-0.437-1.233-1.157V597.79c0-0.72,0.368-1.164,1.233-1.164h7.48c0.728,0,1.161,0.444,1.161,1.164v23.096
			h9.292V597.79z"/>
		<path fill="#FFFFFF" d="M396.603,654.729c-0.647,0-1.015-0.359-1.165-1.015l-2.03-10.602h-12.93l-1.954,10.602
			c-0.149,0.655-0.509,1.015-1.168,1.015h-7.764c-0.8,0-1.168-0.437-0.95-1.229l12.064-55.85c0.134-0.728,0.575-1.022,1.226-1.022
			h10.092c0.659,0,1.092,0.295,1.233,1.022l12.061,55.85c0.149,0.793-0.142,1.229-1.019,1.229H396.603z M386.939,609.343
			l-4.646,25.343h9.292L386.939,609.343z"/>
		<path fill="#FFFFFF" d="M432.481,596.627c0.8,0,1.161,0.437,1.161,1.164v7.262c0,0.729-0.36,1.161-1.161,1.161h-8.43v47.358
			c0,0.797-0.36,1.149-1.16,1.149h-7.549c-0.731,0-1.157-0.353-1.157-1.149v-47.358l-8.434,0.004c-0.716,0-1.157-0.433-1.157-1.161
			v-7.266c0-0.728,0.44-1.164,1.157-1.164H432.481z"/>
	</g>
</g>
<g id="Layer_2">
	<g>
		<path fill-rule="evenodd" clip-rule="evenodd" fill="#BA2025" d="M252.921,29.787c-5.838,0-11.435,1.747-16.64,5.191
			c-4.671,3.094-8.806,7.429-12.291,12.882C217.265,58.39,213.56,72.23,213.56,86.827c0,4.876,0.412,9.682,1.229,14.343
			c-2.707,2.892-5.143,6.279-7.068,9.861c-9.277,19.141-0.218,35.013-0.218,35.013s12.123-14.757,22.749-12.357
			c6.55,6.601,14.448,10.181,22.669,10.181c0.025,0,0.053-0.001,0.079-0.001c0.026,0,0.051,0.001,0.079,0.001
			c8.222,0,16.119-3.578,22.668-10.181c10.628-2.4,22.751,12.357,22.751,12.357s9.057-15.873-0.218-35.013
			c-1.924-3.582-4.363-6.967-7.068-9.861c0.815-4.663,1.227-9.467,1.227-14.343c0-14.599-3.702-28.437-10.429-38.966
			c-3.484-5.454-7.618-9.789-12.291-12.882c-5.204-3.444-10.804-5.191-16.639-5.191c-0.027,0-0.053,0.001-0.079,0.001
			C252.975,29.789,252.946,29.787,252.921,29.787"/>
		<path fill-rule="evenodd" clip-rule="evenodd" fill="#FFFFFF" d="M221.814,86.828c0-27.03,13.997-48.944,31.264-48.944
			c17.265,0,31.264,21.914,31.264,48.944c0,6.019-0.697,11.783-1.965,17.109c6.51,5.412,15.562,17.317,12.636,28.884
			c-4.041-3.763-10.868-9.336-22.116-8.143c-5.393,6.933-12.297,11.094-19.82,11.094
			C235.811,135.772,221.814,113.859,221.814,86.828"/>
		<path fill-rule="evenodd" clip-rule="evenodd" fill="#BA2025" d="M254.084,80.326c-3.59,0-6.501,2.91-6.501,6.502
			c0,3.591,2.911,6.501,6.501,6.501c3.591,0,6.502-2.911,6.502-6.501C260.586,83.236,257.675,80.326,254.084,80.326"/>
		<path fill-rule="evenodd" clip-rule="evenodd" fill="#BA2025" d="M254.084,57.72c-3.59,0-6.501,2.912-6.501,6.501
			c0,3.591,2.911,6.502,6.501,6.502c3.591,0,6.502-2.911,6.502-6.502C260.586,60.631,257.675,57.72,254.084,57.72"/>
		<path fill-rule="evenodd" clip-rule="evenodd" fill="#BA2025" d="M254.084,102.934c-3.59,0-6.501,2.91-6.501,6.5
			c0,3.591,2.911,6.501,6.501,6.501s6.501-2.911,6.501-6.501C260.585,105.844,257.674,102.934,254.084,102.934"/>
		<path fill-rule="evenodd" clip-rule="evenodd" fill="#ABABAB" d="M280.228,86.828c0,6.019-0.604,11.783-1.704,17.109
			c4.983,4.779,11.681,14.621,11.436,24.821c2.036,1.344,3.702,2.805,5.053,4.063c2.925-11.567-6.125-23.473-12.638-28.884
			c1.271-5.326,1.965-11.091,1.965-17.109c0-26.814-13.775-48.588-30.851-48.936C268.29,38.239,280.228,60.013,280.228,86.828"/>
	</g>
</g>
</svg>
