<?xml version="1.0" encoding="utf-8"?>
<!-- Generator: Adobe Illustrator 16.0.0, SVG Export Plug-In . SVG Version: 6.00 Build 0)  -->
<!DOCTYPE svg PUBLIC "-//W3C//DTD SVG 1.1//EN" "http://www.w3.org/Graphics/SVG/1.1/DTD/svg11.dtd">
<svg version="1.1" id="Layer_1" xmlns="http://www.w3.org/2000/svg" xmlns:xlink="http://www.w3.org/1999/xlink" x="0px" y="0px"
	 width="1077.17px" height="1077.17px" viewBox="0 0 1077.17 1077.17" enable-background="new 0 0 1077.17 1077.17"
	 xml:space="preserve">
<g>
	<g>
		<path fill="#231F20" d="M451.277,62.478v27.402h-4.165V52.047h5.806l4.753,22.646V52.047h4.123v37.833h-4.754L451.277,62.478z"/>
		<path fill="#231F20" d="M464.741,61.126c0-6.053,2.482-9.512,7.025-9.512s7.025,3.459,7.025,9.512V80.8
			c0,6.053-2.482,9.512-7.025,9.512s-7.025-3.459-7.025-9.512V61.126z M469.369,81.178c0,2.703,0.925,3.729,2.398,3.729
			c1.472,0,2.398-1.027,2.398-3.729v-20.43c0-2.702-0.926-3.729-2.398-3.729c-1.473,0-2.398,1.027-2.398,3.729V81.178z"/>
		<path fill="#231F20" d="M480.52,52.047h14.303v5.404h-4.838v32.428h-4.627V57.451h-4.838V52.047z"/>
		<path fill="#231F20" d="M496.928,52.047h4.627v37.833h-4.627V52.047z"/>
		<path fill="#231F20" d="M509.549,68.855h5.974v5.404h-5.974v15.62h-4.627V52.047h12.242v5.404h-7.615V68.855z"/>
		<path fill="#231F20" d="M519.396,52.047h4.627v37.833h-4.627V52.047z"/>
		<path fill="#231F20" d="M540.81,75.773V80.8c0,6.053-2.356,9.512-6.899,9.512c-4.543,0-6.899-3.459-6.899-9.512V61.126
			c0-6.053,2.356-9.512,6.899-9.512c4.543,0,6.899,3.459,6.899,9.512v3.675h-4.375v-4.054c0-2.702-0.926-3.729-2.398-3.729
			c-1.473,0-2.398,1.027-2.398,3.729v20.43c0,2.703,0.925,3.675,2.398,3.675c1.472,0,2.398-0.973,2.398-3.675v-5.404H540.81z"/>
		<path fill="#231F20" d="M558.607,89.879h-4.67l-0.799-6.864h-5.68l-0.8,6.864h-4.249l4.712-37.833h6.772L558.607,89.879z
			 M548.048,77.881h4.459l-2.229-19.132L548.048,77.881z"/>
		<path fill="#231F20" d="M557.895,52.047h14.304v5.404h-4.838v32.428h-4.628V57.451h-4.838V52.047z"/>
		<path fill="#231F20" d="M574.303,52.047h4.628v37.833h-4.628V52.047z"/>
		<path fill="#231F20" d="M581.919,61.126c0-6.053,2.481-9.512,7.025-9.512s7.025,3.459,7.025,9.512V80.8
			c0,6.053-2.481,9.512-7.025,9.512s-7.025-3.459-7.025-9.512V61.126z M586.547,81.178c0,2.703,0.925,3.729,2.397,3.729
			c1.472,0,2.397-1.027,2.397-3.729v-20.43c0-2.702-0.926-3.729-2.397-3.729c-1.473,0-2.397,1.027-2.397,3.729V81.178z"/>
		<path fill="#231F20" d="M603.082,62.478v27.402h-4.165V52.047h5.806l4.754,22.646V52.047h4.123v37.833h-4.754L603.082,62.478z"/>
		<path fill="#231F20" d="M623.15,51.614c4.502,0,6.816,3.459,6.816,9.512v1.459h-4.376v-1.838c0-2.702-0.841-3.729-2.313-3.729
			s-2.314,1.027-2.314,3.729c0,7.783,9.045,9.242,9.045,20.052c0,6.053-2.355,9.512-6.898,9.512c-4.544,0-6.899-3.459-6.899-9.512
			v-2.595h4.375v2.973c0,2.703,0.925,3.675,2.397,3.675s2.398-0.973,2.398-3.675c0-7.783-9.045-9.242-9.045-20.051
			C616.336,55.073,618.65,51.614,623.15,51.614z"/>
	</g>
	<g>
		<path fill="#231F20" d="M506.131,41.15h-4.146V7.259h4.146v14.524h4.711V7.259h4.221V41.15h-4.221V26.625h-4.711V41.15z"/>
		<path fill="#231F20" d="M522.037,7.259v26.145c0,2.421,0.829,3.292,2.148,3.292c1.319,0,2.148-0.872,2.148-3.292V7.259h3.919
			v25.806c0,5.422-2.11,8.521-6.181,8.521c-4.07,0-6.181-3.099-6.181-8.521V7.259H522.037z"/>
		<path fill="#231F20" d="M545.481,15.054v1.21c0,3.486-0.829,5.713-2.676,6.827c2.224,1.113,3.091,3.68,3.091,7.262v2.76
			c0,5.229-2.148,8.037-6.294,8.037h-6.52V7.259h6.256C543.635,7.259,545.481,9.825,545.481,15.054z M537.228,12.1v8.957h1.621
			c1.545,0,2.488-0.872,2.488-3.583v-1.889c0-2.42-0.641-3.486-2.111-3.486H537.228z M537.228,25.899v10.409h2.375
			c1.394,0,2.148-0.823,2.148-3.34v-2.954c0-3.147-0.791-4.115-2.676-4.115H537.228z"/>
		<path fill="#231F20" d="M548.045,15.393c0-5.423,2.225-8.521,6.295-8.521s6.293,3.099,6.293,8.521v17.624
			c0,5.422-2.223,8.521-6.293,8.521s-6.295-3.099-6.295-8.521V15.393z M552.191,33.355c0,2.421,0.829,3.341,2.148,3.341
			c1.318,0,2.148-0.92,2.148-3.341V15.054c0-2.421-0.83-3.341-2.148-3.341c-1.319,0-2.148,0.92-2.148,3.341V33.355z"/>
		<path fill="#231F20" d="M562.18,7.259h12.814V12.1h-4.334v29.05h-4.146V12.1h-4.334V7.259z"/>
	</g>
	<g>
		<path fill="#231F20" d="M411.604,155.561c0.872,0.099,1.888,0.099,2.76,0.099c2.542,0,4.575-1.286,4.575-6.63V96.189h7.988v52.049
			c0,13.854-5.446,17.416-11.474,17.416c-1.452,0-2.542,0-3.849-0.198V155.561z"/>
		<path fill="#231F20" d="M458.223,165.457h-8.061l-1.38-12.567h-9.803l-1.38,12.567h-7.334l8.133-69.267h11.691L458.223,165.457z
			 M439.996,143.489h7.697l-3.849-35.029L439.996,143.489z"/>
		<path fill="#231F20" d="M472.164,152.691l6.1-56.502h7.334l-7.843,69.267h-11.909l-7.843-69.267h8.061L472.164,152.691z"/>
		<path fill="#231F20" d="M513.336,165.457h-8.061l-1.38-12.567h-9.803l-1.38,12.567h-7.334l8.133-69.267h11.691L513.336,165.457z
			 M495.109,143.489h7.697l-3.849-35.029L495.109,143.489z"/>
		<path fill="#231F20" d="M527.785,95.397c7.77,0,11.764,6.333,11.764,17.416v2.672h-7.552v-3.365c0-4.948-1.453-6.828-3.994-6.828
			s-3.994,1.88-3.994,6.828c0,14.25,15.612,16.921,15.612,36.712c0,11.083-4.066,17.416-11.909,17.416
			c-7.842,0-11.909-6.333-11.909-17.416v-4.75h7.552v5.442c0,4.948,1.598,6.729,4.139,6.729s4.139-1.781,4.139-6.729
			c0-14.249-15.612-16.921-15.612-36.711C516.021,101.73,520.015,95.397,527.785,95.397z"/>
		<path fill="#231F20" d="M567.359,139.63v9.203c0,11.083-4.066,17.416-11.91,17.416c-7.842,0-11.908-6.333-11.908-17.416v-36.019
			c0-11.083,4.066-17.416,11.908-17.416c7.844,0,11.91,6.333,11.91,17.416v6.729h-7.553v-7.421c0-4.948-1.598-6.828-4.139-6.828
			c-2.542,0-4.14,1.88-4.14,6.828v37.404c0,4.948,1.598,6.729,4.14,6.729c2.541,0,4.139-1.781,4.139-6.729v-9.895H567.359z"/>
		<path fill="#231F20" d="M588.924,165.457c-0.436-1.781-0.727-2.87-0.727-8.51v-10.885c0-6.432-1.598-8.807-5.229-8.807h-2.76
			v28.202h-7.987V96.189h12.054c8.279,0,11.837,5.244,11.837,15.931v5.442c0,7.125-1.67,11.775-5.229,14.052
			c3.994,2.276,5.302,7.52,5.302,14.744v10.687c0,3.365,0.072,5.838,0.871,8.411H588.924z M580.209,106.084v21.275h3.123
			c2.977,0,4.793-1.781,4.793-7.322v-6.828c0-4.947-1.234-7.125-4.066-7.125H580.209z"/>
		<path fill="#231F20" d="M601.411,96.189h7.987v69.267h-7.987V96.189z"/>
		<path fill="#231F20" d="M638.879,113.308v9.005c0,11.083-3.921,17.119-11.908,17.119h-3.776v26.025h-7.987V96.189h11.764
			C634.958,96.189,638.879,102.226,638.879,113.308z M623.194,106.084v23.452h3.776c2.541,0,3.921-1.583,3.921-6.531v-10.39
			c0-4.948-1.38-6.531-3.921-6.531H623.194z"/>
		<path fill="#231F20" d="M640.402,96.189h24.69v9.895h-8.351v59.372h-7.988v-59.372h-8.352V96.189z"/>
	</g>
	<g>
		<path fill="#231F20" d="M410.464,203.251h10.458v10.167h-10.458v29.382h-8.102v-71.168h21.433v10.167h-13.331V203.251z"/>
		<path fill="#231F20" d="M427.696,171.632h8.102v71.168h-8.102V171.632z"/>
		<path fill="#231F20" d="M441.688,171.632h8.102v61.001h13.331v10.167h-21.433V171.632z"/>
		<path fill="#231F20" d="M474.903,201.625h11.122v10.167h-11.122v20.842h13.994v10.167h-22.096v-71.168h22.096v10.167h-13.994
			V201.625z"/>
		<path fill="#231F20" d="M493.535,202.133h14.73V212.3h-14.73V202.133z"/>
		<path fill="#231F20" d="M521.52,171.632v54.901c0,5.083,1.621,6.914,4.198,6.914c2.578,0,4.199-1.83,4.199-6.914v-54.901h7.66
			v54.189c0,11.387-4.125,17.894-12.079,17.894s-12.079-6.507-12.079-17.894v-54.189H521.52z"/>
		<path fill="#231F20" d="M567.109,189.221v9.252c0,11.387-3.979,17.588-12.08,17.588h-3.83v26.739h-8.102v-71.168h11.932
			C563.131,171.632,567.109,177.834,567.109,189.221z M551.199,181.799v24.096h3.83c2.578,0,3.978-1.627,3.978-6.71v-10.675
			c0-5.083-1.399-6.71-3.978-6.71H551.199z"/>
		<path fill="#231F20" d="M570.862,171.632h8.103v61.001h13.33v10.167h-21.433V171.632z"/>
		<path fill="#231F20" d="M595.312,188.713c0-11.387,4.346-17.894,12.3-17.894c7.955,0,12.301,6.507,12.301,17.894v37.007
			c0,11.387-4.346,17.894-12.301,17.894c-7.954,0-12.3-6.507-12.3-17.894V188.713z M603.414,226.432c0,5.083,1.62,7.015,4.197,7.015
			c2.578,0,4.199-1.932,4.199-7.015v-38.431c0-5.083-1.621-7.015-4.199-7.015c-2.577,0-4.197,1.932-4.197,7.015V226.432z"/>
		<path fill="#231F20" d="M651.286,242.801h-8.176l-1.399-12.912h-9.943l-1.399,12.912h-7.438l8.249-71.168h11.858L651.286,242.801z
			 M632.799,220.23h7.808l-3.903-35.991L632.799,220.23z"/>
		<path fill="#231F20" d="M655.039,171.632h12.816c8.102,0,12.079,6.202,12.079,17.589v35.991c0,11.387-3.978,17.589-12.079,17.589
			h-12.816V171.632z M663.142,181.799v50.834h4.566c2.578,0,4.125-1.83,4.125-6.914v-37.007c0-5.083-1.547-6.914-4.125-6.914
			H663.142z"/>
	</g>
	<g>
		<path fill="#231F20" d="M373.307,284.357h11.837v11.205h-11.837v32.381h-9.169v-78.432h24.257v11.205h-15.088V284.357z"/>
		<path fill="#231F20" d="M392.813,249.511h9.169v78.432h-9.169V249.511z"/>
		<path fill="#231F20" d="M408.65,249.511h9.169v67.227h15.088v11.205H408.65V249.511z"/>
		<path fill="#231F20" d="M446.244,282.564h12.587v11.205h-12.587v22.969h15.838v11.205h-25.007v-78.432h25.007v11.205h-15.838
			V282.564z"/>
		<path fill="#231F20" d="M467.333,283.125h16.672v11.204h-16.672V283.125z"/>
		<path fill="#231F20" d="M502.594,248.614c8.919,0,13.504,7.171,13.504,19.72v3.025h-8.669v-3.81c0-5.602-1.667-7.731-4.585-7.731
			s-4.584,2.129-4.584,7.731c0,16.135,17.922,19.16,17.922,41.569c0,12.549-4.668,19.72-13.671,19.72
			c-9.002,0-13.67-7.171-13.67-19.72v-5.378h8.669v6.163c0,5.602,1.834,7.619,4.751,7.619s4.751-2.017,4.751-7.619
			c0-16.135-17.922-19.16-17.922-41.569C489.09,255.785,493.674,248.614,502.594,248.614z"/>
		<path fill="#231F20" d="M530.602,327.942h-9.169v-78.432h9.169v33.614h10.419v-33.614h9.336v78.432h-9.336v-33.614h-10.419
			V327.942z"/>
		<path fill="#231F20" d="M586.702,327.942h-9.253l-1.584-14.23h-11.254l-1.583,14.23h-8.419l9.336-78.432h13.42L586.702,327.942z
			 M565.779,303.068h8.836l-4.418-39.664L565.779,303.068z"/>
		<path fill="#231F20" d="M610.125,327.942c-0.5-2.017-0.833-3.25-0.833-9.636v-12.325c0-7.283-1.834-9.972-6.002-9.972h-3.167
			v31.933h-9.17v-78.432h13.838c9.502,0,13.587,5.938,13.587,18.039v6.163c0,8.067-1.917,13.333-6.002,15.911
			c4.585,2.577,6.085,8.515,6.085,16.695v12.101c0,3.81,0.084,6.611,1.001,9.524H610.125z M600.123,260.715v24.09h3.584
			c3.418,0,5.502-2.017,5.502-8.292v-7.731c0-5.603-1.418-8.067-4.668-8.067H600.123z"/>
		<path fill="#231F20" d="M624.463,249.511h9.17v78.432h-9.17V249.511z"/>
		<path fill="#231F20" d="M648.469,271.135v56.807h-8.252v-78.432h11.504l9.419,46.947v-46.947h8.169v78.432h-9.419L648.469,271.135
			z"/>
		<path fill="#231F20" d="M689.648,284.245h12.837v24.874c0,12.549-4.668,19.72-13.671,19.72s-13.671-7.171-13.671-19.72v-40.784
			c0-12.549,4.668-19.72,13.671-19.72s13.671,7.171,13.671,19.72v7.619h-8.669v-8.404c0-5.602-1.834-7.731-4.752-7.731
			c-2.917,0-4.751,2.129-4.751,7.731v42.354c0,5.602,1.834,7.619,4.751,7.619c2.918,0,4.752-2.017,4.752-7.619v-14.454h-4.168
			V284.245z"/>
	</g>
	<g>
		<path fill="#231F20" d="M710.969,302.249h2.837v20.792h4.667v3.465h-7.504V302.249z"/>
		<path fill="#231F20" d="M719.761,302.249h4.487c2.837,0,4.229,2.114,4.229,5.995v12.267c0,3.881-1.393,5.995-4.229,5.995h-4.487
			V302.249z M722.598,305.714v17.326h1.599c0.902,0,1.444-0.624,1.444-2.356v-12.613c0-1.733-0.542-2.356-1.444-2.356H722.598z"/>
		<path fill="#231F20" d="M739.437,326.506h-2.862l-0.49-4.401h-3.481l-0.489,4.401h-2.605l2.889-24.257h4.151L739.437,326.506z
			 M732.964,318.813h2.733l-1.367-12.267L732.964,318.813z"/>
		<path fill="#231F20" d="M749.157,308.244v3.154c0,3.881-1.393,5.995-4.229,5.995h-1.341v9.114h-2.837v-24.257h4.178
			C747.765,302.249,749.157,304.363,749.157,308.244z M743.587,305.714v8.212h1.341c0.902,0,1.393-0.554,1.393-2.287v-3.638
			c0-1.733-0.49-2.287-1.393-2.287H743.587z"/>
	</g>
	<g>
		<path fill="#231F20" d="M316.751,422.111v4.038c0,4.862-1.809,7.64-5.298,7.64c-3.488,0-5.297-2.778-5.297-7.64v-15.802
			c0-4.862,1.809-7.641,5.297-7.641c3.489,0,5.298,2.778,5.298,7.641v2.952h-3.359v-3.255c0-2.171-0.711-2.996-1.841-2.996
			c-1.131,0-1.841,0.825-1.841,2.996v16.409c0,2.17,0.71,2.952,1.841,2.952c1.13,0,1.841-0.782,1.841-2.952v-4.341H316.751z"/>
		<path fill="#231F20" d="M318.622,410.347c0-4.862,1.906-7.641,5.395-7.641s5.395,2.778,5.395,7.641v15.802
			c0,4.862-1.906,7.64-5.395,7.64s-5.395-2.778-5.395-7.64V410.347z M322.175,426.452c0,2.17,0.71,2.996,1.841,2.996
			c1.13,0,1.841-0.825,1.841-2.996v-16.409c0-2.171-0.711-2.996-1.841-2.996c-1.131,0-1.841,0.825-1.841,2.996V426.452z"/>
		<path fill="#231F20" d="M339.131,433.441c-0.194-0.781-0.323-1.259-0.323-3.733v-4.775c0-2.822-0.711-3.863-2.326-3.863h-1.228
			v12.372h-3.553v-30.388h5.362c3.683,0,5.266,2.301,5.266,6.989v2.387c0,3.126-0.743,5.166-2.326,6.165
			c1.777,0.999,2.358,3.299,2.358,6.468v4.688c0,1.476,0.032,2.561,0.388,3.69H339.131z M335.254,407.395v9.333h1.389
			c1.325,0,2.132-0.781,2.132-3.212v-2.996c0-2.17-0.549-3.125-1.809-3.125H335.254z"/>
		<path fill="#231F20" d="M344.684,403.054h5.621c3.554,0,5.298,2.648,5.298,7.51v15.368c0,4.862-1.744,7.51-5.298,7.51h-5.621
			V403.054z M348.237,407.395V429.1h2.003c1.131,0,1.809-0.781,1.809-2.952v-15.802c0-2.17-0.678-2.952-1.809-2.952H348.237z"/>
		<path fill="#231F20" d="M357.569,410.347c0-4.862,1.906-7.641,5.395-7.641s5.395,2.778,5.395,7.641v15.802
			c0,4.862-1.906,7.64-5.395,7.64s-5.395-2.778-5.395-7.64V410.347z M361.123,426.452c0,2.17,0.71,2.996,1.841,2.996
			c1.13,0,1.841-0.825,1.841-2.996v-16.409c0-2.171-0.711-2.996-1.841-2.996c-1.131,0-1.841,0.825-1.841,2.996V426.452z"/>
		<path fill="#231F20" d="M375.979,427.841l2.713-24.788h3.263l-3.489,30.388h-5.297l-3.489-30.388h3.585L375.979,427.841z"/>
		<path fill="#231F20" d="M394.292,433.441h-3.585l-0.614-5.513h-4.361l-0.614,5.513h-3.262l3.618-30.388h5.201L394.292,433.441z
			 M386.185,423.804h3.424l-1.712-15.368L386.185,423.804z"/>
	</g>
	<g>
		<path fill="#231F20" d="M323.18,396.185c-0.145-0.584-0.242-0.941-0.242-2.791v-3.57c0-2.109-0.531-2.889-1.739-2.889h-0.918v9.25
			h-2.657v-22.719h4.01c2.753,0,3.937,1.72,3.937,5.225v1.785c0,2.337-0.556,3.862-1.739,4.609c1.329,0.746,1.763,2.466,1.763,4.836
			v3.505c0,1.104,0.024,1.915,0.29,2.759H323.18z M320.281,376.711v6.978h1.039c0.991,0,1.594-0.584,1.594-2.402v-2.239
			c0-1.623-0.411-2.337-1.353-2.337H320.281z"/>
		<path fill="#231F20" d="M329.99,383.04h3.647v3.246h-3.647v6.653h4.589v3.246h-7.246v-22.719h7.246v3.246h-4.589V383.04z"/>
		<path fill="#231F20" d="M339.796,373.206c2.584,0,3.913,2.077,3.913,5.712v0.876h-2.512v-1.104c0-1.623-0.483-2.239-1.328-2.239
			c-0.846,0-1.329,0.617-1.329,2.239c0,4.674,5.193,5.55,5.193,12.041c0,3.635-1.353,5.712-3.961,5.712
			c-2.609,0-3.961-2.077-3.961-5.712v-1.558h2.512v1.785c0,1.623,0.531,2.207,1.376,2.207c0.846,0,1.377-0.584,1.377-2.207
			c0-4.674-5.193-5.55-5.193-12.041C335.883,375.283,337.211,373.206,339.796,373.206z"/>
		<path fill="#231F20" d="M344.529,373.466h8.212v3.246h-2.778v19.473h-2.657v-19.473h-2.778V373.466z"/>
		<path fill="#231F20" d="M353.054,383.203h4.831v3.245h-4.831V383.203z"/>
		<path fill="#231F20" d="M362.353,383.56h3.43v3.246h-3.43v9.379h-2.657v-22.719h7.029v3.246h-4.372V383.56z"/>
		<path fill="#231F20" d="M370.541,373.466v17.526c0,1.623,0.531,2.207,1.377,2.207c0.845,0,1.376-0.584,1.376-2.207v-17.526h2.512
			v17.299c0,3.635-1.353,5.712-3.961,5.712c-2.608,0-3.961-2.077-3.961-5.712v-17.299H370.541z"/>
		<path fill="#231F20" d="M377.617,373.466h2.657v19.473h4.372v3.246h-7.029V373.466z"/>
		<path fill="#231F20" d="M385.852,373.466h2.657v19.473h4.372v3.246h-7.029V373.466z"/>
	</g>
	<g>
		<path fill="#231F20" d="M341.238,345.001v3.496c0,4.303-1.544,6.647-4.689,6.647h-1.487v10.105h-3.145v-26.895h4.632
			C339.693,338.354,341.238,340.698,341.238,345.001z M335.061,342.196v9.105h1.487c1,0,1.544-0.615,1.544-2.536v-4.034
			c0-1.921-0.543-2.536-1.544-2.536H335.061z"/>
		<path fill="#231F20" d="M345.696,338.354v20.748c0,1.921,0.629,2.613,1.63,2.613c1,0,1.63-0.692,1.63-2.613v-20.748h2.974v20.479
			c0,4.303-1.601,6.762-4.689,6.762s-4.689-2.459-4.689-6.762v-20.479H345.696z"/>
		<path fill="#231F20" d="M363.479,344.54v0.961c0,2.766-0.629,4.534-2.03,5.417c1.687,0.883,2.345,2.92,2.345,5.763v2.19
			c0,4.149-1.63,6.378-4.775,6.378h-4.947v-26.895h4.747C362.078,338.354,363.479,340.39,363.479,344.54z M357.216,342.196v7.108
			h1.23c1.172,0,1.887-0.692,1.887-2.843v-1.499c0-1.921-0.486-2.766-1.602-2.766H357.216z M357.216,353.146v8.261h1.802
			c1.058,0,1.63-0.653,1.63-2.651v-2.344c0-2.498-0.601-3.266-2.03-3.266H357.216z"/>
		<path fill="#231F20" d="M365.677,338.354h3.146v23.053h5.176v3.842h-8.321V338.354z"/>
		<path fill="#231F20" d="M375.425,338.354h3.146v26.895h-3.146V338.354z"/>
		<path fill="#231F20" d="M389.978,355.221v3.573c0,4.304-1.602,6.763-4.689,6.763c-3.088,0-4.69-2.459-4.69-6.763v-13.985
			c0-4.303,1.602-6.762,4.69-6.762c3.088,0,4.689,2.459,4.689,6.762v2.613h-2.974v-2.882c0-1.921-0.629-2.651-1.63-2.651
			c-1,0-1.63,0.73-1.63,2.651v14.523c0,1.921,0.629,2.613,1.63,2.613c1.001,0,1.63-0.691,1.63-2.613v-3.842H389.978z"/>
	</g>
	<g>
		<path fill="#231F20" d="M722.367,477.318h-3.293v-29.074h3.293v12.46h3.742v-12.46h3.354v29.074h-3.354v-12.46h-3.742V477.318z"/>
		<path fill="#231F20" d="M731.86,448.244h3.293v29.074h-3.293V448.244z"/>
		<path fill="#231F20" d="M741.98,447.912c3.204,0,4.851,2.658,4.851,7.31v1.121h-3.114v-1.412c0-2.077-0.599-2.866-1.646-2.866
			s-1.646,0.789-1.646,2.866c0,5.981,6.437,7.103,6.437,15.409c0,4.652-1.676,7.311-4.909,7.311s-4.91-2.658-4.91-7.311v-1.993
			h3.113v2.284c0,2.077,0.659,2.824,1.707,2.824s1.706-0.748,1.706-2.824c0-5.981-6.437-7.103-6.437-15.409
			C737.131,450.57,738.777,447.912,741.98,447.912z"/>
		<path fill="#231F20" d="M747.852,448.244h10.179v4.154h-3.443v24.92h-3.293v-24.92h-3.442V448.244z"/>
		<path fill="#231F20" d="M759.259,455.222c0-4.652,1.767-7.31,5-7.31s5,2.658,5,7.31v15.118c0,4.652-1.767,7.311-5,7.311
			s-5-2.658-5-7.311V455.222z M762.553,470.631c0,2.077,0.658,2.866,1.706,2.866s1.706-0.789,1.706-2.866v-15.7
			c0-2.077-0.658-2.866-1.706-2.866s-1.706,0.789-1.706,2.866V470.631z"/>
		<path fill="#231F20" d="M778.272,477.318c-0.18-0.748-0.299-1.205-0.299-3.572v-4.569c0-2.7-0.659-3.697-2.156-3.697h-1.138
			v11.837h-3.293v-29.074h4.97c3.413,0,4.88,2.202,4.88,6.687v2.285c0,2.99-0.688,4.942-2.155,5.898
			c1.646,0.955,2.186,3.156,2.186,6.188v4.486c0,1.412,0.029,2.45,0.359,3.53H778.272z M774.68,452.397v8.93h1.288
			c1.228,0,1.976-0.748,1.976-3.074v-2.866c0-2.077-0.509-2.99-1.677-2.99H774.68z"/>
		<path fill="#231F20" d="M786.209,467.682l-4.161-19.438h3.442l2.515,13.25l2.515-13.25h3.144l-4.161,19.438v9.636h-3.293V467.682z
			"/>
	</g>
	<g>
		<path fill="#231F20" d="M741.328,500.941v2.279c0,6.564-1.446,10.758-4.667,12.855c3.879,2.097,5.391,6.929,5.391,13.676v5.197
			c0,9.846-3.747,15.134-10.978,15.134h-11.373v-63.82h10.912C738.107,486.262,741.328,491.094,741.328,500.941z M726.933,495.379
			v16.867h2.826c2.695,0,4.339-1.641,4.339-6.747v-3.556c0-4.558-1.117-6.564-3.682-6.564H726.933z M726.933,521.363v19.602h4.142
			c2.432,0,3.746-1.55,3.746-6.291v-5.562c0-5.926-1.38-7.75-4.667-7.75H726.933z"/>
		<path fill="#231F20" d="M752.177,528.93l-9.138-42.668h7.56l5.521,29.083l5.522-29.083h6.902l-9.138,42.668v21.152h-7.23V528.93z"
			/>
		<path fill="#231F20" d="M769.862,501.579c0-10.211,3.878-16.046,10.978-16.046s10.978,5.835,10.978,16.046v33.186
			c0,10.211-3.878,16.046-10.978,16.046s-10.978-5.835-10.978-16.046V501.579z M777.093,535.403c0,4.559,1.446,6.291,3.747,6.291
			s3.747-1.732,3.747-6.291v-34.462c0-4.559-1.446-6.291-3.747-6.291s-3.747,1.732-3.747,6.291V535.403z"/>
		<path fill="#231F20" d="M806.216,485.533c7.033,0,10.648,5.835,10.648,16.046v2.461h-6.836v-3.1c0-4.559-1.314-6.291-3.615-6.291
			s-3.616,1.732-3.616,6.291c0,13.128,14.134,15.59,14.134,33.824c0,10.211-3.682,16.046-10.781,16.046
			c-7.099,0-10.78-5.835-10.78-16.046v-4.376h6.837v5.014c0,4.559,1.446,6.2,3.747,6.2c2.3,0,3.746-1.642,3.746-6.2
			c0-13.128-14.133-15.59-14.133-33.824C795.566,491.368,799.182,485.533,806.216,485.533z"/>
	</g>
	<g>
		<path fill="#231F20" d="M730.548,586.17h8.962v18.228c0,9.196-3.259,14.451-9.544,14.451s-9.545-5.255-9.545-14.451V574.51
			c0-9.195,3.26-14.45,9.545-14.45s9.544,5.255,9.544,14.45v5.584h-6.053v-6.158c0-4.105-1.28-5.666-3.316-5.666
			c-2.037,0-3.317,1.561-3.317,5.666v31.036c0,4.105,1.28,5.584,3.317,5.584c2.036,0,3.316-1.479,3.316-5.584V594.38h-2.909V586.17z
			"/>
		<path fill="#231F20" d="M757.025,618.191c-0.349-1.478-0.582-2.381-0.582-7.062v-9.031c0-5.337-1.28-7.308-4.189-7.308h-2.212
			v23.4h-6.401v-57.476h9.66c6.635,0,9.486,4.352,9.486,13.22v4.516c0,5.912-1.339,9.771-4.19,11.659
			c3.201,1.889,4.249,6.24,4.249,12.234v8.867c0,2.792,0.058,4.845,0.698,6.979H757.025z M750.042,568.927v17.653h2.503
			c2.386,0,3.841-1.478,3.841-6.076v-5.665c0-4.105-0.989-5.912-3.259-5.912H750.042z"/>
		<path fill="#231F20" d="M766.509,574.51c0-9.195,3.434-14.45,9.72-14.45c6.285,0,9.719,5.255,9.719,14.45v29.888
			c0,9.196-3.434,14.451-9.719,14.451c-6.286,0-9.72-5.255-9.72-14.451V574.51z M772.911,604.972c0,4.105,1.28,5.666,3.317,5.666
			c2.036,0,3.316-1.561,3.316-5.666v-31.036c0-4.105-1.28-5.666-3.316-5.666c-2.037,0-3.317,1.561-3.317,5.666V604.972z"/>
		<path fill="#231F20" d="M796.188,560.716v44.339c0,4.104,1.28,5.583,3.317,5.583s3.317-1.479,3.317-5.583v-44.339h6.053v43.764
			c0,9.196-3.26,14.451-9.545,14.451s-9.544-5.255-9.544-14.451v-43.764H796.188z"/>
		<path fill="#231F20" d="M832.209,574.921v7.472c0,9.196-3.143,14.204-9.544,14.204h-3.026v21.595h-6.401v-57.476h9.428
			C829.066,560.716,832.209,565.725,832.209,574.921z M819.639,568.927v19.46h3.026c2.037,0,3.143-1.314,3.143-5.42v-8.621
			c0-4.105-1.105-5.419-3.143-5.419H819.639z"/>
		<path fill="#231F20" d="M843.79,560.06c6.227,0,9.428,5.255,9.428,14.45v2.218h-6.053v-2.792c0-4.105-1.164-5.666-3.201-5.666
			c-2.036,0-3.2,1.561-3.2,5.666c0,11.823,12.512,14.04,12.512,30.462c0,9.196-3.259,14.451-9.544,14.451s-9.544-5.255-9.544-14.451
			v-3.941h6.052v4.516c0,4.105,1.28,5.584,3.317,5.584s3.317-1.479,3.317-5.584c0-11.823-12.513-14.04-12.513-30.462
			C834.361,565.314,837.562,560.06,843.79,560.06z"/>
	</g>
	<g>
		<path fill="#231F20" d="M490.496,664.713h-4.212l-0.721-6.8h-5.123l-0.721,6.8h-3.833l4.25-37.48h6.11L490.496,664.713z
			 M480.971,652.826h4.022l-2.011-18.954L480.971,652.826z"/>
		<path fill="#231F20" d="M504.805,636.496v4.872c0,5.997-2.049,9.263-6.224,9.263h-1.973v14.082h-4.174v-37.48h6.147
			C502.756,627.232,504.805,630.499,504.805,636.496z M496.608,632.587v12.689h1.973c1.328,0,2.049-0.856,2.049-3.533v-5.622
			c0-2.678-0.721-3.534-2.049-3.534H496.608z"/>
		<path fill="#231F20" d="M506.743,627.232h4.174v37.48h-4.174V627.232z"/>
		<path fill="#231F20" d="M519.57,626.805c4.061,0,6.148,3.427,6.148,9.423v1.446h-3.947v-1.82c0-2.678-0.759-3.695-2.087-3.695
			s-2.087,1.018-2.087,3.695c0,7.71,8.159,9.155,8.159,19.864c0,5.997-2.125,9.424-6.224,9.424c-4.098,0-6.223-3.427-6.223-9.424
			v-2.57h3.946v2.945c0,2.677,0.835,3.641,2.163,3.641s2.163-0.964,2.163-3.641c0-7.711-8.159-9.156-8.159-19.865
			C513.423,630.231,515.51,626.805,519.57,626.805z"/>
	</g>
	<g>
		<path fill="#231F20" d="M487.835,673.871l-3.153,13.157l3.373,13.931h-3.181l-2.468-10.719l-2.496,10.719h-2.824l3.373-13.931
			l-3.153-13.157h3.125l2.276,9.984l2.331-9.984H487.835z"/>
		<path fill="#231F20" d="M495.954,693.104l2.056-19.232h4.195v27.088h-2.852v-19.426l-2.084,19.426h-2.852l-2.249-19.154v19.154
			h-2.632v-27.088h4.195L495.954,693.104z"/>
		<path fill="#231F20" d="M513.341,680.566v3.521c0,4.334-1.48,6.694-4.497,6.694h-1.426v10.177h-3.016v-27.088h4.442
			C511.861,673.871,513.341,676.232,513.341,680.566z M507.418,677.741v9.171h1.426c0.959,0,1.48-0.619,1.48-2.554v-4.063
			c0-1.935-0.521-2.554-1.48-2.554H507.418z"/>
		<path fill="#231F20" d="M523.681,680.566v3.521c0,4.334-1.48,6.694-4.497,6.694h-1.426v10.177h-3.016v-27.088h4.442
			C522.201,673.871,523.681,676.232,523.681,680.566z M517.758,677.741v9.171h1.426c0.959,0,1.48-0.619,1.48-2.554v-4.063
			c0-1.935-0.521-2.554-1.48-2.554H517.758z"/>
	</g>
	<g>
		<path fill="#231F20" d="M233.983,844.901l2.004-18.731h4.088v26.383h-2.779v-18.92l-2.03,18.92h-2.779l-2.191-18.656v18.656
			h-2.565V826.17h4.088L233.983,844.901z"/>
		<path fill="#231F20" d="M241.971,832.502c0-4.221,1.577-6.633,4.462-6.633c2.886,0,4.462,2.412,4.462,6.633v13.719
			c0,4.222-1.576,6.634-4.462,6.634c-2.885,0-4.462-2.412-4.462-6.634V832.502z M244.91,846.484c0,1.885,0.588,2.601,1.523,2.601
			s1.523-0.716,1.523-2.601v-14.246c0-1.885-0.588-2.601-1.523-2.601s-1.523,0.716-1.523,2.601V846.484z"/>
		<path fill="#231F20" d="M261.582,832.238v0.942c0,2.714-0.588,4.447-1.897,5.314c1.577,0.866,2.191,2.864,2.191,5.653v2.147
			c0,4.071-1.523,6.257-4.462,6.257h-4.622V826.17h4.435C260.272,826.17,261.582,828.168,261.582,832.238z M255.73,829.939v6.973
			h1.149c1.095,0,1.763-0.679,1.763-2.789v-1.471c0-1.884-0.454-2.713-1.496-2.713H255.73z M255.73,840.681v8.104h1.683
			c0.989,0,1.523-0.641,1.523-2.601v-2.3c0-2.449-0.561-3.203-1.897-3.203H255.73z"/>
		<path fill="#231F20" d="M263.638,826.17h2.939v26.383h-2.939V826.17z"/>
		<path fill="#231F20" d="M268.714,826.17h2.939v22.614h4.836v3.769h-7.775V826.17z"/>
		<path fill="#231F20" d="M280.763,837.289h4.034v3.769h-4.034v7.727h5.076v3.769h-8.015V826.17h8.015v3.77h-5.076V837.289z"/>
		<path fill="#231F20" d="M297.168,852.553h-2.966l-0.508-4.786h-3.607l-0.507,4.786h-2.699l2.992-26.383h4.302L297.168,852.553z
			 M290.461,844.186h2.832l-1.416-13.342L290.461,844.186z"/>
		<path fill="#231F20" d="M307.24,832.69v3.43c0,4.222-1.443,6.521-4.382,6.521h-1.389v9.912h-2.939V826.17h4.328
			C305.797,826.17,307.24,828.47,307.24,832.69z M301.469,829.939v8.932h1.389c0.935,0,1.443-0.603,1.443-2.487v-3.957
			c0-1.885-0.508-2.487-1.443-2.487H301.469z"/>
		<path fill="#231F20" d="M317.312,832.69v3.43c0,4.222-1.443,6.521-4.382,6.521h-1.389v9.912h-2.939V826.17h4.328
			C315.869,826.17,317.312,828.47,317.312,832.69z M311.541,829.939v8.932h1.389c0.935,0,1.443-0.603,1.443-2.487v-3.957
			c0-1.885-0.508-2.487-1.443-2.487H311.541z"/>
	</g>
	<g>
		<path fill="#231F20" d="M346.501,877.182l9.163-87.877h11.018l-11.781,107.73h-17.89l-11.781-107.73h12.109L346.501,877.182z"/>
		<path fill="#231F20" d="M372.246,789.305h12v107.73h-12V789.305z"/>
		<path fill="#231F20" d="M392.972,789.305h18.981c12,0,17.89,9.389,17.89,26.625v54.48c0,17.238-5.891,26.625-17.89,26.625h-18.981
			V789.305z M404.971,804.695v76.951h6.763c3.818,0,6.109-2.771,6.109-10.467v-56.02c0-7.695-2.291-10.465-6.109-10.465H404.971z"/>
		<path fill="#231F20" d="M449.479,834.707h16.472v15.389h-16.472v31.551h20.726v15.389h-32.726v-107.73h32.726v15.391h-20.726
			V834.707z"/>
		<path fill="#231F20" d="M476.642,815.16c0-17.236,6.436-27.086,18.217-27.086c11.781,0,18.217,9.85,18.217,27.086v56.02
			c0,17.238-6.436,27.088-18.217,27.088c-11.781,0-18.217-9.85-18.217-27.088V815.16z M488.641,872.258
			c0,7.695,2.4,10.619,6.218,10.619c3.818,0,6.218-2.924,6.218-10.619v-58.174c0-7.695-2.4-10.619-6.218-10.619
			c-3.818,0-6.218,2.924-6.218,10.619V872.258z"/>
	</g>
	<g>
		<path fill="#231F20" d="M566.303,867.67v16.877c0,20.324-7.581,31.939-22.201,31.939c-14.621,0-22.202-11.615-22.202-31.939
			V818.49c0-20.324,7.581-31.939,22.202-31.939c14.62,0,22.201,11.615,22.201,31.939v12.34h-14.079v-13.609
			c0-9.074-2.979-12.523-7.717-12.523c-4.738,0-7.716,3.449-7.716,12.523v68.596c0,9.074,2.979,12.34,7.716,12.34
			c4.738,0,7.717-3.266,7.717-12.34V867.67H566.303z"/>
		<path fill="#231F20" d="M590.262,915.033h-14.891V788.002h14.891v54.443h16.922v-54.443h15.162v127.031h-15.162v-54.441h-16.922
			V915.033z"/>
		<path fill="#231F20" d="M681.367,915.033h-15.026l-2.572-23.047h-18.275l-2.572,23.047h-13.673l15.162-127.031h21.795
			L681.367,915.033z M647.389,874.746h14.35l-7.175-64.24L647.389,874.746z"/>
		<path fill="#231F20" d="M679.065,788.002h46.028v18.148h-15.568v108.883h-14.892V806.15h-15.568V788.002z"/>
	</g>
	<g>
		<path fill="#231F20" d="M740.869,804.748l1.897-16.859h3.871v23.744h-2.631v-17.027l-1.923,17.027h-2.631l-2.075-16.791v16.791
			h-2.429v-23.744h3.871L740.869,804.748z"/>
		<path fill="#231F20" d="M751.445,797.896h3.82v3.391h-3.82v6.955h4.807v3.391h-7.59v-23.744h7.59v3.393h-4.807V797.896z"/>
		<path fill="#231F20" d="M757.974,787.889h4.402c2.783,0,4.149,2.07,4.149,5.869v12.008c0,3.799-1.366,5.867-4.149,5.867h-4.402
			V787.889z M760.757,791.281v16.961h1.568c0.886,0,1.417-0.611,1.417-2.307v-12.348c0-1.695-0.531-2.307-1.417-2.307H760.757z"/>
		<path fill="#231F20" d="M768.296,787.889h2.783v23.744h-2.783V787.889z"/>
		<path fill="#231F20" d="M782.11,811.633h-2.809l-0.48-4.307h-3.415l-0.48,4.307h-2.556l2.833-23.744h4.073L782.11,811.633z
			 M775.76,804.104h2.682l-1.341-12.008L775.76,804.104z"/>
		<path fill="#231F20" d="M783.022,798.064h5.06v3.393h-5.06V798.064z"/>
		<path fill="#231F20" d="M792.763,797.896h3.82v3.391h-3.82v6.955h4.807v3.391h-7.59v-23.744h7.59v3.393h-4.807V797.896z"/>
		<path fill="#231F20" d="M805.185,804.748l1.897-16.859h3.871v23.744h-2.631v-17.027l-1.923,17.027h-2.631l-2.075-16.791v16.791
			h-2.429v-23.744h3.871L805.185,804.748z"/>
		<path fill="#231F20" d="M821.302,793.35v0.85c0,2.441-0.557,4.002-1.796,4.781c1.493,0.781,2.074,2.578,2.074,5.088v1.934
			c0,3.664-1.441,5.631-4.225,5.631h-4.377v-23.744h4.2C820.062,787.889,821.302,789.688,821.302,793.35z M815.762,791.281v6.275
			h1.088c1.037,0,1.67-0.611,1.67-2.51v-1.324c0-1.695-0.431-2.441-1.417-2.441H815.762z M815.762,800.949v7.293h1.594
			c0.937,0,1.442-0.578,1.442-2.342v-2.068c0-2.205-0.531-2.883-1.797-2.883H815.762z"/>
		<path fill="#231F20" d="M826.034,797.896h3.82v3.391h-3.82v6.955h4.807v3.391h-7.59v-23.744h7.59v3.393h-4.807V797.896z"/>
		<path fill="#231F20" d="M832.562,787.889h4.402c2.783,0,4.149,2.07,4.149,5.869v12.008c0,3.799-1.366,5.867-4.149,5.867h-4.402
			V787.889z M835.345,791.281v16.961h1.568c0.886,0,1.417-0.611,1.417-2.307v-12.348c0-1.695-0.531-2.307-1.417-2.307H835.345z"/>
		<path fill="#231F20" d="M846.629,787.617c2.707,0,4.099,2.172,4.099,5.971v0.916h-2.631v-1.154c0-1.695-0.506-2.34-1.392-2.34
			s-1.392,0.645-1.392,2.34c0,4.885,5.439,5.801,5.439,12.586c0,3.799-1.417,5.969-4.149,5.969c-2.731,0-4.148-2.17-4.148-5.969
			v-1.629h2.631v1.865c0,1.695,0.557,2.307,1.442,2.307c0.885,0,1.441-0.611,1.441-2.307c0-4.885-5.438-5.801-5.438-12.584
			C842.531,789.789,843.922,787.617,846.629,787.617z"/>
	</g>
	<g>
		<path fill="#231F20" d="M743.626,833.068v7.645c0,9.41-3.384,14.535-10.277,14.535h-3.259v22.096h-6.894v-58.811h10.152
			C740.242,818.533,743.626,823.658,743.626,833.068z M730.09,826.935v19.912h3.259c2.193,0,3.384-1.345,3.384-5.545v-8.822
			c0-4.2-1.19-5.545-3.384-5.545H730.09z"/>
		<path fill="#231F20" d="M761.237,877.344c-0.376-1.513-0.626-2.437-0.626-7.226v-9.241c0-5.461-1.379-7.478-4.513-7.478h-2.381
			v23.944h-6.894v-58.811h10.402c7.145,0,10.215,4.453,10.215,13.526v4.621c0,6.049-1.441,9.998-4.512,11.93
			c3.447,1.933,4.575,6.386,4.575,12.519v9.073c0,2.856,0.062,4.957,0.752,7.142H761.237z M753.718,826.935v18.063h2.694
			c2.569,0,4.137-1.513,4.137-6.217v-5.797c0-4.201-1.065-6.05-3.51-6.05H753.718z"/>
		<path fill="#231F20" d="M772.019,818.533h6.894v58.811h-6.894V818.533z"/>
		<path fill="#231F20" d="M794.328,866.506l5.265-47.973h6.329l-6.768,58.811h-10.278l-6.768-58.811h6.956L794.328,866.506z"/>
		<path fill="#231F20" d="M829.863,877.344h-6.956l-1.19-10.67h-8.46l-1.191,10.67h-6.329l7.019-58.811h10.09L829.863,877.344z
			 M814.134,858.692h6.643l-3.321-29.741L814.134,858.692z"/>
		<path fill="#231F20" d="M828.8,818.533h21.307v8.401h-7.207v50.409h-6.894v-50.409H828.8V818.533z"/>
		<path fill="#231F20" d="M860.135,843.317h9.463v8.401h-9.463v17.224h11.906v8.401h-18.8v-58.811h18.8v8.401h-11.906V843.317z"/>
	</g>
	<g>
		<path fill="#231F20" d="M721.344,887.048h5.469c3.458,0,5.155,2.57,5.155,7.291v14.919c0,4.72-1.697,7.291-5.155,7.291h-5.469
			V887.048z M724.801,891.262v21.072h1.949c1.1,0,1.76-0.758,1.76-2.865v-15.341c0-2.107-0.66-2.866-1.76-2.866H724.801z"/>
		<path fill="#231F20" d="M734.17,887.048h3.457v29.501h-3.457V887.048z"/>
		<path fill="#231F20" d="M747.371,916.549c-0.189-0.759-0.314-1.223-0.314-3.624v-4.637c0-2.739-0.691-3.751-2.264-3.751h-1.194
			v12.012h-3.458v-29.501h5.219c3.583,0,5.123,2.233,5.123,6.785v2.317c0,3.035-0.723,5.016-2.263,5.985
			c1.729,0.969,2.294,3.202,2.294,6.279v4.552c0,1.433,0.032,2.486,0.378,3.582H747.371z M743.599,891.262v9.062h1.352
			c1.289,0,2.075-0.759,2.075-3.119v-2.907c0-2.107-0.535-3.035-1.761-3.035H743.599z"/>
		<path fill="#231F20" d="M756.236,899.48h4.746v4.214h-4.746v8.64h5.973v4.215h-9.43v-29.501h9.43v4.214h-5.973V899.48z"/>
		<path fill="#231F20" d="M774.374,905.549v3.92c0,4.72-1.76,7.417-5.154,7.417c-3.396,0-5.155-2.697-5.155-7.417v-15.341
			c0-4.721,1.76-7.418,5.155-7.418c3.395,0,5.154,2.697,5.154,7.418v2.866h-3.269v-3.161c0-2.107-0.691-2.908-1.792-2.908
			c-1.1,0-1.792,0.801-1.792,2.908v15.931c0,2.107,0.692,2.865,1.792,2.865c1.101,0,1.792-0.758,1.792-2.865v-4.215H774.374z"/>
		<path fill="#231F20" d="M775.538,887.048h10.688v4.214h-3.615v25.287h-3.458v-25.287h-3.614V887.048z"/>
		<path fill="#231F20" d="M786.636,899.691h6.286v4.214h-6.286V899.691z"/>
		<path fill="#231F20" d="M802.604,907.993l2.357-20.945h4.81v29.501h-3.27v-21.156l-2.389,21.156h-3.269l-2.578-20.861v20.861
			h-3.018v-29.501h4.81L802.604,907.993z"/>
		<path fill="#231F20" d="M815.744,899.48h4.746v4.214h-4.746v8.64h5.973v4.215h-9.43v-29.501h9.43v4.214h-5.973V899.48z"/>
		<path fill="#231F20" d="M828.507,886.71c3.363,0,5.093,2.697,5.093,7.418v1.138h-3.27v-1.433c0-2.107-0.629-2.908-1.729-2.908
			c-1.101,0-1.729,0.801-1.729,2.908c0,6.068,6.758,7.206,6.758,15.636c0,4.72-1.761,7.417-5.155,7.417s-5.155-2.697-5.155-7.417
			v-2.023h3.27v2.318c0,2.107,0.691,2.865,1.791,2.865c1.101,0,1.792-0.758,1.792-2.865c0-6.069-6.758-7.207-6.758-15.636
			C823.415,889.407,825.144,886.71,828.507,886.71z"/>
		<path fill="#231F20" d="M840.264,886.71c3.363,0,5.093,2.697,5.093,7.418v1.138h-3.27v-1.433c0-2.107-0.629-2.908-1.729-2.908
			c-1.101,0-1.729,0.801-1.729,2.908c0,6.068,6.759,7.206,6.759,15.636c0,4.72-1.761,7.417-5.155,7.417s-5.155-2.697-5.155-7.417
			v-2.023h3.27v2.318c0,2.107,0.691,2.865,1.792,2.865c1.1,0,1.791-0.758,1.791-2.865c0-6.069-6.758-7.207-6.758-15.636
			C835.172,889.407,836.9,886.71,840.264,886.71z"/>
		<path fill="#231F20" d="M858.559,916.549h-3.489l-0.597-5.353h-4.243l-0.598,5.353h-3.175l3.521-29.501h5.061L858.559,916.549z
			 M850.669,907.192h3.332l-1.666-14.919L850.669,907.192z"/>
		<path fill="#231F20" d="M865.318,900.112h4.841v9.356c0,4.72-1.76,7.417-5.154,7.417c-3.396,0-5.155-2.697-5.155-7.417v-15.341
			c0-4.721,1.76-7.418,5.155-7.418c3.395,0,5.154,2.697,5.154,7.418v2.866h-3.269v-3.161c0-2.107-0.691-2.908-1.792-2.908
			c-1.1,0-1.792,0.801-1.792,2.908v15.931c0,2.107,0.692,2.865,1.792,2.865c1.101,0,1.792-0.758,1.792-2.865v-5.437h-1.572V900.112z
			"/>
		<path fill="#231F20" d="M875.85,899.48h4.746v4.214h-4.746v8.64h5.973v4.215h-9.43v-29.501h9.43v4.214h-5.973V899.48z"/>
		<path fill="#231F20" d="M888.612,886.71c3.363,0,5.093,2.697,5.093,7.418v1.138h-3.27v-1.433c0-2.107-0.629-2.908-1.729-2.908
			c-1.101,0-1.729,0.801-1.729,2.908c0,6.068,6.758,7.206,6.758,15.636c0,4.72-1.761,7.417-5.155,7.417s-5.155-2.697-5.155-7.417
			v-2.023h3.27v2.318c0,2.107,0.691,2.865,1.791,2.865c1.101,0,1.792-0.758,1.792-2.865c0-6.069-6.758-7.207-6.758-15.636
			C883.521,889.407,885.249,886.71,888.612,886.71z"/>
	</g>
	<g>
		<path fill="#231F20" d="M243.579,801.757l-1.199,14.985h-4.525l-2.337-28.123h3.207l1.768,22.177l1.588-22.177h3.176l1.648,22.338
			l1.708-22.338h2.877l-2.337,28.123h-4.375L243.579,801.757z"/>
		<path fill="#231F20" d="M256.438,800.471h4.525v4.018h-4.525v8.236h5.694v4.018h-8.991v-28.123h8.991v4.018h-5.694V800.471z"/>
		<path fill="#231F20" d="M274.032,795.087v1.005c0,2.893-0.659,4.74-2.127,5.665c1.768,0.924,2.458,3.053,2.458,6.026v2.29
			c0,4.339-1.708,6.669-5.005,6.669h-5.185v-28.123h4.975C272.564,788.619,274.032,790.748,274.032,795.087z M267.469,792.637v7.433
			h1.289c1.229,0,1.978-0.724,1.978-2.974v-1.566c0-2.009-0.509-2.893-1.678-2.893H267.469z M267.469,804.087v8.638h1.888
			c1.109,0,1.708-0.683,1.708-2.772v-2.45c0-2.611-0.629-3.415-2.127-3.415H267.469z"/>
		<path fill="#231F20" d="M287.012,816.742h-3.327l-0.569-5.103h-4.046l-0.569,5.103h-3.027l3.356-28.123h4.825L287.012,816.742z
			 M279.489,807.823h3.177l-1.588-14.223L279.489,807.823z"/>
		<path fill="#231F20" d="M298.312,795.569v3.656c0,4.499-1.618,6.95-4.915,6.95h-1.559v10.566h-3.296v-28.123h4.855
			C296.694,788.619,298.312,791.069,298.312,795.569z M291.839,792.637v9.521h1.559c1.049,0,1.618-0.643,1.618-2.651v-4.219
			c0-2.009-0.569-2.651-1.618-2.651H291.839z"/>
		<path fill="#231F20" d="M309.612,795.569v3.656c0,4.499-1.618,6.95-4.915,6.95h-1.559v10.566h-3.296v-28.123h4.855
			C307.994,788.619,309.612,791.069,309.612,795.569z M303.139,792.637v9.521h1.559c1.049,0,1.618-0.643,1.618-2.651v-4.219
			c0-2.009-0.569-2.651-1.618-2.651H303.139z"/>
	</g>
	<g>
		<path fill="#231F20" d="M199.265,905.791h3.918v33.41h-3.918V905.791z"/>
		<path fill="#231F20" d="M209.52,915.002v24.199h-3.525v-33.41h4.915l4.024,19.998v-19.998h3.49v33.41h-4.024L209.52,915.002z"/>
		<path fill="#231F20" d="M220.165,905.791h12.109v4.772h-4.096v28.638h-3.917v-28.638h-4.096V905.791z"/>
		<path fill="#231F20" d="M237.969,919.871h5.377v4.772h-5.377v9.784h6.767v4.773h-10.684v-33.41h10.684v4.772h-6.767V919.871z"/>
		<path fill="#231F20" d="M253.031,920.587h5.485v10.596c0,5.346-1.995,8.4-5.841,8.4s-5.841-3.055-5.841-8.4v-17.374
			c0-5.346,1.995-8.4,5.841-8.4s5.841,3.055,5.841,8.4v3.246h-3.704v-3.58c0-2.386-0.784-3.293-2.03-3.293
			c-1.247,0-2.03,0.907-2.03,3.293v18.042c0,2.387,0.784,3.246,2.03,3.246c1.246,0,2.03-0.859,2.03-3.246v-6.157h-1.781V920.587z"/>
		<path fill="#231F20" d="M269.232,939.201c-0.214-0.859-0.356-1.384-0.356-4.104v-5.251c0-3.102-0.784-4.247-2.564-4.247h-1.353
			v13.603h-3.918v-33.41h5.912c4.06,0,5.805,2.529,5.805,7.684v2.625c0,3.438-0.819,5.681-2.564,6.778
			c1.959,1.098,2.6,3.627,2.6,7.111v5.155c0,1.622,0.036,2.815,0.427,4.057H269.232z M264.959,910.563v10.262h1.531
			c1.46,0,2.351-0.859,2.351-3.532V914c0-2.387-0.605-3.437-1.995-3.437H264.959z"/>
		<path fill="#231F20" d="M288.033,939.201h-3.953l-0.677-6.062h-4.808l-0.677,6.062h-3.597l3.989-33.41h5.734L288.033,939.201z
			 M279.094,928.605h3.775l-1.887-16.896L279.094,928.605z"/>
		<path fill="#231F20" d="M287.425,905.791h12.109v4.772h-4.096v28.638h-3.917v-28.638h-4.096V905.791z"/>
		<path fill="#231F20" d="M301.312,905.791h3.918v33.41h-3.918V905.791z"/>
		<path fill="#231F20" d="M307.756,913.809c0-5.346,2.101-8.4,5.948-8.4c3.846,0,5.947,3.055,5.947,8.4v17.374
			c0,5.346-2.101,8.4-5.947,8.4c-3.847,0-5.948-3.055-5.948-8.4V913.809z M311.673,931.517c0,2.387,0.784,3.294,2.03,3.294
			c1.246,0,2.03-0.907,2.03-3.294v-18.042c0-2.386-0.784-3.293-2.03-3.293c-1.247,0-2.03,0.907-2.03,3.293V931.517z"/>
		<path fill="#231F20" d="M325.667,915.002v24.199h-3.525v-33.41h4.915l4.024,19.998v-19.998h3.49v33.41h-4.024L325.667,915.002z"/>
	</g>
	<g>
		<path fill="#231F20" d="M178.624,954.812c0-4.559,1.792-7.164,5.071-7.164s5.071,2.605,5.071,7.164v14.812
			c0,4.557-1.792,7.162-5.071,7.162s-5.071-2.605-5.071-7.162V954.812z M181.964,969.91c0,2.033,0.668,2.807,1.731,2.807
			c1.063,0,1.731-0.773,1.731-2.807v-15.383c0-2.035-0.668-2.809-1.731-2.809c-1.062,0-1.731,0.773-1.731,2.809V969.91z"/>
		<path fill="#231F20" d="M194.26,960.631h4.312v4.07h-4.312v11.76h-3.34v-28.486h8.836v4.07h-5.496V960.631z"/>
		<path fill="#231F20" d="M204.704,960.631h4.312v4.07h-4.312v11.76h-3.34v-28.486h8.836v4.07h-5.496V960.631z"/>
		<path fill="#231F20" d="M211.534,954.812c0-4.559,1.792-7.164,5.071-7.164s5.071,2.605,5.071,7.164v14.812
			c0,4.557-1.792,7.162-5.071,7.162s-5.071-2.605-5.071-7.162V954.812z M214.874,969.91c0,2.033,0.668,2.807,1.731,2.807
			c1.063,0,1.731-0.773,1.731-2.807v-15.383c0-2.035-0.668-2.809-1.731-2.809c-1.062,0-1.731,0.773-1.731,2.809V969.91z"/>
		<path fill="#231F20" d="M222.918,947.975h10.324v4.07h-3.492v24.416h-3.34v-24.416h-3.492V947.975z"/>
		<path fill="#231F20" d="M238.099,976.461h-3.34v-28.486h3.34v12.209h3.796v-12.209h3.401v28.486h-3.401v-12.209h-3.796V976.461z"
			/>
		<path fill="#231F20" d="M251.062,959.98h4.585v4.068h-4.585v8.344h5.77v4.068h-9.109v-28.486h9.109v4.07h-5.77V959.98z"/>
		<path fill="#231F20" d="M258.743,960.184h6.073v4.068h-6.073V960.184z"/>
		<path fill="#231F20" d="M274.076,976.461c-0.183-0.732-0.304-1.18-0.304-3.5v-4.477c0-2.645-0.668-3.621-2.187-3.621h-1.154
			v11.598h-3.34v-28.486h5.041c3.461,0,4.949,2.156,4.949,6.553v2.238c0,2.93-0.698,4.842-2.186,5.777
			c1.67,0.938,2.216,3.094,2.216,6.064v4.395c0,1.385,0.031,2.402,0.365,3.459H274.076z M270.432,952.045v8.748h1.306
			c1.245,0,2.004-0.732,2.004-3.01v-2.809c0-2.035-0.517-2.93-1.701-2.93H270.432z"/>
		<path fill="#231F20" d="M282.636,959.98h4.585v4.068h-4.585v8.344h5.77v4.068h-9.11v-28.486h9.11v4.07h-5.77V959.98z"/>
		<path fill="#231F20" d="M300.154,965.84v3.785c0,4.557-1.7,7.162-4.979,7.162c-3.28,0-4.98-2.605-4.98-7.162v-14.812
			c0-4.559,1.7-7.164,4.98-7.164c3.279,0,4.979,2.605,4.979,7.164v2.766h-3.158v-3.051c0-2.035-0.668-2.809-1.731-2.809
			c-1.062,0-1.731,0.773-1.731,2.809v15.383c0,2.033,0.668,2.768,1.731,2.768c1.063,0,1.731-0.734,1.731-2.768v-4.07H300.154z"/>
		<path fill="#231F20" d="M301.914,954.812c0-4.559,1.792-7.164,5.071-7.164s5.071,2.605,5.071,7.164v14.812
			c0,4.557-1.792,7.162-5.071,7.162s-5.071-2.605-5.071-7.162V954.812z M305.253,969.91c0,2.033,0.668,2.807,1.731,2.807
			c1.063,0,1.731-0.773,1.731-2.807v-15.383c0-2.035-0.668-2.809-1.731-2.809c-1.062,0-1.731,0.773-1.731,2.809V969.91z"/>
		<path fill="#231F20" d="M321.193,976.461c-0.182-0.732-0.304-1.18-0.304-3.5v-4.477c0-2.645-0.668-3.621-2.187-3.621h-1.154
			v11.598h-3.34v-28.486h5.041c3.461,0,4.949,2.156,4.949,6.553v2.238c0,2.93-0.698,4.842-2.186,5.777
			c1.67,0.938,2.216,3.094,2.216,6.064v4.395c0,1.385,0.031,2.402,0.365,3.459H321.193z M317.549,952.045v8.748h1.306
			c1.245,0,2.004-0.732,2.004-3.01v-2.809c0-2.035-0.517-2.93-1.701-2.93H317.549z"/>
		<path fill="#231F20" d="M326.414,947.975h5.284c3.34,0,4.98,2.482,4.98,7.041v14.406c0,4.557-1.64,7.039-4.98,7.039h-5.284
			V947.975z M329.754,952.045v20.348h1.883c1.062,0,1.7-0.732,1.7-2.768v-14.812c0-2.035-0.638-2.768-1.7-2.768H329.754z"/>
	</g>
	<g>
		<path fill="#231F20" d="M354.283,925.527v48.676h-6.944v-67.206h9.68l7.926,40.228v-40.228h6.875v67.206h-7.927L354.283,925.527z"
			/>
		<path fill="#231F20" d="M376.729,923.127c0-10.753,4.139-16.897,11.714-16.897s11.714,6.145,11.714,16.897v34.947
			c0,10.752-4.139,16.896-11.714,16.896s-11.714-6.145-11.714-16.896V923.127z M384.446,958.746c0,4.8,1.543,6.624,3.998,6.624
			s3.998-1.824,3.998-6.624v-36.291c0-4.801-1.543-6.625-3.998-6.625s-3.998,1.824-3.998,6.625V958.746z"/>
		<path fill="#231F20" d="M405.139,906.997h12.205c7.716,0,11.504,5.856,11.504,16.609v33.987c0,10.753-3.788,16.609-11.504,16.609
			h-12.205V906.997z M412.855,916.598v48.005h4.349c2.455,0,3.928-1.729,3.928-6.528v-34.947c0-4.801-1.473-6.529-3.928-6.529
			H412.855z"/>
		<path fill="#231F20" d="M441.475,935.319h10.592v9.602h-10.592v19.682h13.328v9.601h-21.043v-67.206h21.043v9.601h-13.328V935.319
			z"/>
		<path fill="#231F20" d="M457.469,964.603c0.841,0.096,1.824,0.096,2.665,0.096c2.455,0,4.419-1.248,4.419-6.433v-51.269h7.716
			v50.501c0,13.44-5.261,16.897-11.083,16.897c-1.403,0-2.455,0-3.717-0.192V964.603z"/>
		<path fill="#231F20" d="M487.912,906.229c7.506,0,11.364,6.145,11.364,16.897v2.592h-7.295v-3.264
			c0-4.801-1.403-6.625-3.858-6.625s-3.858,1.824-3.858,6.625c0,13.825,15.081,16.417,15.081,35.619
			c0,10.752-3.928,16.896-11.503,16.896s-11.504-6.145-11.504-16.896v-4.609h7.295v5.281c0,4.8,1.543,6.528,3.999,6.528
			s3.998-1.729,3.998-6.528c0-13.825-15.081-16.418-15.081-35.619C476.548,912.374,480.406,906.229,487.912,906.229z"/>
	</g>
	<g>
		<path fill="#231F20" d="M519.598,960.566l3.598-32.746h7.34v46.121h-4.989v-33.075l-3.646,33.075h-4.989l-3.934-32.614v32.614
			h-4.605V927.82h7.34L519.598,960.566z"/>
		<path fill="#231F20" d="M539.651,947.257h7.243v6.589h-7.243v13.507h9.114v6.589h-14.392V927.82h14.392v6.589h-9.114V947.257z"/>
		<path fill="#231F20" d="M550.59,927.82H566.9v6.589h-5.517v39.532h-5.277v-39.532h-5.517V927.82z"/>
		<path fill="#231F20" d="M574.576,947.257h7.244v6.589h-7.244v13.507h9.115v6.589h-14.393V927.82h14.393v6.589h-9.115V947.257z"/>
		<path fill="#231F20" d="M586.521,938.89c0-7.38,2.83-11.597,8.012-11.597c5.181,0,8.012,4.217,8.012,11.597v23.982
			c0,7.38-2.831,11.597-8.012,11.597c-5.182,0-8.012-4.217-8.012-11.597V938.89z M591.799,963.334c0,3.294,1.055,4.546,2.734,4.546
			c1.679,0,2.734-1.252,2.734-4.546v-24.906c0-3.294-1.056-4.546-2.734-4.546c-1.68,0-2.734,1.252-2.734,4.546V963.334z"/>
		<path fill="#231F20" d="M616.985,973.941c-0.288-1.186-0.479-1.911-0.479-5.666v-7.248c0-4.282-1.056-5.864-3.455-5.864h-1.822
			v18.778h-5.277V927.82h7.964c5.469,0,7.819,3.492,7.819,10.607v3.624c0,4.744-1.104,7.841-3.454,9.356
			c2.639,1.515,3.502,5.007,3.502,9.817v7.115c0,2.24,0.048,3.888,0.576,5.601H616.985z M611.229,934.409v14.166h2.062
			c1.967,0,3.166-1.187,3.166-4.876v-4.547c0-3.294-0.815-4.743-2.686-4.743H611.229z"/>
	</g>
	<g>
		<path fill="#231F20" d="M658.807,1046.225l6.592-60.699h13.447v85.492h-9.141v-61.31l-6.68,61.31h-9.141l-7.207-60.455v60.455
			h-8.438v-85.492h13.447L658.807,1046.225z"/>
		<path fill="#231F20" d="M717.165,1071.018h-9.756l-1.67-15.511h-11.865l-1.67,15.511h-8.877l9.844-85.492h14.15L717.165,1071.018z
			 M695.104,1043.904h9.316l-4.658-43.234L695.104,1043.904z"/>
		<path fill="#231F20" d="M741.862,1071.018c-0.527-2.198-0.879-3.542-0.879-10.503v-13.435c0-7.938-1.934-10.87-6.328-10.87h-3.34
			v34.808h-9.668v-85.492h14.59c10.02,0,14.326,6.474,14.326,19.663v6.718c0,8.793-2.021,14.533-6.328,17.343
			c4.834,2.809,6.416,9.281,6.416,18.197v13.19c0,4.152,0.088,7.205,1.055,10.381H741.862z M731.315,997.738v26.259h3.779
			c3.604,0,5.801-2.198,5.801-9.038v-8.427c0-6.106-1.494-8.794-4.922-8.794H731.315z"/>
		<path fill="#231F20" d="M769.636,1036.943l-2.988,7.816v26.258h-9.668v-85.492h9.668v37.25l12.832-37.25h9.492l-13.447,38.105
			l13.447,47.387h-9.932L769.636,1036.943z"/>
		<path fill="#231F20" d="M793.365,985.525h15.293c9.668,0,14.414,7.45,14.414,21.129v43.234c0,13.679-4.746,21.129-14.414,21.129
			h-15.293V985.525z M803.033,997.738v61.066h5.449c3.076,0,4.922-2.198,4.922-8.305v-44.456c0-6.106-1.846-8.306-4.922-8.306
			H803.033z"/>
		<path fill="#231F20" d="M828.434,1006.044c0-13.679,5.186-21.495,14.678-21.495s14.678,7.816,14.678,21.495v44.456
			c0,13.678-5.186,21.494-14.678,21.494s-14.678-7.816-14.678-21.494V1006.044z M838.102,1051.354c0,6.106,1.934,8.427,5.01,8.427
			s5.01-2.32,5.01-8.427v-46.166c0-6.106-1.934-8.427-5.01-8.427s-5.01,2.32-5.01,8.427V1051.354z"/>
		<path fill="#231F20" d="M885.475,1025.463l-3.516,45.555h-13.271l-6.855-85.492h9.404l5.186,67.417l4.658-67.417h9.316
			l4.834,67.905l5.01-67.905h8.438l-6.855,85.492H888.99L885.475,1025.463z"/>
		<path fill="#231F20" d="M922.125,1009.097v61.921h-8.701v-85.492h12.129l9.932,51.173v-51.173h8.613v85.492h-9.932
			L922.125,1009.097z"/>
	</g>
	<g>
		<path fill="#231F20" d="M796.301,946.994h8.029v7.433h-8.029v15.236h10.104v7.433h-15.953v-52.028h15.953v7.433h-10.104V946.994z"
			/>
		<path fill="#231F20" d="M822.409,962.008l3.988-36.94h8.136v52.028h-5.53v-37.312l-4.042,37.312h-5.53l-4.36-36.791v36.791h-5.104
			v-52.028h8.136L822.409,962.008z"/>
		<path fill="#231F20" d="M838.306,937.555c0-8.324,3.138-13.081,8.881-13.081s8.88,4.757,8.88,13.081v27.055
			c0,8.324-3.137,13.081-8.88,13.081s-8.881-4.757-8.881-13.081V937.555z M844.155,965.129c0,3.717,1.17,5.129,3.031,5.129
			s3.031-1.412,3.031-5.129v-28.095c0-3.716-1.17-5.128-3.031-5.128s-3.031,1.412-3.031,5.128V965.129z"/>
		<path fill="#231F20" d="M858.245,969.663c0.638,0.074,1.382,0.074,2.021,0.074c1.861,0,3.35-0.966,3.35-4.979v-39.69h5.85v39.096
			c0,10.405-3.988,13.081-8.401,13.081c-1.064,0-1.861,0-2.818-0.148V969.663z"/>
		<path fill="#231F20" d="M873.452,925.067h5.85v52.028h-5.85V925.067z"/>
		<path fill="#231F20" d="M891.424,924.474c5.69,0,8.615,4.757,8.615,13.081v2.007h-5.531v-2.527c0-3.716-1.063-5.128-2.924-5.128
			c-1.861,0-2.925,1.412-2.925,5.128c0,10.703,11.433,12.71,11.433,27.575c0,8.324-2.978,13.081-8.721,13.081
			s-8.722-4.757-8.722-13.081v-3.568h5.531v4.088c0,3.717,1.17,5.055,3.03,5.055c1.861,0,3.031-1.338,3.031-5.055
			c0-10.702-11.433-12.709-11.433-27.574C882.81,929.23,885.734,924.474,891.424,924.474z"/>
	</g>
	<g>
		<path fill="#231F20" d="M657.541,974.92h-6.26l-1.071-8.951h-7.613l-1.071,8.951h-5.696l6.316-49.336h9.079L657.541,974.92z
			 M643.386,959.273h5.979l-2.989-24.95L643.386,959.273z"/>
		<path fill="#231F20" d="M668.369,965.828l4.738-40.244h5.695l-6.091,49.336h-9.249l-6.091-49.336h6.261L668.369,965.828z"/>
		<path fill="#231F20" d="M700.346,974.92h-6.26l-1.072-8.951H685.4l-1.071,8.951h-5.696l6.316-49.336h9.08L700.346,974.92z
			 M686.19,959.273h5.978l-2.988-24.95L686.19,959.273z"/>
		<path fill="#231F20" d="M699.387,925.584h19.176v7.048h-6.486v42.288h-6.203v-42.288h-6.486V925.584z"/>
		<path fill="#231F20" d="M739.315,974.92h-6.26l-1.071-8.951h-7.614l-1.071,8.951h-5.696l6.316-49.336h9.08L739.315,974.92z
			 M725.16,959.273h5.978l-2.989-24.95L725.16,959.273z"/>
		<path fill="#231F20" d="M755.162,974.92c-0.338-1.269-0.563-2.044-0.563-6.062v-7.753c0-4.581-1.241-6.272-4.061-6.272h-2.144
			v20.087h-6.203v-49.336h9.361c6.43,0,9.193,3.735,9.193,11.347v3.877c0,5.074-1.297,8.387-4.061,10.008
			c3.102,1.621,4.117,5.356,4.117,10.502v7.611c0,2.396,0.056,4.159,0.676,5.991H755.162z M748.395,932.632v15.153h2.426
			c2.312,0,3.722-1.269,3.722-5.216v-4.863c0-3.523-0.958-5.074-3.158-5.074H748.395z"/>
		<path fill="#231F20" d="M773.209,925.02c6.034,0,9.137,4.511,9.137,12.405v1.902h-5.865v-2.396c0-3.523-1.129-4.862-3.103-4.862
			s-3.102,1.339-3.102,4.862c0,10.149,12.125,12.053,12.125,26.148c0,7.894-3.158,12.404-9.249,12.404s-9.249-4.511-9.249-12.404
			v-3.383h5.865v3.876c0,3.524,1.241,4.793,3.215,4.793s3.215-1.269,3.215-4.793c0-10.148-12.126-12.052-12.126-26.147
			C764.072,929.53,767.175,925.02,773.209,925.02z"/>
	</g>
	<g>
		<path fill="#231F20" d="M131.484,1064.363h1.74v1.531h-1.74v4.428h-1.348v-10.724h3.565v1.532h-2.218V1064.363z"/>
		<path fill="#231F20" d="M135.638,1059.599v8.272c0,0.766,0.27,1.042,0.698,1.042s0.698-0.276,0.698-1.042v-8.272h1.274v8.165
			c0,1.716-0.686,2.696-2.009,2.696s-2.01-0.98-2.01-2.696v-8.165H135.638z"/>
		<path fill="#231F20" d="M139.229,1059.599h1.348v9.191h2.218v1.532h-3.565V1059.599z"/>
		<path fill="#231F20" d="M143.408,1059.599h1.348v9.191h2.218v1.532h-3.565V1059.599z"/>
		<path fill="#231F20" d="M147.035,1064.194h2.451v1.532h-2.451V1064.194z"/>
		<path fill="#231F20" d="M149.645,1059.599h4.166v1.532h-1.409v9.191h-1.348v-9.191h-1.409V1059.599z"/>
		<path fill="#231F20" d="M155.771,1064.118h1.85v1.531h-1.85v3.141h2.328v1.532h-3.676v-10.724h3.676v1.532h-2.328V1064.118z"/>
		<path fill="#231F20" d="M163.43,1059.599l-1.409,5.208l1.507,5.516h-1.421l-1.103-4.243l-1.115,4.243h-1.262l1.507-5.516
			l-1.409-5.208h1.397l1.017,3.952l1.042-3.952H163.43z"/>
		<path fill="#231F20" d="M163.835,1059.599h4.166v1.532h-1.409v9.191h-1.348v-9.191h-1.409V1059.599z"/>
		<path fill="#231F20" d="M168.161,1064.194h2.451v1.532h-2.451V1064.194z"/>
		<path fill="#231F20" d="M173.344,1059.476c1.311,0,1.985,0.98,1.985,2.696v0.414h-1.274v-0.521c0-0.766-0.245-1.057-0.674-1.057
			s-0.674,0.291-0.674,1.057c0,2.206,2.634,2.62,2.634,5.684c0,1.717-0.686,2.697-2.009,2.697c-1.324,0-2.01-0.98-2.01-2.697v-0.734
			h1.274v0.842c0,0.767,0.27,1.042,0.698,1.042c0.429,0,0.699-0.275,0.699-1.042c0-2.206-2.635-2.619-2.635-5.684
			C171.359,1060.456,172.033,1059.476,173.344,1059.476z"/>
		<path fill="#231F20" d="M177.461,1064.118h1.85v1.531h-1.85v3.141h2.328v1.532h-3.676v-10.724h3.676v1.532h-2.328V1064.118z"/>
		<path fill="#231F20" d="M184.985,1070.322h-1.36l-0.233-1.945h-1.654l-0.232,1.945h-1.238l1.373-10.724h1.973L184.985,1070.322z
			 M181.91,1066.921h1.299l-0.649-5.423L181.91,1066.921z"/>
		<path fill="#231F20" d="M188.429,1070.322c-0.073-0.275-0.123-0.444-0.123-1.317v-1.686c0-0.995-0.27-1.363-0.882-1.363h-0.466
			v4.366h-1.348v-10.724h2.034c1.397,0,1.998,0.812,1.998,2.466v0.843c0,1.104-0.282,1.823-0.882,2.176
			c0.674,0.353,0.895,1.164,0.895,2.282v1.655c0,0.521,0.012,0.903,0.147,1.302H188.429z M186.958,1061.131v3.293h0.527
			c0.502,0,0.809-0.275,0.809-1.134v-1.057c0-0.766-0.208-1.103-0.686-1.103H186.958z"/>
		<path fill="#231F20" d="M194.446,1066.324v1.424c0,1.717-0.687,2.697-2.01,2.697s-2.009-0.98-2.009-2.697v-5.576
			c0-1.716,0.686-2.696,2.009-2.696s2.01,0.98,2.01,2.696v1.042h-1.274v-1.149c0-0.766-0.27-1.057-0.698-1.057
			c-0.429,0-0.699,0.291-0.699,1.057v5.791c0,0.767,0.27,1.042,0.699,1.042c0.429,0,0.698-0.275,0.698-1.042v-1.531H194.446z"/>
		<path fill="#231F20" d="M196.615,1070.322h-1.348v-10.724h1.348v4.596h1.532v-4.596h1.372v10.724h-1.372v-4.596h-1.532V1070.322z"
			/>
	</g>
	<g>
		<path fill="#231F20" d="M147.078,1040.399l-0.959,11.173h-3.62l-1.87-20.967h2.565l1.415,16.534l1.271-16.534h2.541l1.318,16.653
			l1.366-16.653h2.301l-1.87,20.967h-3.5L147.078,1040.399z"/>
		<path fill="#231F20" d="M157.358,1039.441h3.62v2.995h-3.62v6.141h4.555v2.995h-7.191v-20.967h7.191v2.995h-4.555V1039.441z"/>
		<path fill="#231F20" d="M171.427,1035.428v0.749c0,2.156-0.527,3.534-1.702,4.223c1.414,0.689,1.966,2.276,1.966,4.493v1.707
			c0,3.235-1.367,4.973-4.003,4.973h-4.147v-20.967h3.979C170.252,1030.605,171.427,1032.192,171.427,1035.428z M166.177,1033.601
			v5.541h1.031c0.983,0,1.582-0.539,1.582-2.217v-1.168c0-1.497-0.407-2.156-1.342-2.156H166.177z M166.177,1042.137v6.44h1.51
			c0.887,0,1.366-0.51,1.366-2.067v-1.827c0-1.946-0.503-2.546-1.702-2.546H166.177z"/>
		<path fill="#231F20" d="M178.784,1051.572c-0.144-0.539-0.24-0.868-0.24-2.576v-3.295c0-1.946-0.527-2.665-1.726-2.665h-0.911
			v8.536h-2.637v-20.967h3.979c2.733,0,3.908,1.587,3.908,4.822v1.647c0,2.156-0.552,3.564-1.726,4.253
			c1.318,0.689,1.75,2.276,1.75,4.463v3.235c0,1.019,0.024,1.768,0.288,2.546H178.784z M175.907,1033.601v6.439h1.031
			c0.983,0,1.582-0.539,1.582-2.216v-2.067c0-1.497-0.407-2.156-1.342-2.156H175.907z"/>
		<path fill="#231F20" d="M182.186,1030.605h8.15v2.995h-2.757v17.972h-2.637v-17.972h-2.757V1030.605z"/>
		<path fill="#231F20" d="M199.179,1043.755v2.785c0,3.354-1.343,5.271-3.932,5.271s-3.931-1.917-3.931-5.271v-10.902
			c0-3.355,1.342-5.272,3.931-5.272s3.932,1.917,3.932,5.272v2.036h-2.493v-2.246c0-1.498-0.527-2.066-1.366-2.066
			c-0.839,0-1.367,0.568-1.367,2.066v11.322c0,1.497,0.527,2.037,1.367,2.037c0.839,0,1.366-0.54,1.366-2.037v-2.995H199.179z"/>
	</g>
	<g>
		<path fill="#231F20" d="M520.345,1008.664v4.416c0,5.32-2.128,8.361-6.233,8.361c-4.105,0-6.234-3.041-6.234-8.361v-17.289
			c0-5.32,2.128-8.361,6.234-8.361c4.105,0,6.233,3.041,6.233,8.361v3.23h-3.953v-3.562c0-2.375-0.836-3.279-2.167-3.279
			c-1.33,0-2.167,0.904-2.167,3.279v17.955c0,2.375,0.836,3.229,2.167,3.229c1.331,0,2.167-0.854,2.167-3.229v-4.75H520.345z"/>
		<path fill="#231F20" d="M527.074,1021.061h-4.181v-33.25h4.181v14.25h4.751v-14.25h4.257v33.25h-4.257v-14.25h-4.751V1021.061z"/>
		<path fill="#231F20" d="M552.655,1021.061h-4.22l-0.722-6.031h-5.131l-0.723,6.031h-3.839l4.258-33.25h6.119L552.655,1021.061z
			 M543.115,1010.516h4.029l-2.016-16.814L543.115,1010.516z"/>
		<path fill="#231F20" d="M558.32,996.979v24.082h-3.764v-33.25h5.246l4.295,19.902v-19.902h3.725v33.25h-4.295L558.32,996.979z"/>
		<path fill="#231F20" d="M574.551,996.979v24.082h-3.762v-33.25h5.244l4.296,19.902v-19.902h3.725v33.25h-4.295L574.551,996.979z"
			/>
		<path fill="#231F20" d="M591.238,1001.824h5.74v4.75h-5.74v9.736h7.223v4.75h-11.403v-33.25h11.403v4.75h-7.223V1001.824z"/>
		<path fill="#231F20" d="M601.047,987.811h4.181v28.5h6.88v4.75h-11.061V987.811z"/>
		<path fill="#231F20" d="M619.635,987.43c4.066,0,6.156,3.041,6.156,8.361v1.281h-3.952v-1.613c0-2.375-0.761-3.279-2.091-3.279
			s-2.09,0.904-2.09,3.279c0,6.84,8.172,8.121,8.172,17.621c0,5.32-2.129,8.361-6.234,8.361c-4.104,0-6.233-3.041-6.233-8.361
			v-2.279h3.953v2.613c0,2.375,0.837,3.229,2.167,3.229s2.166-0.854,2.166-3.229c0-6.84-8.172-8.123-8.172-17.623
			C613.477,990.471,615.566,987.43,619.635,987.43z"/>
	</g>
	<g>
		<path fill="#231F20" d="M171.223,1004.983l-1.411,3.318v11.147h-4.563v-36.295h4.563v15.814l6.058-15.814h4.48l-6.348,16.178
			l6.348,20.117h-4.688L171.223,1004.983z"/>
		<path fill="#231F20" d="M186.987,998.45h6.265v5.185h-6.265v10.63h7.883v5.185h-12.446v-36.295h12.446v5.186h-7.883V998.45z"/>
		<path fill="#231F20" d="M207.233,1019.449c-0.249-0.934-0.415-1.504-0.415-4.459v-5.703c0-3.37-0.913-4.615-2.987-4.615h-1.577
			v14.777h-4.563v-36.295h6.887c4.729,0,6.762,2.748,6.762,8.348v2.853c0,3.732-0.954,6.17-2.987,7.362
			c2.282,1.192,3.028,3.94,3.028,7.726v5.6c0,1.763,0.042,3.06,0.498,4.407H207.233z M202.254,988.34v11.147h1.784
			c1.701,0,2.738-0.934,2.738-3.837v-3.578c0-2.592-0.706-3.732-2.323-3.732H202.254z"/>
		<path fill="#231F20" d="M228.017,991.502v1.297c0,3.733-0.913,6.118-2.945,7.311c2.448,1.192,3.402,3.94,3.402,7.777v2.955
			c0,5.601-2.365,8.607-6.929,8.607h-7.177v-36.295h6.887C225.984,983.154,228.017,985.902,228.017,991.502z M218.931,988.34v9.592
			h1.784c1.701,0,2.738-0.934,2.738-3.837v-2.022c0-2.592-0.706-3.732-2.323-3.732H218.931z M218.931,1003.116v11.148h2.614
			c1.535,0,2.365-0.882,2.365-3.578v-3.163c0-3.37-0.872-4.407-2.946-4.407H218.931z"/>
		<path fill="#231F20" d="M235.774,998.45h6.265v5.185h-6.265v10.63h7.883v5.185h-12.446v-36.295h12.446v5.186h-7.883V998.45z"/>
		<path fill="#231F20" d="M256.02,1019.449c-0.249-0.934-0.415-1.504-0.415-4.459v-5.703c0-3.37-0.913-4.615-2.987-4.615h-1.577
			v14.777h-4.563v-36.295h6.887c4.729,0,6.762,2.748,6.762,8.348v2.853c0,3.732-0.954,6.17-2.987,7.362
			c2.282,1.192,3.028,3.94,3.028,7.726v5.6c0,1.763,0.042,3.06,0.498,4.407H256.02z M251.041,988.34v11.147h1.784
			c1.701,0,2.738-0.934,2.738-3.837v-3.578c0-2.592-0.706-3.732-2.323-3.732H251.041z"/>
		<path fill="#231F20" d="M262.781,991.865c0-5.807,2.448-9.125,6.929-9.125c4.48,0,6.929,3.318,6.929,9.125v18.873
			c0,5.808-2.448,9.126-6.929,9.126c-4.481,0-6.929-3.318-6.929-9.126V991.865z M267.345,1011.102c0,2.593,0.913,3.577,2.365,3.577
			s2.365-0.984,2.365-3.577v-19.6c0-2.592-0.913-3.577-2.365-3.577s-2.365,0.985-2.365,3.577V1011.102z"/>
		<path fill="#231F20" d="M285.723,982.74c4.439,0,6.721,3.318,6.721,9.125v1.4h-4.315v-1.764c0-2.592-0.83-3.577-2.282-3.577
			s-2.282,0.985-2.282,3.577c0,7.467,8.92,8.867,8.92,19.236c0,5.808-2.323,9.126-6.804,9.126c-4.48,0-6.804-3.318-6.804-9.126
			v-2.488h4.315v2.852c0,2.593,0.913,3.525,2.365,3.525s2.365-0.933,2.365-3.525c0-7.467-8.92-8.866-8.92-19.236
			C279.002,986.059,281.284,982.74,285.723,982.74z"/>
	</g>
	<g>
		<path fill="#231F20" d="M220.083,1049.137l-1.926,22.447h-7.272l-3.756-42.127h5.153l2.841,33.221l2.552-33.221h5.105
			l2.648,33.461l2.745-33.461h4.623l-3.756,42.127h-7.031L220.083,1049.137z"/>
		<path fill="#231F20" d="M240.743,1047.211h7.271v6.018h-7.271v12.338h9.15v6.018h-14.447v-42.127h14.447v6.019h-9.15V1047.211z"/>
		<path fill="#231F20" d="M269.011,1039.146v1.505c0,4.333-1.06,7.101-3.419,8.485c2.841,1.384,3.949,4.573,3.949,9.027v3.43
			c0,6.5-2.745,9.99-8.042,9.99h-8.331v-42.127h7.994C266.651,1029.457,269.011,1032.647,269.011,1039.146z M258.464,1035.476
			v11.134h2.071c1.974,0,3.178-1.084,3.178-4.454v-2.347c0-3.009-0.819-4.333-2.697-4.333H258.464z M258.464,1052.627v12.939h3.034
			c1.782,0,2.745-1.023,2.745-4.153v-3.671c0-3.911-1.011-5.115-3.419-5.115H258.464z"/>
		<path fill="#231F20" d="M279.846,1028.977c5.153,0,7.802,3.852,7.802,10.592v1.624h-5.008v-2.046c0-3.009-0.963-4.152-2.649-4.152
			s-2.648,1.144-2.648,4.152c0,8.666,10.354,10.291,10.354,22.327c0,6.74-2.697,10.592-7.897,10.592
			c-5.201,0-7.898-3.852-7.898-10.592v-2.889h5.008v3.31c0,3.01,1.06,4.093,2.745,4.093s2.745-1.083,2.745-4.093
			c0-8.666-10.354-10.291-10.354-22.326C272.044,1032.828,274.693,1028.977,279.846,1028.977z"/>
		<path fill="#231F20" d="M290.296,1039.568c0-6.74,2.841-10.592,8.042-10.592c5.201,0,8.042,3.852,8.042,10.592v21.905
			c0,6.74-2.841,10.592-8.042,10.592c-5.201,0-8.042-3.852-8.042-10.592V1039.568z M295.593,1061.895c0,3.01,1.06,4.152,2.745,4.152
			s2.745-1.143,2.745-4.152v-22.748c0-3.009-1.059-4.152-2.745-4.152s-2.745,1.144-2.745,4.152V1061.895z"/>
		<path fill="#231F20" d="M325.162,1055.877v5.597c0,6.74-2.697,10.592-7.897,10.592c-5.201,0-7.898-3.852-7.898-10.592v-21.905
			c0-6.74,2.697-10.592,7.898-10.592c5.201,0,7.897,3.852,7.897,10.592v4.092h-5.008v-4.514c0-3.009-1.059-4.152-2.745-4.152
			s-2.745,1.144-2.745,4.152v22.748c0,3.01,1.06,4.093,2.745,4.093s2.745-1.083,2.745-4.093v-6.018H325.162z"/>
		<path fill="#231F20" d="M335.323,1054.794l-1.637,3.852v12.938h-5.297v-42.127h5.297v18.355l7.031-18.355h5.201l-7.368,18.777
			l7.368,23.35h-5.441L335.323,1054.794z"/>
		<path fill="#231F20" d="M353.622,1047.211h7.271v6.018h-7.271v12.338h9.149v6.018h-14.447v-42.127h14.447v6.019h-9.149V1047.211z"
			/>
		<path fill="#231F20" d="M364.602,1029.457h16.374v6.019h-5.538v36.108h-5.297v-36.108h-5.538V1029.457z"/>
		<path fill="#231F20" d="M390.51,1028.977c5.153,0,7.802,3.852,7.802,10.592v1.624h-5.008v-2.046c0-3.009-0.963-4.152-2.649-4.152
			s-2.648,1.144-2.648,4.152c0,8.666,10.354,10.291,10.354,22.327c0,6.74-2.697,10.592-7.897,10.592
			c-5.201,0-7.898-3.852-7.898-10.592v-2.889h5.008v3.31c0,3.01,1.06,4.093,2.745,4.093s2.745-1.083,2.745-4.093
			c0-8.666-10.354-10.291-10.354-22.326C382.708,1032.828,385.357,1028.977,390.51,1028.977z"/>
	</g>
	<g>
		<path fill="#231F20" d="M311.133,1008.408l2.851-23.607h5.815v33.25h-3.953v-23.846l-2.889,23.846h-3.953l-3.117-23.513v23.513
			h-3.649v-33.25h5.815L311.133,1008.408z"/>
		<path fill="#231F20" d="M326.831,984.801v25.65c0,2.375,0.836,3.229,2.167,3.229c1.331,0,2.167-0.854,2.167-3.229v-25.65h3.953
			v25.317c0,5.32-2.128,8.36-6.233,8.36s-6.233-3.04-6.233-8.36v-25.317H326.831z"/>
		<path fill="#231F20" d="M337.968,984.801h4.181v28.5h6.879v4.75h-11.061V984.801z"/>
		<path fill="#231F20" d="M347.889,984.801h12.923v4.75h-4.371v28.5h-4.181v-28.5h-4.371V984.801z"/>
		<path fill="#231F20" d="M362.712,984.801h4.181v33.25h-4.181V984.801z"/>
		<path fill="#231F20" d="M382.325,993.018v4.323c0,5.319-2.053,8.218-6.234,8.218h-1.976v12.492h-4.181v-33.25h6.157
			C380.272,984.801,382.325,987.698,382.325,993.018z M374.115,989.551v11.257h1.976c1.331,0,2.053-0.76,2.053-3.135v-4.987
			c0-2.375-0.722-3.135-2.053-3.135H374.115z"/>
		<path fill="#231F20" d="M384.264,984.801h4.181v28.5h6.879v4.75h-11.061V984.801z"/>
		<path fill="#231F20" d="M401.406,998.813h5.739v4.75h-5.739v9.737h7.222v4.75h-11.403v-33.25h11.403v4.75h-7.222V998.813z"/>
		<path fill="#231F20" d="M411.023,999.051h7.602v4.75h-7.602V999.051z"/>
		<path fill="#231F20" d="M430.218,1018.051c-0.228-0.855-0.38-1.378-0.38-4.085v-5.226c0-3.087-0.836-4.228-2.736-4.228h-1.444
			v13.538h-4.181v-33.25h6.31c4.333,0,6.195,2.518,6.195,7.647v2.612c0,3.42-0.874,5.652-2.736,6.745
			c2.09,1.093,2.774,3.61,2.774,7.077v5.131c0,1.614,0.038,2.802,0.456,4.037H430.218z M425.657,989.551v10.212h1.634
			c1.558,0,2.509-0.854,2.509-3.515v-3.277c0-2.375-0.646-3.42-2.129-3.42H425.657z"/>
		<path fill="#231F20" d="M436.413,992.78c0-5.32,2.243-8.36,6.348-8.36s6.348,3.04,6.348,8.36v17.29c0,5.32-2.243,8.36-6.348,8.36
			s-6.348-3.04-6.348-8.36V992.78z M440.594,1010.403c0,2.375,0.836,3.277,2.167,3.277c1.331,0,2.167-0.902,2.167-3.277v-17.955
			c0-2.375-0.836-3.278-2.167-3.278c-1.33,0-2.167,0.903-2.167,3.278V1010.403z"/>
		<path fill="#231F20" d="M451.465,992.78c0-5.32,2.243-8.36,6.348-8.36s6.348,3.04,6.348,8.36v17.29c0,5.32-2.243,8.36-6.348,8.36
			s-6.348-3.04-6.348-8.36V992.78z M455.646,1010.403c0,2.375,0.836,3.277,2.167,3.277c1.331,0,2.167-0.902,2.167-3.277v-17.955
			c0-2.375-0.836-3.278-2.167-3.278c-1.33,0-2.167,0.903-2.167,3.278V1010.403z"/>
		<path fill="#231F20" d="M475.716,1008.408l2.851-23.607h5.815v33.25h-3.953v-23.846l-2.889,23.846h-3.953l-3.117-23.513v23.513
			h-3.649v-33.25h5.815L475.716,1008.408z"/>
		<path fill="#231F20" d="M493.048,984.42c4.067,0,6.157,3.04,6.157,8.36v1.282h-3.953v-1.614c0-2.375-0.76-3.278-2.091-3.278
			c-1.33,0-2.09,0.903-2.09,3.278c0,6.84,8.172,8.122,8.172,17.622c0,5.32-2.128,8.36-6.233,8.36s-6.234-3.04-6.234-8.36v-2.279
			h3.953v2.612c0,2.375,0.836,3.229,2.167,3.229c1.331,0,2.167-0.854,2.167-3.229c0-6.84-8.172-8.123-8.172-17.623
			C486.891,987.46,488.981,984.42,493.048,984.42z"/>
	</g>
	<g>
		<path fill="#231F20" d="M410.806,1029.506h5.094v34.734h8.382v5.789h-13.476V1029.506z"/>
		<path fill="#231F20" d="M426.6,1029.506h5.094v40.523H426.6V1029.506z"/>
		<path fill="#231F20" d="M439.938,1040.678v29.352h-4.584v-40.523h6.391l5.233,24.256v-24.256h4.538v40.523h-5.233
			L439.938,1040.678z"/>
		<path fill="#231F20" d="M461.845,1053.879l-1.574,3.705v12.445h-5.094v-40.523h5.094v17.656l6.761-17.656h5.001l-7.085,18.062
			l7.085,22.461H466.8L461.845,1053.879z"/>
		<path fill="#231F20" d="M474.12,1046.873h9.262v5.789h-9.262V1046.873z"/>
		<path fill="#231F20" d="M501.954,1039.521v5.268c0,6.484-2.501,10.016-7.595,10.016h-2.408v15.225h-5.094v-40.523h7.502
			C499.453,1029.506,501.954,1033.037,501.954,1039.521z M491.951,1035.295v13.721h2.408c1.621,0,2.501-0.928,2.501-3.822v-6.078
			c0-2.895-0.88-3.82-2.501-3.82H491.951z"/>
		<path fill="#231F20" d="M514.969,1070.029c-0.278-1.041-0.463-1.678-0.463-4.979v-6.367c0-3.764-1.019-5.152-3.334-5.152h-1.76
			v16.498h-5.094v-40.523h7.688c5.279,0,7.548,3.068,7.548,9.32v3.184c0,4.168-1.065,6.889-3.334,8.221
			c2.547,1.332,3.38,4.4,3.38,8.627v6.252c0,1.969,0.046,3.416,0.556,4.92H514.969z M509.412,1035.295v12.447h1.991
			c1.898,0,3.057-1.043,3.057-4.285v-3.994c0-2.895-0.788-4.168-2.594-4.168H509.412z"/>
		<path fill="#231F20" d="M528.031,1046.584h6.993v5.789h-6.993v11.867h8.799v5.789h-13.893v-40.523h13.893v5.789h-8.799V1046.584z"
			/>
		<path fill="#231F20" d="M547.67,1062.562l3.89-33.057h4.677l-5.001,40.523h-7.595l-5.002-40.523h5.141L547.67,1062.562z"/>
		<path fill="#231F20" d="M558.602,1029.506h5.094v40.523h-5.094V1029.506z"/>
		<path fill="#231F20" d="M572.495,1046.584h6.993v5.789h-6.993v11.867h8.799v5.789H567.4v-40.523h13.894v5.789h-8.799V1046.584z"/>
		<path fill="#231F20" d="M595.745,1048.436l-1.853,21.594h-6.993l-3.612-40.523h4.955l2.732,31.955l2.455-31.955h4.908
			l2.547,32.188l2.641-32.188h4.445l-3.611,40.523h-6.762L595.745,1048.436z"/>
		<path fill="#231F20" d="M617.375,1029.043c4.955,0,7.502,3.705,7.502,10.188v1.564h-4.815v-1.969c0-2.895-0.927-3.994-2.548-3.994
			c-1.62,0-2.547,1.1-2.547,3.994c0,8.336,9.957,9.898,9.957,21.479c0,6.482-2.594,10.188-7.595,10.188s-7.595-3.705-7.595-10.188
			v-2.779h4.816v3.184c0,2.895,1.019,3.938,2.639,3.938c1.621,0,2.641-1.043,2.641-3.938c0-8.336-9.957-9.898-9.957-21.479
			C609.873,1032.748,612.42,1029.043,617.375,1029.043z"/>
	</g>
	<g>
		<path fill="#231F20" d="M203.701,862.029h5.53c3.496,0,5.212,2.734,5.212,7.758v15.875c0,5.023-1.716,7.758-5.212,7.758h-5.53
			V862.029z M207.197,866.514v22.422h1.971c1.112,0,1.78-0.807,1.78-3.049v-16.324c0-2.242-0.667-3.049-1.78-3.049H207.197z"/>
		<path fill="#231F20" d="M220.165,875.258h4.799v4.484h-4.799v9.193h6.039v4.484h-9.535v-31.391h9.535v4.484h-6.039V875.258z"/>
		<path fill="#231F20" d="M233.07,861.67c3.401,0,5.149,2.869,5.149,7.893v1.211h-3.306v-1.525c0-2.242-0.636-3.094-1.748-3.094
			s-1.748,0.852-1.748,3.094c0,6.459,6.833,7.67,6.833,16.639c0,5.021-1.78,7.893-5.212,7.893c-3.433,0-5.213-2.871-5.213-7.893
			v-2.152h3.306v2.467c0,2.242,0.699,3.049,1.812,3.049c1.113,0,1.812-0.807,1.812-3.049c0-6.459-6.834-7.67-6.834-16.639
			C227.921,864.539,229.669,861.67,233.07,861.67z"/>
		<path fill="#231F20" d="M244.831,880.908l-1.081,2.871v9.641h-3.496v-31.391h3.496v13.678l4.641-13.678h3.433l-4.863,13.99
			l4.863,17.4h-3.592L244.831,880.908z"/>
		<path fill="#231F20" d="M252.459,862.029h10.807v4.484h-3.655v26.906h-3.496v-26.906h-3.655V862.029z"/>
		<path fill="#231F20" d="M264.569,869.562c0-5.023,1.875-7.893,5.308-7.893c3.433,0,5.308,2.869,5.308,7.893v16.324
			c0,5.021-1.875,7.893-5.308,7.893c-3.433,0-5.308-2.871-5.308-7.893V869.562z M268.065,886.201c0,2.242,0.699,3.094,1.812,3.094
			c1.112,0,1.812-0.852,1.812-3.094v-16.953c0-2.242-0.699-3.094-1.812-3.094c-1.113,0-1.812,0.852-1.812,3.094V886.201z"/>
		<path fill="#231F20" d="M287.804,869.787v4.08c0,5.023-1.716,7.76-5.212,7.76h-1.653v11.793h-3.496v-31.391h5.149
			C286.087,862.029,287.804,864.764,287.804,869.787z M280.938,866.514v10.627h1.653c1.112,0,1.716-0.717,1.716-2.959v-4.709
			c0-2.242-0.604-2.959-1.716-2.959H280.938z"/>
		<path fill="#231F20" d="M300.328,893.42H296.8l-0.604-5.695h-4.291l-0.604,5.695h-3.21l3.56-31.391h5.117L300.328,893.42z
			 M292.35,883.465h3.369l-1.685-15.875L292.35,883.465z"/>
		<path fill="#231F20" d="M312.311,869.787v4.08c0,5.023-1.716,7.76-5.212,7.76h-1.653v11.793h-3.496v-31.391h5.149
			C310.595,862.029,312.311,864.764,312.311,869.787z M305.446,866.514v10.627h1.653c1.112,0,1.716-0.717,1.716-2.959v-4.709
			c0-2.242-0.604-2.959-1.716-2.959H305.446z"/>
		<path fill="#231F20" d="M324.294,869.787v4.08c0,5.023-1.716,7.76-5.212,7.76h-1.653v11.793h-3.496v-31.391h5.149
			C322.578,862.029,324.294,864.764,324.294,869.787z M317.429,866.514v10.627h1.653c1.112,0,1.716-0.717,1.716-2.959v-4.709
			c0-2.242-0.604-2.959-1.716-2.959H317.429z"/>
	</g>
	<g>
		<path fill="#231F20" d="M277.657,604.793l4.915-44.395h10.027v62.527h-6.816v-44.841l-4.981,44.841h-6.816l-5.374-44.216v44.216
			h-6.292v-62.527h10.027L277.657,604.793z"/>
		<path fill="#231F20" d="M305.053,586.749h9.896v8.933h-9.896v18.312h12.452v8.933h-19.661v-62.527h19.661v8.933h-12.452V586.749z"
			/>
		<path fill="#231F20" d="M328.385,577.638v45.288h-6.488v-62.527h9.044l7.405,37.427v-37.427h6.423v62.527h-7.406L328.385,577.638z
			"/>
		<path fill="#231F20" d="M347.982,560.398h22.283v8.933h-7.537v53.595h-7.209v-53.595h-7.537V560.398z"/>
		<path fill="#231F20" d="M373.542,560.398h7.209v62.527h-7.209V560.398z"/>
		<path fill="#231F20" d="M385.405,575.405c0-10.005,3.867-15.722,10.944-15.722c7.078,0,10.945,5.717,10.945,15.722v32.514
			c0,10.005-3.867,15.722-10.945,15.722c-7.078,0-10.944-5.717-10.944-15.722V575.405z M392.614,608.545
			c0,4.466,1.442,6.163,3.735,6.163c2.294,0,3.736-1.697,3.736-6.163v-33.766c0-4.466-1.442-6.163-3.736-6.163
			c-2.293,0-3.735,1.697-3.735,6.163V608.545z"/>
		<path fill="#231F20" d="M418.371,577.638v45.288h-6.488v-62.527h9.044l7.405,37.427v-37.427h6.423v62.527h-7.406L418.371,577.638z
			"/>
		<path fill="#231F20" d="M449.633,559.684c7.013,0,10.617,5.717,10.617,15.722v2.411h-6.816v-3.037
			c0-4.466-1.311-6.163-3.604-6.163c-2.294,0-3.604,1.697-3.604,6.163c0,12.863,14.09,15.275,14.09,33.14
			c0,10.005-3.67,15.722-10.748,15.722s-10.748-5.717-10.748-15.722v-4.287h6.816v4.913c0,4.466,1.442,6.073,3.735,6.073
			c2.294,0,3.736-1.607,3.736-6.073c0-12.863-14.09-15.275-14.09-33.14C439.017,565.4,442.621,559.684,449.633,559.684z"/>
	</g>
	<g>
		<path fill="#231F20" d="M477.714,772.396h-2.741l-0.469-4.273h-3.333l-0.469,4.273h-2.494l2.765-23.552h3.975L477.714,772.396z
			 M471.517,764.927h2.617l-1.309-11.91L471.517,764.927z"/>
		<path fill="#231F20" d="M481.391,755.338v17.059h-2.444v-23.552h3.407l2.79,14.098v-14.098h2.419v23.552h-2.79L481.391,755.338z"
			/>
		<path fill="#231F20" d="M489.512,748.845h4.296c2.716,0,4.049,2.052,4.049,5.82v11.911c0,3.768-1.333,5.82-4.049,5.82h-4.296
			V748.845z M492.228,752.209v16.823h1.531c0.864,0,1.383-0.605,1.383-2.288v-12.247c0-1.683-0.519-2.288-1.383-2.288H492.228z"/>
		<path fill="#231F20" d="M505.262,772.396c-0.148-0.605-0.247-0.976-0.247-2.894v-3.701c0-2.187-0.543-2.994-1.777-2.994h-0.938
			v9.589h-2.716v-23.552h4.099c2.814,0,4.024,1.783,4.024,5.417v1.851c0,2.422-0.568,4.004-1.778,4.777
			c1.358,0.773,1.802,2.557,1.802,5.014v3.633c0,1.145,0.025,1.985,0.296,2.86H505.262z M502.299,752.209v7.234h1.062
			c1.012,0,1.629-0.606,1.629-2.49v-2.321c0-1.683-0.42-2.423-1.383-2.423H502.299z"/>
		<path fill="#231F20" d="M509.285,754.497c0-3.769,1.457-5.922,4.123-5.922c2.667,0,4.123,2.153,4.123,5.922v12.247
			c0,3.769-1.457,5.922-4.123,5.922c-2.666,0-4.123-2.153-4.123-5.922V754.497z M512,766.979c0,1.683,0.543,2.321,1.407,2.321
			c0.864,0,1.407-0.639,1.407-2.321v-12.718c0-1.683-0.543-2.322-1.407-2.322c-0.864,0-1.407,0.64-1.407,2.322V766.979z"/>
		<path fill="#231F20" d="M519.282,748.845h2.716v23.552h-2.716V748.845z"/>
		<path fill="#231F20" d="M523.973,748.845h4.295c2.716,0,4.049,2.052,4.049,5.82v11.911c0,3.768-1.333,5.82-4.049,5.82h-4.295
			V748.845z M526.688,752.209v16.823h1.531c0.864,0,1.383-0.605,1.383-2.288v-12.247c0-1.683-0.519-2.288-1.383-2.288H526.688z"/>
	</g>
	<g>
		<path fill="#231F20" d="M434.078,401.113v13.359c0,16.088-5.454,25.281-15.973,25.281c-10.519,0-15.973-9.193-15.973-25.281
			v-52.288c0-16.088,5.454-25.282,15.973-25.282c10.519,0,15.973,9.193,15.973,25.282v9.768h-10.129V361.18
			c0-7.182-2.143-9.912-5.552-9.912c-3.409,0-5.552,2.729-5.552,9.912v54.298c0,7.182,2.143,9.768,5.552,9.768
			c3.409,0,5.552-2.586,5.552-9.768v-14.365H434.078z"/>
		<path fill="#231F20" d="M439.727,362.185c0-16.088,5.746-25.282,16.265-25.282c10.519,0,16.265,9.193,16.265,25.282v52.288
			c0,16.088-5.747,25.281-16.265,25.281c-10.519,0-16.265-9.193-16.265-25.281V362.185z M450.44,415.478
			c0,7.182,2.143,9.912,5.552,9.912c3.409,0,5.552-2.729,5.552-9.912V361.18c0-7.182-2.143-9.912-5.552-9.912
			c-3.409,0-5.552,2.729-5.552,9.912V415.478z"/>
		<path fill="#231F20" d="M488.717,365.776v72.829h-9.643V338.053h13.441l11.006,60.188v-60.188h9.545v100.552H502.06
			L488.717,365.776z"/>
		<path fill="#231F20" d="M531.473,382.727h13.83v14.365h-13.83v41.514h-10.713V338.053h28.342v14.364h-17.629V382.727z"/>
		<path fill="#231F20" d="M564.977,380.428h14.707v14.365h-14.707v29.447h18.506v14.365h-29.219V338.053h29.219v14.364h-18.506
			V380.428z"/>
		<path fill="#231F20" d="M612.507,438.605c-0.585-2.585-0.974-4.166-0.974-12.354V410.45c0-9.337-2.143-12.784-7.014-12.784h-3.701
			v40.939h-10.713V338.053h16.168c11.104,0,15.875,7.613,15.875,23.127v7.9c0,10.343-2.24,17.094-7.012,20.398
			c5.356,3.304,7.109,10.917,7.109,21.403v15.514c0,4.884,0.098,8.475,1.169,12.21H612.507z M600.818,352.417v30.884h4.188
			c3.993,0,6.429-2.586,6.429-10.63v-9.912c0-7.182-1.656-10.343-5.455-10.343H600.818z"/>
		<path fill="#231F20" d="M639.973,380.428h14.707v14.365h-14.707v29.447h18.505v14.365h-29.219V338.053h29.219v14.364h-18.505
			V380.428z"/>
		<path fill="#231F20" d="M674.646,365.776v72.829h-9.643V338.053h13.44l11.006,60.188v-60.188h9.545v100.552h-11.006
			L674.646,365.776z"/>
		<path fill="#231F20" d="M737.758,401.113v13.359c0,16.088-5.454,25.281-15.974,25.281c-10.519,0-15.973-9.193-15.973-25.281
			v-52.288c0-16.088,5.454-25.282,15.973-25.282c10.52,0,15.974,9.193,15.974,25.282v9.768h-10.13V361.18
			c0-7.182-2.143-9.912-5.552-9.912c-3.408,0-5.551,2.729-5.551,9.912v54.298c0,7.182,2.143,9.768,5.551,9.768
			c3.409,0,5.552-2.586,5.552-9.768v-14.365H737.758z"/>
		<path fill="#231F20" d="M754.996,380.428h14.707v14.365h-14.707v29.447h18.506v14.365h-29.22V338.053h29.22v14.364h-18.506
			V380.428z"/>
	</g>
	<g>
		<path fill="#231F20" d="M327.446,550.584h-11.255l-1.926-18.569h-13.688l-1.927,18.569h-10.241l11.356-102.347h16.324
			L327.446,550.584z M301.996,518.125h10.748l-5.374-51.758L301.996,518.125z"/>
		<path fill="#231F20" d="M343.266,448.237v78.953c0,7.311,2.231,9.942,5.78,9.942s5.779-2.632,5.779-9.942v-78.953h10.545v77.93
			c0,16.375-5.678,25.732-16.628,25.732c-10.951,0-16.629-9.357-16.629-25.732v-77.93H343.266z"/>
		<path fill="#231F20" d="M372.976,448.237h17.643c11.154,0,16.629,8.918,16.629,25.294v51.758c0,16.375-5.475,25.294-16.629,25.294
			h-17.643V448.237z M384.129,462.858v73.104h6.287c3.549,0,5.678-2.632,5.678-9.942V472.8c0-7.311-2.129-9.942-5.678-9.942H384.129
			z"/>
		<path fill="#231F20" d="M414.346,448.237H425.5v102.347h-11.153V448.237z"/>
		<path fill="#231F20" d="M432.699,472.8c0-16.375,5.982-25.733,16.933-25.733s16.933,9.357,16.933,25.733v53.22
			c0,16.376-5.982,25.733-16.933,25.733s-16.933-9.357-16.933-25.733V472.8z M443.853,527.044c0,7.31,2.23,10.088,5.779,10.088
			s5.779-2.778,5.779-10.088v-55.268c0-7.311-2.23-10.088-5.779-10.088s-5.779,2.778-5.779,10.088V527.044z"/>
	</g>
	<g>
		<path fill="#231F20" d="M246.216,669.269c0-23.239,8.347-36.519,23.627-36.519c15.279,0,23.627,13.279,23.627,36.519v75.525
			c0,23.239-8.348,36.519-23.627,36.519c-15.28,0-23.627-13.279-23.627-36.519V669.269z M261.779,746.247
			c0,10.374,3.112,14.316,8.064,14.316c4.952,0,8.064-3.942,8.064-14.316v-78.432c0-10.374-3.112-14.316-8.064-14.316
			c-4.952,0-8.064,3.942-8.064,14.316V746.247z"/>
		<path fill="#231F20" d="M349.638,670.306v18.882c0,23.238-7.64,35.896-23.203,35.896h-7.356v54.569h-15.563V634.41h22.919
			C341.998,634.41,349.638,647.066,349.638,670.306z M319.078,655.159v49.175h7.356c4.952,0,7.64-3.32,7.64-13.694v-21.786
			c0-10.375-2.688-13.694-7.64-13.694H319.078z"/>
		<path fill="#231F20" d="M372.415,695.619h21.364v20.749h-21.364v42.535h26.881v20.749h-42.444V634.41h42.444v20.749h-26.881
			V695.619z"/>
		<path fill="#231F20" d="M422.781,674.455v105.197h-14.006V634.41h19.524l15.987,86.938V634.41h13.865v145.242h-15.987
			L422.781,674.455z"/>
	</g>
	<g>
		<path fill="#231F20" d="M561.645,632.75c15.139,0,22.92,13.279,22.92,36.519v5.602h-14.714v-7.055
			c0-10.374-2.83-14.316-7.782-14.316c-4.951,0-7.781,3.942-7.781,14.316c0,29.879,30.418,35.481,30.418,76.979
			c0,23.239-7.922,36.519-23.202,36.519S538.3,768.033,538.3,744.794v-9.959h14.713v11.412c0,10.374,3.113,14.108,8.064,14.108
			c4.952,0,8.064-3.734,8.064-14.108c0-29.879-30.418-35.481-30.418-76.979C538.725,646.029,546.506,632.75,561.645,632.75z"/>
		<path fill="#231F20" d="M592.344,669.269c0-23.239,8.348-36.519,23.628-36.519c15.279,0,23.627,13.279,23.627,36.519v75.525
			c0,23.239-8.348,36.519-23.627,36.519c-15.28,0-23.628-13.279-23.628-36.519V669.269z M607.907,746.247
			c0,10.374,3.112,14.316,8.064,14.316s8.063-3.942,8.063-14.316v-78.432c0-10.374-3.111-14.316-8.063-14.316
			s-8.064,3.942-8.064,14.316V746.247z"/>
		<path fill="#231F20" d="M664.498,634.41v112.044c0,10.374,3.113,14.109,8.064,14.109c4.952,0,8.064-3.735,8.064-14.109V634.41
			h14.714v110.592c0,23.238-7.923,36.518-23.202,36.518c-15.28,0-23.203-13.279-23.203-36.518V634.41H664.498z"/>
		<path fill="#231F20" d="M738.491,779.652c-0.849-3.734-1.415-6.018-1.415-17.844v-22.824c0-13.486-3.112-18.467-10.186-18.467
			h-5.377v59.135h-15.562V634.41h23.485c16.129,0,23.062,10.997,23.062,33.405v11.412c0,14.939-3.254,24.691-10.187,29.464
			c7.781,4.771,10.328,15.769,10.328,30.916v22.408c0,7.055,0.142,12.242,1.697,17.637H738.491z M721.514,655.159v44.61h6.084
			c5.801,0,9.338-3.735,9.338-15.354v-14.317c0-10.374-2.405-14.938-7.923-14.938H721.514z"/>
		<path fill="#231F20" d="M807.956,725.498v19.296c0,23.239-7.923,36.519-23.202,36.519c-15.28,0-23.203-13.279-23.203-36.519
			v-75.525c0-23.239,7.923-36.519,23.203-36.519c15.279,0,23.202,13.279,23.202,36.519v14.108h-14.714v-15.562
			c0-10.374-3.112-14.316-8.064-14.316c-4.951,0-8.064,3.942-8.064,14.316v78.432c0,10.374,3.113,14.108,8.064,14.108
			c4.952,0,8.064-3.734,8.064-14.108v-20.749H807.956z"/>
		<path fill="#231F20" d="M832.996,695.619h21.363v20.749h-21.363v42.535h26.881v20.749h-42.443V634.41h42.443v20.749h-26.881
			V695.619z"/>
	</g>
	<g>
		<g>
			<path fill="#231F20" d="M490.68,522.966h23.483v23.845H490.68v68.912h-18.191V448.808h48.125v23.845H490.68V522.966z"/>
			<path fill="#231F20" d="M567.415,615.723c-0.992-4.292-1.653-6.915-1.653-20.507v-26.229c0-15.499-3.639-21.222-11.908-21.222
				h-6.283v67.958h-18.191V448.808h27.452c18.853,0,26.956,12.638,26.956,38.391v13.115c0,17.168-3.804,28.375-11.907,33.859
				c9.096,5.484,12.072,18.122,12.072,35.529v25.752c0,8.107,0.165,14.069,1.985,20.269H567.415z M547.57,472.653v51.267h7.111
				c6.779,0,10.914-4.292,10.914-17.646v-16.453c0-11.922-2.812-17.168-9.261-17.168H547.57z"/>
			<path fill="#231F20" d="M614.052,519.151h24.972v23.845h-24.972v48.882h31.421v23.845H595.86V448.808h49.612v23.845h-31.421
				V519.151z"/>
			<path fill="#231F20" d="M674.911,519.151h24.972v23.845h-24.972v48.882h31.421v23.845H656.72V448.808h49.612v23.845h-31.421
				V519.151z"/>
		</g>
	</g>
	<g>
		<g>
			<path fill="#231F20" d="M480.788,709.973h28.296v20.75h-28.296V709.973z"/>
		</g>
	</g>
</g>
<g>
</g>
<g>
</g>
<g>
</g>
<g>
</g>
<g>
</g>
<g>
</g>
<g>
</g>
<g>
</g>
<g>
</g>
<g>
</g>
<g>
</g>
<g>
</g>
<g>
</g>
<g>
</g>
<g>
</g>
</svg>
