<?xml version="1.0" encoding="utf-8"?>
<!-- Generator: Adobe Illustrator 16.0.0, SVG Export Plug-In . SVG Version: 6.00 Build 0)  -->
<!DOCTYPE svg PUBLIC "-//W3C//DTD SVG 1.1//EN" "http://www.w3.org/Graphics/SVG/1.1/DTD/svg11.dtd">
<svg version="1.1" xmlns="http://www.w3.org/2000/svg" xmlns:xlink="http://www.w3.org/1999/xlink" x="0px" y="0px" width="506px"
	 height="692px" viewBox="0 0 506 692" style="enable-background:new 0 0 506 692;" xml:space="preserve">
<style type="text/css">
<![CDATA[
	.st0{fill-rule:evenodd;clip-rule:evenodd;fill:#ABABAB;}
	.st1{fill:#939598;}
	.st2{fill-rule:evenodd;clip-rule:evenodd;fill:#BA2025;}
	.st3{fill:#FFFFFF;}
	.st4{fill-rule:evenodd;clip-rule:evenodd;fill:#FFFFFF;}
]]>
</style>
<g id="Layer_1">
	<g>
		<path class="st1" d="M262.2,408.6c6.1,0,9.2,5.5,9.2,15.1v2.3h-5.9v-2.9c0-4.3-1.1-5.9-3.1-5.9c-2,0-3.1,1.6-3.1,5.9
			c0,12.4,12.2,14.7,12.2,31.9c0,9.6-3.2,15.1-9.3,15.1c-6.1,0-9.3-5.5-9.3-15.1v-4.1h5.9v4.7c0,4.3,1.3,5.8,3.2,5.8
			c2,0,3.2-1.5,3.2-5.8c0-12.4-12.2-14.7-12.2-31.9C253,414.1,256.1,408.6,262.2,408.6z"/>
		<path class="st1" d="M274.6,423.7c0-9.6,3.4-15.1,9.5-15.1c6.1,0,9.5,5.5,9.5,15.1V455c0,9.6-3.4,15.1-9.5,15.1
			c-6.1,0-9.5-5.5-9.5-15.1V423.7z M280.8,455.6c0,4.3,1.3,5.9,3.2,5.9c2,0,3.2-1.6,3.2-5.9v-32.5c0-4.3-1.3-5.9-3.2-5.9
			c-2,0-3.2,1.6-3.2,5.9V455.6z"/>
		<path class="st1" d="M303.6,409.3v46.4c0,4.3,1.3,5.8,3.2,5.8c2,0,3.2-1.5,3.2-5.8v-46.4h5.9v45.8c0,9.6-3.2,15.1-9.3,15.1
			c-6.1,0-9.3-5.5-9.3-15.1v-45.8H303.6z"/>
		<path class="st1" d="M333.4,469.5c-0.3-1.5-0.6-2.5-0.6-7.4v-9.5c0-5.6-1.3-7.7-4.1-7.7h-2.2v24.5h-6.3v-60.2h9.4
			c6.5,0,9.3,4.6,9.3,13.8v4.7c0,6.2-1.3,10.2-4.1,12.2c3.1,2,4.2,6.5,4.2,12.8v9.3c0,2.9,0.1,5.1,0.7,7.3H333.4z M326.5,417.9v18.5
			h2.4c2.3,0,3.8-1.5,3.8-6.4v-5.9c0-4.3-1-6.2-3.2-6.2H326.5z"/>
		<path class="st1" d="M361.3,447v8c0,9.6-3.2,15.1-9.3,15.1c-6.1,0-9.3-5.5-9.3-15.1v-31.3c0-9.6,3.2-15.1,9.3-15.1
			c6.1,0,9.3,5.5,9.3,15.1v5.8h-5.9v-6.4c0-4.3-1.3-5.9-3.2-5.9c-2,0-3.2,1.6-3.2,5.9v32.5c0,4.3,1.3,5.8,3.2,5.8
			c2,0,3.2-1.5,3.2-5.8V447H361.3z"/>
		<path class="st1" d="M371.4,434.7h8.6v8.6h-8.6v17.6h10.8v8.6h-17.1v-60.2h17.1v8.6h-10.8V434.7z"/>
	</g>
	<g>
		<path class="st1" d="M216.8,172.3v11.4h-1.7V168h2.4l2,9.4V168h1.7v15.7h-2L216.8,172.3z"/>
		<path class="st1" d="M222.4,171.8c0-2.5,1-3.9,2.9-3.9c1.9,0,2.9,1.4,2.9,3.9v8.2c0,2.5-1,3.9-2.9,3.9c-1.9,0-2.9-1.4-2.9-3.9
			V171.8z M224.3,180.1c0,1.1,0.4,1.5,1,1.5s1-0.4,1-1.5v-8.5c0-1.1-0.4-1.5-1-1.5s-1,0.4-1,1.5V180.1z"/>
		<path class="st1" d="M228.9,168h5.9v2.2h-2v13.4h-1.9v-13.4h-2V168z"/>
		<path class="st1" d="M235.7,168h1.9v15.7h-1.9V168z"/>
		<path class="st1" d="M241,175h2.5v2.2H241v6.5h-1.9V168h5.1v2.2H241V175z"/>
		<path class="st1" d="M245.1,168h1.9v15.7h-1.9V168z"/>
		<path class="st1" d="M253.9,177.8v2.1c0,2.5-1,3.9-2.9,3.9c-1.9,0-2.9-1.4-2.9-3.9v-8.2c0-2.5,1-3.9,2.9-3.9
			c1.9,0,2.9,1.4,2.9,3.9v1.5h-1.8v-1.7c0-1.1-0.4-1.5-1-1.5s-1,0.4-1,1.5v8.5c0,1.1,0.4,1.5,1,1.5s1-0.4,1-1.5v-2.2H253.9z"/>
		<path class="st1" d="M261.3,183.7h-1.9l-0.3-2.8h-2.4l-0.3,2.8h-1.8l2-15.7h2.8L261.3,183.7z M256.9,178.7h1.8l-0.9-7.9
			L256.9,178.7z"/>
		<path class="st1" d="M261,168h5.9v2.2h-2v13.4H263v-13.4h-2V168z"/>
		<path class="st1" d="M267.8,168h1.9v15.7h-1.9V168z"/>
		<path class="st1" d="M271,171.8c0-2.5,1-3.9,2.9-3.9c1.9,0,2.9,1.4,2.9,3.9v8.2c0,2.5-1,3.9-2.9,3.9c-1.9,0-2.9-1.4-2.9-3.9V171.8
			z M272.9,180.1c0,1.1,0.4,1.5,1,1.5s1-0.4,1-1.5v-8.5c0-1.1-0.4-1.5-1-1.5s-1,0.4-1,1.5V180.1z"/>
		<path class="st1" d="M279.7,172.3v11.4H278V168h2.4l2,9.4V168h1.7v15.7h-2L279.7,172.3z"/>
		<path class="st1" d="M288,167.8c1.9,0,2.8,1.4,2.8,3.9v0.6h-1.8v-0.8c0-1.1-0.3-1.5-1-1.5s-1,0.4-1,1.5c0,3.2,3.7,3.8,3.7,8.3
			c0,2.5-1,3.9-2.9,3.9c-1.9,0-2.9-1.4-2.9-3.9v-1.1h1.8v1.2c0,1.1,0.4,1.5,1,1.5s1-0.4,1-1.5c0-3.2-3.7-3.8-3.7-8.3
			C285.2,169.2,286.2,167.8,288,167.8z"/>
	</g>
	<g>
		<path class="st1" d="M239.6,163.5h-1.7v-14h1.7v6h2v-6h1.8v14h-1.8v-6h-2V163.5z"/>
		<path class="st1" d="M246.1,149.4v10.8c0,1,0.3,1.4,0.9,1.4s0.9-0.4,0.9-1.4v-10.8h1.6v10.7c0,2.2-0.9,3.5-2.6,3.5
			s-2.6-1.3-2.6-3.5v-10.7H246.1z"/>
		<path class="st1" d="M255.9,152.7v0.5c0,1.4-0.3,2.4-1.1,2.8c0.9,0.5,1.3,1.5,1.3,3v1.1c0,2.2-0.9,3.3-2.6,3.3h-2.7v-14h2.6
			C255.1,149.4,255.9,150.5,255.9,152.7z M252.4,151.4v3.7h0.7c0.6,0,1-0.4,1-1.5v-0.8c0-1-0.3-1.4-0.9-1.4H252.4z M252.4,157.2v4.3
			h1c0.6,0,0.9-0.3,0.9-1.4v-1.2c0-1.3-0.3-1.7-1.1-1.7H252.4z"/>
		<path class="st1" d="M256.9,152.8c0-2.2,0.9-3.5,2.6-3.5s2.6,1.3,2.6,3.5v7.3c0,2.2-0.9,3.5-2.6,3.5s-2.6-1.3-2.6-3.5V152.8z
			 M258.6,160.2c0,1,0.3,1.4,0.9,1.4s0.9-0.4,0.9-1.4v-7.6c0-1-0.3-1.4-0.9-1.4s-0.9,0.4-0.9,1.4V160.2z"/>
		<path class="st1" d="M262.8,149.4h5.3v2h-1.8v12h-1.7v-12h-1.8V149.4z"/>
	</g>
	<g>
		<path class="st1" d="M200.4,210.9c0.4,0,0.8,0,1.1,0c1.1,0,1.9-0.5,1.9-2.7v-21.9h3.3v21.6c0,5.7-2.3,7.2-4.8,7.2
			c-0.6,0-1.1,0-1.6-0.1V210.9z"/>
		<path class="st1" d="M219.7,215h-3.3l-0.6-5.2h-4.1l-0.6,5.2h-3l3.4-28.7h4.8L219.7,215z M212.1,205.9h3.2l-1.6-14.5L212.1,205.9z
			"/>
		<path class="st1" d="M225.5,209.7l2.5-23.4h3l-3.2,28.7h-4.9l-3.2-28.7h3.3L225.5,209.7z"/>
		<path class="st1" d="M242.5,215h-3.3l-0.6-5.2h-4.1L234,215h-3l3.4-28.7h4.8L242.5,215z M235,205.9h3.2l-1.6-14.5L235,205.9z"/>
		<path class="st1" d="M248.5,186c3.2,0,4.9,2.6,4.9,7.2v1.1h-3.1v-1.4c0-2.1-0.6-2.8-1.7-2.8c-1.1,0-1.7,0.8-1.7,2.8
			c0,5.9,6.5,7,6.5,15.2c0,4.6-1.7,7.2-4.9,7.2c-3.2,0-4.9-2.6-4.9-7.2v-2h3.1v2.3c0,2,0.7,2.8,1.7,2.8s1.7-0.7,1.7-2.8
			c0-5.9-6.5-7-6.5-15.2C243.7,188.6,245.3,186,248.5,186z"/>
		<path class="st1" d="M264.9,204.3v3.8c0,4.6-1.7,7.2-4.9,7.2c-3.2,0-4.9-2.6-4.9-7.2v-14.9c0-4.6,1.7-7.2,4.9-7.2
			c3.2,0,4.9,2.6,4.9,7.2v2.8h-3.1v-3.1c0-2.1-0.7-2.8-1.7-2.8s-1.7,0.8-1.7,2.8v15.5c0,2,0.7,2.8,1.7,2.8s1.7-0.7,1.7-2.8v-4.1
			H264.9z"/>
		<path class="st1" d="M273.9,215c-0.2-0.7-0.3-1.2-0.3-3.5v-4.5c0-2.7-0.7-3.6-2.2-3.6h-1.1V215h-3.3v-28.7h5
			c3.4,0,4.9,2.2,4.9,6.6v2.3c0,3-0.7,4.9-2.2,5.8c1.7,0.9,2.2,3.1,2.2,6.1v4.4c0,1.4,0,2.4,0.4,3.5H273.9z M270.2,190.4v8.8h1.3
			c1.2,0,2-0.7,2-3v-2.8c0-2.1-0.5-3-1.7-3H270.2z"/>
		<path class="st1" d="M279,186.3h3.3V215H279V186.3z"/>
		<path class="st1" d="M294.6,193.4v3.7c0,4.6-1.6,7.1-4.9,7.1h-1.6V215h-3.3v-28.7h4.9C292.9,186.3,294.6,188.8,294.6,193.4z
			 M288.1,190.4v9.7h1.6c1.1,0,1.6-0.7,1.6-2.7v-4.3c0-2.1-0.6-2.7-1.6-2.7H288.1z"/>
		<path class="st1" d="M295.2,186.3h10.2v4.1H302V215h-3.3v-24.6h-3.5V186.3z"/>
	</g>
	<g>
		<path class="st1" d="M199.9,230.6h4.3v4.2h-4.3V247h-3.4v-29.5h8.9v4.2h-5.5V230.6z"/>
		<path class="st1" d="M207.1,217.5h3.4V247h-3.4V217.5z"/>
		<path class="st1" d="M212.9,217.5h3.4v25.3h5.5v4.2h-8.9V217.5z"/>
		<path class="st1" d="M226.6,230h4.6v4.2h-4.6v8.6h5.8v4.2h-9.2v-29.5h9.2v4.2h-5.8V230z"/>
		<path class="st1" d="M234.3,230.2h6.1v4.2h-6.1V230.2z"/>
		<path class="st1" d="M245.9,217.5v22.8c0,2.1,0.7,2.9,1.7,2.9s1.7-0.8,1.7-2.9v-22.8h3.2V240c0,4.7-1.7,7.4-5,7.4s-5-2.7-5-7.4
			v-22.5H245.9z"/>
		<path class="st1" d="M264.8,224.8v3.8c0,4.7-1.6,7.3-5,7.3h-1.6V247h-3.4v-29.5h4.9C263.2,217.5,264.8,220.1,264.8,224.8z
			 M258.2,221.8v10h1.6c1.1,0,1.6-0.7,1.6-2.8v-4.4c0-2.1-0.6-2.8-1.6-2.8H258.2z"/>
		<path class="st1" d="M266.4,217.5h3.4v25.3h5.5v4.2h-8.9V217.5z"/>
		<path class="st1" d="M276.5,224.6c0-4.7,1.8-7.4,5.1-7.4s5.1,2.7,5.1,7.4V240c0,4.7-1.8,7.4-5.1,7.4s-5.1-2.7-5.1-7.4V224.6z
			 M279.9,240.2c0,2.1,0.7,2.9,1.7,2.9s1.7-0.8,1.7-2.9v-15.9c0-2.1-0.7-2.9-1.7-2.9s-1.7,0.8-1.7,2.9V240.2z"/>
		<path class="st1" d="M299.7,247h-3.4l-0.6-5.4h-4.1L291,247h-3.1l3.4-29.5h4.9L299.7,247z M292,237.7h3.2l-1.6-14.9L292,237.7z"/>
		<path class="st1" d="M301.3,217.5h5.3c3.4,0,5,2.6,5,7.3v14.9c0,4.7-1.6,7.3-5,7.3h-5.3V217.5z M304.6,221.8v21.1h1.9
			c1.1,0,1.7-0.8,1.7-2.9v-15.3c0-2.1-0.6-2.9-1.7-2.9H304.6z"/>
	</g>
	<g>
		<path class="st1" d="M184.5,264.3h4.9v4.6h-4.9v13.4h-3.8v-32.5h10.1v4.6h-6.3V264.3z"/>
		<path class="st1" d="M192.6,249.8h3.8v32.5h-3.8V249.8z"/>
		<path class="st1" d="M199.2,249.8h3.8v27.9h6.3v4.6h-10.1V249.8z"/>
		<path class="st1" d="M214.7,263.5h5.2v4.6h-5.2v9.5h6.6v4.6h-10.4v-32.5h10.4v4.6h-6.6V263.5z"/>
		<path class="st1" d="M223.5,263.7h6.9v4.6h-6.9V263.7z"/>
		<path class="st1" d="M238.1,249.4c3.7,0,5.6,3,5.6,8.2v1.3h-3.6v-1.6c0-2.3-0.7-3.2-1.9-3.2c-1.2,0-1.9,0.9-1.9,3.2
			c0,6.7,7.4,7.9,7.4,17.2c0,5.2-1.9,8.2-5.7,8.2s-5.7-3-5.7-8.2v-2.2h3.6v2.6c0,2.3,0.8,3.2,2,3.2s2-0.8,2-3.2
			c0-6.7-7.4-7.9-7.4-17.2C232.5,252.4,234.4,249.4,238.1,249.4z"/>
		<path class="st1" d="M249.7,282.3h-3.8v-32.5h3.8v13.9h4.3v-13.9h3.9v32.5H254v-13.9h-4.3V282.3z"/>
		<path class="st1" d="M272.9,282.3h-3.8l-0.7-5.9h-4.7l-0.7,5.9h-3.5l3.9-32.5h5.6L272.9,282.3z M264.3,272h3.7l-1.8-16.4
			L264.3,272z"/>
		<path class="st1" d="M282.6,282.3c-0.2-0.8-0.3-1.3-0.3-4v-5.1c0-3-0.8-4.1-2.5-4.1h-1.3v13.2h-3.8v-32.5h5.7
			c3.9,0,5.6,2.5,5.6,7.5v2.6c0,3.3-0.8,5.5-2.5,6.6c1.9,1.1,2.5,3.5,2.5,6.9v5c0,1.6,0,2.7,0.4,3.9H282.6z M278.5,254.5v10h1.5
			c1.4,0,2.3-0.8,2.3-3.4v-3.2c0-2.3-0.6-3.3-1.9-3.3H278.5z"/>
		<path class="st1" d="M288.6,249.8h3.8v32.5h-3.8V249.8z"/>
		<path class="st1" d="M298.5,258.8v23.5h-3.4v-32.5h4.8l3.9,19.4v-19.4h3.4v32.5h-3.9L298.5,258.8z"/>
		<path class="st1" d="M315.6,264.2h5.3v10.3c0,5.2-1.9,8.2-5.7,8.2s-5.7-3-5.7-8.2v-16.9c0-5.2,1.9-8.2,5.7-8.2s5.7,3,5.7,8.2v3.2
			h-3.6v-3.5c0-2.3-0.8-3.2-2-3.2c-1.2,0-2,0.9-2,3.2v17.5c0,2.3,0.8,3.2,2,3.2c1.2,0,2-0.8,2-3.2v-6h-1.7V264.2z"/>
	</g>
	<g>
		<path class="st1" d="M324.4,271.7h1.2v8.6h1.9v1.4h-3.1V271.7z"/>
		<path class="st1" d="M328.1,271.7h1.9c1.2,0,1.8,0.9,1.8,2.5v5.1c0,1.6-0.6,2.5-1.8,2.5h-1.9V271.7z M329.2,273.1v7.2h0.7
			c0.4,0,0.6-0.3,0.6-1v-5.2c0-0.7-0.2-1-0.6-1H329.2z"/>
		<path class="st1" d="M336.2,281.7H335l-0.2-1.8h-1.4l-0.2,1.8h-1.1l1.2-10.1h1.7L336.2,281.7z M333.5,278.5h1.1l-0.6-5.1
			L333.5,278.5z"/>
		<path class="st1" d="M340.3,274.1v1.3c0,1.6-0.6,2.5-1.8,2.5h-0.6v3.8h-1.2v-10.1h1.7C339.7,271.7,340.3,272.5,340.3,274.1z
			 M337.9,273.1v3.4h0.6c0.4,0,0.6-0.2,0.6-0.9V274c0-0.7-0.2-0.9-0.6-0.9H337.9z"/>
	</g>
	<g>
		<path class="st1" d="M161.1,321.3v1.7c0,2-0.7,3.2-2.2,3.2s-2.2-1.2-2.2-3.2v-6.5c0-2,0.7-3.2,2.2-3.2s2.2,1.2,2.2,3.2v1.2h-1.4
			v-1.3c0-0.9-0.3-1.2-0.8-1.2c-0.5,0-0.8,0.3-0.8,1.2v6.8c0,0.9,0.3,1.2,0.8,1.2c0.5,0,0.8-0.3,0.8-1.2v-1.8H161.1z"/>
		<path class="st1" d="M161.9,316.5c0-2,0.8-3.2,2.2-3.2c1.4,0,2.2,1.2,2.2,3.2v6.5c0,2-0.8,3.2-2.2,3.2c-1.4,0-2.2-1.2-2.2-3.2
			V316.5z M163.3,323.1c0,0.9,0.3,1.2,0.8,1.2c0.5,0,0.8-0.3,0.8-1.2v-6.8c0-0.9-0.3-1.2-0.8-1.2c-0.5,0-0.8,0.3-0.8,1.2V323.1z"/>
		<path class="st1" d="M170.4,326c-0.1-0.3-0.1-0.5-0.1-1.5v-2c0-1.2-0.3-1.6-1-1.6h-0.5v5.1h-1.5v-12.6h2.2c1.5,0,2.2,1,2.2,2.9v1
			c0,1.3-0.3,2.1-1,2.6c0.7,0.4,1,1.4,1,2.7v1.9c0,0.6,0,1.1,0.2,1.5H170.4z M168.7,315.2v3.9h0.6c0.5,0,0.9-0.3,0.9-1.3v-1.2
			c0-0.9-0.2-1.3-0.7-1.3H168.7z"/>
		<path class="st1" d="M172.7,313.4h2.3c1.5,0,2.2,1.1,2.2,3.1v6.4c0,2-0.7,3.1-2.2,3.1h-2.3V313.4z M174.1,315.2v9h0.8
			c0.5,0,0.7-0.3,0.7-1.2v-6.5c0-0.9-0.3-1.2-0.7-1.2H174.1z"/>
		<path class="st1" d="M178,316.5c0-2,0.8-3.2,2.2-3.2c1.4,0,2.2,1.2,2.2,3.2v6.5c0,2-0.8,3.2-2.2,3.2c-1.4,0-2.2-1.2-2.2-3.2V316.5
			z M179.5,323.1c0,0.9,0.3,1.2,0.8,1.2c0.5,0,0.8-0.3,0.8-1.2v-6.8c0-0.9-0.3-1.2-0.8-1.2c-0.5,0-0.8,0.3-0.8,1.2V323.1z"/>
		<path class="st1" d="M185.6,323.7l1.1-10.3h1.4l-1.4,12.6h-2.2l-1.4-12.6h1.5L185.6,323.7z"/>
		<path class="st1" d="M193.2,326h-1.5l-0.3-2.3h-1.8l-0.3,2.3h-1.4l1.5-12.6h2.2L193.2,326z M189.9,322h1.4l-0.7-6.4L189.9,322z"/>
	</g>
	<g>
		<path class="st1" d="M163.7,310.6c-0.1-0.2-0.1-0.4-0.1-1.2V308c0-0.9-0.2-1.2-0.7-1.2h-0.4v3.8h-1.1v-9.4h1.7
			c1.1,0,1.6,0.7,1.6,2.2v0.7c0,1-0.2,1.6-0.7,1.9c0.6,0.3,0.7,1,0.7,2v1.5c0,0.5,0,0.8,0.1,1.1H163.7z M162.5,302.5v2.9h0.4
			c0.4,0,0.7-0.2,0.7-1v-0.9c0-0.7-0.2-1-0.6-1H162.5z"/>
		<path class="st1" d="M166.6,305.1h1.5v1.3h-1.5v2.8h1.9v1.3h-3v-9.4h3v1.3h-1.9V305.1z"/>
		<path class="st1" d="M170.6,301.1c1.1,0,1.6,0.9,1.6,2.4v0.4h-1v-0.5c0-0.7-0.2-0.9-0.6-0.9c-0.4,0-0.6,0.3-0.6,0.9
			c0,1.9,2.2,2.3,2.2,5c0,1.5-0.6,2.4-1.6,2.4s-1.6-0.9-1.6-2.4v-0.6h1v0.7c0,0.7,0.2,0.9,0.6,0.9s0.6-0.2,0.6-0.9
			c0-1.9-2.2-2.3-2.2-5C169,301.9,169.6,301.1,170.6,301.1z"/>
		<path class="st1" d="M172.6,301.2h3.4v1.3h-1.2v8.1h-1.1v-8.1h-1.2V301.2z"/>
		<path class="st1" d="M176.1,305.2h2v1.3h-2V305.2z"/>
		<path class="st1" d="M180,305.4h1.4v1.3H180v3.9h-1.1v-9.4h2.9v1.3H180V305.4z"/>
		<path class="st1" d="M183.4,301.2v7.3c0,0.7,0.2,0.9,0.6,0.9s0.6-0.2,0.6-0.9v-7.3h1v7.2c0,1.5-0.6,2.4-1.6,2.4s-1.6-0.9-1.6-2.4
			v-7.2H183.4z"/>
		<path class="st1" d="M186.3,301.2h1.1v8.1h1.8v1.3h-2.9V301.2z"/>
		<path class="st1" d="M189.7,301.2h1.1v8.1h1.8v1.3h-2.9V301.2z"/>
	</g>
	<g>
		<path class="st1" d="M171.2,289.4v1.4c0,1.8-0.6,2.8-1.9,2.8h-0.6v4.2h-1.3v-11.1h1.9C170.6,286.6,171.2,287.6,171.2,289.4z
			 M168.7,288.2v3.8h0.6c0.4,0,0.6-0.3,0.6-1.1v-1.7c0-0.8-0.2-1.1-0.6-1.1H168.7z"/>
		<path class="st1" d="M173.1,286.6v8.6c0,0.8,0.3,1.1,0.7,1.1c0.4,0,0.7-0.3,0.7-1.1v-8.6h1.2v8.5c0,1.8-0.7,2.8-1.9,2.8
			s-1.9-1-1.9-2.8v-8.5H173.1z"/>
		<path class="st1" d="M180.4,289.2v0.4c0,1.1-0.3,1.9-0.8,2.2c0.7,0.4,1,1.2,1,2.4v0.9c0,1.7-0.7,2.6-2,2.6h-2v-11.1h2
			C179.9,286.6,180.4,287.5,180.4,289.2z M177.8,288.2v2.9h0.5c0.5,0,0.8-0.3,0.8-1.2v-0.6c0-0.8-0.2-1.1-0.7-1.1H177.8z
			 M177.8,292.8v3.4h0.7c0.4,0,0.7-0.3,0.7-1.1v-1c0-1-0.2-1.4-0.8-1.4H177.8z"/>
		<path class="st1" d="M181.4,286.6h1.3v9.5h2.1v1.6h-3.4V286.6z"/>
		<path class="st1" d="M185.4,286.6h1.3v11.1h-1.3V286.6z"/>
		<path class="st1" d="M191.4,293.6v1.5c0,1.8-0.7,2.8-1.9,2.8s-1.9-1-1.9-2.8v-5.8c0-1.8,0.7-2.8,1.9-2.8s1.9,1,1.9,2.8v1.1h-1.2
			v-1.2c0-0.8-0.3-1.1-0.7-1.1c-0.4,0-0.7,0.3-0.7,1.1v6c0,0.8,0.3,1.1,0.7,1.1c0.4,0,0.7-0.3,0.7-1.1v-1.6H191.4z"/>
	</g>
	<g>
		<path class="st1" d="M329.5,344.2h-1.6v-12h1.6v5.2h1.8v-5.2h1.7v12h-1.7V339h-1.8V344.2z"/>
		<path class="st1" d="M334.2,332.2h1.6v12h-1.6V332.2z"/>
		<path class="st1" d="M339.2,332c1.6,0,2.4,1.1,2.4,3v0.5H340v-0.6c0-0.9-0.3-1.2-0.8-1.2c-0.5,0-0.8,0.3-0.8,1.2
			c0,2.5,3.2,2.9,3.2,6.4c0,1.9-0.8,3-2.4,3s-2.4-1.1-2.4-3v-0.8h1.5v0.9c0,0.9,0.3,1.2,0.8,1.2s0.8-0.3,0.8-1.2
			c0-2.5-3.2-2.9-3.2-6.4C336.8,333.1,337.6,332,339.2,332z"/>
		<path class="st1" d="M342.1,332.2h5v1.7h-1.7v10.3h-1.6v-10.3h-1.7V332.2z"/>
		<path class="st1" d="M347.7,335c0-1.9,0.9-3,2.5-3c1.6,0,2.5,1.1,2.5,3v6.3c0,1.9-0.9,3-2.5,3c-1.6,0-2.5-1.1-2.5-3V335z
			 M349.3,341.4c0,0.9,0.3,1.2,0.8,1.2c0.5,0,0.8-0.3,0.8-1.2v-6.5c0-0.9-0.3-1.2-0.8-1.2c-0.5,0-0.8,0.3-0.8,1.2V341.4z"/>
		<path class="st1" d="M357.1,344.2c-0.1-0.3-0.1-0.5-0.1-1.5v-1.9c0-1.1-0.3-1.5-1.1-1.5h-0.6v4.9h-1.6v-12h2.5
			c1.7,0,2.4,0.9,2.4,2.8v0.9c0,1.2-0.3,2-1.1,2.4c0.8,0.4,1.1,1.3,1.1,2.6v1.9c0,0.6,0,1,0.2,1.5H357.1z M355.3,333.9v3.7h0.6
			c0.6,0,1-0.3,1-1.3v-1.2c0-0.9-0.3-1.2-0.8-1.2H355.3z"/>
		<path class="st1" d="M361,340.2l-2.1-8.1h1.7l1.2,5.5l1.2-5.5h1.6l-2.1,8.1v4H361V340.2z"/>
	</g>
	<g>
		<path class="st1" d="M337,354v0.9c0,2.7-0.6,4.5-1.9,5.3c1.6,0.9,2.2,2.9,2.2,5.7v2.2c0,4.1-1.6,6.3-4.5,6.3H328v-26.4h4.5
			C335.7,347.9,337,349.9,337,354z M331,351.7v7h1.2c1.1,0,1.8-0.7,1.8-2.8v-1.5c0-1.9-0.5-2.7-1.5-2.7H331z M331,362.5v8.1h1.7
			c1,0,1.6-0.6,1.6-2.6v-2.3c0-2.5-0.6-3.2-1.9-3.2H331z"/>
		<path class="st1" d="M341.5,365.6l-3.8-17.7h3.1l2.3,12.1l2.3-12.1h2.9l-3.8,17.7v8.8h-3V365.6z"/>
		<path class="st1" d="M348.8,354.3c0-4.2,1.6-6.6,4.5-6.6c2.9,0,4.5,2.4,4.5,6.6V368c0,4.2-1.6,6.6-4.5,6.6c-2.9,0-4.5-2.4-4.5-6.6
			V354.3z M351.8,368.3c0,1.9,0.6,2.6,1.6,2.6c1,0,1.6-0.7,1.6-2.6V354c0-1.9-0.6-2.6-1.6-2.6c-1,0-1.6,0.7-1.6,2.6V368.3z"/>
		<path class="st1" d="M363.9,347.6c2.9,0,4.4,2.4,4.4,6.6v1h-2.8V354c0-1.9-0.5-2.6-1.5-2.6c-1,0-1.5,0.7-1.5,2.6
			c0,5.4,5.9,6.5,5.9,14c0,4.2-1.5,6.6-4.5,6.6s-4.5-2.4-4.5-6.6v-1.8h2.8v2.1c0,1.9,0.6,2.6,1.6,2.6c1,0,1.6-0.7,1.6-2.6
			c0-5.4-5.9-6.5-5.9-14C359.5,350,361,347.6,363.9,347.6z"/>
	</g>
	<g>
		<path class="st1" d="M332,389.3h3.3v7.6c0,3.8-1.2,6-3.6,6c-2.3,0-3.6-2.2-3.6-6v-12.4c0-3.8,1.2-6,3.6-6c2.3,0,3.6,2.2,3.6,6v2.3
			h-2.3v-2.6c0-1.7-0.5-2.3-1.2-2.3c-0.8,0-1.2,0.6-1.2,2.3v12.9c0,1.7,0.5,2.3,1.2,2.3c0.8,0,1.2-0.6,1.2-2.3v-4.4H332V389.3z"/>
		<path class="st1" d="M341.9,402.6c-0.1-0.6-0.2-1-0.2-2.9v-3.7c0-2.2-0.5-3-1.6-3h-0.8v9.7h-2.4v-23.8h3.6c2.5,0,3.5,1.8,3.5,5.5
			v1.9c0,2.4-0.5,4-1.6,4.8c1.2,0.8,1.6,2.6,1.6,5.1v3.7c0,1.2,0,2,0.3,2.9H341.9z M339.3,382.2v7.3h0.9c0.9,0,1.4-0.6,1.4-2.5v-2.3
			c0-1.7-0.4-2.4-1.2-2.4H339.3z"/>
		<path class="st1" d="M345.5,384.5c0-3.8,1.3-6,3.6-6c2.3,0,3.6,2.2,3.6,6v12.4c0,3.8-1.3,6-3.6,6c-2.3,0-3.6-2.2-3.6-6V384.5z
			 M347.9,397.1c0,1.7,0.5,2.3,1.2,2.3c0.8,0,1.2-0.6,1.2-2.3v-12.9c0-1.7-0.5-2.3-1.2-2.3c-0.8,0-1.2,0.6-1.2,2.3V397.1z"/>
		<path class="st1" d="M356.5,378.8v18.4c0,1.7,0.5,2.3,1.2,2.3c0.8,0,1.2-0.6,1.2-2.3v-18.4h2.3v18.1c0,3.8-1.2,6-3.6,6
			c-2.3,0-3.6-2.2-3.6-6v-18.1H356.5z"/>
		<path class="st1" d="M370,384.7v3.1c0,3.8-1.2,5.9-3.6,5.9h-1.1v8.9h-2.4v-23.8h3.5C368.8,378.8,370,380.8,370,384.7z
			 M365.3,382.2v8.1h1.1c0.8,0,1.2-0.5,1.2-2.2v-3.6c0-1.7-0.4-2.2-1.2-2.2H365.3z"/>
		<path class="st1" d="M374.3,378.5c2.3,0,3.5,2.2,3.5,6v0.9h-2.3v-1.2c0-1.7-0.4-2.3-1.2-2.3c-0.8,0-1.2,0.6-1.2,2.3
			c0,4.9,4.7,5.8,4.7,12.6c0,3.8-1.2,6-3.6,6c-2.3,0-3.6-2.2-3.6-6v-1.6h2.3v1.9c0,1.7,0.5,2.3,1.2,2.3c0.8,0,1.2-0.6,1.2-2.3
			c0-4.9-4.7-5.8-4.7-12.6C370.8,380.7,372,378.5,374.3,378.5z"/>
	</g>
	<g>
		<path class="st1" d="M233.1,421.9h-1.7L231,419h-2.1l-0.3,2.8H227l1.8-15.5h2.5L233.1,421.9z M229.1,416.9h1.7l-0.8-7.9
			L229.1,416.9z"/>
		<path class="st1" d="M239,410.2v2c0,2.5-0.8,3.8-2.6,3.8h-0.8v5.8h-1.7v-15.5h2.5C238.2,406.3,239,407.7,239,410.2z M235.6,408.5
			v5.3h0.8c0.6,0,0.8-0.4,0.8-1.5V410c0-1.1-0.3-1.5-0.8-1.5H235.6z"/>
		<path class="st1" d="M239.8,406.3h1.7v15.5h-1.7V406.3z"/>
		<path class="st1" d="M245.1,406.1c1.7,0,2.5,1.4,2.5,3.9v0.6H246v-0.8c0-1.1-0.3-1.5-0.9-1.5c-0.6,0-0.9,0.4-0.9,1.5
			c0,3.2,3.4,3.8,3.4,8.2c0,2.5-0.9,3.9-2.6,3.9s-2.6-1.4-2.6-3.9v-1.1h1.6v1.2c0,1.1,0.3,1.5,0.9,1.5c0.6,0,0.9-0.4,0.9-1.5
			c0-3.2-3.4-3.8-3.4-8.2C242.6,407.6,243.4,406.1,245.1,406.1z"/>
	</g>
	<g>
		<path class="st1" d="M232,425.6l-1.3,5.5l1.4,5.8h-1.3l-1-4.4l-1,4.4h-1.2l1.4-5.8l-1.3-5.5h1.3l0.9,4.1l1-4.1H232z"/>
		<path class="st1" d="M235.3,433.6l0.9-8h1.7v11.2h-1.2v-8.1l-0.9,8.1h-1.2l-0.9-7.9v7.9h-1.1v-11.2h1.7L235.3,433.6z"/>
		<path class="st1" d="M242.5,428.4v1.5c0,1.8-0.6,2.8-1.9,2.8h-0.6v4.2h-1.3v-11.2h1.8C241.9,425.6,242.5,426.6,242.5,428.4z
			 M240.1,427.3v3.8h0.6c0.4,0,0.6-0.3,0.6-1.1v-1.7c0-0.8-0.2-1.1-0.6-1.1H240.1z"/>
		<path class="st1" d="M246.8,428.4v1.5c0,1.8-0.6,2.8-1.9,2.8h-0.6v4.2h-1.3v-11.2h1.8C246.2,425.6,246.8,426.6,246.8,428.4z
			 M244.4,427.3v3.8h0.6c0.4,0,0.6-0.3,0.6-1.1v-1.7c0-0.8-0.2-1.1-0.6-1.1H244.4z"/>
	</g>
	<g>
		<path class="st1" d="M126.8,496.5l0.8-7.8h1.7v10.9h-1.2v-7.8l-0.8,7.8h-1.2l-0.9-7.7v7.7h-1.1v-10.9h1.7L126.8,496.5z"/>
		<path class="st1" d="M130.1,491.4c0-1.8,0.7-2.8,1.9-2.8s1.9,1,1.9,2.8v5.7c0,1.8-0.7,2.8-1.9,2.8s-1.9-1-1.9-2.8V491.4z
			 M131.3,497.2c0,0.8,0.2,1.1,0.6,1.1s0.6-0.3,0.6-1.1v-5.9c0-0.8-0.2-1.1-0.6-1.1s-0.6,0.3-0.6,1.1V497.2z"/>
		<path class="st1" d="M138.2,491.3v0.4c0,1.1-0.2,1.8-0.8,2.2c0.7,0.4,0.9,1.2,0.9,2.3v0.9c0,1.7-0.6,2.6-1.9,2.6h-1.9v-10.9h1.8
			C137.7,488.8,138.2,489.6,138.2,491.3z M135.8,490.3v2.9h0.5c0.5,0,0.7-0.3,0.7-1.2v-0.6c0-0.8-0.2-1.1-0.6-1.1H135.8z
			 M135.8,494.8v3.4h0.7c0.4,0,0.6-0.3,0.6-1.1v-1c0-1-0.2-1.3-0.8-1.3H135.8z"/>
		<path class="st1" d="M139.1,488.8h1.2v10.9h-1.2V488.8z"/>
		<path class="st1" d="M141.2,488.8h1.2v9.4h2v1.6h-3.2V488.8z"/>
		<path class="st1" d="M146.2,493.4h1.7v1.6h-1.7v3.2h2.1v1.6H145v-10.9h3.3v1.6h-2.1V493.4z"/>
		<path class="st1" d="M153,499.7h-1.2l-0.2-2H150l-0.2,2h-1.1l1.2-10.9h1.8L153,499.7z M150.2,496.2h1.2l-0.6-5.5L150.2,496.2z"/>
		<path class="st1" d="M157.1,491.5v1.4c0,1.8-0.6,2.7-1.8,2.7h-0.6v4.1h-1.2v-10.9h1.8C156.5,488.8,157.1,489.7,157.1,491.5z
			 M154.8,490.3v3.7h0.6c0.4,0,0.6-0.2,0.6-1v-1.6c0-0.8-0.2-1-0.6-1H154.8z"/>
		<path class="st1" d="M161.3,491.5v1.4c0,1.8-0.6,2.7-1.8,2.7h-0.6v4.1h-1.2v-10.9h1.8C160.7,488.8,161.3,489.7,161.3,491.5z
			 M158.9,490.3v3.7h0.6c0.4,0,0.6-0.2,0.6-1v-1.6c0-0.8-0.2-1-0.6-1H158.9z"/>
	</g>
	<g>
		<path class="st1" d="M173.4,509.9l3.8-36.4h4.6l-4.9,44.6h-7.4l-4.9-44.6h5L173.4,509.9z"/>
		<path class="st1" d="M184.1,473.5h5v44.6h-5V473.5z"/>
		<path class="st1" d="M192.7,473.5h7.9c5,0,7.4,3.9,7.4,11v22.6c0,7.1-2.4,11-7.4,11h-7.9V473.5z M197.6,479.9v31.9h2.8
			c1.6,0,2.5-1.1,2.5-4.3v-23.2c0-3.2-0.9-4.3-2.5-4.3H197.6z"/>
		<path class="st1" d="M216.1,492.3h6.8v6.4h-6.8v13.1h8.6v6.4h-13.6v-44.6h13.6v6.4h-8.6V492.3z"/>
		<path class="st1" d="M227.3,484.2c0-7.1,2.7-11.2,7.5-11.2c4.9,0,7.5,4.1,7.5,11.2v23.2c0,7.1-2.7,11.2-7.5,11.2
			c-4.9,0-7.5-4.1-7.5-11.2V484.2z M232.3,507.9c0,3.2,1,4.4,2.6,4.4c1.6,0,2.6-1.2,2.6-4.4v-24.1c0-3.2-1-4.4-2.6-4.4
			c-1.6,0-2.6,1.2-2.6,4.4V507.9z"/>
	</g>
	<g>
		<path class="st1" d="M264.5,506v7c0,8.4-3.1,13.2-9.2,13.2c-6.1,0-9.2-4.8-9.2-13.2v-27.4c0-8.4,3.1-13.2,9.2-13.2
			c6.1,0,9.2,4.8,9.2,13.2v5.1h-5.8V485c0-3.8-1.2-5.2-3.2-5.2c-2,0-3.2,1.4-3.2,5.2v28.4c0,3.8,1.2,5.1,3.2,5.1
			c2,0,3.2-1.4,3.2-5.1V506H264.5z"/>
		<path class="st1" d="M274.4,525.6h-6.2v-52.6h6.2v22.6h7v-22.6h6.3v52.6h-6.3V503h-7V525.6z"/>
		<path class="st1" d="M312.2,525.6h-6.2l-1.1-9.5h-7.6l-1.1,9.5h-5.7l6.3-52.6h9L312.2,525.6z M298.1,508.9h5.9l-3-26.6
			L298.1,508.9z"/>
		<path class="st1" d="M311.2,472.9h19.1v7.5h-6.5v45.1h-6.2v-45.1h-6.5V472.9z"/>
	</g>
	<g>
		<path class="st1" d="M337.4,479.9l0.9-7h1.9v9.8h-1.3v-7.1l-1,7.1h-1.3l-1-7v7h-1.2v-9.8h1.9L337.4,479.9z"/>
		<path class="st1" d="M342.6,477h1.9v1.4h-1.9v2.9h2.4v1.4h-3.8v-9.8h3.8v1.4h-2.4V477z"/>
		<path class="st1" d="M345.9,472.9h2.2c1.4,0,2.1,0.9,2.1,2.4v5c0,1.6-0.7,2.4-2.1,2.4h-2.2V472.9z M347.2,474.3v7h0.8
			c0.4,0,0.7-0.3,0.7-1v-5.1c0-0.7-0.3-1-0.7-1H347.2z"/>
		<path class="st1" d="M351,472.9h1.4v9.8H351V472.9z"/>
		<path class="st1" d="M357.8,482.7h-1.4l-0.2-1.8h-1.7l-0.2,1.8H353l1.4-9.8h2L357.8,482.7z M354.7,479.6h1.3l-0.7-5L354.7,479.6z"
			/>
		<path class="st1" d="M358.3,477.1h2.5v1.4h-2.5V477.1z"/>
		<path class="st1" d="M363.1,477h1.9v1.4h-1.9v2.9h2.4v1.4h-3.8v-9.8h3.8v1.4h-2.4V477z"/>
		<path class="st1" d="M369.2,479.9l0.9-7h1.9v9.8h-1.3v-7.1l-1,7.1h-1.3l-1-7v7h-1.2v-9.8h1.9L369.2,479.9z"/>
		<path class="st1" d="M377.2,475.2v0.4c0,1-0.3,1.7-0.9,2c0.7,0.3,1,1.1,1,2.1v0.8c0,1.5-0.7,2.3-2.1,2.3h-2.2v-9.8h2.1
			C376.6,472.9,377.2,473.6,377.2,475.2z M374.5,474.3v2.6h0.5c0.5,0,0.8-0.3,0.8-1v-0.5c0-0.7-0.2-1-0.7-1H374.5z M374.5,478.3v3
			h0.8c0.5,0,0.7-0.2,0.7-1v-0.9c0-0.9-0.3-1.2-0.9-1.2H374.5z"/>
		<path class="st1" d="M379.6,477h1.9v1.4h-1.9v2.9h2.4v1.4h-3.8v-9.8h3.8v1.4h-2.4V477z"/>
		<path class="st1" d="M382.8,472.9h2.2c1.4,0,2.1,0.9,2.1,2.4v5c0,1.6-0.7,2.4-2.1,2.4h-2.2V472.9z M384.2,474.3v7h0.8
			c0.4,0,0.7-0.3,0.7-1v-5.1c0-0.7-0.3-1-0.7-1H384.2z"/>
		<path class="st1" d="M389.8,472.8c1.3,0,2,0.9,2,2.5v0.4h-1.3v-0.5c0-0.7-0.3-1-0.7-1s-0.7,0.3-0.7,1c0,2,2.7,2.4,2.7,5.2
			c0,1.6-0.7,2.5-2.1,2.5s-2.1-0.9-2.1-2.5v-0.7h1.3v0.8c0,0.7,0.3,1,0.7,1s0.7-0.3,0.7-1c0-2-2.7-2.4-2.7-5.2
			C387.7,473.7,388.4,472.8,389.8,472.8z"/>
	</g>
	<g>
		<path class="st1" d="M339.1,491.6v3.2c0,3.9-1.6,6-4.8,6h-1.5v9.2h-3.2v-24.4h4.7C337.5,485.6,339.1,487.7,339.1,491.6z
			 M332.8,489.1v8.2h1.5c1,0,1.6-0.6,1.6-2.3v-3.7c0-1.7-0.6-2.3-1.6-2.3H332.8z"/>
		<path class="st1" d="M347.2,510c-0.2-0.6-0.3-1-0.3-3v-3.8c0-2.3-0.6-3.1-2.1-3.1h-1.1v9.9h-3.2v-24.4h4.8c3.3,0,4.7,1.8,4.7,5.6
			v1.9c0,2.5-0.7,4.1-2.1,4.9c1.6,0.8,2.1,2.6,2.1,5.2v3.8c0,1.2,0,2.1,0.3,3H347.2z M343.8,489.1v7.5h1.2c1.2,0,1.9-0.6,1.9-2.6
			v-2.4c0-1.7-0.5-2.5-1.6-2.5H343.8z"/>
		<path class="st1" d="M352.2,485.6h3.2V510h-3.2V485.6z"/>
		<path class="st1" d="M362.6,505.5l2.4-19.9h2.9l-3.1,24.4h-4.8l-3.1-24.4h3.2L362.6,505.5z"/>
		<path class="st1" d="M379,510h-3.2l-0.6-4.4h-3.9l-0.6,4.4h-2.9l3.3-24.4h4.7L379,510z M371.8,502.2h3.1l-1.5-12.3L371.8,502.2z"
			/>
		<path class="st1" d="M378.6,485.6h9.9v3.5h-3.3V510h-3.2v-20.9h-3.3V485.6z"/>
		<path class="st1" d="M393.1,495.9h4.4v3.5h-4.4v7.1h5.5v3.5h-8.7v-24.4h8.7v3.5h-5.5V495.9z"/>
	</g>
	<g>
		<path class="st1" d="M328.8,514h2.4c1.5,0,2.3,1.1,2.3,3v6.2c0,2-0.7,3-2.3,3h-2.4V514z M330.3,515.7v8.7h0.9
			c0.5,0,0.8-0.3,0.8-1.2v-6.4c0-0.9-0.3-1.2-0.8-1.2H330.3z"/>
		<path class="st1" d="M334.4,514h1.5v12.2h-1.5V514z"/>
		<path class="st1" d="M340.1,526.2c-0.1-0.3-0.1-0.5-0.1-1.5v-1.9c0-1.1-0.3-1.6-1-1.6h-0.5v5H337V514h2.3c1.6,0,2.2,0.9,2.2,2.8v1
			c0,1.3-0.3,2.1-1,2.5c0.8,0.4,1,1.3,1,2.6v1.9c0,0.6,0,1,0.2,1.5H340.1z M338.5,515.7v3.8h0.6c0.6,0,0.9-0.3,0.9-1.3V517
			c0-0.9-0.2-1.3-0.8-1.3H338.5z"/>
		<path class="st1" d="M344,519.1h2.1v1.7H344v3.6h2.6v1.7h-4.1V514h4.1v1.7H344V519.1z"/>
		<path class="st1" d="M351.9,521.7v1.6c0,2-0.8,3.1-2.3,3.1c-1.5,0-2.3-1.1-2.3-3.1v-6.4c0-2,0.8-3.1,2.3-3.1
			c1.5,0,2.3,1.1,2.3,3.1v1.2h-1.4v-1.3c0-0.9-0.3-1.2-0.8-1.2c-0.5,0-0.8,0.3-0.8,1.2v6.6c0,0.9,0.3,1.2,0.8,1.2
			c0.5,0,0.8-0.3,0.8-1.2v-1.7H351.9z"/>
		<path class="st1" d="M352.5,514h4.7v1.7h-1.6v10.5H354v-10.5h-1.6V514z"/>
		<path class="st1" d="M357.3,519.2h2.8v1.7h-2.8V519.2z"/>
		<path class="st1" d="M364.3,522.7l1-8.7h2.1v12.2H366v-8.8l-1,8.8h-1.4l-1.1-8.6v8.6h-1.3V514h2.1L364.3,522.7z"/>
		<path class="st1" d="M370,519.1h2.1v1.7H370v3.6h2.6v1.7h-4.1V514h4.1v1.7H370V519.1z"/>
		<path class="st1" d="M375.6,513.8c1.5,0,2.2,1.1,2.2,3.1v0.5h-1.4v-0.6c0-0.9-0.3-1.2-0.8-1.2c-0.5,0-0.8,0.3-0.8,1.2
			c0,2.5,3,3,3,6.5c0,2-0.8,3.1-2.3,3.1s-2.3-1.1-2.3-3.1v-0.8h1.4v1c0,0.9,0.3,1.2,0.8,1.2c0.5,0,0.8-0.3,0.8-1.2c0-2.5-3-3-3-6.5
			C373.4,515,374.1,513.8,375.6,513.8z"/>
		<path class="st1" d="M380.8,513.8c1.5,0,2.2,1.1,2.2,3.1v0.5h-1.4v-0.6c0-0.9-0.3-1.2-0.8-1.2c-0.5,0-0.8,0.3-0.8,1.2
			c0,2.5,3,3,3,6.5c0,2-0.8,3.1-2.3,3.1s-2.3-1.1-2.3-3.1v-0.8h1.4v1c0,0.9,0.3,1.2,0.8,1.2c0.5,0,0.8-0.3,0.8-1.2c0-2.5-3-3-3-6.5
			C378.5,515,379.3,513.8,380.8,513.8z"/>
		<path class="st1" d="M388.8,526.2h-1.5L387,524h-1.9l-0.3,2.2h-1.4L385,514h2.2L388.8,526.2z M385.3,522.3h1.5l-0.7-6.2
			L385.3,522.3z"/>
		<path class="st1" d="M391.7,519.4h2.1v3.9c0,2-0.8,3.1-2.3,3.1c-1.5,0-2.3-1.1-2.3-3.1v-6.4c0-2,0.8-3.1,2.3-3.1
			c1.5,0,2.3,1.1,2.3,3.1v1.2h-1.4v-1.3c0-0.9-0.3-1.2-0.8-1.2c-0.5,0-0.8,0.3-0.8,1.2v6.6c0,0.9,0.3,1.2,0.8,1.2
			c0.5,0,0.8-0.3,0.8-1.2v-2.3h-0.7V519.4z"/>
		<path class="st1" d="M396.3,519.1h2.1v1.7h-2.1v3.6h2.6v1.7h-4.1V514h4.1v1.7h-2.6V519.1z"/>
		<path class="st1" d="M401.9,513.8c1.5,0,2.2,1.1,2.2,3.1v0.5h-1.4v-0.6c0-0.9-0.3-1.2-0.8-1.2c-0.5,0-0.8,0.3-0.8,1.2
			c0,2.5,3,3,3,6.5c0,2-0.8,3.1-2.3,3.1s-2.3-1.1-2.3-3.1v-0.8h1.4v1c0,0.9,0.3,1.2,0.8,1.2c0.5,0,0.8-0.3,0.8-1.2c0-2.5-3-3-3-6.5
			C399.7,515,400.4,513.8,401.9,513.8z"/>
	</g>
	<g>
		<path class="st1" d="M130.8,478.6l-0.5,6.2h-1.9l-1-11.7h1.3l0.7,9.2l0.7-9.2h1.3l0.7,9.3l0.7-9.3h1.2l-1,11.7h-1.8L130.8,478.6z"
			/>
		<path class="st1" d="M136.1,478.1h1.9v1.7h-1.9v3.4h2.4v1.7h-3.7v-11.7h3.7v1.7h-2.4V478.1z"/>
		<path class="st1" d="M143.4,475.9v0.4c0,1.2-0.3,2-0.9,2.3c0.7,0.4,1,1.3,1,2.5v0.9c0,1.8-0.7,2.8-2.1,2.8h-2.1v-11.7h2.1
			C142.8,473.2,143.4,474.1,143.4,475.9z M140.7,474.9v3.1h0.5c0.5,0,0.8-0.3,0.8-1.2v-0.6c0-0.8-0.2-1.2-0.7-1.2H140.7z
			 M140.7,479.6v3.6h0.8c0.5,0,0.7-0.3,0.7-1.1v-1c0-1.1-0.3-1.4-0.9-1.4H140.7z"/>
		<path class="st1" d="M148.8,484.9h-1.4l-0.2-2.1h-1.7l-0.2,2.1H144l1.4-11.7h2L148.8,484.9z M145.6,481.2h1.3l-0.7-5.9
			L145.6,481.2z"/>
		<path class="st1" d="M153.4,476.1v1.5c0,1.9-0.7,2.9-2,2.9h-0.6v4.4h-1.4v-11.7h2C152.8,473.2,153.4,474.2,153.4,476.1z
			 M150.8,474.9v3.9h0.6c0.4,0,0.7-0.3,0.7-1.1V476c0-0.8-0.2-1.1-0.7-1.1H150.8z"/>
		<path class="st1" d="M158.1,476.1v1.5c0,1.9-0.7,2.9-2,2.9h-0.6v4.4h-1.4v-11.7h2C157.5,473.2,158.1,474.2,158.1,476.1z
			 M155.4,474.9v3.9h0.6c0.4,0,0.7-0.3,0.7-1.1V476c0-0.8-0.2-1.1-0.7-1.1H155.4z"/>
	</g>
	<g>
		<path class="st1" d="M112.4,521.7h1.6v13.8h-1.6V521.7z"/>
		<path class="st1" d="M116.6,525.6v10h-1.5v-13.8h2l1.7,8.3v-8.3h1.4v13.8h-1.7L116.6,525.6z"/>
		<path class="st1" d="M121.1,521.7h5v2h-1.7v11.9h-1.6v-11.9h-1.7V521.7z"/>
		<path class="st1" d="M128.4,527.6h2.2v2h-2.2v4.1h2.8v2h-4.4v-13.8h4.4v2h-2.8V527.6z"/>
		<path class="st1" d="M134.7,527.9h2.3v4.4c0,2.2-0.8,3.5-2.4,3.5c-1.6,0-2.4-1.3-2.4-3.5v-7.2c0-2.2,0.8-3.5,2.4-3.5
			c1.6,0,2.4,1.3,2.4,3.5v1.3h-1.5v-1.5c0-1-0.3-1.4-0.8-1.4c-0.5,0-0.8,0.4-0.8,1.4v7.5c0,1,0.3,1.3,0.8,1.3c0.5,0,0.8-0.4,0.8-1.3
			v-2.6h-0.7V527.9z"/>
		<path class="st1" d="M141.4,535.6c-0.1-0.4-0.1-0.6-0.1-1.7v-2.2c0-1.3-0.3-1.8-1.1-1.8h-0.6v5.6H138v-13.8h2.4
			c1.7,0,2.4,1,2.4,3.2v1.1c0,1.4-0.3,2.4-1.1,2.8c0.8,0.5,1.1,1.5,1.1,2.9v2.1c0,0.7,0,1.2,0.2,1.7H141.4z M139.6,523.7v4.3h0.6
			c0.6,0,1-0.4,1-1.5v-1.4c0-1-0.3-1.4-0.8-1.4H139.6z"/>
		<path class="st1" d="M149.2,535.6h-1.6l-0.3-2.5h-2l-0.3,2.5h-1.5l1.7-13.8h2.4L149.2,535.6z M145.5,531.2h1.6l-0.8-7L145.5,531.2
			z"/>
		<path class="st1" d="M148.9,521.7h5v2h-1.7v11.9h-1.6v-11.9h-1.7V521.7z"/>
		<path class="st1" d="M154.7,521.7h1.6v13.8h-1.6V521.7z"/>
		<path class="st1" d="M157.4,525.1c0-2.2,0.9-3.5,2.5-3.5c1.6,0,2.5,1.3,2.5,3.5v7.2c0,2.2-0.9,3.5-2.5,3.5c-1.6,0-2.5-1.3-2.5-3.5
			V525.1z M159,532.4c0,1,0.3,1.4,0.8,1.4c0.5,0,0.8-0.4,0.8-1.4v-7.5c0-1-0.3-1.4-0.8-1.4c-0.5,0-0.8,0.4-0.8,1.4V532.4z"/>
		<path class="st1" d="M164.8,525.6v10h-1.5v-13.8h2l1.7,8.3v-8.3h1.4v13.8h-1.7L164.8,525.6z"/>
	</g>
	<g>
		<path class="st1" d="M103.8,542.1c0-1.9,0.7-3,2.1-3c1.4,0,2.1,1.1,2.1,3v6.1c0,1.9-0.7,3-2.1,3c-1.4,0-2.1-1.1-2.1-3V542.1z
			 M105.2,548.3c0,0.8,0.3,1.2,0.7,1.2c0.4,0,0.7-0.3,0.7-1.2v-6.4c0-0.8-0.3-1.2-0.7-1.2c-0.4,0-0.7,0.3-0.7,1.2V548.3z"/>
		<path class="st1" d="M110.3,544.5h1.8v1.7h-1.8v4.9h-1.4v-11.8h3.7v1.7h-2.3V544.5z"/>
		<path class="st1" d="M114.7,544.5h1.8v1.7h-1.8v4.9h-1.4v-11.8h3.7v1.7h-2.3V544.5z"/>
		<path class="st1" d="M117.5,542.1c0-1.9,0.7-3,2.1-3c1.4,0,2.1,1.1,2.1,3v6.1c0,1.9-0.7,3-2.1,3c-1.4,0-2.1-1.1-2.1-3V542.1z
			 M118.9,548.3c0,0.8,0.3,1.2,0.7,1.2c0.4,0,0.7-0.3,0.7-1.2v-6.4c0-0.8-0.3-1.2-0.7-1.2c-0.4,0-0.7,0.3-0.7,1.2V548.3z"/>
		<path class="st1" d="M122.2,539.2h4.3v1.7H125V551h-1.4v-10.1h-1.4V539.2z"/>
		<path class="st1" d="M128.5,551h-1.4v-11.8h1.4v5.1h1.6v-5.1h1.4V551h-1.4V546h-1.6V551z"/>
		<path class="st1" d="M133.9,544.2h1.9v1.7h-1.9v3.5h2.4v1.7h-3.8v-11.8h3.8v1.7h-2.4V544.2z"/>
		<path class="st1" d="M137,544.3h2.5v1.7H137V544.3z"/>
		<path class="st1" d="M143.4,551c-0.1-0.3-0.1-0.5-0.1-1.5v-1.9c0-1.1-0.3-1.5-0.9-1.5h-0.5v4.8h-1.4v-11.8h2.1c1.4,0,2,0.9,2,2.7
			v0.9c0,1.2-0.3,2-0.9,2.4c0.7,0.4,0.9,1.3,0.9,2.5v1.8c0,0.6,0,1,0.2,1.4H143.4z M141.9,540.9v3.6h0.5c0.5,0,0.8-0.3,0.8-1.2v-1.2
			c0-0.8-0.2-1.2-0.7-1.2H141.9z"/>
		<path class="st1" d="M146.9,544.2h1.9v1.7h-1.9v3.5h2.4v1.7h-3.8v-11.8h3.8v1.7h-2.4V544.2z"/>
		<path class="st1" d="M154.2,546.6v1.6c0,1.9-0.7,3-2.1,3s-2.1-1.1-2.1-3v-6.1c0-1.9,0.7-3,2.1-3s2.1,1.1,2.1,3v1.1h-1.3v-1.3
			c0-0.8-0.3-1.2-0.7-1.2c-0.4,0-0.7,0.3-0.7,1.2v6.4c0,0.8,0.3,1.1,0.7,1.1c0.4,0,0.7-0.3,0.7-1.1v-1.7H154.2z"/>
		<path class="st1" d="M154.9,542.1c0-1.9,0.7-3,2.1-3c1.4,0,2.1,1.1,2.1,3v6.1c0,1.9-0.7,3-2.1,3c-1.4,0-2.1-1.1-2.1-3V542.1z
			 M156.3,548.3c0,0.8,0.3,1.2,0.7,1.2c0.4,0,0.7-0.3,0.7-1.2v-6.4c0-0.8-0.3-1.2-0.7-1.2c-0.4,0-0.7,0.3-0.7,1.2V548.3z"/>
		<path class="st1" d="M162.9,551c-0.1-0.3-0.1-0.5-0.1-1.5v-1.9c0-1.1-0.3-1.5-0.9-1.5h-0.5v4.8H160v-11.8h2.1c1.4,0,2,0.9,2,2.7
			v0.9c0,1.2-0.3,2-0.9,2.4c0.7,0.4,0.9,1.3,0.9,2.5v1.8c0,0.6,0,1,0.2,1.4H162.9z M161.4,540.9v3.6h0.5c0.5,0,0.8-0.3,0.8-1.2v-1.2
			c0-0.8-0.2-1.2-0.7-1.2H161.4z"/>
		<path class="st1" d="M165.1,539.2h2.2c1.4,0,2.1,1,2.1,2.9v6c0,1.9-0.7,2.9-2.1,2.9h-2.2V539.2z M166.5,540.9v8.4h0.8
			c0.4,0,0.7-0.3,0.7-1.1v-6.1c0-0.8-0.3-1.1-0.7-1.1H166.5z"/>
	</g>
	<g>
		<path class="st1" d="M176.6,529.9v20.2h-2.9v-27.8h4l3.3,16.7v-16.7h2.8v27.8h-3.3L176.6,529.9z"/>
		<path class="st1" d="M185.9,528.9c0-4.5,1.7-7,4.9-7c3.1,0,4.9,2.5,4.9,7v14.5c0,4.5-1.7,7-4.9,7c-3.1,0-4.9-2.5-4.9-7V528.9z
			 M189.1,543.7c0,2,0.6,2.7,1.7,2.7c1,0,1.7-0.8,1.7-2.7v-15c0-2-0.6-2.7-1.7-2.7c-1,0-1.7,0.8-1.7,2.7V543.7z"/>
		<path class="st1" d="M197.7,522.2h5.1c3.2,0,4.8,2.4,4.8,6.9v14.1c0,4.5-1.6,6.9-4.8,6.9h-5.1V522.2z M200.9,526.2v19.9h1.8
			c1,0,1.6-0.7,1.6-2.7v-14.5c0-2-0.6-2.7-1.6-2.7H200.9z"/>
		<path class="st1" d="M212.8,534h4.4v4h-4.4v8.2h5.5v4h-8.7v-27.8h8.7v4h-5.5V534z"/>
		<path class="st1" d="M219.4,546.1c0.3,0,0.8,0,1.1,0c1,0,1.8-0.5,1.8-2.7v-21.2h3.2v20.9c0,5.6-2.2,7-4.6,7c-0.6,0-1,0-1.5-0.1
			V546.1z"/>
		<path class="st1" d="M232,521.9c3.1,0,4.7,2.5,4.7,7v1.1h-3v-1.4c0-2-0.6-2.7-1.6-2.7c-1,0-1.6,0.8-1.6,2.7
			c0,5.7,6.2,6.8,6.2,14.8c0,4.5-1.6,7-4.8,7c-3.1,0-4.8-2.5-4.8-7v-1.9h3v2.2c0,2,0.6,2.7,1.7,2.7c1,0,1.7-0.7,1.7-2.7
			c0-5.7-6.2-6.8-6.2-14.8C227.3,524.5,228.9,521.9,232,521.9z"/>
	</g>
	<g>
		<path class="st1" d="M245.1,544.4l1.5-13.6h3V550h-2.1v-13.7l-1.5,13.7H244l-1.6-13.5V550h-1.9v-19.1h3L245.1,544.4z"/>
		<path class="st1" d="M253.4,538.9h3v2.7h-3v5.6h3.8v2.7h-6v-19.1h6v2.7h-3.8V538.9z"/>
		<path class="st1" d="M258,530.9h6.8v2.7h-2.3V550h-2.2v-16.4H258V530.9z"/>
		<path class="st1" d="M267.9,538.9h3v2.7h-3v5.6h3.8v2.7h-6v-19.1h6v2.7h-3.8V538.9z"/>
		<path class="st1" d="M272.9,535.5c0-3.1,1.2-4.8,3.3-4.8c2.1,0,3.3,1.7,3.3,4.8v9.9c0,3.1-1.2,4.8-3.3,4.8c-2.1,0-3.3-1.7-3.3-4.8
			V535.5z M275.1,545.6c0,1.4,0.4,1.9,1.1,1.9s1.1-0.5,1.1-1.9v-10.3c0-1.4-0.4-1.9-1.1-1.9s-1.1,0.5-1.1,1.9V545.6z"/>
		<path class="st1" d="M285.5,550c-0.1-0.5-0.2-0.8-0.2-2.3v-3c0-1.8-0.4-2.4-1.4-2.4h-0.8v7.8h-2.2v-19.1h3.3
			c2.3,0,3.2,1.4,3.2,4.4v1.5c0,2-0.5,3.2-1.4,3.9c1.1,0.6,1.5,2.1,1.5,4.1v2.9c0,0.9,0,1.6,0.2,2.3H285.5z M283.1,533.6v5.9h0.9
			c0.8,0,1.3-0.5,1.3-2v-1.9c0-1.4-0.3-2-1.1-2H283.1z"/>
	</g>
	<g>
		<path class="st1" d="M302.8,579.9l2.7-25.2h5.6v35.4h-3.8v-25.4l-2.8,25.4h-3.8l-3-25.1v25.1h-3.5v-35.4h5.6L302.8,579.9z"/>
		<path class="st1" d="M327,590.2h-4l-0.7-6.4h-4.9l-0.7,6.4H313l4.1-35.4h5.9L327,590.2z M317.9,579h3.9l-1.9-17.9L317.9,579z"/>
		<path class="st1" d="M337.2,590.2c-0.2-0.9-0.4-1.5-0.4-4.4v-5.6c0-3.3-0.8-4.5-2.6-4.5h-1.4v14.4h-4v-35.4h6
			c4.2,0,5.9,2.7,5.9,8.1v2.8c0,3.6-0.8,6-2.6,7.2c2,1.2,2.7,3.8,2.7,7.5v5.5c0,1.7,0,3,0.4,4.3H337.2z M332.9,559.8v10.9h1.6
			c1.5,0,2.4-0.9,2.4-3.7v-3.5c0-2.5-0.6-3.6-2-3.6H332.9z"/>
		<path class="st1" d="M348.7,576.1l-1.2,3.2v10.9h-4v-35.4h4v15.4l5.3-15.4h3.9l-5.6,15.8l5.6,19.6h-4.1L348.7,576.1z"/>
		<path class="st1" d="M358.6,554.8h6.3c4,0,6,3.1,6,8.8v17.9c0,5.7-2,8.8-6,8.8h-6.3V554.8z M362.6,559.8v25.3h2.3
			c1.3,0,2-0.9,2-3.4v-18.4c0-2.5-0.8-3.4-2-3.4H362.6z"/>
		<path class="st1" d="M373.1,563.3c0-5.7,2.1-8.9,6.1-8.9c3.9,0,6.1,3.2,6.1,8.9v18.4c0,5.7-2.1,8.9-6.1,8.9
			c-3.9,0-6.1-3.2-6.1-8.9V563.3z M377.1,582.1c0,2.5,0.8,3.5,2.1,3.5c1.3,0,2.1-1,2.1-3.5v-19.1c0-2.5-0.8-3.5-2.1-3.5
			c-1.3,0-2.1,1-2.1,3.5V582.1z"/>
		<path class="st1" d="M396.7,571.3l-1.5,18.9h-5.5l-2.8-35.4h3.9l2.1,27.9l1.9-27.9h3.9l2,28.1l2.1-28.1h3.5l-2.8,35.4h-5.3
			L396.7,571.3z"/>
		<path class="st1" d="M411.9,564.6v25.7h-3.6v-35.4h5l4.1,21.2v-21.2h3.6v35.4h-4.1L411.9,564.6z"/>
	</g>
	<g>
		<path class="st1" d="M360.6,538.8h4.1v3.1h-4.1v6.3h5.2v3.1h-8.2v-21.6h8.2v3.1h-5.2V538.8z"/>
		<path class="st1" d="M374.1,545l2.1-15.3h4.2v21.6h-2.9v-15.5l-2.1,15.5h-2.9l-2.3-15.2v15.2h-2.6v-21.6h4.2L374.1,545z"/>
		<path class="st1" d="M382.3,534.9c0-3.4,1.6-5.4,4.6-5.4c3,0,4.6,2,4.6,5.4v11.2c0,3.4-1.6,5.4-4.6,5.4c-3,0-4.6-2-4.6-5.4V534.9z
			 M385.3,546.3c0,1.5,0.6,2.1,1.6,2.1c1,0,1.6-0.6,1.6-2.1v-11.6c0-1.5-0.6-2.1-1.6-2.1c-1,0-1.6,0.6-1.6,2.1V546.3z"/>
		<path class="st1" d="M392.6,548.2c0.3,0,0.7,0,1,0c1,0,1.7-0.4,1.7-2.1v-16.4h3v16.2c0,4.3-2.1,5.4-4.3,5.4c-0.5,0-1,0-1.5-0.1
			V548.2z"/>
		<path class="st1" d="M400.4,529.7h3v21.6h-3V529.7z"/>
		<path class="st1" d="M409.7,529.5c2.9,0,4.4,2,4.4,5.4v0.8h-2.9v-1c0-1.5-0.5-2.1-1.5-2.1c-1,0-1.5,0.6-1.5,2.1
			c0,4.4,5.9,5.3,5.9,11.4c0,3.4-1.5,5.4-4.5,5.4s-4.5-2-4.5-5.4v-1.5h2.9v1.7c0,1.5,0.6,2.1,1.6,2.1c1,0,1.6-0.6,1.6-2.1
			c0-4.4-5.9-5.3-5.9-11.4C405.3,531.5,406.8,529.5,409.7,529.5z"/>
	</g>
	<g>
		<path class="st1" d="M302.3,550.4h-2.6l-0.4-3.7h-3.2l-0.4,3.7h-2.4l2.6-20.4h3.8L302.3,550.4z M296.4,543.9h2.5l-1.2-10.3
			L296.4,543.9z"/>
		<path class="st1" d="M306.8,546.6l2-16.7h2.4l-2.5,20.4h-3.8l-2.5-20.4h2.6L306.8,546.6z"/>
		<path class="st1" d="M320,550.4h-2.6l-0.4-3.7h-3.2l-0.4,3.7H311l2.6-20.4h3.8L320,550.4z M314.2,543.9h2.5l-1.2-10.3L314.2,543.9
			z"/>
		<path class="st1" d="M319.6,529.9h7.9v2.9h-2.7v17.5h-2.6v-17.5h-2.7V529.9z"/>
		<path class="st1" d="M336.2,550.4h-2.6l-0.4-3.7H330l-0.4,3.7h-2.4l2.6-20.4h3.8L336.2,550.4z M330.3,543.9h2.5l-1.2-10.3
			L330.3,543.9z"/>
		<path class="st1" d="M342.7,550.4c-0.1-0.5-0.2-0.8-0.2-2.5v-3.2c0-1.9-0.5-2.6-1.7-2.6h-0.9v8.3h-2.6v-20.4h3.9
			c2.7,0,3.8,1.5,3.8,4.7v1.6c0,2.1-0.5,3.5-1.7,4.1c1.3,0.7,1.7,2.2,1.7,4.4v3.2c0,1,0,1.7,0.3,2.5H342.7z M339.9,532.9v6.3h1
			c1,0,1.5-0.5,1.5-2.2v-2c0-1.5-0.4-2.1-1.3-2.1H339.9z"/>
		<path class="st1" d="M350.2,529.7c2.5,0,3.8,1.9,3.8,5.1v0.8h-2.4v-1c0-1.5-0.5-2-1.3-2c-0.8,0-1.3,0.6-1.3,2c0,4.2,5,5,5,10.8
			c0,3.3-1.3,5.1-3.8,5.1s-3.8-1.9-3.8-5.1v-1.4h2.4v1.6c0,1.5,0.5,2,1.3,2c0.8,0,1.3-0.5,1.3-2c0-4.2-5-5-5-10.8
			C346.4,531.6,347.7,529.7,350.2,529.7z"/>
	</g>
	<g>
		<path class="st1" d="M84.3,587.5H85v0.6h-0.7v1.8h-0.6v-4.4h1.5v0.6h-0.9V587.5z"/>
		<path class="st1" d="M86,585.5v3.4c0,0.3,0.1,0.4,0.3,0.4s0.3-0.1,0.3-0.4v-3.4h0.5v3.4c0,0.7-0.3,1.1-0.8,1.1s-0.8-0.4-0.8-1.1
			v-3.4H86z"/>
		<path class="st1" d="M87.5,585.5h0.6v3.8H89v0.6h-1.5V585.5z"/>
		<path class="st1" d="M89.3,585.5h0.6v3.8h0.9v0.6h-1.5V585.5z"/>
		<path class="st1" d="M90.8,587.4h1v0.6h-1V587.4z"/>
		<path class="st1" d="M91.8,585.5h1.7v0.6H93v3.8h-0.6v-3.8h-0.6V585.5z"/>
		<path class="st1" d="M94.4,587.4h0.8v0.6h-0.8v1.3h1v0.6h-1.5v-4.4h1.5v0.6h-1V587.4z"/>
		<path class="st1" d="M97.6,585.5l-0.6,2.2l0.6,2.3H97l-0.5-1.8l-0.5,1.8h-0.5l0.6-2.3l-0.6-2.2h0.6l0.4,1.6l0.4-1.6H97.6z"/>
		<path class="st1" d="M97.7,585.5h1.7v0.6h-0.6v3.8h-0.6v-3.8h-0.6V585.5z"/>
		<path class="st1" d="M99.5,587.4h1v0.6h-1V587.4z"/>
		<path class="st1" d="M101.7,585.4c0.5,0,0.8,0.4,0.8,1.1v0.2H102v-0.2c0-0.3-0.1-0.4-0.3-0.4c-0.2,0-0.3,0.1-0.3,0.4
			c0,0.9,1.1,1.1,1.1,2.4c0,0.7-0.3,1.1-0.8,1.1s-0.8-0.4-0.8-1.1v-0.3h0.5v0.3c0,0.3,0.1,0.4,0.3,0.4s0.3-0.1,0.3-0.4
			c0-0.9-1.1-1.1-1.1-2.4C100.8,585.8,101.1,585.4,101.7,585.4z"/>
		<path class="st1" d="M103.4,587.4h0.8v0.6h-0.8v1.3h1v0.6h-1.5v-4.4h1.5v0.6h-1V587.4z"/>
		<path class="st1" d="M106.5,589.9h-0.6l-0.1-0.8h-0.7l-0.1,0.8h-0.5l0.6-4.4h0.8L106.5,589.9z M105.2,588.5h0.5l-0.3-2.2
			L105.2,588.5z"/>
		<path class="st1" d="M107.9,589.9c0-0.1-0.1-0.2-0.1-0.5v-0.7c0-0.4-0.1-0.6-0.4-0.6h-0.2v1.8h-0.6v-4.4h0.8c0.6,0,0.8,0.3,0.8,1
			v0.3c0,0.5-0.1,0.8-0.4,0.9c0.3,0.1,0.4,0.5,0.4,0.9v0.7c0,0.2,0,0.4,0.1,0.5H107.9z M107.3,586.1v1.4h0.2c0.2,0,0.3-0.1,0.3-0.5
			v-0.4c0-0.3-0.1-0.5-0.3-0.5H107.3z"/>
		<path class="st1" d="M110.4,588.3v0.6c0,0.7-0.3,1.1-0.8,1.1s-0.8-0.4-0.8-1.1v-2.3c0-0.7,0.3-1.1,0.8-1.1s0.8,0.4,0.8,1.1v0.4
			h-0.5v-0.5c0-0.3-0.1-0.4-0.3-0.4c-0.2,0-0.3,0.1-0.3,0.4v2.4c0,0.3,0.1,0.4,0.3,0.4c0.2,0,0.3-0.1,0.3-0.4v-0.6H110.4z"/>
		<path class="st1" d="M111.3,589.9h-0.6v-4.4h0.6v1.9h0.6v-1.9h0.6v4.4h-0.6V588h-0.6V589.9z"/>
	</g>
	<g>
		<path class="st1" d="M90.8,577.5l-0.4,4.6h-1.5l-0.8-8.7h1.1l0.6,6.8l0.5-6.8h1.1l0.5,6.9l0.6-6.9h1l-0.8,8.7h-1.5L90.8,577.5z"/>
		<path class="st1" d="M95,577.1h1.5v1.2H95v2.5h1.9v1.2h-3v-8.7h3v1.2H95V577.1z"/>
		<path class="st1" d="M100.9,575.5v0.3c0,0.9-0.2,1.5-0.7,1.7c0.6,0.3,0.8,0.9,0.8,1.9v0.7c0,1.3-0.6,2.1-1.7,2.1h-1.7v-8.7h1.6
			C100.4,573.5,100.9,574.1,100.9,575.5z M98.7,574.7v2.3h0.4c0.4,0,0.7-0.2,0.7-0.9v-0.5c0-0.6-0.2-0.9-0.6-0.9H98.7z M98.7,578.2
			v2.7h0.6c0.4,0,0.6-0.2,0.6-0.9v-0.8c0-0.8-0.2-1.1-0.7-1.1H98.7z"/>
		<path class="st1" d="M103.9,582.2c-0.1-0.2-0.1-0.4-0.1-1.1v-1.4c0-0.8-0.2-1.1-0.7-1.1h-0.4v3.5h-1.1v-8.7h1.6
			c1.1,0,1.6,0.7,1.6,2v0.7c0,0.9-0.2,1.5-0.7,1.8c0.5,0.3,0.7,0.9,0.7,1.8v1.3c0,0.4,0,0.7,0.1,1.1H103.9z M102.7,574.7v2.7h0.4
			c0.4,0,0.7-0.2,0.7-0.9v-0.9c0-0.6-0.2-0.9-0.6-0.9H102.7z"/>
		<path class="st1" d="M105.3,573.5h3.4v1.2h-1.1v7.4h-1.1v-7.4h-1.1V573.5z"/>
		<path class="st1" d="M112.4,578.9v1.2c0,1.4-0.6,2.2-1.6,2.2s-1.6-0.8-1.6-2.2v-4.5c0-1.4,0.6-2.2,1.6-2.2s1.6,0.8,1.6,2.2v0.8h-1
			v-0.9c0-0.6-0.2-0.9-0.6-0.9s-0.6,0.2-0.6,0.9v4.7c0,0.6,0.2,0.8,0.6,0.8s0.6-0.2,0.6-0.8v-1.2H112.4z"/>
	</g>
	<g>
		<path class="st1" d="M245.4,564.4v1.8c0,2.2-0.9,3.5-2.6,3.5s-2.6-1.3-2.6-3.5V559c0-2.2,0.9-3.5,2.6-3.5s2.6,1.3,2.6,3.5v1.3
			h-1.6v-1.5c0-1-0.3-1.4-0.9-1.4c-0.6,0-0.9,0.4-0.9,1.4v7.4c0,1,0.3,1.3,0.9,1.3c0.6,0,0.9-0.4,0.9-1.3v-2H245.4z"/>
		<path class="st1" d="M248.2,569.5h-1.7v-13.8h1.7v5.9h2v-5.9h1.8v13.8h-1.8v-5.9h-2V569.5z"/>
		<path class="st1" d="M258.8,569.5h-1.7l-0.3-2.5h-2.1l-0.3,2.5h-1.6l1.8-13.8h2.5L258.8,569.5z M254.9,565.1h1.7l-0.8-7
			L254.9,565.1z"/>
		<path class="st1" d="M261.2,559.5v10h-1.6v-13.8h2.2l1.8,8.2v-8.2h1.5v13.8h-1.8L261.2,559.5z"/>
		<path class="st1" d="M267.9,559.5v10h-1.6v-13.8h2.2l1.8,8.2v-8.2h1.5v13.8h-1.8L267.9,559.5z"/>
		<path class="st1" d="M274.8,561.5h2.4v2h-2.4v4h3v2h-4.7v-13.8h4.7v2h-3V561.5z"/>
		<path class="st1" d="M278.9,555.7h1.7v11.8h2.9v2h-4.6V555.7z"/>
		<path class="st1" d="M286.6,555.6c1.7,0,2.6,1.3,2.6,3.5v0.5h-1.6v-0.7c0-1-0.3-1.4-0.9-1.4c-0.6,0-0.9,0.4-0.9,1.4
			c0,2.8,3.4,3.4,3.4,7.3c0,2.2-0.9,3.5-2.6,3.5s-2.6-1.3-2.6-3.5v-0.9h1.6v1.1c0,1,0.3,1.3,0.9,1.3s0.9-0.4,0.9-1.3
			c0-2.8-3.4-3.4-3.4-7.3C284,556.8,284.9,555.6,286.6,555.6z"/>
	</g>
	<g>
		<path class="st1" d="M100.8,562.8l-0.6,1.4v4.6h-1.9v-15h1.9v6.6l2.5-6.6h1.9l-2.6,6.7l2.6,8.3h-1.9L100.8,562.8z"/>
		<path class="st1" d="M107.3,560.1h2.6v2.1h-2.6v4.4h3.3v2.1h-5.2v-15h5.2v2.1h-3.3V560.1z"/>
		<path class="st1" d="M115.7,568.8c-0.1-0.4-0.2-0.6-0.2-1.8v-2.4c0-1.4-0.4-1.9-1.2-1.9h-0.7v6.1h-1.9v-15h2.9
			c2,0,2.8,1.1,2.8,3.5v1.2c0,1.5-0.4,2.6-1.2,3.1c0.9,0.5,1.3,1.6,1.3,3.2v2.3c0,0.7,0,1.3,0.2,1.8H115.7z M113.6,556v4.6h0.7
			c0.7,0,1.1-0.4,1.1-1.6v-1.5c0-1.1-0.3-1.5-1-1.5H113.6z"/>
		<path class="st1" d="M124.3,557.3v0.5c0,1.5-0.4,2.5-1.2,3c1,0.5,1.4,1.6,1.4,3.2v1.2c0,2.3-1,3.6-2.9,3.6h-3v-15h2.9
			C123.5,553.8,124.3,554.9,124.3,557.3z M120.5,556v4h0.7c0.7,0,1.1-0.4,1.1-1.6v-0.8c0-1.1-0.3-1.5-1-1.5H120.5z M120.5,562.1v4.6
			h1.1c0.6,0,1-0.4,1-1.5v-1.3c0-1.4-0.4-1.8-1.2-1.8H120.5z"/>
		<path class="st1" d="M127.5,560.1h2.6v2.1h-2.6v4.4h3.3v2.1h-5.2v-15h5.2v2.1h-3.3V560.1z"/>
		<path class="st1" d="M135.9,568.8c-0.1-0.4-0.2-0.6-0.2-1.8v-2.4c0-1.4-0.4-1.9-1.2-1.9h-0.7v6.1H132v-15h2.9c2,0,2.8,1.1,2.8,3.5
			v1.2c0,1.5-0.4,2.6-1.2,3.1c0.9,0.5,1.3,1.6,1.3,3.2v2.3c0,0.7,0,1.3,0.2,1.8H135.9z M133.9,556v4.6h0.7c0.7,0,1.1-0.4,1.1-1.6
			v-1.5c0-1.1-0.3-1.5-1-1.5H133.9z"/>
		<path class="st1" d="M138.7,557.4c0-2.4,1-3.8,2.9-3.8c1.9,0,2.9,1.4,2.9,3.8v7.8c0,2.4-1,3.8-2.9,3.8c-1.9,0-2.9-1.4-2.9-3.8
			V557.4z M140.6,565.4c0,1.1,0.4,1.5,1,1.5c0.6,0,1-0.4,1-1.5v-8.1c0-1.1-0.4-1.5-1-1.5c-0.6,0-1,0.4-1,1.5V565.4z"/>
		<path class="st1" d="M148.2,553.6c1.8,0,2.8,1.4,2.8,3.8v0.6h-1.8v-0.7c0-1.1-0.3-1.5-0.9-1.5c-0.6,0-0.9,0.4-0.9,1.5
			c0,3.1,3.7,3.7,3.7,8c0,2.4-1,3.8-2.8,3.8s-2.8-1.4-2.8-3.8v-1h1.8v1.2c0,1.1,0.4,1.5,1,1.5c0.6,0,1-0.4,1-1.5
			c0-3.1-3.7-3.7-3.7-8C145.4,555,146.4,553.6,148.2,553.6z"/>
	</g>
	<g>
		<path class="st1" d="M121,581.1l-0.8,9.3h-3l-1.6-17.5h2.1l1.2,13.8L120,573h2.1l1.1,13.9l1.1-13.9h1.9l-1.6,17.5h-2.9L121,581.1z
			"/>
		<path class="st1" d="M129.6,580.3h3v2.5h-3v5.1h3.8v2.5h-6V573h6v2.5h-3.8V580.3z"/>
		<path class="st1" d="M141.3,577v0.6c0,1.8-0.4,2.9-1.4,3.5c1.2,0.6,1.6,1.9,1.6,3.7v1.4c0,2.7-1.1,4.1-3.3,4.1h-3.5V573h3.3
			C140.3,573,141.3,574.3,141.3,577z M136.9,575.5v4.6h0.9c0.8,0,1.3-0.4,1.3-1.8v-1c0-1.2-0.3-1.8-1.1-1.8H136.9z M136.9,582.6v5.4
			h1.3c0.7,0,1.1-0.4,1.1-1.7v-1.5c0-1.6-0.4-2.1-1.4-2.1H136.9z"/>
		<path class="st1" d="M145.8,572.8c2.1,0,3.2,1.6,3.2,4.4v0.7h-2.1V577c0-1.2-0.4-1.7-1.1-1.7c-0.7,0-1.1,0.5-1.1,1.7
			c0,3.6,4.3,4.3,4.3,9.2c0,2.8-1.1,4.4-3.3,4.4c-2.2,0-3.3-1.6-3.3-4.4v-1.2h2.1v1.4c0,1.2,0.4,1.7,1.1,1.7s1.1-0.4,1.1-1.7
			c0-3.6-4.3-4.3-4.3-9.2C142.6,574.4,143.7,572.8,145.8,572.8z"/>
		<path class="st1" d="M150.1,577.2c0-2.8,1.2-4.4,3.3-4.4c2.2,0,3.3,1.6,3.3,4.4v9.1c0,2.8-1.2,4.4-3.3,4.4c-2.2,0-3.3-1.6-3.3-4.4
			V577.2z M152.3,586.4c0,1.2,0.4,1.7,1.1,1.7c0.7,0,1.1-0.5,1.1-1.7V577c0-1.2-0.4-1.7-1.1-1.7c-0.7,0-1.1,0.5-1.1,1.7V586.4z"/>
		<path class="st1" d="M164.6,583.9v2.3c0,2.8-1.1,4.4-3.3,4.4c-2.2,0-3.3-1.6-3.3-4.4v-9.1c0-2.8,1.1-4.4,3.3-4.4
			c2.2,0,3.3,1.6,3.3,4.4v1.7h-2.1V577c0-1.2-0.4-1.7-1.1-1.7c-0.7,0-1.1,0.5-1.1,1.7v9.4c0,1.2,0.4,1.7,1.1,1.7
			c0.7,0,1.1-0.4,1.1-1.7v-2.5H164.6z"/>
		<path class="st1" d="M168.8,583.5l-0.7,1.6v5.4h-2.2V573h2.2v7.6l2.9-7.6h2.2l-3.1,7.8l3.1,9.7h-2.3L168.8,583.5z"/>
		<path class="st1" d="M176.4,580.3h3v2.5h-3v5.1h3.8v2.5h-6V573h6v2.5h-3.8V580.3z"/>
		<path class="st1" d="M180.9,573h6.8v2.5h-2.3v15h-2.2v-15h-2.3V573z"/>
		<path class="st1" d="M191.6,572.8c2.1,0,3.2,1.6,3.2,4.4v0.7h-2.1V577c0-1.2-0.4-1.7-1.1-1.7s-1.1,0.5-1.1,1.7
			c0,3.6,4.3,4.3,4.3,9.2c0,2.8-1.1,4.4-3.3,4.4c-2.2,0-3.3-1.6-3.3-4.4v-1.2h2.1v1.4c0,1.2,0.4,1.7,1.1,1.7s1.1-0.4,1.1-1.7
			c0-3.6-4.3-4.3-4.3-9.2C188.4,574.4,189.5,572.8,191.6,572.8z"/>
	</g>
	<g>
		<path class="st1" d="M158.8,564.3l1.2-9.8h2.4v13.8h-1.6v-9.9l-1.2,9.9h-1.6l-1.3-9.7v9.7h-1.5v-13.8h2.4L158.8,564.3z"/>
		<path class="st1" d="M165.3,554.5v10.6c0,1,0.3,1.3,0.9,1.3c0.6,0,0.9-0.4,0.9-1.3v-10.6h1.6V565c0,2.2-0.9,3.5-2.6,3.5
			s-2.6-1.3-2.6-3.5v-10.5H165.3z"/>
		<path class="st1" d="M169.9,554.5h1.7v11.8h2.9v2h-4.6V554.5z"/>
		<path class="st1" d="M174,554.5h5.4v2h-1.8v11.8h-1.7v-11.8H174V554.5z"/>
		<path class="st1" d="M180.1,554.5h1.7v13.8h-1.7V554.5z"/>
		<path class="st1" d="M188.3,557.9v1.8c0,2.2-0.9,3.4-2.6,3.4h-0.8v5.2h-1.7v-13.8h2.6C187.4,554.5,188.3,555.7,188.3,557.9z
			 M184.9,556.5v4.7h0.8c0.6,0,0.9-0.3,0.9-1.3v-2.1c0-1-0.3-1.3-0.9-1.3H184.9z"/>
		<path class="st1" d="M189.1,554.5h1.7v11.8h2.9v2h-4.6V554.5z"/>
		<path class="st1" d="M196.2,560.3h2.4v2h-2.4v4h3v2h-4.7v-13.8h4.7v2h-3V560.3z"/>
		<path class="st1" d="M200.1,560.4h3.1v2h-3.1V560.4z"/>
		<path class="st1" d="M208.1,568.3c-0.1-0.4-0.2-0.6-0.2-1.7v-2.2c0-1.3-0.3-1.8-1.1-1.8h-0.6v5.6h-1.7v-13.8h2.6
			c1.8,0,2.6,1,2.6,3.2v1.1c0,1.4-0.4,2.3-1.1,2.8c0.9,0.5,1.1,1.5,1.1,2.9v2.1c0,0.7,0,1.2,0.2,1.7H208.1z M206.2,556.5v4.2h0.7
			c0.6,0,1-0.4,1-1.5v-1.4c0-1-0.3-1.4-0.9-1.4H206.2z"/>
		<path class="st1" d="M210.7,557.8c0-2.2,0.9-3.5,2.6-3.5c1.7,0,2.6,1.3,2.6,3.5v7.2c0,2.2-0.9,3.5-2.6,3.5c-1.7,0-2.6-1.3-2.6-3.5
			V557.8z M212.4,565.1c0,1,0.3,1.4,0.9,1.4c0.6,0,0.9-0.4,0.9-1.4v-7.4c0-1-0.3-1.4-0.9-1.4c-0.6,0-0.9,0.4-0.9,1.4V565.1z"/>
		<path class="st1" d="M216.9,557.8c0-2.2,0.9-3.5,2.6-3.5c1.7,0,2.6,1.3,2.6,3.5v7.2c0,2.2-0.9,3.5-2.6,3.5c-1.7,0-2.6-1.3-2.6-3.5
			V557.8z M218.6,565.1c0,1,0.3,1.4,0.9,1.4c0.6,0,0.9-0.4,0.9-1.4v-7.4c0-1-0.3-1.4-0.9-1.4c-0.6,0-0.9,0.4-0.9,1.4V565.1z"/>
		<path class="st1" d="M226.9,564.3l1.2-9.8h2.4v13.8h-1.6v-9.9l-1.2,9.9h-1.6l-1.3-9.7v9.7h-1.5v-13.8h2.4L226.9,564.3z"/>
		<path class="st1" d="M234.1,554.3c1.7,0,2.6,1.3,2.6,3.5v0.5H235v-0.7c0-1-0.3-1.4-0.9-1.4s-0.9,0.4-0.9,1.4
			c0,2.8,3.4,3.4,3.4,7.3c0,2.2-0.9,3.5-2.6,3.5s-2.6-1.3-2.6-3.5V564h1.6v1.1c0,1,0.3,1.3,0.9,1.3s0.9-0.4,0.9-1.3
			c0-2.8-3.4-3.4-3.4-7.3C231.6,555.6,232.4,554.3,234.1,554.3z"/>
	</g>
	<g>
		<path class="st1" d="M200.1,573h2.1v14.4h3.5v2.4h-5.6V573z"/>
		<path class="st1" d="M206.6,573h2.1v16.8h-2.1V573z"/>
		<path class="st1" d="M212.1,577.6v12.2h-1.9V573h2.6l2.2,10.1V573h1.9v16.8h-2.2L212.1,577.6z"/>
		<path class="st1" d="M221.2,583.1l-0.7,1.5v5.2h-2.1V573h2.1v7.3l2.8-7.3h2.1l-2.9,7.5l2.9,9.3h-2.2L221.2,583.1z"/>
		<path class="st1" d="M226.3,580.2h3.8v2.4h-3.8V580.2z"/>
		<path class="st1" d="M237.8,577.2v2.2c0,2.7-1,4.1-3.1,4.1h-1v6.3h-2.1V573h3.1C236.8,573,237.8,574.5,237.8,577.2z M233.7,575.4
			v5.7h1c0.7,0,1-0.4,1-1.6V577c0-1.2-0.4-1.6-1-1.6H233.7z"/>
		<path class="st1" d="M243.2,589.8c-0.1-0.4-0.2-0.7-0.2-2.1v-2.6c0-1.6-0.4-2.1-1.4-2.1h-0.7v6.8h-2.1V573h3.2
			c2.2,0,3.1,1.3,3.1,3.9v1.3c0,1.7-0.4,2.9-1.4,3.4c1.1,0.6,1.4,1.8,1.4,3.6v2.6c0,0.8,0,1.4,0.2,2H243.2z M240.9,575.4v5.2h0.8
			c0.8,0,1.3-0.4,1.3-1.8v-1.7c0-1.2-0.3-1.7-1.1-1.7H240.9z"/>
		<path class="st1" d="M248.6,580.1h2.9v2.4h-2.9v4.9h3.6v2.4h-5.8V573h5.8v2.4h-3.6V580.1z"/>
		<path class="st1" d="M256.8,586.7l1.6-13.7h1.9l-2.1,16.8h-3.1L253,573h2.1L256.8,586.7z"/>
		<path class="st1" d="M261.3,573h2.1v16.8h-2.1V573z"/>
		<path class="st1" d="M267.1,580.1h2.9v2.4h-2.9v4.9h3.6v2.4h-5.8V573h5.8v2.4h-3.6V580.1z"/>
		<path class="st1" d="M276.7,580.9l-0.8,8.9H273l-1.5-16.8h2.1l1.1,13.2l1-13.2h2l1.1,13.3l1.1-13.3h1.8l-1.5,16.8h-2.8
			L276.7,580.9z"/>
		<path class="st1" d="M285.6,572.8c2.1,0,3.1,1.5,3.1,4.2v0.6h-2v-0.8c0-1.2-0.4-1.7-1.1-1.7s-1.1,0.5-1.1,1.7
			c0,3.5,4.1,4.1,4.1,8.9c0,2.7-1.1,4.2-3.1,4.2c-2.1,0-3.1-1.5-3.1-4.2v-1.2h2v1.3c0,1.2,0.4,1.6,1.1,1.6c0.7,0,1.1-0.4,1.1-1.6
			c0-3.5-4.1-4.1-4.1-8.9C282.5,574.4,283.6,572.8,285.6,572.8z"/>
	</g>
	<g>
		<path class="st1" d="M114.2,503.6h2.3c1.4,0,2.2,1.1,2.2,3.2v6.6c0,2.1-0.7,3.2-2.2,3.2h-2.3V503.6z M115.7,505.5v9.3h0.8
			c0.5,0,0.7-0.3,0.7-1.3v-6.8c0-0.9-0.3-1.3-0.7-1.3H115.7z"/>
		<path class="st1" d="M121.1,509.1h2v1.9h-2v3.8h2.5v1.9h-4v-13h4v1.9h-2.5V509.1z"/>
		<path class="st1" d="M126.4,503.5c1.4,0,2.1,1.2,2.1,3.3v0.5h-1.4v-0.6c0-0.9-0.3-1.3-0.7-1.3s-0.7,0.4-0.7,1.3
			c0,2.7,2.8,3.2,2.8,6.9c0,2.1-0.7,3.3-2.2,3.3c-1.4,0-2.2-1.2-2.2-3.3v-0.9h1.4v1c0,0.9,0.3,1.3,0.8,1.3s0.8-0.3,0.8-1.3
			c0-2.7-2.8-3.2-2.8-6.9C124.3,504.7,125,503.5,126.4,503.5z"/>
		<path class="st1" d="M131.3,511.4l-0.4,1.2v4h-1.4v-13h1.4v5.7l1.9-5.7h1.4l-2,5.8l2,7.2h-1.5L131.3,511.4z"/>
		<path class="st1" d="M134.4,503.6h4.5v1.9h-1.5v11.2H136v-11.2h-1.5V503.6z"/>
		<path class="st1" d="M139.5,506.7c0-2.1,0.8-3.3,2.2-3.3c1.4,0,2.2,1.2,2.2,3.3v6.8c0,2.1-0.8,3.3-2.2,3.3c-1.4,0-2.2-1.2-2.2-3.3
			V506.7z M140.9,513.6c0,0.9,0.3,1.3,0.8,1.3s0.8-0.4,0.8-1.3v-7c0-0.9-0.3-1.3-0.8-1.3s-0.8,0.4-0.8,1.3V513.6z"/>
		<path class="st1" d="M149.1,506.8v1.7c0,2.1-0.7,3.2-2.2,3.2h-0.7v4.9h-1.4v-13h2.1C148.4,503.6,149.1,504.7,149.1,506.8z
			 M146.2,505.5v4.4h0.7c0.5,0,0.7-0.3,0.7-1.2v-2c0-0.9-0.2-1.2-0.7-1.2H146.2z"/>
		<path class="st1" d="M154.3,516.6h-1.5l-0.2-2.4h-1.8l-0.2,2.4h-1.3l1.5-13h2.1L154.3,516.6z M151,512.5h1.4l-0.7-6.6L151,512.5z"
			/>
		<path class="st1" d="M159.2,506.8v1.7c0,2.1-0.7,3.2-2.2,3.2h-0.7v4.9h-1.4v-13h2.1C158.5,503.6,159.2,504.7,159.2,506.8z
			 M156.4,505.5v4.4h0.7c0.5,0,0.7-0.3,0.7-1.2v-2c0-0.9-0.2-1.2-0.7-1.2H156.4z"/>
		<path class="st1" d="M164.2,506.8v1.7c0,2.1-0.7,3.2-2.2,3.2h-0.7v4.9h-1.4v-13h2.1C163.5,503.6,164.2,504.7,164.2,506.8z
			 M161.4,505.5v4.4h0.7c0.5,0,0.7-0.3,0.7-1.2v-2c0-0.9-0.2-1.2-0.7-1.2H161.4z"/>
	</g>
	<g>
		<path class="st1" d="M147.6,397l2-18.4h4v25.9h-2.7V386l-2,18.6h-2.7l-2.1-18.3v18.3h-2.5v-25.9h4L147.6,397z"/>
		<path class="st1" d="M158.6,389.5h4v3.7h-4v7.6h5v3.7h-7.9v-25.9h7.9v3.7h-5V389.5z"/>
		<path class="st1" d="M167.9,385.8v18.8h-2.6v-25.9h3.6l3,15.5v-15.5h2.6v25.9h-3L167.9,385.8z"/>
		<path class="st1" d="M175.7,378.6h8.9v3.7h-3v22.2h-2.9v-22.2h-3V378.6z"/>
		<path class="st1" d="M185.9,378.6h2.9v25.9h-2.9V378.6z"/>
		<path class="st1" d="M190.7,384.8c0-4.1,1.5-6.5,4.4-6.5c2.8,0,4.4,2.4,4.4,6.5v13.5c0,4.1-1.5,6.5-4.4,6.5
			c-2.8,0-4.4-2.4-4.4-6.5V384.8z M193.5,398.6c0,1.9,0.6,2.6,1.5,2.6s1.5-0.7,1.5-2.6v-14c0-1.9-0.6-2.6-1.5-2.6s-1.5,0.7-1.5,2.6
			V398.6z"/>
		<path class="st1" d="M203.8,385.8v18.8h-2.6v-25.9h3.6l3,15.5v-15.5h2.6v25.9h-3L203.8,385.8z"/>
		<path class="st1" d="M216.3,378.3c2.8,0,4.2,2.4,4.2,6.5v1h-2.7v-1.3c0-1.9-0.5-2.6-1.4-2.6c-0.9,0-1.4,0.7-1.4,2.6
			c0,5.3,5.6,6.3,5.6,13.7c0,4.1-1.5,6.5-4.3,6.5c-2.8,0-4.3-2.4-4.3-6.5v-1.8h2.7v2c0,1.9,0.6,2.5,1.5,2.5s1.5-0.7,1.5-2.5
			c0-5.3-5.6-6.3-5.6-13.7C212.1,380.7,213.5,378.3,216.3,378.3z"/>
	</g>
	<g>
		<path class="st1" d="M227.8,466.5h-1.1l-0.2-1.8h-1.4l-0.2,1.8h-1l1.1-9.8h1.6L227.8,466.5z M225.2,463.4h1.1l-0.5-4.9
			L225.2,463.4z"/>
		<path class="st1" d="M229.3,459.4v7.1h-1v-9.8h1.4l1.2,5.8v-5.8h1v9.8h-1.2L229.3,459.4z"/>
		<path class="st1" d="M232.7,456.7h1.8c1.1,0,1.7,0.9,1.7,2.4v4.9c0,1.6-0.6,2.4-1.7,2.4h-1.8V456.7z M233.8,458.1v7h0.6
			c0.4,0,0.6-0.3,0.6-0.9v-5.1c0-0.7-0.2-0.9-0.6-0.9H233.8z"/>
		<path class="st1" d="M239.2,466.5c-0.1-0.3-0.1-0.4-0.1-1.2v-1.5c0-0.9-0.2-1.2-0.7-1.2H238v4h-1.1v-9.8h1.7
			c1.2,0,1.7,0.7,1.7,2.2v0.8c0,1-0.2,1.7-0.7,2c0.6,0.3,0.7,1.1,0.7,2.1v1.5c0,0.5,0,0.8,0.1,1.2H239.2z M238,458.1v3h0.4
			c0.4,0,0.7-0.3,0.7-1v-1c0-0.7-0.2-1-0.6-1H238z"/>
		<path class="st1" d="M240.9,459.1c0-1.6,0.6-2.5,1.7-2.5c1.1,0,1.7,0.9,1.7,2.5v5.1c0,1.6-0.6,2.5-1.7,2.5c-1.1,0-1.7-0.9-1.7-2.5
			V459.1z M242,464.2c0,0.7,0.2,1,0.6,1c0.4,0,0.6-0.3,0.6-1V459c0-0.7-0.2-1-0.6-1c-0.4,0-0.6,0.3-0.6,1V464.2z"/>
		<path class="st1" d="M245,456.7h1.1v9.8H245V456.7z"/>
		<path class="st1" d="M246.9,456.7h1.8c1.1,0,1.7,0.9,1.7,2.4v4.9c0,1.6-0.6,2.4-1.7,2.4h-1.8V456.7z M248.1,458.1v7h0.6
			c0.4,0,0.6-0.3,0.6-0.9v-5.1c0-0.7-0.2-0.9-0.6-0.9H248.1z"/>
	</g>
	<g>
		<path class="st1" d="M209.7,312.6v5.5c0,6.7-2.3,10.5-6.6,10.5s-6.6-3.8-6.6-10.5v-21.7c0-6.7,2.3-10.5,6.6-10.5s6.6,3.8,6.6,10.5
			v4h-4.2v-4.5c0-3-0.9-4.1-2.3-4.1s-2.3,1.1-2.3,4.1v22.5c0,3,0.9,4,2.3,4s2.3-1.1,2.3-4v-6H209.7z"/>
		<path class="st1" d="M212,296.5c0-6.7,2.4-10.5,6.7-10.5s6.7,3.8,6.7,10.5v21.7c0,6.7-2.4,10.5-6.7,10.5s-6.7-3.8-6.7-10.5V296.5z
			 M216.5,318.6c0,3,0.9,4.1,2.3,4.1s2.3-1.1,2.3-4.1v-22.5c0-3-0.9-4.1-2.3-4.1s-2.3,1.1-2.3,4.1V318.6z"/>
		<path class="st1" d="M232.3,298v30.2h-4v-41.7h5.6l4.6,24.9v-24.9h4v41.7h-4.6L232.3,298z"/>
		<path class="st1" d="M250.1,305h5.7v6h-5.7v17.2h-4.4v-41.7h11.7v6h-7.3V305z"/>
		<path class="st1" d="M263.9,304.1h6.1v6h-6.1v12.2h7.7v6h-12.1v-41.7h12.1v6h-7.7V304.1z"/>
		<path class="st1" d="M283.6,328.2c-0.2-1.1-0.4-1.7-0.4-5.1v-6.5c0-3.9-0.9-5.3-2.9-5.3h-1.5v17h-4.4v-41.7h6.7
			c4.6,0,6.6,3.2,6.6,9.6v3.3c0,4.3-0.9,7.1-2.9,8.5c2.2,1.4,2.9,4.5,2.9,8.9v6.4c0,2,0,3.5,0.5,5.1H283.6z M278.8,292.5v12.8h1.7
			c1.7,0,2.7-1.1,2.7-4.4v-4.1c0-3-0.7-4.3-2.3-4.3H278.8z"/>
		<path class="st1" d="M295,304.1h6.1v6H295v12.2h7.7v6h-12.1v-41.7h12.1v6H295V304.1z"/>
		<path class="st1" d="M309.4,298v30.2h-4v-41.7h5.6l4.6,24.9v-24.9h4v41.7h-4.6L309.4,298z"/>
		<path class="st1" d="M335.5,312.6v5.5c0,6.7-2.3,10.5-6.6,10.5s-6.6-3.8-6.6-10.5v-21.7c0-6.7,2.3-10.5,6.6-10.5s6.6,3.8,6.6,10.5
			v4h-4.2v-4.5c0-3-0.9-4.1-2.3-4.1s-2.3,1.1-2.3,4.1v22.5c0,3,0.9,4,2.3,4s2.3-1.1,2.3-4v-6H335.5z"/>
		<path class="st1" d="M342.7,304.1h6.1v6h-6.1v12.2h7.7v6h-12.1v-41.7h12.1v6h-7.7V304.1z"/>
	</g>
	<g>
		<path class="st1" d="M165.5,374.6h-4.7l-0.8-7.7h-5.7l-0.8,7.7h-4.2l4.7-42.4h6.8L165.5,374.6z M155,361.1h4.5l-2.2-21.4
			L155,361.1z"/>
		<path class="st1" d="M172.1,332.2v32.7c0,3,0.9,4.1,2.4,4.1c1.5,0,2.4-1.1,2.4-4.1v-32.7h4.4v32.3c0,6.8-2.4,10.7-6.9,10.7
			c-4.5,0-6.9-3.9-6.9-10.7v-32.3H172.1z"/>
		<path class="st1" d="M184.4,332.2h7.3c4.6,0,6.9,3.7,6.9,10.5v21.4c0,6.8-2.3,10.5-6.9,10.5h-7.3V332.2z M189,338.2v30.3h2.6
			c1.5,0,2.4-1.1,2.4-4.1v-22c0-3-0.9-4.1-2.4-4.1H189z"/>
		<path class="st1" d="M201.5,332.2h4.6v42.4h-4.6V332.2z"/>
		<path class="st1" d="M209.1,342.3c0-6.8,2.5-10.7,7-10.7c4.5,0,7,3.9,7,10.7v22c0,6.8-2.5,10.7-7,10.7c-4.5,0-7-3.9-7-10.7V342.3z
			 M213.7,364.8c0,3,0.9,4.2,2.4,4.2c1.5,0,2.4-1.2,2.4-4.2v-22.9c0-3-0.9-4.2-2.4-4.2c-1.5,0-2.4,1.2-2.4,4.2V364.8z"/>
	</g>
	<g>
		<path class="st1" d="M131.9,423.7c0-9.6,3.5-15.1,9.8-15.1c6.3,0,9.8,5.5,9.8,15.1V455c0,9.6-3.5,15.1-9.8,15.1
			c-6.3,0-9.8-5.5-9.8-15.1V423.7z M138.3,455.6c0,4.3,1.3,5.9,3.3,5.9c2.1,0,3.3-1.6,3.3-5.9v-32.5c0-4.3-1.3-5.9-3.3-5.9
			c-2.1,0-3.3,1.6-3.3,5.9V455.6z"/>
		<path class="st1" d="M174.7,424.2v7.8c0,9.6-3.2,14.9-9.6,14.9h-3v22.6h-6.4v-60.2h9.5C171.5,409.3,174.7,414.5,174.7,424.2z
			 M162,417.9v20.4h3c2.1,0,3.2-1.4,3.2-5.7v-9c0-4.3-1.1-5.7-3.2-5.7H162z"/>
		<path class="st1" d="M184.1,434.7h8.9v8.6h-8.9v17.6h11.1v8.6h-17.6v-60.2h17.6v8.6h-11.1V434.7z"/>
		<path class="st1" d="M205,425.9v43.6h-5.8v-60.2h8.1l6.6,36v-36h5.7v60.2H213L205,425.9z"/>
	</g>
	<g>
		<g>
			<path class="st1" d="M233.2,363.1h9.7v9.9h-9.7v28.6h-7.5v-69.2h19.9v9.9h-12.4V363.1z"/>
			<path class="st1" d="M264.9,401.6c-0.4-1.8-0.7-2.9-0.7-8.5v-10.9c0-6.4-1.5-8.8-4.9-8.8h-2.6v28.2h-7.5v-69.2h11.4
				c7.8,0,11.2,5.2,11.2,15.9v5.4c0,7.1-1.6,11.8-4.9,14c3.8,2.3,5,7.5,5,14.7v10.7c0,3.4,0.1,5.8,0.8,8.4H264.9z M256.7,342.3v21.2
				h2.9c2.8,0,4.5-1.8,4.5-7.3v-6.8c0-4.9-1.2-7.1-3.8-7.1H256.7z"/>
			<path class="st1" d="M284.3,361.5h10.3v9.9h-10.3v20.3h13v9.9h-20.6v-69.2h20.6v9.9h-13V361.5z"/>
			<path class="st1" d="M309.5,361.5h10.3v9.9h-10.3v20.3h13v9.9H302v-69.2h20.6v9.9h-13V361.5z"/>
		</g>
	</g>
	<g>
		<g>
			<path class="st1" d="M229.1,440.6h11.7v8.6h-11.7V440.6z"/>
		</g>
	</g>
</g>
<g id="Layer_4">
	<g>
		<path class="st3" d="M102.2,624.8c0,4.9-1.8,8.1-5.3,9.6l5,19c0.2,0.9-0.2,1.3-1,1.3h-7.5c-0.7,0-1.1-0.4-1.2-1l-4.9-18.4h-5v18.3
			c0,0.7-0.4,1.2-1.2,1.2h-7.6c-0.7,0-1.2-0.4-1.2-1.2v-55.8c0-0.7,0.4-1.2,1.2-1.2h18.2c6.8,0,10.5,3.6,10.5,10.5V624.8z
			 M89.4,625.7c1.9,0,2.9-1,2.9-2.9v-13.6c0-1.9-1-2.9-2.9-2.9h-7.2v19.5H89.4z"/>
		<path class="st3" d="M108,607.1c0-6.8,3.6-10.5,10.5-10.5h8.1c6.8,0,10.5,3.6,10.5,10.5v37.2c0,6.8-3.6,10.5-10.5,10.5h-8.1
			c-6.8,0-10.5-3.6-10.5-10.5V607.1z M124.8,645.4c1.9,0,2.9-1,2.9-2.9v-33.6c0-1.9-1-2.9-2.9-2.9h-4.2c-1.9,0-2.9,1-2.9,2.9v33.6
			c0,2,1,2.9,2.9,2.9H124.8z"/>
		<path class="st3" d="M173.4,614.9c0,0.7-0.4,1.2-1.2,1.2H165c-0.8,0-1.2-0.4-1.2-1.2v-5.8c0-1.9-1-2.9-2.9-2.9h-3.8
			c-2,0-2.9,1-2.9,2.9v33.1c0,2,1,2.9,2.9,2.9h3.8c1.9,0,2.9-1,2.9-2.9v-5.8c0-0.7,0.4-1.2,1.2-1.2h7.3c0.7,0,1.2,0.4,1.2,1.2v7.8
			c0,6.8-3.7,10.5-10.5,10.5h-8.1c-6.8,0-10.5-3.6-10.5-10.5v-37.2c0-6.8,3.7-10.5,10.5-10.5h8.1c6.8,0,10.5,3.6,10.5,10.5V614.9z"
			/>
		<path class="st3" d="M204.1,654.7c-0.9,0-1.4-0.4-1.7-1.1l-9.1-21.6l-2.7,5.2v16c0,0.9-0.5,1.5-1.5,1.5h-7c-1,0-1.4-0.5-1.4-1.5
			v-55.2c0-0.9,0.5-1.4,1.4-1.4h7c0.9,0,1.5,0.5,1.5,1.4v22.5l11.2-22.9c0.4-0.7,0.9-1.1,1.7-1.1h7.6c1.1,0,1.5,0.7,1,1.7
			l-12.3,25.3l13.1,29.3c0.5,0.9,0.1,1.7-1.1,1.7H204.1z"/>
		<path class="st3" d="M247.2,605.1c0,0.7-0.3,1.2-1.2,1.2h-18.2v14.5h13.9c0.7,0,1.2,0.4,1.2,1.2v7.2c0,0.8-0.4,1.2-1.2,1.2h-13.9
			v14.7H246c0.9,0,1.2,0.4,1.2,1.2v7.3c0,0.7-0.3,1.2-1.2,1.2h-26.7c-0.7,0-1.1-0.4-1.1-1.2v-55.8c0-0.7,0.4-1.2,1.1-1.2H246
			c0.9,0,1.2,0.4,1.2,1.2V605.1z"/>
		<path class="st3" d="M280.8,596.6c0.8,0,1.2,0.4,1.2,1.2v7.3c0,0.7-0.4,1.2-1.2,1.2h-8.4v47.4c0,0.8-0.4,1.1-1.2,1.1h-7.5
			c-0.7,0-1.2-0.4-1.2-1.1v-47.4h-8.4c-0.7,0-1.2-0.4-1.2-1.2v-7.3c0-0.7,0.4-1.2,1.2-1.2H280.8z"/>
		<path class="st3" d="M281.3,646.6c0-1,0.5-1.5,1.5-1.5h6.6c0.9,0,1.4,0.5,1.4,1.5v6.7c0,0.9-0.5,1.5-1.4,1.5h-6.6
			c-0.9,0-1.5-0.5-1.5-1.5V646.6z"/>
		<path class="st3" d="M327.2,614.9c0,0.7-0.4,1.2-1.2,1.2h-7.3c-0.8,0-1.2-0.4-1.2-1.2v-5.8c0-1.9-1-2.9-2.9-2.9h-3.8
			c-2,0-2.9,1-2.9,2.9v33.1c0,2,1,2.9,2.9,2.9h3.8c1.9,0,2.9-0.9,2.9-2.9v-5.8c0-0.7,0.4-1.2,1.2-1.2h7.3c0.7,0,1.2,0.4,1.2,1.2v7.8
			c0,6.8-3.7,10.5-10.5,10.5h-8.1c-6.8,0-10.5-3.6-10.5-10.5v-37.2c0-6.8,3.7-10.5,10.5-10.5h8.1c6.8,0,10.5,3.6,10.5,10.5V614.9z"
			/>
		<path class="st3" d="M353.6,597.8c0-0.7,0.4-1.2,1.2-1.2h7.5c0.9,0,1.2,0.4,1.2,1.2v55.8c0,0.7-0.4,1.2-1.2,1.2h-7.5
			c-0.7,0-1.2-0.4-1.2-1.2v-23.1h-9.3v23.1c0,0.7-0.4,1.2-1.2,1.2h-7.5c-0.9,0-1.2-0.4-1.2-1.2v-55.8c0-0.7,0.4-1.2,1.2-1.2h7.5
			c0.7,0,1.2,0.4,1.2,1.2v23.1h9.3V597.8z"/>
		<path class="st3" d="M396.6,654.7c-0.6,0-1-0.4-1.2-1l-2-10.6h-12.9l-2,10.6c-0.1,0.7-0.5,1-1.2,1h-7.8c-0.8,0-1.2-0.4-0.9-1.2
			l12.1-55.8c0.1-0.7,0.6-1,1.2-1H392c0.7,0,1.1,0.3,1.2,1l12.1,55.8c0.1,0.8-0.1,1.2-1,1.2H396.6z M386.9,609.3l-4.6,25.3h9.3
			L386.9,609.3z"/>
		<path class="st3" d="M432.5,596.6c0.8,0,1.2,0.4,1.2,1.2v7.3c0,0.7-0.4,1.2-1.2,1.2h-8.4v47.4c0,0.8-0.4,1.1-1.2,1.1h-7.5
			c-0.7,0-1.2-0.4-1.2-1.1v-47.4l-8.4,0c-0.7,0-1.2-0.4-1.2-1.2v-7.3c0-0.7,0.4-1.2,1.2-1.2H432.5z"/>
	</g>
</g>
<g id="Layer_2">
	<g>
		<path class="st2" d="M252.9,29.8c-5.8,0-11.4,1.7-16.6,5.2c-4.7,3.1-8.8,7.4-12.3,12.9c-6.7,10.5-10.4,24.4-10.4,39
			c0,4.9,0.4,9.7,1.2,14.3c-2.7,2.9-5.1,6.3-7.1,9.9c-9.3,19.1-0.2,35-0.2,35s12.1-14.8,22.7-12.4c6.5,6.6,14.4,10.2,22.7,10.2
			c0,0,0.1,0,0.1,0c0,0,0.1,0,0.1,0c8.2,0,16.1-3.6,22.7-10.2c10.6-2.4,22.8,12.4,22.8,12.4s9.1-15.9-0.2-35c-1.9-3.6-4.4-7-7.1-9.9
			c0.8-4.7,1.2-9.5,1.2-14.3c0-14.6-3.7-28.4-10.4-39c-3.5-5.5-7.6-9.8-12.3-12.9c-5.2-3.4-10.8-5.2-16.6-5.2
			C253.1,29.8,253,29.8,252.9,29.8C253,29.8,252.9,29.8,252.9,29.8"/>
		<path class="st4" d="M221.8,86.8c0-27,14-48.9,31.3-48.9c17.3,0,31.3,21.9,31.3,48.9c0,6-0.7,11.8-2,17.1
			c6.5,5.4,15.6,17.3,12.6,28.9c-4-3.8-10.9-9.3-22.1-8.1c-5.4,6.9-12.3,11.1-19.8,11.1C235.8,135.8,221.8,113.9,221.8,86.8"/>
		<path class="st2" d="M254.1,80.3c-3.6,0-6.5,2.9-6.5,6.5c0,3.6,2.9,6.5,6.5,6.5c3.6,0,6.5-2.9,6.5-6.5
			C260.6,83.2,257.7,80.3,254.1,80.3"/>
		<path class="st2" d="M254.1,57.7c-3.6,0-6.5,2.9-6.5,6.5c0,3.6,2.9,6.5,6.5,6.5c3.6,0,6.5-2.9,6.5-6.5
			C260.6,60.6,257.7,57.7,254.1,57.7"/>
		<path class="st2" d="M254.1,102.9c-3.6,0-6.5,2.9-6.5,6.5c0,3.6,2.9,6.5,6.5,6.5s6.5-2.9,6.5-6.5
			C260.6,105.8,257.7,102.9,254.1,102.9"/>
		<path class="st0" d="M280.2,86.8c0,6-0.6,11.8-1.7,17.1c5,4.8,11.7,14.6,11.4,24.8c2,1.3,3.7,2.8,5.1,4.1
			c2.9-11.6-6.1-23.5-12.6-28.9c1.3-5.3,2-11.1,2-17.1c0-26.8-13.8-48.6-30.9-48.9C268.3,38.2,280.2,60,280.2,86.8"/>
	</g>
</g>
</svg>
