<svg width="185" height="186" viewBox="0 0 185 186" fill="none" xmlns="http://www.w3.org/2000/svg">
<path d="M150.479 73.9122C147.083 68.6383 142.323 63.9696 136.339 60.0316C124.777 52.435 109.586 48.2503 93.5629 48.2503C88.2094 48.2503 82.9354 48.7158 77.8156 49.6374C74.639 46.5792 70.9253 43.8283 66.992 41.6545C52.3985 34.379 39.5382 37.0881 33.0403 39.4248C30.9054 40.1929 30.2468 42.8926 31.8257 44.5218C36.4083 49.2511 43.99 58.5979 42.1261 67.0976C34.8808 74.4941 30.9521 83.4127 30.9521 92.699C30.9521 102.162 34.8808 111.081 42.1261 118.477C43.99 126.977 36.4083 136.328 31.8257 141.058C30.2514 142.682 30.9054 145.382 33.0403 146.15C39.5382 148.487 52.3985 151.2 66.9966 143.925C70.9299 141.751 74.6437 139 77.8203 135.942C82.9401 136.864 88.2141 137.329 93.5675 137.329C109.595 137.329 124.786 133.149 136.344 125.553C142.328 121.615 147.088 116.95 150.484 111.672C154.268 105.798 156.183 99.4717 156.183 92.8805C156.178 86.1124 154.263 79.7912 150.479 73.9122ZM92.9089 126.367C85.9812 126.367 79.3758 125.473 73.3544 123.858L68.9539 128.089C66.5622 130.389 63.7594 132.47 60.8351 134.108C56.9625 136.003 53.1366 137.041 49.3528 137.352C49.5677 136.966 49.7639 136.575 49.9741 136.184C54.3839 128.085 55.5751 120.805 53.543 114.348C46.3304 108.684 42.0047 101.431 42.0047 93.5322C42.0047 75.4017 64.7964 60.7019 92.9089 60.7019C121.021 60.7019 143.818 75.4017 143.818 93.5322C143.818 111.667 121.026 126.367 92.9089 126.367Z" fill="#1D74F5"/>
<path d="M68.5569 85.9819C64.4134 85.9819 61.0547 89.3148 61.0547 93.425C61.0547 97.5351 64.4134 100.868 68.5569 100.868C72.7005 100.868 76.0592 97.5351 76.0592 93.425C76.0592 89.3148 72.7005 85.9819 68.5569 85.9819Z" fill="#1D74F5"/>
<path d="M92.7034 85.9819C88.5599 85.9819 85.2012 89.3148 85.2012 93.425C85.2012 97.5351 88.5599 100.868 92.7034 100.868C96.847 100.868 100.206 97.5351 100.206 93.425C100.206 89.3148 96.847 85.9819 92.7034 85.9819Z" fill="#1D74F5"/>
<path d="M116.854 85.9819C112.71 85.9819 109.352 89.3148 109.352 93.425C109.352 97.5351 112.71 100.868 116.854 100.868C120.997 100.868 124.356 97.5351 124.356 93.425C124.356 89.3148 120.997 85.9819 116.854 85.9819Z" fill="#1D74F5"/>
</svg>
