<svg width="185" height="186" viewBox="0 0 185 186" fill="none" xmlns="http://www.w3.org/2000/svg">
<path d="M150.479 73.5565C147.083 68.2826 142.323 63.6139 136.339 59.6759C124.777 52.0793 109.586 47.8946 93.5629 47.8946C88.2094 47.8946 82.9354 48.3601 77.8156 49.2817C74.639 46.2235 70.9253 43.4725 66.992 41.2988C52.3985 34.0233 39.5382 36.7324 33.0403 39.0691C30.9054 39.8371 30.2468 42.5369 31.8257 44.1661C36.4083 48.8954 43.99 58.2422 42.1261 66.7419C34.8808 74.1384 30.9521 83.0569 30.9521 92.3433C30.9521 101.806 34.8808 110.725 42.1261 118.122C43.99 126.621 36.4083 135.973 31.8257 140.702C30.2514 142.326 30.9054 145.026 33.0403 145.794C39.5382 148.131 52.3985 150.845 66.9966 143.569C70.9299 141.396 74.6437 138.645 77.8203 135.586C82.9401 136.508 88.2141 136.973 93.5675 136.973C109.595 136.973 124.786 132.793 136.344 125.197C142.328 121.259 147.088 116.595 150.484 111.316C154.268 105.442 156.183 99.116 156.183 92.5248C156.178 85.7567 154.263 79.4355 150.479 73.5565ZM92.9089 126.011C85.9812 126.011 79.3758 125.118 73.3544 123.502L68.9539 127.734C66.5622 130.033 63.7594 132.114 60.8351 133.752C56.9625 135.647 53.1366 136.685 49.3528 136.997C49.5677 136.61 49.7639 136.219 49.9741 135.828C54.3839 127.729 55.5751 120.449 53.543 113.993C46.3304 108.328 42.0047 101.076 42.0047 93.1765C42.0047 75.046 64.7964 60.3462 92.9089 60.3462C121.021 60.3462 143.818 75.046 143.818 93.1765C143.818 111.312 121.026 126.011 92.9089 126.011Z" fill="white"/>
<path d="M68.5569 85.6262C64.4134 85.6262 61.0547 88.9591 61.0547 93.0692C61.0547 97.1794 64.4134 100.512 68.5569 100.512C72.7005 100.512 76.0592 97.1794 76.0592 93.0692C76.0592 88.9591 72.7005 85.6262 68.5569 85.6262Z" fill="white"/>
<path d="M92.7034 85.6262C88.5599 85.6262 85.2012 88.9591 85.2012 93.0692C85.2012 97.1794 88.5599 100.512 92.7034 100.512C96.847 100.512 100.206 97.1794 100.206 93.0692C100.206 88.9591 96.847 85.6262 92.7034 85.6262Z" fill="white"/>
<path d="M116.854 85.6262C112.71 85.6262 109.352 88.9591 109.352 93.0692C109.352 97.1794 112.71 100.512 116.854 100.512C120.997 100.512 124.356 97.1794 124.356 93.0692C124.356 88.9591 120.997 85.6262 116.854 85.6262Z" fill="white"/>
</svg>
