<svg width="769" height="221" viewBox="0 0 769 221" fill="none" xmlns="http://www.w3.org/2000/svg">
<path d="M688.048 68.4834H700.321V85.3877H711.677V96.5092H700.321V126.714H711.062V137.634C709.322 138.042 707.174 138.248 704.718 138.248C693.569 138.248 688.043 132.433 688.043 120.799V68.4834H688.048Z" fill="white"/>
<path d="M664.864 92.8372V85.3878H677.137V136.815H664.864V129.366C663.124 134.365 656.886 137.937 648.395 137.937C641.134 137.937 634.992 135.386 629.98 130.286C625.069 125.08 622.613 118.757 622.613 111.101C622.613 103.446 625.069 97.1228 629.98 92.0177C634.992 86.8118 641.129 84.2615 648.395 84.2615C656.882 84.2661 663.124 87.8374 664.864 92.8372ZM661.178 122.328C664.249 119.37 665.782 115.593 665.782 111.106C665.782 106.619 664.249 102.842 661.178 99.8792C658.213 96.9214 654.426 95.3875 650.029 95.3875C645.632 95.3875 642.052 96.9168 639.082 99.8792C636.218 102.837 634.786 106.614 634.786 111.106C634.786 115.598 636.218 119.37 639.082 122.328C642.047 125.286 645.627 126.82 650.029 126.82C654.431 126.82 658.213 125.286 661.178 122.328Z" fill="white"/>
<path d="M210.593 136.815V85.3877H222.765V93.0386C225.221 87.6313 230.848 84.3667 238.11 84.3667C239.542 84.3667 240.772 84.4674 241.791 84.6735V96.5092C240.258 96.2025 238.518 96.001 236.677 96.001C228.186 96.001 222.765 101.308 222.765 109.778V136.82H210.593V136.815Z" fill="white"/>
<path d="M244.861 111.101C244.861 103.446 247.624 96.9168 253.045 91.7109C258.466 86.505 265.117 83.854 272.993 83.854C280.869 83.854 287.52 86.505 292.941 91.7109C298.362 96.9168 301.125 103.446 301.125 111.101C301.125 118.752 298.362 125.286 292.941 130.487C287.52 135.693 280.869 138.344 272.993 138.344C265.117 138.344 258.466 135.693 253.045 130.487C247.624 125.286 244.861 118.752 244.861 111.101ZM284.349 122.63C287.419 119.467 288.952 115.689 288.952 111.101C288.952 106.509 287.419 102.732 284.349 99.6732C281.278 96.5093 277.496 94.9801 272.993 94.9801C268.389 94.9801 264.607 96.5093 261.537 99.6732C258.571 102.736 257.034 106.509 257.034 111.101C257.034 115.694 258.567 119.467 261.537 122.63C264.607 125.694 268.389 127.223 272.993 127.223C277.496 127.223 281.278 125.694 284.349 122.63Z" fill="white"/>
<path d="M352.169 88.959V101.202C347.772 97.0174 342.452 94.8746 336.316 94.8746C331.51 94.8746 327.517 96.4038 324.35 99.4669C321.178 102.53 319.645 106.408 319.645 110.996C319.645 115.588 321.178 119.466 324.35 122.525C327.521 125.588 331.51 127.117 336.316 127.117C342.558 127.117 347.873 124.974 352.169 120.79V133.033C347.873 136.503 342.351 138.239 335.6 138.239C327.622 138.239 320.971 135.688 315.551 130.483C310.13 125.277 307.468 118.848 307.468 110.991C307.468 103.134 310.125 96.706 315.551 91.5001C320.971 86.2942 327.622 83.7439 335.6 83.7439C342.246 83.7531 347.772 85.4884 352.169 88.959Z" fill="white"/>
<path d="M361.276 136.815V68.4834H373.449V107.324L390.84 85.3831H404.752L385.213 109.975L406.386 136.81H392.066L373.449 113.033V136.81H361.276V136.815Z" fill="white"/>
<path d="M406.693 111.101C406.693 103.038 409.149 96.5092 414.161 91.6101C419.173 86.6102 425.618 84.1606 433.393 84.1606C440.861 84.1606 446.897 86.6102 451.5 91.6101C456.205 96.5092 458.56 102.631 458.56 109.874C458.56 111.403 458.459 112.937 458.353 114.261H418.866C419.274 122.424 425.31 127.63 434.417 127.63C442.5 127.63 448.636 125.693 452.933 121.71V133.138C447.92 136.609 441.577 138.344 433.907 138.344C425.824 138.344 419.178 135.895 414.166 131.101C409.154 126.202 406.698 119.673 406.698 111.61V111.101H406.693ZM446.075 105.593C446.075 102.635 444.85 99.9798 442.394 97.837C439.938 95.6942 436.973 94.5725 433.393 94.5725C429.606 94.5725 426.334 95.6942 423.575 97.837C420.812 99.9798 419.38 102.53 419.178 105.593H446.075Z" fill="white"/>
<path d="M467.813 68.4834H480.087V85.3877H491.442V96.5092H480.087V126.714H490.827V137.634C489.088 138.042 486.94 138.248 484.484 138.248C473.335 138.248 467.809 132.433 467.809 120.799V68.4834H467.813Z" fill="white"/>
<path d="M503.582 123.322C499.511 123.322 496.211 126.6 496.211 130.643C496.211 134.686 499.511 137.964 503.582 137.964C507.654 137.964 510.954 134.686 510.954 130.643C510.954 126.6 507.654 123.322 503.582 123.322Z" fill="white"/>
<path d="M559.089 88.959V101.202C554.692 97.0174 549.372 94.8746 543.236 94.8746C538.43 94.8746 534.437 96.4038 531.27 99.4669C528.098 102.53 526.565 106.408 526.565 110.996C526.565 115.588 528.098 119.466 531.27 122.525C534.441 125.588 538.43 127.117 543.236 127.117C549.473 127.117 554.793 124.974 559.089 120.79V133.033C554.793 136.503 549.271 138.239 542.52 138.239C534.542 138.239 527.891 135.688 522.471 130.483C517.05 125.277 514.388 118.848 514.388 110.991C514.388 103.134 517.045 96.706 522.471 91.5001C527.891 86.2942 534.542 83.7439 542.52 83.7439C549.166 83.7531 554.692 85.4884 559.089 88.959Z" fill="white"/>
<path d="M568.195 136.815V68.4834H580.368V92.5304C582.722 87.6312 588.345 84.3667 595.404 84.3667C607.269 84.3667 614.228 92.2236 614.228 104.98V136.815H602.055V106.71C602.055 99.6685 598.269 95.2821 591.723 95.2821C585.073 95.2821 580.368 100.181 580.368 107.219V136.81H568.195V136.815Z" fill="white"/>
<path d="M175.513 91.9124C172.176 86.7248 167.499 82.1324 161.619 78.2589C150.259 70.7866 135.332 66.6704 119.589 66.6704C114.329 66.6704 109.147 67.1283 104.116 68.0348C100.995 65.0267 97.3459 62.3207 93.4811 60.1825C79.1422 53.0261 66.5015 55.6954 60.1168 57.9893C58.0192 58.7448 57.3721 61.405 58.9235 63.0029C63.4262 67.6548 70.8757 76.8487 69.0443 85.2093C61.9207 92.4893 58.0605 101.262 58.0605 110.396C58.0605 119.705 61.9207 128.477 69.0397 135.753C70.8711 144.113 63.4216 153.312 58.9189 157.964C57.3721 159.562 58.0146 162.217 60.1123 162.973C66.4969 165.271 79.133 167.941 93.4765 160.784C97.3413 158.646 100.99 155.94 104.111 152.932C109.142 153.838 114.324 154.296 119.584 154.296C135.332 154.296 150.259 150.185 161.614 142.712C167.494 138.839 172.171 134.251 175.508 129.059C179.226 123.281 181.108 117.058 181.108 110.575C181.112 103.908 179.226 97.6952 175.513 91.9124ZM118.946 143.504C112.139 143.504 105.649 142.625 99.7326 141.037L95.4089 145.199C93.0589 147.46 90.3049 149.507 87.4316 151.119C83.6265 152.982 79.8674 154.003 76.1495 154.31C76.3606 153.93 76.5534 153.545 76.76 153.161C81.0929 145.194 82.2633 138.033 80.2667 131.682C73.1798 126.11 68.9295 118.977 68.9295 111.207C68.9295 93.373 91.3239 78.9137 118.946 78.9137C146.568 78.9137 168.967 93.373 168.967 111.207C168.963 129.05 146.568 143.504 118.946 143.504Z" fill="white"/>
<path d="M95.014 103.785C90.9427 103.785 87.6426 107.063 87.6426 111.106C87.6426 115.149 90.9427 118.427 95.014 118.427C99.0853 118.427 102.385 115.149 102.385 111.106C102.385 107.063 99.0853 103.785 95.014 103.785Z" fill="white"/>
<path d="M118.744 103.785C114.673 103.785 111.373 107.063 111.373 111.106C111.373 115.149 114.673 118.427 118.744 118.427C122.816 118.427 126.116 115.149 126.116 111.106C126.116 107.063 122.816 103.785 118.744 103.785Z" fill="white"/>
<path d="M142.474 103.785C138.403 103.785 135.103 107.063 135.103 111.106C135.103 115.149 138.403 118.427 142.474 118.427C146.545 118.427 149.845 115.149 149.845 111.106C149.845 107.063 146.541 103.785 142.474 103.785Z" fill="white"/>
</svg>
