<svg width="600" height="315" viewBox="0 0 600 315" fill="none" xmlns="http://www.w3.org/2000/svg">
<path d="M521.624 191.113H533.601V207.635H544.682V218.505H533.601V248.028H544.082V258.701C542.384 259.099 540.288 259.301 537.892 259.301C527.012 259.301 521.619 253.617 521.619 242.246V191.113H521.624Z" fill="white"/>
<path d="M498.995 214.916V207.635H510.973V257.9H498.995V250.619C497.298 255.506 491.211 258.997 482.925 258.997C475.839 258.997 469.846 256.504 464.955 251.519C460.162 246.43 457.766 240.25 457.766 232.768C457.766 225.285 460.162 219.105 464.955 214.115C469.846 209.027 475.834 206.534 482.925 206.534C491.211 206.539 497.302 210.029 498.995 214.916ZM495.403 243.741C498.4 240.85 499.896 237.158 499.896 232.772C499.896 228.387 498.4 224.695 495.403 221.799C492.51 218.908 488.815 217.409 484.524 217.409C480.233 217.409 476.739 218.904 473.841 221.799C471.046 224.69 469.649 228.382 469.649 232.772C469.649 237.162 471.046 240.85 473.841 243.741C476.734 246.632 480.228 248.131 484.524 248.131C488.819 248.131 492.51 246.632 495.403 243.741Z" fill="white"/>
<path d="M55.6963 257.9V207.635H67.5748V215.118C69.9711 209.833 75.4625 206.642 82.5484 206.642C83.9458 206.642 85.1462 206.74 86.1406 206.942V218.51C84.6446 218.21 82.947 218.013 81.1509 218.013C72.8646 218.013 67.5748 223.2 67.5748 231.479V257.909H55.6963V257.9Z" fill="white"/>
<path d="M89.1416 232.768C89.1416 225.285 91.838 218.904 97.1278 213.816C102.418 208.727 108.908 206.136 116.594 206.136C124.28 206.136 130.77 208.727 136.06 213.816C141.35 218.904 144.046 225.285 144.046 232.768C144.046 240.246 141.35 246.632 136.06 251.715C130.77 256.804 124.28 259.395 116.594 259.395C108.908 259.395 102.418 256.804 97.1278 251.715C91.838 246.632 89.1416 240.25 89.1416 232.768ZM127.675 244.036C130.672 240.944 132.168 237.252 132.168 232.768C132.168 228.279 130.672 224.587 127.675 221.598C124.679 218.506 120.988 217.011 116.594 217.011C112.101 217.011 108.411 218.506 105.414 221.598C102.521 224.592 101.02 228.279 101.02 232.768C101.02 237.256 102.516 240.944 105.414 244.036C108.411 247.03 112.101 248.525 116.594 248.525C120.983 248.525 124.679 247.03 127.675 244.036Z" fill="white"/>
<path d="M193.858 211.126V223.092C189.567 219.002 184.376 216.908 178.387 216.908C173.698 216.908 169.801 218.402 166.71 221.396C163.615 224.39 162.119 228.18 162.119 232.665C162.119 237.153 163.615 240.944 166.71 243.933C169.805 246.927 173.698 248.422 178.387 248.422C184.479 248.422 189.666 246.327 193.858 242.237V254.203C189.666 257.596 184.277 259.292 177.689 259.292C169.904 259.292 163.414 256.799 158.124 251.711C152.834 246.623 150.236 240.339 150.236 232.66C150.236 224.981 152.83 218.698 158.124 213.609C163.414 208.521 169.904 206.029 177.689 206.029C184.174 206.038 189.567 207.734 193.858 211.126Z" fill="white"/>
<path d="M202.744 257.9V191.113H214.623V229.076L231.594 207.631H245.17L226.103 231.667L246.765 257.896H232.79L214.623 234.656V257.896H202.744V257.9Z" fill="white"/>
<path d="M247.064 232.768C247.064 224.887 249.461 218.505 254.352 213.717C259.243 208.83 265.532 206.436 273.119 206.436C280.407 206.436 286.297 208.83 290.789 213.717C295.38 218.505 297.678 224.489 297.678 231.568C297.678 233.063 297.579 234.562 297.476 235.856H258.943C259.342 243.835 265.232 248.923 274.118 248.923C282.006 248.923 287.994 247.03 292.187 243.137V254.307C287.296 257.699 281.105 259.395 273.621 259.395C265.733 259.395 259.248 257.001 254.356 252.315C249.465 247.527 247.069 241.145 247.069 233.264V232.768H247.064ZM285.495 227.384C285.495 224.493 284.299 221.898 281.903 219.803C279.506 217.709 276.613 216.612 273.119 216.612C269.424 216.612 266.23 217.709 263.539 219.803C260.842 221.898 259.445 224.39 259.248 227.384H285.495Z" fill="white"/>
<path d="M306.709 191.113H318.686V207.635H329.767V218.505H318.686V248.028H329.167V258.701C327.469 259.099 325.373 259.301 322.977 259.301C312.097 259.301 306.704 253.617 306.704 242.246V191.113H306.709Z" fill="white"/>
<path d="M341.613 244.712C337.64 244.712 334.42 247.916 334.42 251.867C334.42 255.819 337.64 259.023 341.613 259.023C345.586 259.023 348.807 255.819 348.807 251.867C348.802 247.916 345.582 244.712 341.613 244.712Z" fill="white"/>
<path d="M395.779 211.126V223.092C391.488 219.002 386.297 216.908 380.308 216.908C375.619 216.908 371.722 218.402 368.631 221.396C365.536 224.39 364.04 228.18 364.04 232.665C364.04 237.153 365.536 240.944 368.631 243.933C371.726 246.927 375.619 248.422 380.308 248.422C386.395 248.422 391.587 246.327 395.779 242.237V254.203C391.587 257.596 386.198 259.292 379.609 259.292C371.825 259.292 365.335 256.799 360.045 251.711C354.755 246.623 352.157 240.339 352.157 232.66C352.157 224.981 354.751 218.698 360.045 213.609C365.335 208.521 371.825 206.029 379.609 206.029C386.095 206.038 391.488 207.734 395.779 211.126Z" fill="white"/>
<path d="M404.666 257.9V191.113H416.545V214.616C418.842 209.828 424.329 206.637 431.218 206.637C442.796 206.637 449.587 214.317 449.587 226.784V257.9H437.708V228.476C437.708 221.593 434.013 217.306 427.626 217.306C421.136 217.306 416.545 222.094 416.545 228.973V257.896H404.666V257.9Z" fill="white"/>
<path d="M528.983 90.5164C525.727 85.4461 521.163 80.9575 515.425 77.1716C504.339 69.8681 489.773 65.845 474.41 65.845C469.277 65.845 464.22 66.2925 459.311 67.1786C456.265 64.2384 452.704 61.5936 448.933 59.5037C434.94 52.5091 422.609 55.1136 416.379 57.3601C414.332 58.0985 413.701 60.6941 415.215 62.2604C419.609 66.8071 426.878 75.7932 425.091 83.9648C418.144 91.0758 414.377 99.6502 414.377 108.578C414.377 117.676 418.144 126.25 425.091 133.361C426.878 141.533 419.609 150.524 415.215 155.07C413.705 156.632 414.332 159.228 416.379 159.966C422.609 162.213 434.94 164.822 448.938 157.827C452.709 155.737 456.27 153.092 459.316 150.152C464.225 151.038 469.282 151.486 474.415 151.486C489.782 151.486 504.348 147.467 515.43 140.164C521.167 136.378 525.731 131.894 528.988 126.819C532.616 121.171 534.452 115.089 534.452 108.753C534.448 102.246 532.611 96.1685 528.983 90.5164ZM473.783 140.947C467.141 140.947 460.807 140.088 455.034 138.535L450.814 142.603C448.521 144.813 445.834 146.814 443.03 148.389C439.316 150.21 435.648 151.208 432.02 151.508C432.226 151.137 432.414 150.761 432.616 150.385C436.844 142.598 437.986 135.599 436.038 129.392C429.122 123.946 424.974 116.973 424.974 109.379C424.974 91.9485 446.828 77.816 473.783 77.816C500.743 77.816 522.596 91.9485 522.596 109.379C522.596 126.814 500.743 140.947 473.783 140.947Z" fill="white"/>
<path d="M450.434 102.12C446.461 102.12 443.24 105.325 443.24 109.276C443.24 113.228 446.461 116.432 450.434 116.432C454.406 116.432 457.627 113.228 457.627 109.276C457.622 105.325 454.402 102.12 450.434 102.12Z" fill="white"/>
<path d="M473.585 102.12C469.612 102.12 466.392 105.325 466.392 109.276C466.392 113.228 469.612 116.432 473.585 116.432C477.558 116.432 480.779 113.228 480.779 109.276C480.779 105.325 477.558 102.12 473.585 102.12Z" fill="white"/>
<path d="M496.742 102.12C492.769 102.12 489.549 105.325 489.549 109.276C489.549 113.228 492.769 116.432 496.742 116.432C500.715 116.432 503.936 113.228 503.936 109.276C503.936 105.325 500.715 102.12 496.742 102.12Z" fill="white"/>
</svg>
