<svg width="600" height="315" viewBox="0 0 600 315" fill="none" xmlns="http://www.w3.org/2000/svg">
<path d="M521.624 191.346H533.601V207.868H544.682V218.738H533.601V248.261H544.082V258.934C542.384 259.332 540.288 259.534 537.892 259.534C527.012 259.534 521.619 253.85 521.619 242.479V191.346H521.624Z" fill="#1D74F5"/>
<path d="M498.995 215.15V207.868H510.973V258.133H498.995V250.852C497.298 255.739 491.211 259.23 482.925 259.23C475.839 259.23 469.846 256.737 464.955 251.752C460.162 246.663 457.766 240.483 457.766 233.001C457.766 225.518 460.162 219.338 464.955 214.348C469.846 209.26 475.834 206.768 482.925 206.768C491.211 206.772 497.302 210.263 498.995 215.15ZM495.403 243.974C498.4 241.083 499.896 237.391 499.896 233.005C499.896 228.62 498.4 224.928 495.403 222.032C492.51 219.141 488.815 217.642 484.524 217.642C480.233 217.642 476.739 219.137 473.841 222.032C471.046 224.923 469.649 228.615 469.649 233.005C469.649 237.395 471.046 241.083 473.841 243.974C476.734 246.865 480.228 248.364 484.524 248.364C488.819 248.364 492.51 246.865 495.403 243.974Z" fill="#1D74F5"/>
<path d="M55.6963 258.133V207.868H67.5748V215.351C69.9711 210.066 75.4625 206.875 82.5484 206.875C83.9458 206.875 85.1462 206.973 86.1406 207.175V218.743C84.6446 218.443 82.947 218.246 81.1509 218.246C72.8646 218.246 67.5748 223.433 67.5748 231.712V258.142H55.6963V258.133Z" fill="#1D74F5"/>
<path d="M89.1416 233.001C89.1416 225.518 91.838 219.137 97.1278 214.048C102.418 208.96 108.908 206.369 116.594 206.369C124.28 206.369 130.77 208.96 136.06 214.048C141.35 219.137 144.046 225.518 144.046 233.001C144.046 240.479 141.35 246.865 136.06 251.948C130.77 257.037 124.28 259.628 116.594 259.628C108.908 259.628 102.418 257.037 97.1278 251.948C91.838 246.865 89.1416 240.483 89.1416 233.001ZM127.675 244.269C130.672 241.177 132.168 237.485 132.168 233.001C132.168 228.512 130.672 224.82 127.675 221.831C124.679 218.738 120.988 217.244 116.594 217.244C112.101 217.244 108.411 218.738 105.414 221.831C102.521 224.825 101.02 228.512 101.02 233.001C101.02 237.489 102.516 241.177 105.414 244.269C108.411 247.263 112.101 248.758 116.594 248.758C120.983 248.758 124.679 247.263 127.675 244.269Z" fill="#1D74F5"/>
<path d="M193.858 211.359V223.325C189.567 219.235 184.376 217.141 178.387 217.141C173.698 217.141 169.801 218.635 166.71 221.629C163.615 224.623 162.119 228.414 162.119 232.898C162.119 237.386 163.615 241.177 166.71 244.166C169.805 247.16 173.698 248.655 178.387 248.655C184.479 248.655 189.666 246.56 193.858 242.47V254.437C189.666 257.829 184.277 259.525 177.689 259.525C169.904 259.525 163.414 257.032 158.124 251.944C152.834 246.856 150.236 240.573 150.236 232.893C150.236 225.214 152.83 218.931 158.124 213.843C163.414 208.754 169.904 206.262 177.689 206.262C184.174 206.271 189.567 207.967 193.858 211.359Z" fill="#1D74F5"/>
<path d="M202.744 258.133V191.346H214.623V229.309L231.594 207.864H245.17L226.103 231.9L246.765 258.129H232.79L214.623 234.889V258.129H202.744V258.133Z" fill="#1D74F5"/>
<path d="M247.064 233.001C247.064 225.12 249.461 218.738 254.352 213.95C259.243 209.063 265.532 206.669 273.119 206.669C280.407 206.669 286.297 209.063 290.789 213.95C295.38 218.738 297.678 224.722 297.678 231.801C297.678 233.296 297.579 234.795 297.476 236.088H258.943C259.342 244.068 265.232 249.156 274.118 249.156C282.006 249.156 287.994 247.263 292.187 243.37V254.539C287.296 257.932 281.105 259.628 273.621 259.628C265.733 259.628 259.248 257.234 254.356 252.548C249.465 247.76 247.069 241.378 247.069 233.497V233.001H247.064ZM285.495 227.617C285.495 224.726 284.299 222.131 281.903 220.036C279.506 217.942 276.613 216.845 273.119 216.845C269.424 216.845 266.23 217.942 263.539 220.036C260.842 222.131 259.445 224.623 259.248 227.617H285.495Z" fill="#1D74F5"/>
<path d="M306.709 191.346H318.686V207.868H329.767V218.738H318.686V248.261H329.167V258.934C327.469 259.332 325.373 259.534 322.977 259.534C312.097 259.534 306.704 253.85 306.704 242.479V191.346H306.709Z" fill="#1D74F5"/>
<path d="M341.613 244.945C337.64 244.945 334.42 248.149 334.42 252.101C334.42 256.052 337.64 259.256 341.613 259.256C345.586 259.256 348.807 256.052 348.807 252.101C348.802 248.149 345.582 244.945 341.613 244.945Z" fill="#1D74F5"/>
<path d="M395.779 211.359V223.325C391.488 219.235 386.297 217.141 380.308 217.141C375.619 217.141 371.722 218.635 368.631 221.629C365.536 224.623 364.04 228.414 364.04 232.898C364.04 237.386 365.536 241.177 368.631 244.166C371.726 247.16 375.619 248.655 380.308 248.655C386.395 248.655 391.587 246.56 395.779 242.47V254.437C391.587 257.829 386.198 259.525 379.609 259.525C371.825 259.525 365.335 257.032 360.045 251.944C354.755 246.856 352.157 240.573 352.157 232.893C352.157 225.214 354.751 218.931 360.045 213.843C365.335 208.754 371.825 206.262 379.609 206.262C386.095 206.271 391.488 207.967 395.779 211.359Z" fill="#1D74F5"/>
<path d="M404.666 258.133V191.346H416.545V214.85C418.842 210.061 424.329 206.87 431.218 206.87C442.796 206.87 449.587 214.55 449.587 227.018V258.133H437.708V228.709C437.708 221.826 434.013 217.539 427.626 217.539C421.136 217.539 416.545 222.328 416.545 229.206V258.129H404.666V258.133Z" fill="#1D74F5"/>
<path d="M528.983 90.7496C525.727 85.6793 521.163 81.1907 515.425 77.4047C504.339 70.1013 489.773 66.0781 474.41 66.0781C469.277 66.0781 464.22 66.5257 459.311 67.4117C456.265 64.4716 452.704 61.8268 448.933 59.7369C434.94 52.7422 422.609 55.3468 416.379 57.5933C414.332 58.3317 413.701 60.9273 415.215 62.4936C419.609 67.0403 426.878 76.0264 425.091 84.198C418.144 91.309 414.377 99.8833 414.377 108.811C414.377 117.909 418.144 126.484 425.091 133.595C426.878 141.766 419.609 150.757 415.215 155.303C413.705 156.865 414.332 159.461 416.379 160.199C422.609 162.446 434.94 165.055 448.938 158.06C452.709 155.97 456.27 153.325 459.316 150.385C464.225 151.271 469.282 151.719 474.415 151.719C489.782 151.719 504.348 147.7 515.43 140.397C521.167 136.611 525.731 132.127 528.988 127.052C532.616 121.404 534.452 115.323 534.452 108.986C534.448 102.479 532.611 96.4017 528.983 90.7496ZM473.783 141.18C467.141 141.18 460.807 140.321 455.034 138.768L450.814 142.836C448.521 145.046 445.834 147.047 443.03 148.622C439.316 150.443 435.648 151.441 432.02 151.741C432.226 151.37 432.414 150.994 432.616 150.618C436.844 142.831 437.986 135.832 436.038 129.625C429.122 124.179 424.974 117.207 424.974 109.612C424.974 92.1816 446.828 78.0491 473.783 78.0491C500.743 78.0491 522.596 92.1816 522.596 109.612C522.596 127.047 500.743 141.18 473.783 141.18Z" fill="#1D74F5"/>
<path d="M450.434 102.354C446.461 102.354 443.24 105.558 443.24 109.509C443.24 113.461 446.461 116.665 450.434 116.665C454.406 116.665 457.627 113.461 457.627 109.509C457.622 105.558 454.402 102.354 450.434 102.354Z" fill="#1D74F5"/>
<path d="M473.585 102.354C469.612 102.354 466.392 105.558 466.392 109.509C466.392 113.461 469.612 116.665 473.585 116.665C477.558 116.665 480.779 113.461 480.779 109.509C480.779 105.558 477.558 102.354 473.585 102.354Z" fill="#1D74F5"/>
<path d="M496.742 102.354C492.769 102.354 489.549 105.558 489.549 109.509C489.549 113.461 492.769 116.665 496.742 116.665C500.715 116.665 503.936 113.461 503.936 109.509C503.936 105.558 500.715 102.354 496.742 102.354Z" fill="#1D74F5"/>
</svg>
