<svg width="769" height="221" viewBox="0 0 769 221" fill="none" xmlns="http://www.w3.org/2000/svg">
<path d="M688.048 68.4299H700.321V85.3342H711.677V96.4557H700.321V126.661H711.062V137.581C709.322 137.988 707.174 138.195 704.718 138.195C693.569 138.195 688.043 132.38 688.043 120.745V68.4299H688.048Z" fill="#1D74F5"/>
<path d="M664.864 92.7835V85.3341H677.137V136.761H664.864V129.312C663.124 134.312 656.886 137.883 648.395 137.883C641.134 137.883 634.992 135.333 629.98 130.232C625.069 125.026 622.613 118.703 622.613 111.048C622.613 103.392 625.069 97.0691 629.98 91.964C634.992 86.7581 641.129 84.2078 648.395 84.2078C656.882 84.2123 663.124 87.7837 664.864 92.7835ZM661.178 122.274C664.249 119.317 665.782 115.539 665.782 111.052C665.782 106.565 664.249 102.788 661.178 99.8255C658.213 96.8677 654.426 95.3338 650.029 95.3338C645.632 95.3338 642.052 96.8631 639.082 99.8255C636.218 102.783 634.786 106.561 634.786 111.052C634.786 115.544 636.218 119.317 639.082 122.274C642.047 125.232 645.627 126.766 650.029 126.766C654.431 126.766 658.213 125.232 661.178 122.274Z" fill="#1D74F5"/>
<path d="M210.593 136.761V85.3343H222.765V92.9852C225.221 87.5778 230.848 84.3132 238.11 84.3132C239.542 84.3132 240.772 84.414 241.791 84.62V96.4558C240.258 96.149 238.518 95.9475 236.677 95.9475C228.186 95.9475 222.765 101.254 222.765 109.725V136.766H210.593V136.761Z" fill="#1D74F5"/>
<path d="M244.861 111.048C244.861 103.393 247.624 96.8634 253.045 91.6575C258.466 86.4516 265.117 83.8005 272.993 83.8005C280.869 83.8005 287.52 86.4516 292.941 91.6575C298.362 96.8634 301.125 103.393 301.125 111.048C301.125 118.699 298.362 125.233 292.941 130.434C287.52 135.64 280.869 138.291 272.993 138.291C265.117 138.291 258.466 135.64 253.045 130.434C247.624 125.233 244.861 118.699 244.861 111.048ZM284.349 122.577C287.419 119.413 288.952 115.636 288.952 111.048C288.952 106.456 287.419 102.678 284.349 99.6197C281.278 96.4559 277.496 94.9266 272.993 94.9266C268.389 94.9266 264.607 96.4559 261.537 99.6197C258.571 102.683 257.034 106.456 257.034 111.048C257.034 115.64 258.567 119.413 261.537 122.577C264.607 125.64 268.389 127.169 272.993 127.169C277.496 127.169 281.278 125.64 284.349 122.577Z" fill="#1D74F5"/>
<path d="M352.169 88.9055V101.149C347.772 96.9639 342.452 94.8211 336.316 94.8211C331.51 94.8211 327.517 96.3504 324.35 99.4135C321.178 102.477 319.645 106.355 319.645 110.942C319.645 115.535 321.178 119.413 324.35 122.471C327.521 125.535 331.51 127.064 336.316 127.064C342.558 127.064 347.873 124.921 352.169 120.736V132.979C347.873 136.45 342.351 138.185 335.6 138.185C327.622 138.185 320.971 135.635 315.551 130.429C310.13 125.223 307.468 118.795 307.468 110.938C307.468 103.081 310.125 96.6525 315.551 91.4466C320.971 86.2407 327.622 83.6904 335.6 83.6904C342.246 83.6996 347.772 85.4349 352.169 88.9055Z" fill="#1D74F5"/>
<path d="M361.276 136.761V68.4299H373.449V107.27L390.84 85.3297H404.752L385.213 109.921L406.386 136.757H392.066L373.449 112.98V136.757H361.276V136.761Z" fill="#1D74F5"/>
<path d="M406.693 111.048C406.693 102.985 409.149 96.4557 414.161 91.5566C419.173 86.5567 425.618 84.1072 433.393 84.1072C440.861 84.1072 446.897 86.5567 451.5 91.5566C456.205 96.4557 458.56 102.577 458.56 109.821C458.56 111.35 458.459 112.884 458.353 114.207H418.866C419.274 122.371 425.31 127.577 434.417 127.577C442.5 127.577 448.636 125.64 452.933 121.657V133.085C447.92 136.555 441.577 138.291 433.907 138.291C425.824 138.291 419.178 135.841 414.166 131.047C409.154 126.148 406.698 119.619 406.698 111.556V111.048H406.693ZM446.075 105.54C446.075 102.582 444.85 99.9263 442.394 97.7835C439.938 95.6407 436.973 94.519 433.393 94.519C429.606 94.519 426.334 95.6407 423.575 97.7835C420.812 99.9263 419.38 102.477 419.178 105.54H446.075Z" fill="#1D74F5"/>
<path d="M467.813 68.4299H480.087V85.3342H491.442V96.4557H480.087V126.661H490.827V137.581C489.088 137.988 486.94 138.195 484.484 138.195C473.335 138.195 467.809 132.38 467.809 120.745V68.4299H467.813Z" fill="#1D74F5"/>
<path d="M503.582 123.268C499.511 123.268 496.211 126.546 496.211 130.589C496.211 134.632 499.511 137.911 503.582 137.911C507.654 137.911 510.954 134.632 510.954 130.589C510.954 126.546 507.654 123.268 503.582 123.268Z" fill="#1D74F5"/>
<path d="M559.089 88.9055V101.149C554.692 96.9639 549.372 94.8211 543.236 94.8211C538.43 94.8211 534.437 96.3504 531.27 99.4135C528.098 102.477 526.565 106.355 526.565 110.942C526.565 115.535 528.098 119.413 531.27 122.471C534.441 125.535 538.43 127.064 543.236 127.064C549.473 127.064 554.793 124.921 559.089 120.736V132.979C554.793 136.45 549.271 138.185 542.52 138.185C534.542 138.185 527.891 135.635 522.471 130.429C517.05 125.223 514.388 118.795 514.388 110.938C514.388 103.081 517.045 96.6525 522.471 91.4466C527.891 86.2407 534.542 83.6904 542.52 83.6904C549.166 83.6996 554.692 85.4349 559.089 88.9055Z" fill="#1D74F5"/>
<path d="M568.195 136.761V68.4299H580.368V92.4769C582.722 87.5778 588.345 84.3132 595.404 84.3132C607.269 84.3132 614.228 92.1701 614.228 104.926V136.761H602.055V106.657C602.055 99.615 598.269 95.2287 591.723 95.2287C585.073 95.2287 580.368 100.128 580.368 107.165V136.757H568.195V136.761Z" fill="#1D74F5"/>
<path d="M175.513 91.8589C172.176 86.6713 167.499 82.079 161.619 78.2054C150.259 70.7331 135.332 66.6169 119.589 66.6169C114.329 66.6169 109.147 67.0748 104.116 67.9814C100.995 64.9732 97.3459 62.2672 93.4811 60.129C79.1422 52.9726 66.5015 55.6419 60.1168 57.9358C58.0192 58.6913 57.3721 61.3515 58.9235 62.9494C63.4262 67.6013 70.8757 76.7952 69.0443 85.1558C61.9207 92.4358 58.0605 101.208 58.0605 110.343C58.0605 119.651 61.9207 128.424 69.0397 135.699C70.8711 144.06 63.4216 153.258 58.9189 157.91C57.3721 159.508 58.0146 162.164 60.1123 162.919C66.4969 165.218 79.133 167.887 93.4765 160.731C97.3413 158.592 100.99 155.887 104.111 152.878C109.142 153.785 114.324 154.243 119.584 154.243C135.332 154.243 150.259 150.131 161.614 142.659C167.494 138.785 172.171 134.198 175.508 129.005C179.226 123.227 181.108 117.005 181.108 110.521C181.112 103.855 179.226 97.6417 175.513 91.8589ZM118.946 143.451C112.139 143.451 105.649 142.572 99.7326 140.983L95.4089 145.145C93.0589 147.407 90.3049 149.454 87.4316 151.065C83.6265 152.929 79.8674 153.95 76.1495 154.257C76.3606 153.876 76.5534 153.492 76.76 153.107C81.0929 145.14 82.2633 137.979 80.2667 131.629C73.1798 126.057 68.9295 118.923 68.9295 111.153C68.9295 93.3195 91.3239 78.8602 118.946 78.8602C146.568 78.8602 168.967 93.3195 168.967 111.153C168.963 128.996 146.568 143.451 118.946 143.451Z" fill="#1D74F5"/>
<path d="M95.014 103.731C90.9427 103.731 87.6426 107.009 87.6426 111.052C87.6426 115.095 90.9427 118.374 95.014 118.374C99.0853 118.374 102.385 115.095 102.385 111.052C102.385 107.009 99.0853 103.731 95.014 103.731Z" fill="#1D74F5"/>
<path d="M118.744 103.731C114.673 103.731 111.373 107.009 111.373 111.052C111.373 115.095 114.673 118.374 118.744 118.374C122.816 118.374 126.116 115.095 126.116 111.052C126.116 107.009 122.816 103.731 118.744 103.731Z" fill="#1D74F5"/>
<path d="M142.474 103.731C138.403 103.731 135.103 107.009 135.103 111.052C135.103 115.095 138.403 118.374 142.474 118.374C146.545 118.374 149.845 115.095 149.845 111.052C149.845 107.009 146.541 103.731 142.474 103.731Z" fill="#1D74F5"/>
</svg>
