<svg width="601" height="314" viewBox="0 0 601 314" fill="none" xmlns="http://www.w3.org/2000/svg">
<path d="M521.797 190.579H533.774V207.101H544.856V217.971H533.774V247.494H544.256V258.167C542.558 258.565 540.462 258.767 538.065 258.767C527.186 258.767 521.793 253.083 521.793 241.712V190.579H521.797Z" fill="#F5455C"/>
<path d="M499.169 214.382V207.101H511.146V257.366H499.169V250.085C497.472 254.972 491.385 258.463 483.098 258.463C476.013 258.463 470.02 255.97 465.128 250.985C460.336 245.896 457.939 239.716 457.939 232.234C457.939 224.751 460.336 218.571 465.128 213.581C470.02 208.493 476.008 206 483.098 206C491.385 206.005 497.476 209.496 499.169 214.382ZM495.577 243.207C498.574 240.316 500.07 236.624 500.07 232.238C500.07 227.853 498.574 224.161 495.577 221.265C492.684 218.374 488.988 216.875 484.697 216.875C480.407 216.875 476.913 218.37 474.015 221.265C471.22 224.156 469.822 227.848 469.822 232.238C469.822 236.628 471.22 240.316 474.015 243.207C476.908 246.098 480.402 247.597 484.697 247.597C488.993 247.597 492.684 246.098 495.577 243.207Z" fill="#F5455C"/>
<path d="M55.8701 257.366V207.101H67.7486V214.584C70.1449 209.299 75.6363 206.108 82.7222 206.108C84.1197 206.108 85.32 206.206 86.3144 206.408V217.976C84.8184 217.676 83.1208 217.479 81.3247 217.479C73.0384 217.479 67.7486 222.666 67.7486 230.945V257.375H55.8701V257.366Z" fill="#F5455C"/>
<path d="M89.3154 232.234C89.3154 224.751 92.0118 218.37 97.3016 213.281C102.591 208.193 109.082 205.602 116.768 205.602C124.454 205.602 130.944 208.193 136.234 213.281C141.524 218.37 144.22 224.751 144.22 232.234C144.22 239.712 141.524 246.098 136.234 251.181C130.944 256.269 124.454 258.861 116.768 258.861C109.082 258.861 102.591 256.269 97.3016 251.181C92.0118 246.098 89.3154 239.716 89.3154 232.234ZM127.849 243.502C130.845 240.41 132.341 236.718 132.341 232.234C132.341 227.745 130.845 224.053 127.849 221.064C124.852 217.971 121.162 216.477 116.768 216.477C112.275 216.477 108.584 217.971 105.588 221.064C102.694 224.058 101.194 227.745 101.194 232.234C101.194 236.722 102.69 240.41 105.588 243.502C108.584 246.496 112.275 247.991 116.768 247.991C121.157 247.991 124.852 246.496 127.849 243.502Z" fill="#F5455C"/>
<path d="M194.032 210.592V222.558C189.741 218.468 184.55 216.374 178.561 216.374C173.872 216.374 169.975 217.868 166.884 220.862C163.789 223.856 162.293 227.647 162.293 232.131C162.293 236.619 163.789 240.41 166.884 243.399C169.979 246.393 173.872 247.888 178.561 247.888C184.653 247.888 189.839 245.793 194.032 241.703V253.669C189.839 257.062 184.451 258.758 177.862 258.758C170.078 258.758 163.588 256.265 158.298 251.177C153.008 246.089 150.41 239.806 150.41 232.126C150.41 224.447 153.004 218.164 158.298 213.076C163.588 207.987 170.078 205.495 177.862 205.495C184.348 205.504 189.741 207.2 194.032 210.592Z" fill="#F5455C"/>
<path d="M202.918 257.366V190.579H214.797V228.542L231.768 207.097H245.344L226.276 231.133L246.938 257.362H232.964L214.797 234.122V257.362H202.918V257.366Z" fill="#F5455C"/>
<path d="M247.238 232.234C247.238 224.353 249.635 217.971 254.526 213.183C259.417 208.296 265.706 205.902 273.293 205.902C280.581 205.902 286.471 208.296 290.963 213.183C295.554 217.971 297.852 223.955 297.852 231.034C297.852 232.529 297.753 234.028 297.65 235.321H259.117C259.515 243.301 265.405 248.389 274.292 248.389C282.18 248.389 288.168 246.496 292.361 242.602V253.772C287.469 257.165 281.279 258.861 273.795 258.861C265.907 258.861 259.421 256.466 254.53 251.781C249.639 246.993 247.243 240.611 247.243 232.73V232.234H247.238ZM285.669 226.85C285.669 223.959 284.473 221.363 282.077 219.269C279.68 217.175 276.787 216.078 273.293 216.078C269.598 216.078 266.404 217.175 263.712 219.269C261.016 221.363 259.618 223.856 259.421 226.85H285.669Z" fill="#F5455C"/>
<path d="M306.882 190.579H318.86V207.101H329.941V217.971H318.86V247.494H329.341V258.167C327.643 258.565 325.547 258.767 323.151 258.767C312.271 258.767 306.878 253.083 306.878 241.712V190.579H306.882Z" fill="#F5455C"/>
<path d="M341.787 244.178C337.814 244.178 334.594 247.382 334.594 251.334C334.594 255.285 337.814 258.489 341.787 258.489C345.76 258.489 348.981 255.285 348.981 251.334C348.976 247.382 345.756 244.178 341.787 244.178Z" fill="#F5455C"/>
<path d="M395.953 210.592V222.558C391.662 218.468 386.471 216.374 380.482 216.374C375.792 216.374 371.896 217.868 368.805 220.862C365.71 223.856 364.214 227.647 364.214 232.131C364.214 236.619 365.71 240.41 368.805 243.399C371.9 246.393 375.792 247.888 380.482 247.888C386.569 247.888 391.76 245.793 395.953 241.703V253.669C391.76 257.062 386.372 258.758 379.783 258.758C371.999 258.758 365.509 256.265 360.219 251.177C354.929 246.089 352.331 239.806 352.331 232.126C352.331 224.447 354.924 218.164 360.219 213.076C365.509 207.987 371.999 205.495 379.783 205.495C386.269 205.504 391.662 207.2 395.953 210.592Z" fill="#F5455C"/>
<path d="M404.84 257.366V190.579H416.718V214.083C419.016 209.294 424.503 206.103 431.392 206.103C442.97 206.103 449.761 213.783 449.761 226.25V257.366H437.882V227.942C437.882 221.059 434.187 216.772 427.8 216.772C421.309 216.772 416.718 221.56 416.718 228.439V257.362H404.84V257.366Z" fill="#F5455C"/>
<path d="M529.157 89.9825C525.901 84.9122 521.337 80.4236 515.599 76.6376C504.513 69.3342 489.947 65.3111 474.584 65.3111C469.451 65.3111 464.394 65.7586 459.485 66.6446C456.439 63.7045 452.878 61.0597 449.107 58.9698C435.114 51.9751 422.783 54.5797 416.553 56.8262C414.506 57.5646 413.874 60.1602 415.388 61.7265C419.782 66.2732 427.052 75.2593 425.265 83.4309C418.318 90.5419 414.551 99.1163 414.551 108.044C414.551 117.142 418.318 125.716 425.265 132.827C427.052 140.999 419.782 149.99 415.388 154.536C413.879 156.098 414.506 158.694 416.553 159.432C422.783 161.679 435.114 164.288 449.111 157.293C452.883 155.203 456.444 152.558 459.489 149.618C464.398 150.504 469.455 150.952 474.588 150.952C489.956 150.952 504.522 146.933 515.603 139.63C521.341 135.844 525.905 131.36 529.162 126.285C532.79 120.637 534.626 114.555 534.626 108.219C534.622 101.712 532.785 95.6346 529.157 89.9825ZM473.957 140.413C467.314 140.413 460.981 139.554 455.207 138.001L450.988 142.069C448.695 144.279 446.007 146.28 443.203 147.855C439.49 149.676 435.822 150.674 432.194 150.974C432.4 150.603 432.588 150.227 432.79 149.851C437.018 142.064 438.16 135.065 436.212 128.858C429.296 123.412 425.148 116.44 425.148 108.845C425.148 91.4145 447.002 77.2821 473.957 77.2821C500.916 77.2821 522.77 91.4145 522.77 108.845C522.77 126.28 500.916 140.413 473.957 140.413Z" fill="#F5455C"/>
<path d="M450.607 101.586C446.634 101.586 443.414 104.791 443.414 108.742C443.414 112.694 446.634 115.898 450.607 115.898C454.58 115.898 457.801 112.694 457.801 108.742C457.796 104.791 454.576 101.586 450.607 101.586Z" fill="#F5455C"/>
<path d="M473.759 101.586C469.786 101.586 466.565 104.791 466.565 108.742C466.565 112.694 469.786 115.898 473.759 115.898C477.732 115.898 480.952 112.694 480.952 108.742C480.952 104.791 477.732 101.586 473.759 101.586Z" fill="#F5455C"/>
<path d="M496.916 101.586C492.943 101.586 489.723 104.791 489.723 108.742C489.723 112.694 492.943 115.898 496.916 115.898C500.889 115.898 504.11 112.694 504.11 108.742C504.11 104.791 500.889 101.586 496.916 101.586Z" fill="#F5455C"/>
</svg>
