<?xml version="1.0" encoding="UTF-8" standalone="no"?>
<svg
   xmlns:dc="http://purl.org/dc/elements/1.1/"
   xmlns:cc="http://creativecommons.org/ns#"
   xmlns:rdf="http://www.w3.org/1999/02/22-rdf-syntax-ns#"
   xmlns:svg="http://www.w3.org/2000/svg"
   xmlns="http://www.w3.org/2000/svg"
   xmlns:sodipodi="http://sodipodi.sourceforge.net/DTD/sodipodi-0.dtd"
   xmlns:inkscape="http://www.inkscape.org/namespaces/inkscape"
   viewBox="0 0 345 304"
   version="1.1"
   id="svg10"
   sodipodi:docname="Griff.svg"
   inkscape:version="0.91 r13725">
  <metadata
     id="metadata16">
    <rdf:RDF>
      <cc:Work
         rdf:about="">
        <dc:format>image/svg+xml</dc:format>
        <dc:type
           rdf:resource="http://purl.org/dc/dcmitype/StillImage" />
        <dc:title></dc:title>
      </cc:Work>
    </rdf:RDF>
  </metadata>
  <defs
     id="defs14" />
  <sodipodi:namedview
     pagecolor="#ffffff"
     bordercolor="#666666"
     borderopacity="1"
     objecttolerance="10"
     gridtolerance="10"
     guidetolerance="10"
     inkscape:pageopacity="0"
     inkscape:pageshadow="2"
     inkscape:window-width="1440"
     inkscape:window-height="852"
     id="namedview12"
     showgrid="false"
     inkscape:zoom="1.26"
     inkscape:cx="56.689401"
     inkscape:cy="152"
     inkscape:window-x="0"
     inkscape:window-y="0"
     inkscape:window-maximized="1"
     inkscape:current-layer="g8" />
  <g
     id="g8"
     style="fill:none;fill-rule:nonzero">
    <path
       style="color:#000000;font-style:normal;font-variant:normal;font-weight:normal;font-stretch:normal;font-size:medium;line-height:normal;font-family:sans-serif;text-indent:0;text-align:start;text-decoration:none;text-decoration-line:none;text-decoration-style:solid;text-decoration-color:#000000;letter-spacing:normal;word-spacing:normal;text-transform:none;direction:ltr;block-progression:tb;writing-mode:lr-tb;baseline-shift:baseline;text-anchor:start;white-space:normal;clip-rule:nonzero;display:inline;overflow:visible;visibility:visible;opacity:1;isolation:auto;mix-blend-mode:normal;color-interpolation:sRGB;color-interpolation-filters:linearRGB;solid-color:#000000;solid-opacity:1;fill:#000000;fill-opacity:1;fill-rule:nonzero;stroke:none;stroke-width:24.80315018;stroke-linecap:butt;stroke-linejoin:miter;stroke-miterlimit:4;stroke-dasharray:none;stroke-dashoffset:0;stroke-opacity:1;color-rendering:auto;image-rendering:auto;shape-rendering:auto;text-rendering:auto;enable-background:accumulate"
       d="m 97.021484,33.552734 c -2.845639,-0.06797 -5.589644,0.01681 -8.21297,0.217206 -2.623327,0.200399 -5.125975,0.516423 -7.488902,0.910955 -2.362927,0.394531 -4.586133,0.867571 -6.650573,1.382002 -2.064441,0.514431 -3.970116,1.070253 -5.697984,1.630351 -1.727867,0.560097 -3.277925,1.124469 -4.631132,1.655999 -1.353207,0.53153 -2.509562,1.030219 -3.450022,1.458949 -0.94046,0.428729 -1.665024,0.787501 -2.15465,1.039197 -0.489625,0.251697 -0.744312,0.396318 -0.745017,0.396748 l -1.88916,1.151855 -1.88916,1.151856 -1.88916,1.151855 -1.889161,1.151855 -1.88916,1.151856 -1.88916,1.151855 -1.88916,1.151856 -1.88916,1.151855 1.727783,1.382324 1.727784,1.382325 1.727783,1.382324 1.727783,1.382324 1.727783,1.382324 1.727783,1.382324 1.727784,1.382325 1.727783,1.382324 c 5.5e-4,4.38e-4 0.0826,0.07103 0.235491,0.207173 0.152894,0.136143 0.376634,0.337833 0.660567,0.600463 0.283934,0.26263 0.628062,0.5862 1.021732,0.966101 0.39367,0.379902 0.836882,0.816135 1.318985,1.304091 0.482103,0.487957 1.003096,1.027636 1.552327,1.614431 0.549232,0.586795 1.126703,1.220705 1.72176,1.897121 0.595057,0.676417 1.207701,1.39534 1.82728,2.152162 0.619578,0.756821 1.246092,1.551542 1.868889,2.379552 0.51214,0.680892 0.999108,1.369585 1.459937,2.061126 0.460828,0.691541 0.895517,1.385929 1.303099,2.07821 0.407581,0.692281 0.788056,1.382455 1.140455,2.065568 0.352399,0.683113 0.676723,1.359164 0.972004,2.023201 0.295282,0.664036 0.561521,1.316057 0.797749,1.951109 0.236228,0.635051 0.442446,1.253133 0.617686,1.849291 0.17524,0.596158 0.319502,1.170392 0.431818,1.717749 0.112316,0.547356 0.192686,1.067834 0.240143,1.55648 -1.424621,1.645699 -2.774672,3.33575 -4.046536,5.06607 -1.271865,1.73032 -2.465543,3.500909 -3.577416,5.307684 -1.111874,1.80677 -2.141943,3.64974 -3.086591,5.5248 -0.944648,1.87506 -1.803874,3.78223 -2.574062,5.71742 -0.770187,1.93518 -1.451336,3.89839 -2.039829,5.88554 -0.588493,1.98714 -1.084329,3.99822 -1.483892,6.02916 -0.399563,2.03093 -0.702853,4.08172 -0.906252,6.14828 -0.203399,2.06657 -0.306907,4.1489 -0.306907,6.24292 0,2.11892 0.103468,4.22415 0.306803,6.31174 0.203334,2.0876 0.506535,4.15755 0.905999,6.20592 0.399464,2.04837 0.895192,4.07515 1.48358,6.07639 0.588389,2.00123 1.269439,3.97693 2.039547,5.92314 0.770108,1.9462 1.629275,3.86291 2.573898,5.74618 0.944623,1.88327 1.974703,3.7331 3.086636,5.54553 1.111933,1.81243 2.305719,3.58747 3.577757,5.32116 1.272038,1.73368 2.622327,3.42603 4.047265,5.07307 -0.04734,0.48883 -0.127609,1.0095 -0.239856,1.55705 -0.112246,0.54756 -0.256464,1.122 -0.431685,1.71838 -0.175222,0.59637 -0.381447,1.21467 -0.617708,1.84996 -0.236261,0.63528 -0.502558,1.28754 -0.797922,1.95182 -0.295365,0.66428 -0.619797,1.34059 -0.972329,2.02396 -0.352531,0.68337 -0.733163,1.37381 -1.140926,2.06637 -0.407764,0.69255 -0.842659,1.38722 -1.303718,2.07905 -0.461059,0.69182 -0.948281,1.38081 -1.4607,2.062 -0.622942,0.82812 -1.253998,1.62654 -1.881405,2.38976 -0.627408,0.76322 -1.251166,1.49122 -1.859515,2.17851 -0.608348,0.68728 -1.201286,1.33384 -1.767052,1.93416 -0.565766,0.60032 -1.10436,1.1544 -1.604019,1.65672 -0.49966,0.50233 -0.960386,0.95289 -1.370417,1.34618 -0.41003,0.39329 -0.769364,0.72931 -1.066242,1.00253 -0.296877,0.27323 -0.531296,0.48367 -0.691497,0.6258 -0.1602,0.14213 -0.246181,0.21595 -0.246181,0.21595 l -1.660645,1.41016 -1.660644,1.41015 -1.660645,1.41016 -1.660645,1.41016 -1.660644,1.41015 -1.660645,1.41016 -1.660644,1.41015 -1.660645,1.41016 1.876709,1.10669 1.876709,1.10669 1.876709,1.10669 1.876709,1.10669 1.876709,1.10669 1.876709,1.10669 1.876709,1.10669 1.876709,1.10669 c 0,0 0.535055,0.30378 1.547161,0.79744 1.012107,0.49366 2.501265,1.17721 4.409474,1.93674 1.908208,0.75954 4.235466,1.59506 6.923771,2.39268 2.688305,0.79762 5.737657,1.55734 9.090053,2.16526 3.352397,0.60792 7.007839,1.06405 10.908322,1.25448 3.900484,0.19043 8.04601,0.11517 12.378575,-0.33967 4.33257,-0.45485 8.85217,-1.28927 13.50081,-2.61718 4.64865,-1.32791 9.42633,-3.14929 14.27504,-5.57805 l 0.0295,-0.0147 0.0295,-0.0146 0.0295,-0.0146 0.0295,-0.0147 0.0296,-0.0146 0.0295,-0.0146 0.0295,-0.0146 0.0295,-0.0147 0.0288,-0.0161 0.0288,-0.0161 0.0288,-0.0161 0.0288,-0.0161 0.0288,-0.0161 0.0288,-0.0161 0.0288,-0.0161 0.0288,-0.0161 c 0.67275,-0.37364 1.33875,-0.75792 1.99829,-1.15205 0.65954,-0.39414 1.31262,-0.79811 1.95952,-1.21113 0.64691,-0.41301 1.28765,-0.83507 1.9225,-1.26536 0.63486,-0.43028 1.26383,-0.8688 1.88721,-1.31475 0.62338,-0.44595 1.24116,-0.89933 1.85364,-1.35932 0.61248,-0.46 1.21965,-0.92662 1.82181,-1.39905 0.60216,-0.47244 1.19931,-0.95069 1.79172,-1.43395 0.59242,-0.48326 1.18011,-0.97153 1.76336,-1.464 0.87478,0.12183 1.75095,0.23838 2.62852,0.34906 0.87758,0.11069 1.75656,0.21551 2.63699,0.31388 0.88042,0.0984 1.76229,0.1903 2.64562,0.2752 0.88334,0.0849 1.76815,0.16276 2.65446,0.23301 0.88632,0.0703 1.77413,0.13289 2.66348,0.18733 0.88934,0.0544 1.78022,0.10068 2.67266,0.13814 0.89245,0.0375 1.78645,0.0661 2.68205,0.0855 0.8956,0.0193 1.79279,0.0293 2.69161,0.0293 3.45946,0 6.89934,-0.11157 10.31116,-0.33366 3.41181,-0.22209 6.79555,-0.55471 10.14272,-0.9968 3.34718,-0.4421 6.6578,-0.99368 9.92335,-1.65369 3.26556,-0.66002 6.48607,-1.42847 9.65302,-2.30431 3.16696,-0.87585 6.28036,-1.85909 9.33173,-2.94868 3.05137,-1.08959 6.0407,-2.28553 8.95949,-3.58677 2.9188,-1.30125 5.76706,-2.7078 8.5363,-4.21862 2.76924,-1.51081 5.45945,-3.12589 8.06215,-4.84419 l 2.5e-4,-2.5e-4 2.5e-4,-2.5e-4 2.5e-4,-2.5e-4 2.5e-4,-2.5e-4 2.5e-4,-2.5e-4 2.5e-4,-2.5e-4 2.5e-4,-2.5e-4 2.5e-4,-2.5e-4 c 1.34612,-0.8892 2.66296,-1.80275 3.94941,-2.74032 1.28644,-0.93757 2.54249,-1.89918 3.76703,-2.88452 1.22454,-0.98533 2.41757,-1.99439 3.57799,-3.02688 1.16041,-1.03248 2.28821,-2.08839 3.38227,-3.16741 1.09406,-1.07902 2.1544,-2.18116 3.17989,-3.30611 1.02549,-1.12495 2.01613,-2.27271 2.97083,-3.44297 0.95469,-1.17027 1.87343,-2.36304 2.7551,-3.57801 0.88167,-1.21497 1.72628,-2.45214 2.53271,-3.71121 l 0,-2.5e-4 0,-2.5e-4 0,-2.5e-4 0,-2.5e-4 0,-2.5e-4 0,-2.5e-4 0,-2.5e-4 0,-2.5e-4 c 0.89662,-1.39966 1.74145,-2.82136 2.53343,-4.26298 0.79197,-1.44162 1.53109,-2.90316 2.2163,-4.38251 0.68521,-1.47934 1.3165,-2.97648 1.89281,-4.48931 0.57631,-1.51282 1.09765,-3.04133 1.56295,-4.5834 0.4653,-1.54206 0.87456,-3.09769 1.22671,-4.66476 0.35216,-1.56707 0.64722,-3.14558 0.88412,-4.73342 0.23689,-1.58783 0.41563,-3.18499 0.53513,-4.78934 0.11951,-1.60436 0.1798,-3.21592 0.1798,-4.83256 0,-1.6451 -0.0603,-3.28255 -0.17984,-4.91042 -0.11954,-1.62787 -0.29832,-3.24617 -0.53526,-4.85296 -0.23694,-1.6068 -0.53205,-3.20209 -0.88425,-4.78398 -0.35221,-1.58188 -0.76151,-3.15034 -1.22685,-4.70347 -0.46533,-1.55312 -0.98669,-3.09091 -1.56302,-4.61145 -0.57632,-1.52053 -1.20761,-3.0238 -1.89279,-4.5079 -0.68518,-1.4841 -1.42425,-2.94902 -2.21615,-4.39285 -0.79189,-1.44383 -1.63661,-2.866554 -2.53309,-4.266266 l -2.5e-4,-2.5e-4 -2.5e-4,-2.5e-4 -2.5e-4,-2.5e-4 -2.5e-4,-2.5e-4 -2.5e-4,-2.5e-4 -2.5e-4,-2.5e-4 -2.5e-4,-2.5e-4 -2.5e-4,-2.5e-4 c -0.80635,-1.258361 -1.65083,-2.494925 -2.53235,-3.709376 -0.88152,-1.21445 -1.80008,-2.406786 -2.75459,-3.576692 -0.9545,-1.169906 -1.94495,-2.31738 -2.97024,-3.442107 -1.0253,-1.124727 -2.08545,-2.226706 -3.17934,-3.30562 -1.0939,-1.078914 -2.22155,-2.134763 -3.38185,-3.16723 -1.16031,-1.032467 -2.35327,-2.041552 -3.5778,-3.026939 -1.22452,-0.985386 -2.4806,-1.947073 -3.76715,-2.884745 -1.28655,-0.937672 -2.60357,-1.851327 -3.94995,-2.74065 l -2.5e-4,-2.5e-4 -2.5e-4,-2.5e-4 -2.5e-4,-2.5e-4 -2.5e-4,-2.5e-4 -2.5e-4,-2.5e-4 -2.5e-4,-2.5e-4 -2.5e-4,-2.5e-4 -2.5e-4,-2.5e-4 c -2.60257,-1.718351 -5.29272,-3.333561 -8.06194,-4.844564 -2.76922,-1.511004 -5.61752,-2.917802 -8.53638,-4.21933 -2.91885,-1.301528 -5.90828,-2.497787 -8.95977,-3.587712 -3.05148,-1.089926 -6.16503,-2.073518 -9.33214,-2.949714 -3.1671,-0.876195 -6.38776,-1.644993 -9.65347,-2.305331 -3.26571,-0.660338 -6.57647,-1.212215 -9.92378,-1.654567 -3.34731,-0.442353 -6.73116,-0.775181 -10.14305,-0.997421 -3.4119,-0.22224 -6.85183,-0.333892 -10.3113,-0.333892 -0.8986,0 -1.79558,0.01 -2.69097,0.02933 -0.89539,0.01936 -1.7892,0.0481 -2.68144,0.08563 -0.89225,0.03754 -1.78293,0.08387 -2.67209,0.138403 -0.88917,0.05454 -1.7768,0.11728 -2.66295,0.18764 -0.88614,0.07036 -1.77079,0.148338 -2.65397,0.233344 -0.88319,0.08501 -1.76491,0.177042 -2.64521,0.275517 -0.88029,0.09847 -1.75916,0.203389 -2.63662,0.314155 -0.87747,0.110765 -1.75354,0.227382 -2.62824,0.349261 -0.58351,-0.492714 -1.17145,-0.981151 -1.7641,-1.464517 -0.59266,-0.483367 -1.19002,-0.961663 -1.79238,-1.434094 -0.60236,-0.472432 -1.20971,-0.938999 -1.82233,-1.398909 -0.61261,-0.45991 -1.2305,-0.913163 -1.85393,-1.358964 -0.62344,-0.445801 -1.25242,-0.884151 -1.88723,-1.314256 -0.6348,-0.430106 -1.27544,-0.851966 -1.92217,-1.264789 -0.64674,-0.412822 -1.29958,-0.816606 -1.9588,-1.210559 -0.65923,-0.393952 -1.32483,-0.778073 -1.9971,-1.151568 l -0.029,-0.01611 -0.0291,-0.01611 -0.029,-0.01611 -0.0291,-0.01611 -0.0291,-0.01611 -0.029,-0.01611 -0.0291,-0.01611 -0.029,-0.01611 -0.0295,-0.01489 -0.0295,-0.01489 -0.0295,-0.01489 -0.0296,-0.01489 -0.0295,-0.01489 -0.0295,-0.01489 -0.0295,-0.01489 -0.0295,-0.01489 c -1.515,-0.758943 -3.02329,-1.458443 -4.52309,-2.101986 -1.49979,-0.643543 -2.99109,-1.231129 -4.47211,-1.766242 -1.48102,-0.535113 -2.95176,-1.017754 -4.41043,-1.451407 -1.45868,-0.433652 -2.9053,-0.818317 -4.33806,-1.157479 -1.43277,-0.339162 -2.8517,-0.632821 -4.25499,-0.884462 -1.4033,-0.251641 -2.79096,-0.461263 -4.16122,-0.632352 -1.37025,-0.171089 -2.72309,-0.303645 -4.05674,-0.401151 -1.333643,-0.09751 -2.648094,-0.159965 -3.941566,-0.190859 z m -4.851562,24.292969 c 0.970115,-0.0316 1.966936,-0.03661 2.989025,-0.01105 1.022088,0.02556 2.069444,0.08168 3.140628,0.172324 1.071185,0.09065 2.166195,0.215826 3.283605,0.3795 1.1174,0.163674 2.2572,0.365843 3.41794,0.610476 1.16075,0.244632 2.34245,0.531727 3.54367,0.865251 1.20121,0.333524 2.42194,0.713477 3.66074,1.143827 1.2388,0.430349 2.49568,0.911094 3.7692,1.446202 1.27351,0.535108 2.56367,1.124578 3.86902,1.772378 0.64883,0.36416 1.29493,0.740945 1.93701,1.12941 0.64208,0.388465 1.28013,0.788609 1.91288,1.199487 0.63275,0.410877 1.26018,0.832489 1.88101,1.263888 0.62084,0.4314 1.23506,0.872588 1.8414,1.322618 0.60633,0.450031 1.20477,0.908903 1.79402,1.375673 0.58926,0.46677 1.16932,0.941436 1.73891,1.423054 0.5696,0.481618 1.12871,0.970187 1.67605,1.464762 0.54735,0.494575 1.08292,0.995155 1.60544,1.500796 l 0.57153,0.553223 0.57153,0.553222 0.57154,0.553223 0.57153,0.553222 0.57153,0.553223 0.57153,0.553223 0.57154,0.553222 0.57153,0.553223 0.78271,-0.141846 0.78272,-0.141845 0.78271,-0.141846 0.78272,-0.141846 0.78271,-0.141846 0.78272,-0.141845 0.78271,-0.141846 0.78272,-0.141846 c 0.92426,-0.167378 1.85269,-0.324497 2.78505,-0.471307 0.93235,-0.14681 1.86863,-0.28331 2.80858,-0.409451 0.93994,-0.12614 1.88355,-0.241921 2.83057,-0.34729 0.94703,-0.10537 1.89746,-0.20033 2.85105,-0.284828 0.95359,-0.0845 1.91034,-0.158535 2.86999,-0.222061 0.95965,-0.06352 1.9222,-0.116539 2.88739,-0.15899 0.9652,-0.04245 1.93304,-0.07434 2.90327,-0.09562 0.97024,-0.02128 1.94286,-0.03194 2.91762,-0.03194 2.91717,0 5.81254,0.09751 8.67718,0.28875 2.86464,0.191242 5.69855,0.476217 8.49281,0.851152 2.79425,0.374935 5.54885,0.839829 8.25487,1.390908 2.70602,0.551079 5.36346,1.188343 7.96339,1.908018 2.59993,0.719674 5.14235,1.521759 7.61835,2.40248 2.47599,0.880721 4.88555,1.840079 7.21975,2.874297 2.3342,1.034219 4.59305,2.1433 6.76761,3.323467 2.17456,1.180168 4.26483,2.431423 6.2619,3.749991 0.95744,0.632463 1.88657,1.275809 2.78789,1.929571 0.90133,0.653761 1.77484,1.317938 2.62106,1.992062 0.84622,0.674125 1.66514,1.358198 2.45728,2.051751 0.79213,0.693553 1.55748,1.396585 2.29654,2.108635 0.73907,0.71205 1.45185,1.43311 2.13887,2.16271 0.68702,0.72961 1.34826,1.46776 1.98425,2.21399 0.63598,0.74623 1.2467,1.50054 1.83268,2.26246 0.58597,0.76192 1.14719,1.53145 1.68416,2.30812 l -0.4873,0.42261 -0.48731,0.4226 -0.4873,0.42261 -0.48731,0.42261 -0.48731,0.42261 -0.4873,0.4226 -0.48731,0.42261 -0.4873,0.42261 0.54834,-0.33887 0.54834,-0.33887 0.54834,-0.33886 0.54834,-0.33887 0.54834,-0.33887 0.54834,-0.33887 0.54834,-0.33886 0.54834,-0.33887 c 0.0214,0.032 0.0434,0.0638 0.0659,0.0955 0.0225,0.0317 0.0455,0.0632 0.0687,0.0947 0.0233,0.0315 0.0468,0.0628 0.0705,0.0942 0.0237,0.0313 0.0475,0.0626 0.0713,0.0939 0.0238,0.0313 0.0475,0.0626 0.071,0.094 0.0235,0.0314 0.0468,0.0628 0.0697,0.0944 0.0229,0.0316 0.0455,0.0632 0.0675,0.0951 0.022,0.0318 0.0434,0.0638 0.0642,0.096 l -0.76294,0.66162 -0.76294,0.66162 -0.76294,0.66162 -0.76293,0.66163 -0.76294,0.66162 -0.76294,0.66162 -0.76294,0.66162 -0.76294,0.66162 0.84277,-0.52075 0.84277,-0.52075 0.84278,-0.52075 0.84277,-0.52075 0.84277,-0.52076 0.84277,-0.52075 0.84278,-0.52075 0.84277,-0.52075 c 0.55202,0.9063 1.06809,1.81246 1.54857,2.72019 0.48047,0.90774 0.92536,1.81705 1.33501,2.72965 0.40966,0.9126 0.78409,1.8285 1.12365,2.74941 0.33957,0.92091 0.64426,1.84683 0.91446,2.77948 0.2702,0.93265 0.5059,1.87203 0.70745,2.81986 0.20156,0.94783 0.36898,1.9041 0.50263,2.87054 0.13364,0.96644 0.23351,1.94305 0.29997,2.93154 0.0665,0.98849 0.0995,1.98886 0.0995,3.00284 0,1.01831 -0.0351,2.02831 -0.10592,3.03101 -0.0709,1.0027 -0.17752,1.9981 -0.32073,2.98721 -0.14321,0.98911 -0.32296,1.97192 -0.53999,2.94944 -0.21704,0.97753 -0.47136,1.94976 -0.7637,2.91771 -0.29235,0.96794 -0.62273,1.93161 -0.99187,2.89199 -0.36915,0.96038 -0.77706,1.91749 -1.22449,2.87231 -0.44742,0.95483 -0.93436,1.90738 -1.46155,2.85867 -0.52719,0.95128 -1.09463,1.90129 -1.70307,2.85104 l -2.5e-4,2.5e-4 -2.5e-4,2.5e-4 -2.5e-4,2.5e-4 -2.5e-4,2.5e-4 -2.5e-4,2.5e-4 -2.5e-4,2.5e-4 -2.5e-4,2.5e-4 -2.5e-4,2.5e-4 c -0.54494,0.85085 -1.11946,1.69316 -1.72383,2.52647 -0.60437,0.8333 -1.23859,1.6576 -1.90293,2.47243 -0.66435,0.81482 -1.35883,1.62017 -2.08371,2.41557 -0.72487,0.79541 -1.48016,1.58086 -2.26612,2.35591 -0.78596,0.77505 -1.6026,1.53968 -2.4502,2.29342 -0.8476,0.75375 -1.72615,1.49662 -2.63594,2.22813 -0.90978,0.73151 -1.8508,1.45167 -2.82333,2.16 -0.97252,0.70834 -1.97655,1.40486 -3.01237,2.08908 -1.99707,1.31837 -4.08726,2.56935 -6.26168,3.7492 -2.17442,1.17984 -4.43307,2.28855 -6.76704,3.32236 -2.33396,1.03382 -4.74325,1.99274 -7.21896,2.87302 -2.47571,0.88028 -5.01783,1.68192 -7.61748,2.40115 -2.59964,0.71924 -5.25681,1.35608 -7.96258,1.90676 -2.70578,0.55069 -5.46017,1.01522 -8.25427,1.38985 -2.79411,0.37464 -5.62792,0.65936 -8.49255,0.85043 -2.86462,0.19107 -5.76006,0.28848 -8.6774,0.28848 -0.97484,0 -1.94753,-0.0106 -2.91782,-0.0319 -0.97029,-0.0212 -1.93818,-0.0531 -2.90343,-0.0955 -0.96525,-0.0424 -1.92786,-0.0953 -2.88758,-0.15876 -0.95972,-0.0634 -1.91655,-0.13738 -2.87025,-0.22178 -0.95371,-0.0844 -1.90427,-0.17925 -2.85146,-0.28451 -0.94719,-0.10526 -1.891,-0.22093 -2.83119,-0.34697 -0.94019,-0.12603 -1.87676,-0.26242 -2.80945,-0.40913 -0.9327,-0.14671 -1.86153,-0.30374 -2.78624,-0.47103 l -0.78223,-0.1416 -0.78222,-0.1416 -0.78223,-0.1416 -0.78223,-0.14161 -0.78222,-0.1416 -0.78223,-0.1416 -0.78222,-0.1416 -0.78223,-0.1416 -0.57129,0.55249 -0.57129,0.55249 -0.57129,0.55249 -0.57129,0.55249 -0.57128,0.55249 -0.57129,0.55249 -0.57129,0.55249 -0.57129,0.55249 c -0.52356,0.50623 -1.06006,1.00739 -1.60824,1.50253 -0.54817,0.49514 -1.10801,0.98426 -1.67822,1.46639 -0.57022,0.48214 -1.15081,0.95728 -1.74049,1.42449 -0.58968,0.4672 -1.18844,0.92646 -1.79501,1.37682 -0.60656,0.45035 -1.22092,0.8918 -1.8418,1.32338 -0.62087,0.43159 -1.24825,0.8533 -1.88086,1.26419 -0.6326,0.41089 -1.27042,0.81096 -1.91218,1.19924 -0.64176,0.38828 -1.28745,0.76477 -1.93578,1.12851 -1.64457,0.81588 -3.26383,1.53745 -4.85527,2.17306 -1.59144,0.63562 -3.15506,1.18529 -4.68837,1.65738 -1.53331,0.4721 -3.03631,0.86662 -4.50649,1.19193 -1.47019,0.32531 -2.90757,0.58141 -4.30964,0.77668 -1.40207,0.19527 -2.768835,0.3297 -4.097795,0.41166 -1.32896,0.082 -2.620116,0.11147 -3.870971,0.0969 -1.250855,-0.0146 -2.46141,-0.0733 -3.629166,-0.16771 -1.167757,-0.0944 -2.292715,-0.22456 -3.372379,-0.38206 0.0089,-0.0118 0.01784,-0.0232 0.02673,-0.0343 0.0089,-0.0111 0.01777,-0.022 0.02664,-0.0327 0.0089,-0.0107 0.01772,-0.0212 0.02657,-0.0316 0.0089,-0.0104 0.0177,-0.0207 0.02654,-0.0311 0.0088,-0.0103 0.01769,-0.0207 0.02654,-0.0311 0.0088,-0.0104 0.0177,-0.021 0.02656,-0.0317 0.0089,-0.0107 0.01773,-0.0216 0.02661,-0.0328 0.0089,-0.0112 0.01778,-0.0227 0.0267,-0.0345 0.85766,-1.14016 1.733208,-2.34072 2.602059,-3.59948 0.868851,-1.25877 1.731003,-2.57575 2.561869,-3.94876 0.830866,-1.37302 1.630446,-2.80206 2.374153,-4.28497 0.743706,-1.4829 1.431539,-3.01966 2.03891,-4.6081 0.607372,-1.58844 1.134281,-3.22856 1.556142,-4.91818 0.421861,-1.68961 0.738673,-3.42873 0.925848,-5.21517 0.187175,-1.78644 0.244713,-3.62021 0.148027,-5.49911 -0.09669,-1.87891 -0.347597,-3.80296 -0.77732,-5.76998 l -0.09473,-0.43384 -0.09473,-0.43384 -0.09473,-0.43384 -0.09473,-0.43384 -0.09473,-0.43383 -0.09473,-0.43384 -0.09473,-0.43384 -0.09473,-0.43384 -0.310058,-0.31787 -0.310059,-0.31787 -0.310058,-0.31787 -0.310059,-0.31787 -0.310058,-0.31788 -0.310059,-0.31787 -0.310058,-0.31787 -0.310059,-0.31787 c -1.202622,-1.23277 -2.327459,-2.48305 -3.375165,-3.75008 -1.047706,-1.26704 -2.018283,-2.55084 -2.912384,-3.85064 -0.894101,-1.2998 -1.711728,-2.61562 -2.453535,-3.94669 -0.741807,-1.33108 -1.407795,-2.67741 -1.998619,-4.03826 -0.590824,-1.36085 -1.106484,-2.73621 -1.547635,-4.12533 -0.441152,-1.38912 -0.807795,-2.792 -1.100585,-4.2079 -0.29279,-1.41589 -0.511728,-2.84481 -0.657467,-4.28598 -0.14574,-1.44118 -0.218282,-2.89461 -0.218282,-4.35957 0,-1.42096 0.07258,-2.83698 0.218383,-4.24638 0.145803,-1.4094 0.364832,-2.81217 0.65773,-4.20661 0.292898,-1.39443 0.659665,-2.78053 1.100949,-4.1566 0.441283,-1.37607 0.957081,-2.7421 1.54804,-4.0964 0.590959,-1.35429 1.257079,-2.69685 1.999004,-4.02597 0.741926,-1.32911 1.559658,-2.64479 2.453841,-3.94533 0.894183,-1.30053 1.864817,-2.58592 2.912549,-3.85447 1.047731,-1.26854 2.172559,-2.52025 3.375129,-3.7534 l 0.309814,-0.31763 0.309815,-0.31762 0.309814,-0.31763 0.309815,-0.31762 0.309814,-0.31763 0.309814,-0.31763 0.309815,-0.31762 0.309814,-0.31763 0.09473,-0.433594 0.09473,-0.433594 0.09473,-0.433594 0.09473,-0.433593 0.09473,-0.433594 0.09473,-0.433594 0.09473,-0.433594 0.09473,-0.433594 c 0.429694,-1.966661 0.680628,-3.890396 0.777378,-5.76902 0.09675,-1.878624 0.03932,-3.712138 -0.147721,-5.498357 -0.187038,-1.78622 -0.503682,-3.525146 -0.925355,-5.214593 -0.421672,-1.689448 -0.948373,-3.329418 -1.555525,-4.917727 -0.607152,-1.588309 -1.294755,-3.124956 -2.038232,-4.607758 -0.743476,-1.482802 -1.542826,-2.911759 -2.373473,-4.284687 -0.830646,-1.372927 -1.692588,-2.689827 -2.56125,-3.948513 -0.868661,-1.258686 -1.744041,-2.45916 -2.601563,-3.599238 -0.01017,-0.01353 -0.02034,-0.02666 -0.03051,-0.0395 -0.01017,-0.01284 -0.02033,-0.02538 -0.0305,-0.03773 -0.01016,-0.01235 -0.02033,-0.02449 -0.03049,-0.03654 -0.01016,-0.01205 -0.02033,-0.02399 -0.03049,-0.03593 -0.01017,-0.01194 -0.02033,-0.02387 -0.0305,-0.03589 -0.01017,-0.01202 -0.02034,-0.02414 -0.03052,-0.03643 -0.01018,-0.0123 -0.02036,-0.02479 -0.03055,-0.03755 -0.01019,-0.01277 -0.02038,-0.02582 -0.03058,-0.03925 0.22524,-0.03287 0.450915,-0.0656 0.67741,-0.09784 0.226494,-0.03224 0.453808,-0.064 0.682323,-0.09492 0.228516,-0.03092 0.458233,-0.06101 0.689535,-0.08992 0.231303,-0.02891 0.46419,-0.05663 0.699045,-0.08282 0.234855,-0.02619 0.471679,-0.05085 0.710853,-0.07363 0.239174,-0.02278 0.480699,-0.04368 0.724957,-0.06235 0.244259,-0.01867 0.491252,-0.03511 0.741362,-0.04898 0.250109,-0.01387 0.503336,-0.02515 0.760062,-0.03352 z"
       id="path2"
       inkscape:connector-curvature="0"
       sodipodi:nodetypes="sssssssscccccccccccccccccssssssssssssssscssssssssssssssscssssssssssssssscccccccccccccccccssssssscccccccccccccccccssssssscssssssssssssssscccccccccssssssscccccccccssssssssssssssscccccccccssssssscccccccccssssssssssssssscssssssscccccccccccccccccsssssssssssssssscssssssscccccccccccccccccssssssssssssssscssssssscccccccccccccccccssssssscccccccccccccccccssssssssssssssscccccccccssssssscssssssssssssssscccccccccccccccccssssssscssssssscssssssssssssssscccccccccccccccccssssssssssssssscccccccccccccccccssssssscssssssscssssssss" />
  </g>
</svg>
