<?xml version="1.0" encoding="UTF-8" standalone="no"?>
<!-- Created with Inkscape (http://www.inkscape.org/) -->

<svg
   xmlns:dc="http://purl.org/dc/elements/1.1/"
   xmlns:cc="http://creativecommons.org/ns#"
   xmlns:rdf="http://www.w3.org/1999/02/22-rdf-syntax-ns#"
   xmlns:svg="http://www.w3.org/2000/svg"
   xmlns="http://www.w3.org/2000/svg"
   xmlns:sodipodi="http://sodipodi.sourceforge.net/DTD/sodipodi-0.dtd"
   xmlns:inkscape="http://www.inkscape.org/namespaces/inkscape"
   width="210mm"
   height="297mm"
   viewBox="0 0 744.09448819 1052.3622047"
   id="svg2"
   version="1.1"
   inkscape:version="0.91 r13725"
   sodipodi:docname="Hole_3.svg">
  <defs
     id="defs4" />
  <sodipodi:namedview
     id="base"
     pagecolor="#ffffff"
     bordercolor="#666666"
     borderopacity="1.0"
     inkscape:pageopacity="0.0"
     inkscape:pageshadow="2"
     inkscape:zoom="2.2862734"
     inkscape:cx="332.90735"
     inkscape:cy="547.50775"
     inkscape:document-units="px"
     inkscape:current-layer="layer1"
     showgrid="false"
     inkscape:window-width="1440"
     inkscape:window-height="852"
     inkscape:window-x="0"
     inkscape:window-y="0"
     inkscape:window-maximized="1" />
  <metadata
     id="metadata7">
    <rdf:RDF>
      <cc:Work
         rdf:about="">
        <dc:format>image/svg+xml</dc:format>
        <dc:type
           rdf:resource="http://purl.org/dc/dcmitype/StillImage" />
        <dc:title></dc:title>
      </cc:Work>
    </rdf:RDF>
  </metadata>
  <g
     inkscape:label="Ebene 1"
     inkscape:groupmode="layer"
     id="layer1">
    <path
       style="fill:#000000"
       d="m 297.24422,563.83354 c 0.98773,-0.0954 1.9773,-0.21152 2.96786,-0.34815 0.99056,-0.13663 1.98212,-0.29376 2.97383,-0.47118 0.99172,-0.17742 1.98359,-0.37513 2.97478,-0.5929 0.9912,-0.21778 1.98171,-0.45562 2.9707,-0.71331 0.989,-0.2577 1.97648,-0.53524 2.96159,-0.83241 0.98512,-0.29717 1.96789,-0.61398 2.94745,-0.95019 0.97957,-0.33622 1.95595,-0.69185 2.92829,-1.06667 0.97234,-0.37483 1.94064,-0.76885 2.90408,-1.18184 0.32514,-0.13938 0.63435,-0.27334 0.92947,-0.40279 0.29512,-0.12945 0.57614,-0.25438 0.8449,-0.37568 0.26875,-0.1213 0.52524,-0.23897 0.77128,-0.35389 0.24604,-0.11492 0.48164,-0.2271 0.70863,-0.33743 0.22698,-0.11032 0.44535,-0.21879 0.65693,-0.32629 0.21158,-0.1075 0.41637,-0.21403 0.6162,-0.32048 0.19982,-0.10646 0.39469,-0.21283 0.58642,-0.32001 0.19173,-0.10718 0.38032,-0.21517 0.5676,-0.32485 0.77933,-0.45642 1.55393,-0.92418 2.32319,-1.40284 0.76926,-0.47865 1.53318,-0.96819 2.29115,-1.46818 0.75798,-0.49998 1.51,-1.01041 2.25548,-1.53084 0.74547,-0.52043 1.4844,-1.05085 2.21616,-1.59082 0.73176,-0.53997 1.45637,-1.08949 2.17321,-1.64811 0.71684,-0.55863 1.42591,-1.12635 2.12661,-1.70273 0.7007,-0.57638 1.39303,-1.16141 2.07639,-1.75465 0.68335,-0.59324 1.35772,-1.19468 2.02251,-1.80389 0.10533,-0.0965 0.22924,-0.21151 0.37983,-0.35276 0.15059,-0.14125 0.32787,-0.30876 0.53994,-0.51033 0.21208,-0.20158 0.45895,-0.43722 0.74874,-0.71473 0.28979,-0.27751 0.62249,-0.59688 1.00621,-0.96593 0.38372,-0.36904 0.81847,-0.78776 1.31235,-1.26395 0.49389,-0.47619 1.04691,-1.00985 1.66718,-1.60878 0.62027,-0.59894 1.30779,-1.26315 2.07068,-2.00044 0.76288,-0.73729 1.60113,-1.54765 2.52285,-2.4389 l 0.33422,-0.32317 0.33421,-0.32317 0.33422,-0.32316 0.33422,-0.32317 0.33422,-0.32317 0.33421,-0.32317 0.33422,-0.32316 0.33422,-0.32317 0.0379,0.0105 0.0379,0.0105 0.0379,0.0105 0.0379,0.0105 0.0379,0.0105 0.0379,0.0105 0.0379,0.0105 0.0379,0.0105 c 0.0847,0.0235 0.19122,0.0522 0.31548,0.0853 0.12425,0.0331 0.26617,0.0704 0.42151,0.11085 0.15534,0.0405 0.3241,0.0842 0.50201,0.1299 0.17791,0.0457 0.36497,0.0936 0.55694,0.14243 0.19196,0.0489 0.38882,0.0987 0.58632,0.14848 0.1975,0.0498 0.39563,0.0995 0.59015,0.14801 0.19452,0.0485 0.38541,0.0959 0.56843,0.14105 0.18302,0.0451 0.35816,0.088 0.52116,0.12758 1.25919,0.3056 2.52688,0.59835 3.80223,0.87811 1.27536,0.27976 2.55837,0.54654 3.84821,0.8002 1.28984,0.25367 2.5865,0.49422 3.88916,0.72153 1.30265,0.22731 2.61129,0.44139 3.92509,0.64209 1.31379,0.20071 2.63274,0.38805 3.956,0.56189 1.32327,0.17385 2.65085,0.3342 3.98191,0.48093 1.33106,0.14672 2.6656,0.27983 4.00278,0.39919 1.33719,0.11935 2.67701,0.22496 4.01865,0.31669 0.24238,0.0166 0.46451,0.0316 0.67164,0.0455 0.20713,0.0139 0.39928,0.0265 0.5817,0.0383 0.18241,0.0118 0.35511,0.0226 0.52335,0.0329 0.16824,0.0103 0.33202,0.0199 0.49662,0.0293 0.16459,0.009 0.33,0.0185 0.50148,0.0275 0.17148,0.009 0.34904,0.0182 0.53794,0.0275 0.1889,0.009 0.38915,0.0191 0.60601,0.0293 0.21686,0.0103 0.45033,0.0212 0.70568,0.033 0.41672,0.0192 0.79999,0.0364 1.1606,0.0518 0.36061,0.0154 0.69854,0.0289 1.02458,0.0408 0.32604,0.0119 0.64017,0.0222 0.95318,0.0311 0.313,0.009 0.62487,0.0163 0.94638,0.0226 0.32151,0.006 0.65266,0.0113 1.00421,0.0154 0.35156,0.004 0.72352,0.007 1.12665,0.009 0.40314,0.002 0.83745,0.004 1.31371,0.005 0.47626,9.4e-4 0.99446,0.001 1.56538,0.001 0.64304,0 1.24143,-9.4e-4 1.8047,-0.003 0.56326,-0.002 1.09139,-0.005 1.59392,-0.0102 0.50253,-0.005 0.97946,-0.011 1.44032,-0.0189 0.46086,-0.008 0.90564,-0.0175 1.34388,-0.029 0.43824,-0.0115 0.86993,-0.025 1.3046,-0.0407 0.43468,-0.0157 0.87233,-0.0336 1.32249,-0.0539 0.45017,-0.0203 0.91284,-0.0431 1.39754,-0.0686 0.48471,-0.0255 0.99145,-0.0537 1.52976,-0.0848 3.53624,-0.2046 7.04803,-0.50426 10.52709,-0.8966 3.47907,-0.39233 6.92542,-0.87735 10.3308,-1.45265 3.40537,-0.57531 6.76977,-1.24091 10.08492,-1.99441 3.31516,-0.7535 6.58108,-1.59491 9.7895,-2.52184 3.20842,-0.92693 6.35934,-1.93938 9.4445,-3.03496 3.08515,-1.09559 6.10455,-2.2743 9.04993,-3.53377 2.94538,-1.25947 5.81674,-2.59968 8.60582,-4.01826 2.78907,-1.41858 5.49587,-2.91552 8.11212,-4.48844 0.76324,-0.45887 1.5176,-0.92339 2.2629,-1.39345 0.74529,-0.47005 1.48153,-0.94562 2.20852,-1.4266 0.727,-0.48097 1.44475,-0.96734 2.1531,-1.45899 0.70834,-0.49164 1.40727,-0.98855 2.09661,-1.49061 0.68934,-0.50205 1.36909,-1.00925 2.03908,-1.52146 0.66999,-0.51221 1.33021,-1.02944 1.98049,-1.55155 0.65027,-0.52211 1.29061,-1.04911 1.92083,-1.58087 0.63022,-0.53175 1.25033,-1.06827 1.86014,-1.60941 0.24394,-0.21648 0.4994,-0.4467 0.76275,-0.68717 0.26335,-0.24046 0.5346,-0.49117 0.81012,-0.74859 0.27553,-0.25743 0.55533,-0.52159 0.8358,-0.78895 0.28047,-0.26737 0.56161,-0.53795 0.83979,-0.80823 0.27818,-0.27028 0.55341,-0.54026 0.82208,-0.80643 0.26866,-0.26617 0.53076,-0.52852 0.78268,-0.78355 0.25191,-0.25503 0.49365,-0.50274 0.72158,-0.7396 0.22794,-0.23687 0.44208,-0.46289 0.6388,-0.67457 0.93211,-1.00295 1.8288,-2.01273 2.69025,-3.02962 0.86145,-1.01688 1.68764,-2.04086 2.47876,-3.07222 0.79111,-1.03136 1.54715,-2.0701 2.26827,-3.11648 0.72112,-1.04639 1.40732,-2.10042 2.05878,-3.16237 0.65146,-1.06195 1.26818,-2.13183 1.85032,-3.2099 0.58213,-1.07807 1.12969,-2.16433 1.64284,-3.25906 0.51315,-1.09473 0.99188,-2.19793 1.43638,-3.30987 0.44449,-1.11194 0.85474,-2.23263 1.23092,-3.36232 0.366,-1.09914 0.69749,-2.20245 0.99442,-3.30931 0.29693,-1.10687 0.5593,-2.21729 0.78707,-3.33067 0.22776,-1.11338 0.42091,-2.22971 0.57941,-3.34838 0.1585,-1.11868 0.28234,-2.23969 0.37148,-3.36245 0.0891,-1.12276 0.14356,-2.24725 0.16324,-3.37287 0.0197,-1.12563 0.005,-2.25238 -0.0453,-3.37966 -0.0499,-1.12728 -0.13455,-2.25507 -0.25407,-3.38279 -0.11953,-1.12771 -0.27391,-2.25534 -0.46318,-3.38228 -0.23701,-1.41119 -0.52905,-2.81583 -0.87553,-4.21281 -0.34649,-1.39697 -0.74743,-2.78628 -1.20226,-4.16678 -0.45483,-1.38051 -0.96356,-2.75221 -1.52561,-4.11398 -0.56205,-1.36177 -1.17742,-2.7136 -1.84556,-4.05438 -0.66814,-1.34077 -1.38905,-2.67048 -2.16215,-3.988 -0.77311,-1.31752 -1.59841,-2.62284 -2.47536,-3.91484 -0.87694,-1.292 -1.80552,-2.57068 -2.78517,-3.8349 -0.97965,-1.26422 -2.01037,-2.51398 -3.09161,-3.74816 -0.16629,-0.18981 -0.32617,-0.37119 -0.48188,-0.54652 -0.1557,-0.17532 -0.30723,-0.34459 -0.45679,-0.51016 -0.14957,-0.16556 -0.29717,-0.32743 -0.44503,-0.48796 -0.14787,-0.16053 -0.29599,-0.31972 -0.44659,-0.47993 -0.1506,-0.16022 -0.30367,-0.32145 -0.46145,-0.48608 -0.15778,-0.16462 -0.32025,-0.33263 -0.48964,-0.50638 -0.16939,-0.17376 -0.3457,-0.35326 -0.53114,-0.54086 -0.18545,-0.18761 -0.38003,-0.38333 -0.58597,-0.58951 -0.43092,-0.43144 -0.86214,-0.85567 -1.29471,-1.27363 -0.43257,-0.41796 -0.8665,-0.82965 -1.30287,-1.23598 -0.43636,-0.40633 -0.87516,-0.80731 -1.31745,-1.20387 -0.4423,-0.39655 -0.8881,-0.78867 -1.33847,-1.1773 -0.45037,-0.38862 -0.90531,-0.77374 -1.3659,-1.15628 -0.46059,-0.38254 -0.92682,-0.7625 -1.39976,-1.1408 -0.47295,-0.37831 -0.95261,-0.75496 -1.44006,-1.13088 -0.48744,-0.37592 -0.98267,-0.75111 -1.48676,-1.12649 -2.73871,-2.03946 -5.6109,-3.98241 -8.60489,-5.82496 -2.99398,-1.84255 -6.10977,-3.5847 -9.33566,-5.22257 -3.2259,-1.63786 -6.56191,-3.17144 -9.99635,-4.59684 -3.43444,-1.42541 -6.96731,-2.74263 -10.58693,-3.94779 -3.61962,-1.20516 -7.32599,-2.29825 -11.10743,-3.27539 -3.78144,-0.97713 -7.63794,-1.83831 -11.55783,-2.57964 -3.91989,-0.74134 -7.90316,-1.36282 -11.93814,-1.86057 -4.03497,-0.49775 -8.12165,-0.87177 -12.24835,-1.11816 -0.47339,-0.0283 -0.92744,-0.0543 -1.36786,-0.0782 -0.44042,-0.0239 -0.86721,-0.0458 -1.28607,-0.0658 -0.41887,-0.02 -0.82981,-0.0381 -1.23853,-0.0545 -0.40872,-0.0164 -0.81522,-0.0311 -1.22521,-0.0443 -0.40998,-0.0132 -0.82346,-0.0248 -1.24613,-0.0352 -0.42267,-0.0103 -0.85453,-0.0193 -1.30129,-0.0272 -0.44676,-0.008 -0.90842,-0.0145 -1.39069,-0.0202 -0.48226,-0.006 -0.98514,-0.0105 -1.51432,-0.0144 -0.84934,-0.006 -1.68914,-0.008 -2.52136,-0.005 -0.83223,0.003 -1.65687,0.0113 -2.47588,0.0243 -0.81902,0.013 -1.63241,0.0309 -2.44214,0.0538 -0.80972,0.0229 -1.61577,0.0508 -2.42012,0.0838 -0.80434,0.033 -1.60698,0.071 -2.40985,0.11428 -0.80288,0.0432 -1.606,0.0916 -2.41132,0.14522 -0.80533,0.0536 -1.61285,0.11249 -2.42453,0.17667 -0.81169,0.0642 -1.62753,0.13369 -2.44948,0.20859 -3.21292,0.29278 -6.39879,0.6636 -9.55177,1.11067 -3.15298,0.44707 -6.27308,0.97038 -9.35444,1.56815 -3.08136,0.59777 -6.12399,1.27 -9.12205,2.0149 -2.99806,0.7449 -5.95155,1.56247 -8.85462,2.45093 -2.90307,0.88845 -5.75572,1.84779 -8.55212,2.87622 -2.79639,1.02843 -5.53653,2.12595 -8.21457,3.29078 -2.67804,1.16484 -5.29398,2.39697 -7.84197,3.69463 -2.548,1.29766 -5.02805,2.66083 -7.43432,4.08774 -1.17969,0.69955 -2.33956,1.41364 -3.4788,2.14161 -1.13924,0.72798 -2.25786,1.46984 -3.35503,2.22494 -1.09718,0.75511 -2.17292,1.52346 -3.22641,2.3044 -1.05349,0.78094 -2.08473,1.57447 -3.09291,2.37996 -1.00818,0.80548 -1.9933,1.6229 -2.95456,2.45163 -0.96125,0.82873 -1.89863,1.66875 -2.81133,2.51943 -0.9127,0.85067 -1.80072,1.712 -2.66325,2.58333 -0.86253,0.87133 -1.69957,1.75266 -2.5103,2.64335 -1.68849,1.85501 -3.26025,3.74533 -4.71388,5.66698 -1.45363,1.92165 -2.78913,3.87463 -4.00508,5.85495 -1.21596,1.98032 -2.31237,3.98799 -3.28784,6.01901 -0.97546,2.03102 -1.82998,4.0854 -2.56214,6.15915 -0.73216,2.07374 -1.34196,4.16686 -1.828,6.27536 -0.48604,2.1085 -0.84832,4.23239 -1.08543,6.36767 -0.2371,2.13528 -0.34904,4.28196 -0.33439,6.43606 0.0146,2.15409 0.15586,4.31559 0.42507,6.48052 0.14027,1.12803 0.31668,2.25472 0.52883,3.37902 0.21215,1.12429 0.46003,2.24619 0.74323,3.36461 0.28321,1.11843 0.60174,2.23339 0.95519,3.34383 0.35344,1.11043 0.7418,2.21633 1.16467,3.31664 0.42287,1.10031 0.88024,2.19502 1.37171,3.28308 0.49148,1.08805 1.01704,2.16944 1.5763,3.24311 0.55926,1.07367 1.1522,2.13962 1.77842,3.19678 0.62623,1.05715 1.28573,2.10552 1.9781,3.14403 0.57357,0.86032 1.17209,1.71679 1.79443,2.56821 0.62235,0.85142 1.26851,1.69779 1.93736,2.53788 0.66885,0.8401 1.3604,1.67393 2.0735,2.50027 0.71309,0.82634 1.44775,1.6452 2.20283,2.45536 0.75508,0.81016 1.53059,1.61162 2.32538,2.40317 0.7948,0.79155 1.60889,1.57318 2.44114,2.34368 0.83225,0.77051 1.68267,1.52989 2.55011,2.27692 0.86744,0.74703 1.7519,1.48173 2.65227,2.20286 0.0485,0.0388 0.096,0.0771 0.14212,0.11438 0.0461,0.0373 0.0909,0.0737 0.13367,0.10864 0.0428,0.035 0.0837,0.0686 0.12223,0.1004 0.0385,0.0318 0.0746,0.0618 0.10778,0.0896 0.0332,0.0278 0.0635,0.0534 0.0903,0.0763 0.0269,0.023 0.0503,0.0433 0.0699,0.0605 0.0195,0.0173 0.0352,0.0315 0.0464,0.0422 0.0112,0.0107 0.018,0.018 0.0199,0.0214 0.002,0.003 0.005,0.0121 0.0101,0.0256 0.005,0.0135 0.011,0.0318 0.0183,0.0543 0.007,0.0225 0.0159,0.0492 0.0255,0.0796 0.01,0.0304 0.0202,0.0644 0.0316,0.1016 0.0114,0.0371 0.0237,0.0774 0.0367,0.1202 0.0129,0.0428 0.0266,0.0881 0.0407,0.13544 0.0141,0.0473 0.0288,0.0966 0.0437,0.14731 0.015,0.0507 0.0302,0.10284 0.0457,0.15583 0.1405,0.48205 0.27356,0.96109 0.39941,1.43836 0.12585,0.47727 0.24449,0.95277 0.35613,1.42774 0.11164,0.47498 0.21629,0.94943 0.31417,1.4246 0.0979,0.47517 0.18898,0.95105 0.27353,1.42889 0.0845,0.47784 0.16254,0.95764 0.2342,1.44063 0.0717,0.483 0.13699,0.9692 0.1962,1.45983 0.0592,0.49064 0.11231,0.98572 0.15951,1.48648 0.0472,0.50076 0.0885,1.00721 0.12414,1.52058 0.0117,0.16913 0.0226,0.36824 0.0324,0.58999 0.01,0.22174 0.0187,0.46612 0.0266,0.72579 0.008,0.25968 0.0146,0.53464 0.0202,0.81756 0.006,0.28292 0.0101,0.57379 0.0134,0.86527 0.003,0.29148 0.005,0.58357 0.006,0.86893 7.3e-4,0.28536 1.4e-4,0.56399 -0.002,0.82854 -0.002,0.26455 -0.005,0.51503 -0.0102,0.7441 -0.005,0.22907 -0.0111,0.43672 -0.019,0.61561 -0.0537,1.22222 -0.14181,2.44598 -0.26497,3.67318 -0.12316,1.22721 -0.28133,2.45786 -0.47503,3.69389 -0.19369,1.23602 -0.42291,2.47741 -0.68816,3.72609 -0.26525,1.24867 -0.56653,2.50463 -0.90437,3.76979 -0.33783,1.26517 -0.7122,2.53953 -1.12364,3.82501 -0.41143,1.28548 -0.85992,2.58208 -1.34599,3.89172 -0.48606,1.30963 -1.00969,2.6323 -1.5714,3.96993 -0.56172,1.33762 -1.16151,2.69019 -1.7999,4.05964 -0.0923,0.19792 -0.19946,0.42363 -0.31763,0.6693 -0.11818,0.24566 -0.24735,0.51129 -0.38356,0.78905 -0.1362,0.27777 -0.27945,0.56766 -0.4258,0.86186 -0.14635,0.29421 -0.2958,0.59271 -0.44441,0.8877 -0.14861,0.29499 -0.29637,0.58645 -0.43934,0.86657 -0.14298,0.28012 -0.28117,0.54889 -0.41063,0.79848 -0.12946,0.2496 -0.25019,0.48001 -0.35825,0.68343 -0.10806,0.20341 -0.20344,0.37983 -0.28221,0.52141 -0.008,0.0151 -0.0212,0.0386 -0.0378,0.0694 -0.0166,0.0308 -0.0371,0.0689 -0.0609,0.1134 -0.0238,0.0445 -0.0509,0.0953 -0.0807,0.15145 -0.0299,0.0562 -0.0625,0.11766 -0.0974,0.18351 -0.0349,0.0659 -0.0721,0.13607 -0.11099,0.20964 -0.0389,0.0736 -0.0795,0.1505 -0.12138,0.22979 -0.0418,0.0793 -0.0849,0.16095 -0.1286,0.24398 -0.0437,0.083 -0.0881,0.16743 -0.13267,0.25221 -0.0445,0.0848 -0.0893,0.16988 -0.13374,0.25424 -0.0444,0.0843 -0.0885,0.16796 -0.13165,0.24977 -0.0432,0.0818 -0.0854,0.16181 -0.12621,0.23895 -0.0408,0.0771 -0.0801,0.15141 -0.11737,0.22176 -0.0373,0.0703 -0.0725,0.13677 -0.10517,0.1982 -0.0327,0.0614 -0.0627,0.11788 -0.0896,0.16828 -0.0269,0.0504 -0.0506,0.0948 -0.0707,0.13199 -0.02,0.0372 -0.0363,0.0674 -0.0483,0.0893 -0.026,0.0476 -0.0506,0.0888 -0.0711,0.12423 -0.0205,0.0354 -0.0371,0.0651 -0.0472,0.0896 -0.0101,0.0245 -0.0137,0.0439 -0.008,0.0587 0.005,0.0148 0.0196,0.0251 0.0452,0.0315 0.0257,0.006 0.0627,0.009 0.11368,0.008 0.051,-8.4e-4 0.1158,-0.005 0.197,-0.0118 0.0812,-0.007 0.17877,-0.0163 0.29517,-0.0279 0.1164,-0.0116 0.25164,-0.0253 0.40819,-0.0404 l 0,0 1e-5,-10e-6 0,0 0,-1e-5 0,0 10e-6,0 0,-10e-6 z m 46.72865,-92.82367 c -0.66488,-0.0365 -1.31987,-0.10361 -1.96378,-0.20065 -0.64391,-0.097 -1.27674,-0.22402 -1.8973,-0.38041 -0.62057,-0.15639 -1.22887,-0.34217 -1.82372,-0.55678 -0.59486,-0.21461 -1.17626,-0.45805 -1.74303,-0.72974 -0.56678,-0.2717 -1.11892,-0.57165 -1.65524,-0.8993 -0.53632,-0.32764 -1.05683,-0.68298 -1.56033,-1.06544 -0.50351,-0.38246 -0.99001,-0.79204 -1.45833,-1.22818 -0.46832,-0.43614 -0.91845,-0.89883 -1.34921,-1.38751 -0.31938,-0.36232 -0.62338,-0.73479 -0.91176,-1.11688 -0.28838,-0.38208 -0.56114,-0.77378 -0.81805,-1.17456 -0.2569,-0.40078 -0.49796,-0.81064 -0.72292,-1.22906 -0.22497,-0.41842 -0.43384,-0.84539 -0.6264,-1.28038 -0.19255,-0.43499 -0.36878,-0.878 -0.52845,-1.32851 -0.15968,-0.45051 -0.30279,-0.90851 -0.42911,-1.37347 -0.12632,-0.46496 -0.23585,-0.93688 -0.32835,-1.41523 -0.0925,-0.47835 -0.16798,-0.96314 -0.22619,-1.45382 -0.014,-0.1179 -0.0262,-0.25717 -0.0367,-0.41245 -0.0105,-0.15527 -0.0192,-0.32655 -0.0262,-0.50847 -0.007,-0.18192 -0.0122,-0.37447 -0.0157,-0.57228 -0.003,-0.19782 -0.005,-0.4009 -0.005,-0.60387 4e-5,-0.20297 0.002,-0.40584 0.005,-0.60323 0.004,-0.1974 0.009,-0.38931 0.0159,-0.57038 0.007,-0.18108 0.0158,-0.3513 0.0264,-0.50531 0.0105,-0.15401 0.0228,-0.2918 0.0368,-0.40801 0.0335,-0.27707 0.072,-0.55155 0.11575,-0.82347 0.0437,-0.27192 0.0926,-0.54128 0.14658,-0.8081 0.054,-0.26682 0.11315,-0.53111 0.17745,-0.79288 0.0643,-0.26177 0.13377,-0.52104 0.20838,-0.77781 0.0746,-0.25678 0.1544,-0.51107 0.23935,-0.7629 0.0849,-0.25183 0.17507,-0.5012 0.27036,-0.74814 0.0953,-0.24693 0.19576,-0.49143 0.30141,-0.73352 0.10565,-0.24209 0.21648,-0.48177 0.33251,-0.71907 0.323,-0.6606 0.6826,-1.29833 1.07579,-1.91084 0.39318,-0.61251 0.81995,-1.1998 1.27728,-1.75953 0.45732,-0.55974 0.94521,-1.09191 1.46064,-1.59418 0.51543,-0.50226 1.05839,-0.97463 1.62587,-1.41474 0.56749,-0.44011 1.15948,-0.84798 1.77298,-1.22125 0.61349,-0.37327 1.24848,-0.71195 1.90193,-1.0137 0.65346,-0.30174 1.32539,-0.56655 2.01278,-0.79207 0.68738,-0.22553 1.39021,-0.41178 2.10547,-0.5564 0.1874,-0.0379 0.3594,-0.0718 0.52048,-0.10208 0.16108,-0.0303 0.31124,-0.057 0.45494,-0.0805 0.1437,-0.0235 0.28096,-0.0439 0.41623,-0.0614 0.13528,-0.0176 0.26857,-0.0324 0.40437,-0.0448 0.13579,-0.0124 0.27408,-0.0225 0.41934,-0.0306 0.14526,-0.008 0.29749,-0.0143 0.46116,-0.0189 0.16367,-0.005 0.33879,-0.008 0.52982,-0.01 0.19103,-0.002 0.39798,-0.003 0.62532,-0.003 0.21812,-6e-5 0.41553,3.9e-4 0.59652,0.002 0.181,0.001 0.34559,0.003 0.49805,0.007 0.15246,0.003 0.29281,0.008 0.42533,0.0139 0.13251,0.006 0.25721,0.0136 0.37836,0.023 0.12116,0.009 0.23879,0.0207 0.35717,0.0341 0.11838,0.0135 0.23753,0.0291 0.36172,0.0472 0.1242,0.0181 0.25345,0.0388 0.39204,0.0623 0.1386,0.0235 0.28654,0.0499 0.44812,0.0795 0.55956,0.10237 1.11231,0.22966 1.65682,0.38099 0.54451,0.15134 1.08077,0.32671 1.60734,0.52527 0.52656,0.19856 1.04342,0.4203 1.54914,0.66435 0.50572,0.24406 1.00029,0.51043 1.48227,0.79825 0.48198,0.28782 0.95136,0.59709 1.40669,0.92694 0.45534,0.32985 0.89663,0.68029 1.32243,1.05045 0.42579,0.37016 0.8361,0.76003 1.22945,1.16876 0.39336,0.40873 0.76978,0.83632 1.1278,1.28189 0.19962,0.24843 0.39312,0.50242 0.5802,0.76136 0.18708,0.25893 0.36774,0.52282 0.54165,0.79105 0.17392,0.26823 0.34111,0.54081 0.50124,0.81712 0.16013,0.27631 0.31322,0.55637 0.45894,0.83955 0.14573,0.28318 0.28409,0.5695 0.41479,0.85835 0.13069,0.28884 0.25371,0.58021 0.36875,0.8735 0.11504,0.29329 0.22209,0.5885 0.32085,0.88503 0.0988,0.29653 0.18922,0.59437 0.27108,0.89292 0.12694,0.46297 0.23649,0.92755 0.32869,1.39312 0.0922,0.46556 0.16702,0.93211 0.22451,1.39901 0.0575,0.46691 0.0976,0.93416 0.12042,1.40114 0.0228,0.46698 0.0283,0.93368 0.0164,1.39947 -0.0118,0.4658 -0.041,0.93068 -0.0874,1.39403 -0.0465,0.46335 -0.11021,0.92516 -0.19124,1.38481 -0.081,0.45964 -0.17936,0.91711 -0.29494,1.37179 -0.11559,0.45468 -0.24844,0.90656 -0.39854,1.35501 -0.14371,0.42936 -0.30289,0.85273 -0.477,1.26936 -0.17411,0.41662 -0.36315,0.8265 -0.56659,1.22888 -0.20343,0.40237 -0.42127,0.79723 -0.65297,1.18383 -0.23171,0.3866 -0.47727,0.76493 -0.73617,1.13423 -0.2589,0.3693 -0.53112,0.72957 -0.81615,1.08004 -0.28503,0.35048 -0.58285,0.69117 -0.89294,1.02131 -0.31008,0.33014 -0.63244,0.64972 -0.96652,0.958 -0.33408,0.30827 -0.67989,0.60523 -1.0369,0.89012 -0.3572,0.28504 -0.72278,0.55608 -1.09626,0.81291 -0.37348,0.25684 -0.75486,0.49948 -1.14363,0.72772 -0.38878,0.22823 -0.78496,0.44207 -1.18806,0.6413 -0.40309,0.19924 -0.81309,0.38387 -1.22951,0.5537 -0.41642,0.16983 -0.83926,0.32485 -1.26803,0.46488 -0.42877,0.14002 -0.86346,0.26504 -1.30359,0.37486 -0.44012,0.10981 -0.88568,0.20442 -1.33619,0.28363 -0.4505,0.0792 -0.90595,0.14301 -1.36584,0.19121 -0.0773,0.008 -0.16992,0.0159 -0.27387,0.0234 -0.10396,0.007 -0.21925,0.0146 -0.34188,0.0212 -0.12263,0.007 -0.25259,0.0128 -0.38591,0.0183 -0.13331,0.006 -0.26998,0.0104 -0.40599,0.0146 -0.13601,0.004 -0.27138,0.008 -0.4021,0.0102 -0.13072,0.003 -0.2568,0.004 -0.37424,0.005 -0.11745,7.3e-4 -0.22626,4.8e-4 -0.32243,-8.7e-4 -0.0962,-0.001 -0.17973,-0.004 -0.24665,-0.007 l 0,0 0,0 0,1e-5 0,0 0,0 0,0 0,10e-6 z m 61.10839,-9.3e-4 c -0.51404,-0.0274 -1.0221,-0.0735 -1.52396,-0.13836 -0.50185,-0.0648 -0.99751,-0.14836 -1.48675,-0.2505 -0.48923,-0.10213 -0.97205,-0.22287 -1.44823,-0.36214 -0.47618,-0.13927 -0.94572,-0.29706 -1.40841,-0.47329 -0.46269,-0.17623 -0.91852,-0.3709 -1.36728,-0.58393 -0.44875,-0.21303 -0.89044,-0.44442 -1.32483,-0.69408 -0.4344,-0.24967 -0.8615,-0.51761 -1.28109,-0.80374 -0.41959,-0.28613 -0.83167,-0.59045 -1.23603,-0.91288 -0.0906,-0.0723 -0.19362,-0.15925 -0.30562,-0.25759 -0.11199,-0.0983 -0.23299,-0.20802 -0.35962,-0.32568 -0.12663,-0.11766 -0.25891,-0.24329 -0.39345,-0.37354 -0.13455,-0.13024 -0.27138,-0.26509 -0.40712,-0.40117 -0.13573,-0.13609 -0.27039,-0.27341 -0.40059,-0.40859 -0.1302,-0.13519 -0.25596,-0.26824 -0.3739,-0.39578 -0.11795,-0.12754 -0.22808,-0.24957 -0.32704,-0.36273 -0.099,-0.11316 -0.18675,-0.21744 -0.26,-0.30947 -0.28263,-0.35509 -0.55048,-0.71426 -0.80375,-1.07801 -0.25327,-0.36375 -0.49197,-0.73207 -0.7163,-1.10546 -0.22434,-0.3734 -0.43431,-0.75187 -0.63013,-1.13591 -0.19582,-0.38403 -0.37748,-0.77364 -0.5452,-1.16931 -0.16773,-0.39567 -0.32151,-0.79741 -0.46155,-1.2057 -0.14005,-0.4083 -0.26637,-0.82316 -0.37916,-1.24507 -0.11279,-0.42192 -0.21206,-0.85089 -0.29802,-1.28742 -0.086,-0.43653 -0.15861,-0.88061 -0.21816,-1.33274 -0.0166,-0.12572 -0.0312,-0.27355 -0.044,-0.43792 -0.0128,-0.16437 -0.0236,-0.34529 -0.0325,-0.53719 -0.009,-0.19189 -0.0159,-0.39477 -0.0208,-0.60305 -0.005,-0.20828 -0.008,-0.42197 -0.009,-0.63549 -0.001,-0.21353 -5e-5,-0.4269 0.003,-0.63454 0.003,-0.20764 0.008,-0.40955 0.0151,-0.60017 0.007,-0.19061 0.0162,-0.36993 0.0274,-0.53238 0.0112,-0.16246 0.0245,-0.30805 0.0398,-0.4312 0.0499,-0.39986 0.10936,-0.79224 0.17863,-1.17781 0.0693,-0.38558 0.14837,-0.76434 0.23752,-1.13696 0.0892,-0.37263 0.18838,-0.73911 0.29791,-1.10013 0.10954,-0.36102 0.22938,-0.71658 0.3598,-1.06734 0.13041,-0.35076 0.27138,-0.69672 0.42317,-1.03856 0.15179,-0.34184 0.31439,-0.67956 0.48806,-1.01383 0.17366,-0.33426 0.35839,-0.66508 0.55443,-0.99311 0.19604,-0.32803 0.4034,-0.65329 0.62231,-0.97643 0.20191,-0.29804 0.41404,-0.59135 0.63561,-0.87919 0.22156,-0.28785 0.45256,-0.57023 0.69219,-0.84642 0.23964,-0.27619 0.48791,-0.54619 0.74404,-0.80927 0.25612,-0.26309 0.52009,-0.51926 0.79112,-0.76779 0.27103,-0.24854 0.54912,-0.48943 0.83347,-0.72195 0.28435,-0.23253 0.57497,-0.45669 0.87106,-0.67176 0.2961,-0.21507 0.59766,-0.42105 0.90392,-0.61722 0.30625,-0.19616 0.61718,-0.38251 0.93201,-0.55831 0.30152,-0.16837 0.60502,-0.32777 0.91079,-0.47828 0.30578,-0.15051 0.61383,-0.29213 0.92446,-0.42496 0.31064,-0.13282 0.62384,-0.25685 0.93993,-0.37218 0.31609,-0.11533 0.63505,-0.22195 0.95719,-0.31996 0.32214,-0.098 0.64745,-0.1874 0.97625,-0.26828 0.32879,-0.0809 0.66106,-0.15322 0.99711,-0.21714 0.33604,-0.0639 0.67586,-0.11941 1.01976,-0.16656 0.3439,-0.0472 0.69187,-0.086 1.04422,-0.11652 0.11049,-0.01 0.24183,-0.0172 0.38873,-0.023 0.1469,-0.006 0.30937,-0.01 0.4821,-0.0119 0.17273,-0.002 0.35573,-0.003 0.54371,-0.002 0.18798,0.001 0.38094,0.004 0.57358,0.008 0.19265,0.004 0.38498,0.01 0.57171,0.0171 0.18673,0.007 0.36786,0.0156 0.5381,0.0254 0.17023,0.01 0.32957,0.0208 0.47273,0.033 0.14315,0.0122 0.27012,0.0255 0.37562,0.0399 0.60692,0.0826 1.20315,0.19046 1.788,0.32335 0.58486,0.13288 1.15833,0.29075 1.71974,0.4732 0.56141,0.18246 1.11074,0.38951 1.64732,0.62078 0.53657,0.23127 1.06038,0.48676 1.57074,0.76609 0.51036,0.27933 1.00726,0.58249 1.49001,0.90911 0.48275,0.32663 0.95136,0.67671 1.40513,1.04988 0.45376,0.37316 0.89269,0.7694 1.31608,1.18835 0.42339,0.41894 0.83126,0.86059 1.22289,1.32456 0.48309,0.57231 0.92817,1.17002 1.33437,1.78933 0.4062,0.61931 0.77352,1.26022 1.10108,1.91895 0.32756,0.65872 0.61536,1.33526 0.86253,2.02581 0.24717,0.69055 0.45371,1.39513 0.61874,2.10993 0.16503,0.7148 0.28855,1.43983 0.36969,2.1713 0.0811,0.73147 0.11989,1.46937 0.11539,2.20992 -0.005,0.74054 -0.0523,1.48374 -0.14417,2.22578 -0.0919,0.74205 -0.22793,1.48295 -0.40897,2.21891 -0.15135,0.61526 -0.33386,1.2203 -0.54603,1.81315 -0.21218,0.59285 -0.45404,1.1735 -0.72408,1.74 -0.27005,0.56649 -0.56828,1.11882 -0.89323,1.65502 -0.32495,0.53619 -0.67661,1.05625 -1.05349,1.55819 -0.37689,0.50195 -0.77901,0.98579 -1.20487,1.44954 -0.42586,0.46375 -0.87547,0.90742 -1.34735,1.32903 -0.47187,0.42162 -0.96602,0.82117 -1.48094,1.1967 -0.51493,0.37553 -1.05064,0.72702 -1.60565,1.05252 -0.0797,0.0468 -0.1689,0.097 -0.26529,0.14973 -0.0964,0.0527 -0.20003,0.10785 -0.30877,0.16441 -0.10874,0.0566 -0.22257,0.11454 -0.33935,0.17289 -0.11678,0.0584 -0.2365,0.11708 -0.35702,0.17515 -0.12053,0.0581 -0.24185,0.11547 -0.36181,0.17119 -0.11997,0.0557 -0.23859,0.10973 -0.3537,0.16102 -0.11511,0.0513 -0.22672,0.0998 -0.33268,0.14463 -0.10596,0.0448 -0.20626,0.0858 -0.29877,0.12204 -0.20083,0.0786 -0.40242,0.1537 -0.60487,0.22522 -0.20246,0.0715 -0.40578,0.13947 -0.61008,0.20391 -0.2043,0.0644 -0.40958,0.12536 -0.61594,0.18278 -0.20636,0.0574 -0.4138,0.11134 -0.62243,0.16179 -0.20863,0.0505 -0.41844,0.0974 -0.62956,0.14096 -0.21111,0.0435 -0.42353,0.0836 -0.63734,0.12028 -0.21381,0.0367 -0.42903,0.0699 -0.64576,0.0998 -0.21673,0.0299 -0.43496,0.0563 -0.65482,0.0794 -0.0779,0.008 -0.17148,0.0161 -0.27673,0.0236 -0.10526,0.008 -0.22218,0.0146 -0.34673,0.0213 -0.12455,0.007 -0.25674,0.0127 -0.39253,0.0182 -0.13578,0.005 -0.27517,0.0103 -0.41413,0.0145 -0.13895,0.004 -0.27747,0.007 -0.41153,0.01 -0.13406,0.002 -0.26365,0.004 -0.38474,0.005 -0.12109,6.4e-4 -0.23368,3e-4 -0.33374,-0.001 -0.10007,-0.001 -0.18759,-0.004 -0.25856,-0.008 l 0,0 0,0 0,1e-5 0,0 0,0 0,0 0,10e-6 z m 60.88818,-0.0181 c -0.25082,-0.0164 -0.50118,-0.0376 -0.75093,-0.0636 -0.24976,-0.026 -0.49891,-0.0568 -0.74732,-0.0924 -0.2484,-0.0356 -0.49606,-0.076 -0.74282,-0.1211 -0.24677,-0.0451 -0.49264,-0.095 -0.73748,-0.14956 -0.24483,-0.0546 -0.48863,-0.11387 -0.73125,-0.17784 -0.24262,-0.064 -0.48406,-0.13262 -0.72417,-0.20591 -0.24012,-0.0733 -0.47891,-0.15125 -0.71622,-0.23381 -0.23732,-0.0826 -0.47317,-0.16973 -0.70741,-0.26149 -0.0348,-0.0136 -0.0753,-0.0302 -0.12062,-0.0492 -0.0453,-0.019 -0.0953,-0.0405 -0.14901,-0.0639 -0.0538,-0.0235 -0.11127,-0.0489 -0.17155,-0.076 -0.0603,-0.027 -0.12335,-0.0556 -0.1882,-0.0853 -0.0649,-0.0297 -0.13152,-0.0605 -0.199,-0.092 -0.0675,-0.0315 -0.13577,-0.0636 -0.2039,-0.096 -0.0681,-0.0324 -0.13612,-0.0649 -0.20295,-0.0973 -0.0668,-0.0323 -0.13254,-0.0644 -0.19613,-0.0959 -0.66855,-0.33034 -1.3136,-0.69903 -1.93257,-1.10263 -0.61897,-0.4036 -1.21186,-0.84213 -1.7761,-1.31216 -0.56423,-0.47003 -1.09981,-0.97157 -1.60416,-1.5012 -0.50435,-0.52964 -0.97746,-1.08736 -1.41677,-1.66976 -0.43931,-0.5824 -0.84481,-1.18948 -1.21393,-1.81782 -0.36912,-0.62834 -0.70185,-1.27794 -0.99563,-1.94539 -0.29378,-0.66745 -0.54859,-1.35275 -0.76187,-2.05248 -0.21329,-0.69973 -0.38503,-1.41389 -0.51267,-2.13907 -0.0302,-0.17151 -0.057,-0.32634 -0.0807,-0.46932 -0.0238,-0.14298 -0.0445,-0.27411 -0.0626,-0.39825 -0.0181,-0.12413 -0.0336,-0.24125 -0.0468,-0.35622 -0.0132,-0.11496 -0.0241,-0.22777 -0.0332,-0.34325 -0.009,-0.11548 -0.0162,-0.23364 -0.0219,-0.35932 -0.006,-0.12568 -0.01,-0.25888 -0.0129,-0.40444 -0.003,-0.14556 -0.005,-0.30348 -0.006,-0.47861 -0.001,-0.17513 -0.002,-0.36746 -0.002,-0.58183 -6e-5,-0.17686 7e-5,-0.33594 5.1e-4,-0.48016 4.4e-4,-0.14422 0.001,-0.27357 0.002,-0.39095 0.001,-0.11738 0.003,-0.2228 0.005,-0.31913 0.002,-0.0963 0.005,-0.18361 0.008,-0.2647 0.003,-0.0811 0.007,-0.15601 0.0123,-0.22766 0.005,-0.0716 0.0105,-0.14001 0.017,-0.208 0.007,-0.068 0.014,-0.13561 0.0225,-0.20574 0.008,-0.0701 0.018,-0.14279 0.0287,-0.22087 0.0393,-0.28742 0.0818,-0.56597 0.12814,-0.83728 0.0463,-0.27131 0.0963,-0.53538 0.15055,-0.79384 0.0542,-0.25846 0.11273,-0.5113 0.17593,-0.76016 0.0632,-0.24886 0.13111,-0.49374 0.20423,-0.73625 0.0731,-0.24252 0.15146,-0.48268 0.23549,-0.72211 0.084,-0.23943 0.17376,-0.47813 0.26968,-0.71773 0.0959,-0.2396 0.19804,-0.4801 0.30683,-0.72312 0.1088,-0.24302 0.22427,-0.48857 0.34692,-0.73827 0.15729,-0.32024 0.32369,-0.63567 0.49895,-0.94598 0.17525,-0.31032 0.35936,-0.61551 0.55206,-0.91528 0.19271,-0.29977 0.39402,-0.59412 0.60368,-0.88273 0.20966,-0.28861 0.42766,-0.57148 0.65377,-0.84832 0.2261,-0.27683 0.46031,-0.54762 0.70236,-0.81206 0.24205,-0.26444 0.49194,-0.52253 0.74943,-0.77397 0.25749,-0.25143 0.52258,-0.4962 0.795,-0.73401 0.27243,-0.23781 0.5522,-0.46864 0.83906,-0.69221 0.31911,-0.2487 0.64916,-0.48767 0.98866,-0.71628 0.33951,-0.22861 0.68847,-0.44687 1.04544,-0.65417 0.35697,-0.20729 0.72193,-0.40361 1.09342,-0.58835 0.3715,-0.18474 0.74953,-0.3579 1.13262,-0.51886 0.38309,-0.16095 0.77125,-0.30971 1.16301,-0.44565 0.39175,-0.13595 0.78711,-0.25907 1.18461,-0.36877 0.39749,-0.10969 0.79712,-0.20596 1.19741,-0.28818 0.4003,-0.0822 0.80126,-0.15038 1.20143,-0.20389 0.16548,-0.0221 0.33863,-0.0421 0.51747,-0.0598 0.17884,-0.0178 0.36336,-0.0333 0.5516,-0.0466 0.18824,-0.0133 0.38019,-0.0243 0.57386,-0.0331 0.19368,-0.009 0.38908,-0.0152 0.58424,-0.0193 0.19515,-0.004 0.39005,-0.006 0.58272,-0.005 0.19267,6.1e-4 0.38311,0.004 0.56933,0.009 0.18623,0.005 0.36824,0.0132 0.54406,0.0235 0.17581,0.0103 0.34544,0.023 0.50689,0.0383 0.71136,0.0672 1.41452,0.17424 2.10657,0.31939 0.69204,0.14515 1.37295,0.32841 2.03982,0.54802 0.66686,0.21961 1.31966,0.47557 1.95548,0.76613 0.63582,0.29056 1.25465,0.61572 1.85356,0.97373 0.59891,0.35801 1.1779,0.74886 1.73404,1.17081 0.55614,0.42195 1.08943,0.875 1.59693,1.35739 0.50751,0.48238 0.98923,0.99411 1.44224,1.53343 0.45301,0.53932 0.87731,1.10623 1.26996,1.69898 0.0719,0.10849 0.13782,0.20872 0.1991,0.30282 0.0613,0.0941 0.1179,0.18209 0.17108,0.2661 0.0532,0.084 0.10294,0.16405 0.15051,0.24225 0.0476,0.0782 0.093,0.15458 0.13741,0.23128 0.0444,0.0767 0.088,0.15369 0.13177,0.23316 0.0438,0.0795 0.0879,0.1614 0.13358,0.24794 0.0456,0.0865 0.0929,0.17768 0.14285,0.27557 0.05,0.0979 0.10277,0.20255 0.15959,0.31609 0.22344,0.44655 0.42803,0.90271 0.61356,1.36695 0.18552,0.46423 0.35198,0.93655 0.49916,1.41542 0.14719,0.47886 0.27509,0.96429 0.38351,1.45473 0.10841,0.49045 0.19734,0.98593 0.26657,1.4849 0.0692,0.49898 0.11875,1.00145 0.14837,1.5059 0.0296,0.50445 0.0393,1.01088 0.0289,1.51775 -0.0104,0.50688 -0.041,1.0142 -0.0919,1.52044 -0.0509,0.50624 -0.1221,1.01141 -0.21387,1.51397 -0.11452,0.62715 -0.26071,1.24542 -0.43723,1.85277 -0.17652,0.60735 -0.38338,1.20379 -0.61922,1.78729 -0.23584,0.5835 -0.50068,1.15405 -0.79316,1.70964 -0.29248,0.55558 -0.6126,1.09619 -0.95903,1.6198 -0.34643,0.52361 -0.71917,1.03022 -1.11686,1.51779 -0.39769,0.48758 -0.82035,0.95613 -1.26662,1.40361 -0.44628,0.44749 -0.91617,0.87391 -1.40834,1.27725 -0.49216,0.40334 -1.0066,0.78358 -1.54198,1.13871 -0.11407,0.0757 -0.22044,0.14561 -0.3212,0.21101 -0.10076,0.0654 -0.19589,0.12628 -0.28748,0.18378 -0.0916,0.0575 -0.17961,0.11165 -0.26616,0.1636 -0.0865,0.052 -0.17162,0.10173 -0.25727,0.1505 -0.0856,0.0488 -0.17188,0.0965 -0.26077,0.14446 -0.0889,0.0479 -0.18043,0.096 -0.2767,0.14549 -0.0963,0.0494 -0.19725,0.10025 -0.30503,0.15358 -0.10778,0.0533 -0.22235,0.10918 -0.34578,0.16874 -0.24514,0.11829 -0.492,0.23091 -0.74066,0.33789 -0.24866,0.10698 -0.49911,0.20832 -0.75144,0.30403 -0.25233,0.0957 -0.50653,0.1858 -0.76267,0.27029 -0.25615,0.0845 -0.51424,0.16337 -0.77436,0.23667 -0.26012,0.0733 -0.52226,0.14103 -0.7865,0.2032 -0.26424,0.0622 -0.53058,0.11876 -0.7991,0.16983 -0.26851,0.0511 -0.5392,0.0966 -0.81214,0.13661 -0.27294,0.04 -0.54813,0.0745 -0.82565,0.1035 -0.1007,0.0105 -0.21299,0.0203 -0.33389,0.0291 -0.1209,0.009 -0.25041,0.0169 -0.38556,0.024 -0.13516,0.007 -0.27596,0.0133 -0.41943,0.0185 -0.14347,0.005 -0.28962,0.009 -0.43547,0.0126 -0.14584,0.003 -0.2914,0.005 -0.43368,0.006 -0.14229,9.9e-4 -0.28131,8.8e-4 -0.4141,-4.2e-4 -0.13278,-0.001 -0.25933,-0.004 -0.37668,-0.007 -0.11734,-0.004 -0.22548,-0.009 -0.32144,-0.0149 z"
       id="path4201"
       inkscape:connector-curvature="0"
       sodipodi:nodetypes="cssssssssssssssssssssssssssssssssccccccccccccccccssssssssssssssssssssssssssssssscssssssssssssssssssssssssssssssssssssssssssssssssssssssssssssssssssssssssssssssssssssssssssssssssssssssssssssssssssssssssssssssssssssssssssssssscssssssscssssssscssssssscssssssssssssssscssssssssssssssscsssssssccccccccccssssssssssssssssssssssssssssssssssssssssssssssssssssssscsssssssssssssssssssssssssssssssssssssssssssssssccccccccccssssssssssssssssssssssssssssssssssssssssssssssssssssssscssssssssssssssssssssssssssssssssssssssssssssssscssssssscccccccccsssssssscssssssscssssssssssssssssssssssscssssssssssssssssssssssssssssssscssssssssssssssssssssssssssssssssssssssssssssssscssssssss" />
  </g>
</svg>
