<?xml version="1.0" encoding="UTF-8"?>
<svg width="1110px" height="1009px" viewBox="0 0 1110 1009" version="1.1" xmlns="http://www.w3.org/2000/svg" xmlns:xlink="http://www.w3.org/1999/xlink">
    <!-- Generator: Sketch 52.4 (67378) - http://www.bohemiancoding.com/sketch -->
    <title>Logo Vertical@1x</title>
    <desc>Created with Sketch.</desc>
    <g id="Branding" stroke="none" stroke-width="1" fill="none" fill-rule="evenodd">
        <g id="Logo-Vertical" transform="translate(-181.000000, -279.000000)">
            <g transform="translate(181.000000, 279.000000)">
                <g id="icon" transform="translate(178.000000, 0.000000)">
                    <path d="M661.843435,257.72455 L661.85323,257.739838 C661.851597,257.737291 661.849964,257.734743 661.848331,257.732195 C661.846699,257.729647 661.845067,257.727098 661.843435,257.72455 Z M227.38249,28.0603309 C250.646766,40.9832347 272.637424,57.3335511 291.417656,75.506628 C321.690606,70.0227677 352.905583,67.2574688 384.572732,67.2574688 C479.370702,67.2574688 569.247527,92.1295795 637.631085,137.277952 C673.04373,160.670044 701.19147,188.424297 721.283002,219.777334 C743.658006,254.713574 755,292.282691 755,332.539211 C755,371.71298 743.658006,409.297676 721.283002,444.226127 C701.19147,475.594743 673.04373,503.341207 637.631085,526.733298 C569.247527,571.881671 479.378238,596.738203 384.572732,596.738203 C352.905583,596.738203 321.698142,593.972904 291.417656,588.496833 C272.629887,606.66212 250.646766,623.020226 227.38249,635.94313 C103.080263,698.205197 0,637.40757 0,637.40757 C0,637.40757 95.8379665,556.029887 80.2530869,484.692966 C37.3720591,440.736398 14.1379276,387.720555 14.1379276,331.472039 C14.1379276,276.282906 37.3795953,223.267063 80.2530869,179.302706 C95.8353859,107.985385 0.0317357615,26.6228407 7.88230609e-06,26.5958977 C0.0306619402,26.577807 103.09875,-34.2002648 227.38249,28.0603309 Z" id="rocket" fill="#DB2323" fill-rule="nonzero"></path>
                    <path d="M153.097582,455.785774 C110.43773,422.112449 84.8314607,379.021983 84.8314607,332.05624 C84.8314607,224.285309 219.661663,136.919708 385.983146,136.919708 C552.304629,136.919708 687.134831,224.285309 687.134831,332.05624 C687.134831,439.82717 552.304629,527.192772 385.983146,527.192772 C344.99168,527.192772 305.913062,521.885997 270.294324,512.274873 L244.253553,537.430031 C230.104039,551.098339 213.519683,563.467505 196.232889,573.21451 C173.319428,584.485401 150.692822,590.634645 128.30689,592.510949 C129.569719,590.211329 130.732555,587.88177 131.980888,585.578531 C158.073653,537.436031 165.112551,494.171778 153.097582,455.785774 Z" id="bubble" fill="#FFFFFF"></path>
                    <path d="M241.909764,375.620438 C217.402875,375.620438 197.536116,355.819659 197.536116,331.394161 C197.536116,306.968662 217.402875,287.167883 241.909764,287.167883 C266.416654,287.167883 286.283413,306.968662 286.283413,331.394161 C286.283413,355.819659 266.416654,375.620438 241.909764,375.620438 Z M384.771268,375.620438 C360.264379,375.620438 340.397619,355.819659 340.397619,331.394161 C340.397619,306.968662 360.264379,287.167883 384.771268,287.167883 C409.278158,287.167883 429.144917,306.968662 429.144917,331.394161 C429.144917,355.819659 409.278158,375.620438 384.771268,375.620438 Z M527.632772,375.620438 C503.125882,375.620438 483.259123,355.819659 483.259123,331.394161 C483.259123,306.968662 503.125882,287.167883 527.632772,287.167883 C552.139661,287.167883 572.006421,306.968662 572.006421,331.394161 C572.006421,355.819659 552.139661,375.620438 527.632772,375.620438 Z" id="circles" fill="#DB2323" fill-rule="nonzero"></path>
                </g>
                <g id="logo-type" transform="translate(0.000000, 830.000000)" fill="#F4F4F4">
                    <g id="Group">
                        <path d="M92.0117692,86.7792427 C92.0117692,101.758171 86.4366684,111.595391 75.7316402,116.287417 L91.1214224,174.861055 C91.7891825,177.548687 90.4536624,178.883788 87.9982531,178.883788 L64.8005474,178.883788 C62.5712027,178.883788 61.4582693,177.768299 61.009618,175.753447 L46.0650092,118.971563 L30.6752269,118.971563 L30.6752269,175.310737 C30.6752269,177.548687 29.3397069,178.883788 27.1068842,178.883788 L3.90917858,178.883788 C1.67983386,178.883788 0.340835855,177.541715 0.340835855,175.310737 L0.340835855,3.61255424 C0.340835855,1.37809002 1.67983386,0.036017126 3.90917858,0.036017126 L59.8932067,0.036017126 C80.8580897,0.036017126 92.0117692,11.21531 92.0117692,32.228337 L92.0117692,86.7792427 Z M52.7565213,89.4599026 C58.5542087,89.4599026 61.6773781,86.3295612 61.6773781,80.5185598 L61.6773781,38.4890199 C61.6773781,32.6780186 58.5542087,29.5511631 52.7565213,29.5511631 L30.6752269,29.5511631 L30.6752269,89.4633885 L52.7565213,89.4599026 Z" id="Shape"></path>
                        <path d="M109.843049,32.228337 C109.843049,11.21531 120.993251,0.036017126 141.961611,0.036017126 L166.943488,0.036017126 C187.908371,0.036017126 199.062051,11.21531 199.062051,32.228337 L199.062051,146.691468 C199.062051,167.701009 187.908371,178.880302 166.943488,178.880302 L141.961611,178.880302 C120.993251,178.880302 109.843049,167.701009 109.843049,146.691468 L109.843049,32.228337 Z M161.36491,150.041422 C167.162597,150.041422 170.285767,147.134178 170.285767,141.100079 L170.285767,37.8197264 C170.285767,32.0087251 167.162597,28.8783837 161.36491,28.8783837 L148.430537,28.8783837 C142.632849,28.8783837 139.50968,32.0087251 139.50968,37.8197264 L139.50968,141.103565 C139.50968,147.134178 142.632849,150.041422 148.430537,150.041422 L161.36491,150.041422 Z" id="Shape"></path>
                        <path d="M310.793609,56.3717055 C310.793609,58.6096556 309.454611,59.9482426 307.228744,59.9482426 L284.924863,59.9482426 C282.469454,59.9482426 281.35652,58.6096556 281.35652,56.3717055 L281.35652,38.4890199 C281.35652,32.6780186 278.236829,29.5511631 272.439141,29.5511631 L260.840289,29.5511631 C254.820014,29.5511631 251.919432,32.6780186 251.919432,38.4890199 L251.919432,140.437757 C251.919432,146.471856 255.039123,149.372128 260.840289,149.372128 L272.439141,149.372128 C278.236829,149.372128 281.35652,146.46837 281.35652,140.437757 L281.35652,122.5481 C281.35652,120.31015 282.469454,118.971563 284.924863,118.971563 L307.228744,118.971563 C309.465045,118.971563 310.793609,120.31015 310.793609,122.5481 L310.793609,146.694954 C310.793609,167.704495 299.417343,178.883788 278.678524,178.883788 L253.696647,178.883788 C232.731764,178.883788 221.355498,167.704495 221.355498,146.694954 L221.355498,32.228337 C221.355498,11.21531 232.731764,0.036017126 253.696647,0.036017126 L278.678524,0.036017126 C299.420821,0.036017126 310.793609,11.21531 310.793609,32.228337 L310.793609,56.3717055 Z" id="Shape"></path>
                        <path d="M404.90604,178.883788 C402.224566,178.883788 400.669937,177.768299 399.772634,175.533835 L371.674544,109.134343 L363.417969,125.009148 L363.417969,174.411374 C363.417969,177.318617 361.859862,178.883788 358.95928,178.883788 L337.545746,178.883788 C334.645163,178.883788 333.083578,177.318617 333.083578,174.411374 L333.083578,4.50843147 C333.083578,1.60467375 334.645163,0.036017126 337.545746,0.036017126 L358.95928,0.036017126 C361.856385,0.036017126 363.417969,1.60118785 363.417969,4.50843147 L363.417969,73.8116813 L397.765876,3.38945641 C398.882288,1.15499219 400.44735,0.036017126 402.899282,0.036017126 L426.316096,0.036017126 C429.661852,0.036017126 431.00085,2.27396725 429.435788,5.40082279 L391.523016,83.4223176 L431.887719,173.74208 C433.449304,176.649324 432.110306,178.883788 428.545441,178.883788 L404.90604,178.883788 Z" id="Shape"></path>
                        <path d="M537.164263,25.97114 C537.164263,28.2056043 536.270439,29.770775 533.59592,29.770775 L477.834479,29.770775 L477.834479,74.4809748 L520.435483,74.4809748 C522.671784,74.4809748 524.003826,75.8230477 524.003826,78.2806097 L524.003826,100.412612 C524.003826,102.87366 522.664828,104.215733 520.435483,104.215733 L477.834479,104.215733 L477.834479,149.372128 L533.59592,149.372128 C536.277394,149.372128 537.164263,150.491103 537.164263,152.948665 L537.164263,175.307251 C537.164263,177.541715 536.270439,178.876816 533.59592,178.876816 L451.517082,178.876816 C449.506846,178.876816 448.167848,177.534743 448.167848,175.307251 L448.167848,3.61255424 C448.167848,1.37809002 449.506846,0.036017126 451.517082,0.036017126 L533.59592,0.036017126 C536.277394,0.036017126 537.164263,1.37809002 537.164263,3.61255424 L537.164263,25.97114 Z" id="Shape"></path>
                        <path d="M640.646202,0.036017126 C643.098134,0.036017126 644.214545,1.37809002 644.214545,3.61255424 L644.214545,25.97114 C644.214545,28.2056043 643.098134,29.5476772 640.646202,29.5476772 L614.773979,29.5476772 L614.773979,175.307251 C614.773979,177.764813 613.661045,178.876816 611.209114,178.876816 L588.011408,178.876816 C585.775108,178.876816 584.443065,177.764813 584.443065,175.307251 L584.443065,29.5476772 L558.57432,29.5476772 C556.338019,29.5476772 555.005977,28.2056043 555.005977,25.97114 L555.005977,3.61255424 C555.005977,1.37809002 556.344975,0.036017126 558.57432,0.036017126 L640.646202,0.036017126 Z" id="Shape"></path>
                        <path d="M642,153.886295 C642,150.979052 643.561585,149.417367 646.462167,149.417367 L666.75929,149.417367 C669.659873,149.417367 671.21798,150.979052 671.21798,153.886295 L671.21798,174.449641 C671.21798,177.36037 669.659873,178.922055 666.75929,178.922055 L646.462167,178.922055 C643.561585,178.922055 642,177.36037 642,174.449641 L642,153.886295 Z" id="Shape"></path>
                        <path d="M782.927782,56.3717055 C782.927782,58.6096556 781.585306,59.9482426 779.359439,59.9482426 L757.055558,59.9482426 C754.603627,59.9482426 753.490694,58.6096556 753.490694,56.3717055 L753.490694,38.4890199 C753.490694,32.6780186 750.371002,29.5511631 744.573315,29.5511631 L732.974462,29.5511631 C726.95071,29.5511631 724.053605,32.6780186 724.053605,38.4890199 L724.053605,140.437757 C724.053605,146.471856 727.173296,149.372128 732.974462,149.372128 L744.573315,149.372128 C750.371002,149.372128 753.490694,146.46837 753.490694,140.437757 L753.490694,122.5481 C753.490694,120.31015 754.603627,118.971563 757.055558,118.971563 L779.359439,118.971563 C781.59574,118.971563 782.927782,120.31015 782.927782,122.5481 L782.927782,146.694954 C782.927782,167.704495 771.551516,178.883788 750.80922,178.883788 L725.827343,178.883788 C704.86246,178.883788 693.486193,167.704495 693.486193,146.694954 L693.486193,32.228337 C693.486193,11.21531 704.86246,0.036017126 725.827343,0.036017126 L750.80922,0.036017126 C771.554994,0.036017126 782.927782,11.21531 782.927782,32.228337 L782.927782,56.3717055 Z" id="Shape"></path>
                        <path d="M864.10584,3.61255424 C864.10584,1.37809002 865.44136,0.036017126 867.670705,0.036017126 L890.642346,0.036017126 C893.320342,0.036017126 894.429797,1.37809002 894.429797,3.61255424 L894.429797,175.307251 C894.429797,177.541715 893.316864,178.876816 890.642346,178.876816 L867.670705,178.876816 C865.434404,178.876816 864.10584,177.534743 864.10584,175.307251 L864.10584,104.215733 L835.55562,104.215733 L835.55562,175.310737 C835.55562,177.548687 834.216622,178.883788 831.987278,178.883788 L809.019115,178.883788 C806.337641,178.883788 805.224707,177.541715 805.224707,175.310737 L805.224707,3.61255424 C805.224707,1.37809002 806.337641,0.036017126 809.019115,0.036017126 L831.987278,0.036017126 C834.223578,0.036017126 835.55562,1.37809002 835.55562,3.61255424 L835.55562,74.7040726 L864.10584,74.7040726 L864.10584,3.61255424 Z" id="Shape"></path>
                        <path d="M996.141477,178.883788 C994.134719,178.883788 993.021785,177.768299 992.573134,175.753447 L986.330273,143.118417 L946.626374,143.118417 L940.609578,175.753447 C940.160927,177.768299 939.047993,178.883788 937.041235,178.883788 L913.179247,178.883788 C910.727316,178.883788 909.610905,177.541715 910.275187,175.084153 L947.30109,3.16635857 C947.749741,0.931894356 949.085261,0.036017126 951.092019,0.036017126 L982.097648,0.036017126 C984.104406,0.036017126 985.443404,0.931894356 985.888578,3.16635857 L1022.91448,175.084153 C1023.36313,177.541715 1022.46931,178.883788 1019.79479,178.883788 L996.141477,178.883788 Z M966.474846,39.1583134 L952.201475,117.179808 L980.751695,117.179808 L966.474846,39.1583134 Z" id="Shape"></path>
                        <path d="M1106.31493,0.036017126 C1108.76686,0.036017126 1109.88327,1.37809002 1109.88327,3.61255424 L1109.88327,25.97114 C1109.88327,28.2056043 1108.76686,29.5476772 1106.31493,29.5476772 L1080.44618,29.5476772 L1080.44618,175.307251 C1080.44618,177.764813 1079.32977,178.876816 1076.87784,178.876816 L1053.68013,178.876816 C1051.45079,178.876816 1050.11527,177.764813 1050.11527,175.307251 L1050.11527,29.5476772 L1024.24652,29.5476772 C1022.0137,29.5476772 1020.68166,28.2056043 1020.68166,25.97114 L1020.68166,3.61255424 C1020.68166,1.37809002 1022.02066,0.036017126 1024.24652,0.036017126 L1106.31493,0.036017126 Z" id="Shape"></path>
                    </g>
                </g>
            </g>
        </g>
    </g>
</svg>