<?xml version="1.0" encoding="utf-8"?>
<!-- Generator: Adobe Illustrator 23.0.1, SVG Export Plug-In . SVG Version: 6.00 Build 0)  -->
<svg version="1.1" id="Layer_1" xmlns="http://www.w3.org/2000/svg" xmlns:xlink="http://www.w3.org/1999/xlink" x="0px" y="0px"
	 viewBox="0 0 1492.21 1085.76" style="enable-background:new 0 0 1492.21 1085.76;" xml:space="preserve">
<style type="text/css">
	.st0{clip-path:url(#SVGID_4_);}
	.st1{clip-path:url(#SVGID_5_);}
	.st2{clip-path:url(#SVGID_6_);fill:#DA2320;}
	.st3{clip-path:url(#SVGID_9_);}
	.st4{clip-path:url(#SVGID_10_);fill:#FFFFFF;}
	.st5{clip-path:url(#SVGID_13_);}
	.st6{clip-path:url(#SVGID_14_);fill:#DA2320;}
	.st7{clip-path:url(#SVGID_18_);}
	.st8{clip-path:url(#SVGID_19_);}
	.st9{clip-path:url(#SVGID_20_);fill:#2D3139;}
	.st10{clip-path:url(#SVGID_23_);}
	.st11{clip-path:url(#SVGID_24_);fill:#2D3139;}
	.st12{clip-path:url(#SVGID_27_);}
	.st13{clip-path:url(#SVGID_28_);fill:#2D3139;}
	.st14{clip-path:url(#SVGID_31_);}
	.st15{clip-path:url(#SVGID_32_);fill:#2D3139;}
	.st16{clip-path:url(#SVGID_35_);}
	.st17{clip-path:url(#SVGID_36_);fill:#2D3139;}
	.st18{clip-path:url(#SVGID_39_);}
	.st19{clip-path:url(#SVGID_40_);fill:#2D3139;}
	.st20{clip-path:url(#SVGID_43_);}
	.st21{clip-path:url(#SVGID_44_);fill:#2D3139;}
	.st22{clip-path:url(#SVGID_47_);}
	.st23{clip-path:url(#SVGID_48_);fill:#2D3139;}
	.st24{clip-path:url(#SVGID_51_);}
	.st25{clip-path:url(#SVGID_52_);fill:#2D3139;}
	.st26{clip-path:url(#SVGID_55_);}
	.st27{clip-path:url(#SVGID_56_);fill:#2D3139;}
	.st28{clip-path:url(#SVGID_59_);}
	.st29{clip-path:url(#SVGID_60_);fill:#2D3139;}
</style>
<g>
	<g>
		<defs>
			<rect id="SVGID_1_" x="4.78" y="4.24" width="1483" height="1077"/>
		</defs>
		<defs>
			<path id="SVGID_2_" d="M583.21,34.8c24.79,13.79,47.7,30.71,68.18,50.34c32.67-5.85,65.79-8.78,98.98-8.75
				c100.8,0,196.25,26.48,268.86,74.43c35.19,22.73,65.23,52.57,88.18,87.61c47.95,72.32,47.95,166.32,0,238.64
				c-23.15,35.15-53.42,65.04-88.86,87.73c-72.61,47.95-168.07,74.32-268.86,74.32c-33.03,0.08-66-2.77-98.52-8.52
				c-20.42,19.7-43.34,36.63-68.18,50.34c-75.58,39.4-165.5,39.99-241.59,1.59c0,0,102.27-86.48,85.23-162.16
				c-44.09-42.81-69.35-101.39-70.23-162.84c1.12-61.03,26.37-119.13,70.23-161.59c16.59-75.8-85.23-162.27-85.23-162.27
				C417.47-4.95,507.5-4.53,583.21,34.8L583.21,34.8z"/>
		</defs>
		<defs>
			<rect id="SVGID_3_" x="4.9" y="4.12" width="1482.96" height="1077.12"/>
		</defs>
		<clipPath id="SVGID_4_">
			<use xlink:href="#SVGID_1_"  style="overflow:visible;"/>
		</clipPath>
		<clipPath id="SVGID_5_" class="st0">
			<use xlink:href="#SVGID_2_"  style="overflow:visible;"/>
		</clipPath>
		<clipPath id="SVGID_6_" class="st1">
			<use xlink:href="#SVGID_3_"  style="overflow:visible;"/>
		</clipPath>
		<rect x="336.39" class="st2" width="811.99" height="715.92"/>
	</g>
	<g>
		<defs>
			<rect id="SVGID_7_" x="4.78" y="4.24" width="1483" height="1077"/>
		</defs>
		<defs>
			<path id="SVGID_8_" d="M504.23,488.55c-45.45-35.57-72.5-81.25-72.5-131.02c0-113.64,143.07-206.7,319.55-206.7
				s319.55,92.5,319.55,207.05c0,114.55-143.07,206.36-319.55,206.36c-41.43,0.16-82.69-5.15-122.73-15.8l-27.61,26.7
				c-15.36,14.7-32.5,27.41-51.02,37.84c-22.5,11.31-46.95,18.26-72.05,20.45c1.36-2.39,2.61-4.89,3.86-7.39
				C509.46,575.15,516.96,529.31,504.23,488.55L504.23,488.55z"/>
		</defs>
		<clipPath id="SVGID_9_">
			<use xlink:href="#SVGID_7_"  style="overflow:visible;"/>
		</clipPath>
		<clipPath id="SVGID_10_" class="st3">
			<use xlink:href="#SVGID_8_"  style="overflow:visible;"/>
		</clipPath>
		<rect x="426.73" y="145.83" class="st4" width="649.09" height="492.61"/>
	</g>
	<g>
		<defs>
			<rect id="SVGID_11_" x="4.78" y="4.24" width="1483" height="1077"/>
		</defs>
		<defs>
			<path id="SVGID_12_" d="M598.1,406.74c-19.37,0.32-37.02-11.1-44.66-28.9c-7.64-17.81-3.75-38.46,9.83-52.28
				c13.59-13.82,34.17-18.05,52.11-10.71c17.93,7.34,29.65,24.79,29.65,44.17C645.22,385.14,624.22,406.49,598.1,406.74
				L598.1,406.74z M749.35,406.74c-19.37,0.32-37.02-11.1-44.66-28.9c-7.64-17.81-3.75-38.46,9.83-52.28
				c13.59-13.82,34.17-18.05,52.11-10.71c17.93,7.34,29.65,24.79,29.65,44.17C796.47,385.14,775.47,406.49,749.35,406.74
				L749.35,406.74z M900.48,406.74c-19.36,0.28-36.97-11.17-44.58-28.99c-7.6-17.81-3.69-38.45,9.91-52.24
				c13.59-13.79,34.18-18,52.09-10.66c17.92,7.35,29.62,24.79,29.62,44.16c0.09,12.57-4.81,24.66-13.64,33.61
				C925.07,401.57,913.05,406.65,900.48,406.74L900.48,406.74z"/>
		</defs>
		<clipPath id="SVGID_13_">
			<use xlink:href="#SVGID_11_"  style="overflow:visible;"/>
		</clipPath>
		<clipPath id="SVGID_14_" class="st5">
			<use xlink:href="#SVGID_12_"  style="overflow:visible;"/>
		</clipPath>
		<rect x="544.57" y="306.29" class="st6" width="407.96" height="105.46"/>
	</g>
	<g>
		<defs>
			<rect id="SVGID_15_" x="4.78" y="4.24" width="1483" height="1077"/>
		</defs>
		<defs>
			<path id="SVGID_16_" d="M127.41,957.99c1.91,16.4-6.81,32.19-21.7,39.32l20.45,78.07c0.91,3.52-0.8,5.34-4.09,5.34H91.05
				c-2.53,0.2-4.76-1.67-5-4.2l-20-75.57H45.48v75c0.1,1.29-0.37,2.57-1.28,3.49c-0.92,0.92-2.19,1.39-3.49,1.28H9.8
				c-1.31,0.15-2.61-0.31-3.53-1.24s-1.38-2.23-1.24-3.53V847.3c-0.15-1.31,0.31-2.61,1.24-3.53s2.23-1.38,3.53-1.24h74.89
				c28.07,0,42.95,14.89,42.95,42.84L127.41,957.99L127.41,957.99z M75.03,961.62c3.07,0.2,6.08-0.93,8.26-3.11
				c2.18-2.18,3.31-5.19,3.11-8.26v-56.48c0.24-3.08-0.88-6.11-3.06-8.3c-2.19-2.19-5.22-3.31-8.3-3.06H45.48v79.55L75.03,961.62
				L75.03,961.62z"/>
		</defs>
		<defs>
			<rect id="SVGID_17_" x="4.9" y="4.12" width="1482.96" height="1077.12"/>
		</defs>
		<clipPath id="SVGID_18_">
			<use xlink:href="#SVGID_15_"  style="overflow:visible;"/>
		</clipPath>
		<clipPath id="SVGID_19_" class="st7">
			<use xlink:href="#SVGID_16_"  style="overflow:visible;"/>
		</clipPath>
		<clipPath id="SVGID_20_" class="st8">
			<use xlink:href="#SVGID_17_"  style="overflow:visible;"/>
		</clipPath>
		<rect y="837.5" class="st9" width="132.67" height="248.24"/>
	</g>
	<g>
		<defs>
			<rect id="SVGID_21_" x="4.78" y="4.24" width="1483" height="1077"/>
		</defs>
		<defs>
			<path id="SVGID_22_" d="M151.16,885.37c0-27.95,14.89-42.84,42.95-42.84h33.3c28.07,0,42.95,14.89,42.95,42.84v152.5
				c0,27.95-14.89,42.84-42.95,42.84h-33.3c-28.07,0-42.95-14.89-42.95-42.84V885.37L151.16,885.37z M220.03,1042.3
				c3.17,0.42,6.37-0.61,8.69-2.82c2.32-2.21,3.51-5.35,3.24-8.54V892.87c0.23-3.18-0.98-6.29-3.29-8.49
				c-2.31-2.2-5.48-3.25-8.64-2.87h-17.27c-3.17-0.38-6.34,0.67-8.64,2.87c-2.31,2.2-3.51,5.31-3.29,8.49v137.5
				c-0.27,3.19,0.92,6.33,3.24,8.54c2.32,2.21,5.51,3.25,8.69,2.82L220.03,1042.3L220.03,1042.3z"/>
		</defs>
		<clipPath id="SVGID_23_">
			<use xlink:href="#SVGID_21_"  style="overflow:visible;"/>
		</clipPath>
		<clipPath id="SVGID_24_" class="st10">
			<use xlink:href="#SVGID_22_"  style="overflow:visible;"/>
		</clipPath>
		<rect x="146.16" y="837.53" class="st11" width="129.2" height="248.18"/>
	</g>
	<g>
		<defs>
			<rect id="SVGID_25_" x="4.78" y="4.24" width="1483" height="1077"/>
		</defs>
		<defs>
			<path id="SVGID_26_" d="M419.57,917.53c0.1,1.29-0.37,2.57-1.28,3.49c-0.92,0.92-2.19,1.39-3.49,1.28h-29.77
				c-1.31,0.15-2.61-0.31-3.53-1.24c-0.93-0.93-1.38-2.23-1.24-3.53v-23.75c0.2-3.07-0.93-6.08-3.11-8.26
				c-2.18-2.18-5.19-3.31-8.26-3.11h-16.02c-3.17-0.42-6.37,0.61-8.69,2.82c-2.32,2.21-3.51,5.35-3.24,8.54v135.68
				c-0.46,3.28,0.65,6.59,2.99,8.94c2.34,2.34,5.65,3.45,8.94,2.99h15.91c3.19,0.27,6.33-0.92,8.54-3.24
				c2.21-2.32,3.25-5.51,2.82-8.69v-23.86c-0.19-1.32,0.25-2.65,1.19-3.59s2.27-1.38,3.59-1.19h29.77c1.31-0.15,2.61,0.31,3.53,1.24
				c0.93,0.93,1.38,2.23,1.24,3.53v32.16c0,27.95-15.23,42.84-42.84,42.84h-33.3c-27.95,0-43.18-14.89-43.18-42.84V885.37
				c0-27.95,15.23-42.84,43.18-42.84h33.41c27.61,0,42.84,14.89,42.84,42.84V917.53L419.57,917.53z"/>
		</defs>
		<clipPath id="SVGID_27_">
			<use xlink:href="#SVGID_25_"  style="overflow:visible;"/>
		</clipPath>
		<clipPath id="SVGID_28_" class="st12">
			<use xlink:href="#SVGID_26_"  style="overflow:visible;"/>
		</clipPath>
		<rect x="295.14" y="837.53" class="st13" width="129.45" height="248.07"/>
	</g>
	<g>
		<defs>
			<rect id="SVGID_29_" x="4.78" y="4.24" width="1483" height="1077"/>
		</defs>
		<defs>
			<path id="SVGID_30_" d="M545.25,1080.71c-3.03,0.31-5.87-1.53-6.82-4.43l-37.61-88.52l-11.36,21.25v65.68
				c0.22,1.63-0.32,3.28-1.48,4.46c-1.16,1.18-2.79,1.76-4.43,1.56h-28.3c-1.64,0.19-3.27-0.39-4.43-1.56
				c-1.16-1.18-1.7-2.82-1.48-4.46V848.44c-0.18-1.62,0.38-3.23,1.53-4.38c1.15-1.15,2.76-1.71,4.38-1.53h28.64
				c1.62-0.18,3.23,0.38,4.38,1.53c1.15,1.15,1.71,2.76,1.53,4.38v92.39l45.45-93.86c1.13-2.75,3.85-4.51,6.82-4.43h31.36
				c4.43,0,6.25,2.95,4.09,7.16l-49.66,103.86l53.41,120.23c2.05,3.86,0,6.82-4.43,6.82L545.25,1080.71L545.25,1080.71z"/>
		</defs>
		<clipPath id="SVGID_31_">
			<use xlink:href="#SVGID_29_"  style="overflow:visible;"/>
		</clipPath>
		<clipPath id="SVGID_32_" class="st14">
			<use xlink:href="#SVGID_30_"  style="overflow:visible;"/>
		</clipPath>
		<rect x="444.3" y="837.5" class="st15" width="142.78" height="248.25"/>
	</g>
	<g>
		<defs>
			<rect id="SVGID_33_" x="4.78" y="4.24" width="1483" height="1077"/>
		</defs>
		<defs>
			<path id="SVGID_34_" d="M721.85,877.08c0,2.95-1.14,5-4.77,5h-74.43v59.55h56.82c1.35-0.08,2.66,0.45,3.59,1.44
				c0.92,0.99,1.36,2.34,1.19,3.68v29.43c0.17,1.34-0.26,2.69-1.19,3.68c-0.92,0.99-2.24,1.51-3.59,1.44h-56.82v60.11h74.43
				c3.64,0,4.77,1.48,4.77,4.77v29.77c0,2.95-1.14,4.77-4.77,4.77H607.41c-1.27,0.07-2.5-0.41-3.38-1.33
				c-0.88-0.92-1.3-2.18-1.17-3.44V847.3c-0.14-1.26,0.29-2.52,1.17-3.44c0.88-0.92,2.11-1.41,3.38-1.33h109.55
				c3.64,0,4.77,1.82,4.77,4.77L721.85,877.08L721.85,877.08z"/>
		</defs>
		<clipPath id="SVGID_35_">
			<use xlink:href="#SVGID_33_"  style="overflow:visible;"/>
		</clipPath>
		<clipPath id="SVGID_36_" class="st16">
			<use xlink:href="#SVGID_34_"  style="overflow:visible;"/>
		</clipPath>
		<rect x="597.84" y="837.52" class="st17" width="129" height="248.2"/>
	</g>
	<g>
		<defs>
			<rect id="SVGID_37_" x="4.78" y="4.24" width="1483" height="1077"/>
		</defs>
		<defs>
			<path id="SVGID_38_" d="M860.03,842.53c1.31-0.15,2.61,0.31,3.53,1.24c0.93,0.93,1.38,2.23,1.24,3.53v29.77
				c0.15,1.31-0.31,2.61-1.24,3.53c-0.93,0.93-2.23,1.38-3.53,1.24h-34.09v194.09c0,3.3-1.48,4.77-4.77,4.77H789.8
				c-1.31,0.15-2.61-0.31-3.53-1.24s-1.38-2.23-1.24-3.53V881.85h-34.09c-1.29,0.1-2.57-0.37-3.49-1.28
				c-0.92-0.92-1.39-2.19-1.28-3.49V847.3c-0.1-1.29,0.37-2.57,1.28-3.49c0.92-0.92,2.19-1.39,3.49-1.28H860.03L860.03,842.53z"/>
		</defs>
		<clipPath id="SVGID_39_">
			<use xlink:href="#SVGID_37_"  style="overflow:visible;"/>
		</clipPath>
		<clipPath id="SVGID_40_" class="st18">
			<use xlink:href="#SVGID_38_"  style="overflow:visible;"/>
		</clipPath>
		<rect x="741.15" y="837.5" class="st19" width="128.68" height="248.24"/>
	</g>
	<g>
		<defs>
			<rect id="SVGID_41_" x="4.78" y="4.24" width="1483" height="1077"/>
		</defs>
		<defs>
			<path id="SVGID_42_" d="M861.85,1047.42c-0.19-1.64,0.39-3.27,1.56-4.43c1.18-1.16,2.82-1.7,4.46-1.48h27.05
				c1.63-0.22,3.28,0.32,4.46,1.48c1.18,1.16,1.76,2.79,1.56,4.43v27.39c0.19,1.64-0.39,3.27-1.56,4.43
				c-1.18,1.16-2.82,1.7-4.46,1.48h-27.05c-1.63,0.22-3.28-0.32-4.46-1.48c-1.18-1.16-1.76-2.79-1.56-4.43V1047.42L861.85,1047.42z"
				/>
		</defs>
		<clipPath id="SVGID_43_">
			<use xlink:href="#SVGID_41_"  style="overflow:visible;"/>
		</clipPath>
		<clipPath id="SVGID_44_" class="st20">
			<use xlink:href="#SVGID_42_"  style="overflow:visible;"/>
		</clipPath>
		<rect x="856.81" y="1036.46" class="st21" width="49.16" height="49.3"/>
	</g>
	<g>
		<defs>
			<rect id="SVGID_45_" x="4.78" y="4.24" width="1483" height="1077"/>
		</defs>
		<defs>
			<path id="SVGID_46_" d="M1050.6,917.53c0.14,1.28-0.3,2.56-1.2,3.49c-0.9,0.92-2.17,1.4-3.46,1.29h-29.89
				c-1.3,0.15-2.59-0.3-3.51-1.24c-0.91-0.94-1.34-2.24-1.15-3.53v-23.75c0.2-3.07-0.93-6.08-3.11-8.26
				c-2.18-2.18-5.19-3.31-8.26-3.11h-15.57c-3.09-0.28-6.15,0.82-8.35,3.02s-3.3,5.25-3.02,8.35v135.68
				c-0.47,3.18,0.55,6.41,2.77,8.74s5.39,3.51,8.59,3.19h15.57c3.19,0.27,6.33-0.92,8.54-3.24c2.21-2.32,3.25-5.51,2.82-8.69v-23.86
				c-0.19-1.29,0.24-2.6,1.15-3.53c0.91-0.94,2.21-1.39,3.51-1.24h29.89c1.29-0.11,2.55,0.36,3.46,1.29c0.9,0.92,1.34,2.2,1.2,3.49
				v32.16c0,27.95-15.11,42.84-42.84,42.84h-33.41c-27.95,0-43.18-14.89-43.18-42.84V885.37c0-27.95,15.23-42.84,43.18-42.84h33.41
				c27.73,0,42.84,14.89,42.84,42.84V917.53L1050.6,917.53z"/>
		</defs>
		<clipPath id="SVGID_47_">
			<use xlink:href="#SVGID_45_"  style="overflow:visible;"/>
		</clipPath>
		<clipPath id="SVGID_48_" class="st22">
			<use xlink:href="#SVGID_46_"  style="overflow:visible;"/>
		</clipPath>
		<rect x="926.16" y="837.53" class="st23" width="129.46" height="248.07"/>
	</g>
	<g>
		<defs>
			<rect id="SVGID_49_" x="4.78" y="4.24" width="1483" height="1077"/>
		</defs>
		<defs>
			<path id="SVGID_50_" d="M1158.44,847.3c-0.1-1.29,0.37-2.57,1.28-3.49c0.92-0.92,2.19-1.39,3.49-1.28h30.68
				c3.64,0,5.11,1.82,5.11,4.77v228.64c0,2.95-1.48,4.77-5.11,4.77h-30.68c-1.29,0.1-2.57-0.37-3.49-1.28
				c-0.92-0.92-1.39-2.19-1.28-3.49v-94.66h-38.07v94.66c0.1,1.29-0.37,2.57-1.28,3.49c-0.92,0.92-2.19,1.39-3.49,1.28h-30.91
				c-3.52,0-5.11-1.82-5.11-4.77V847.3c0-2.95,1.59-4.77,5.11-4.77h30.68c1.29-0.1,2.57,0.37,3.49,1.28
				c0.92,0.92,1.39,2.19,1.28,3.49v94.66h38.07L1158.44,847.3L1158.44,847.3z"/>
		</defs>
		<clipPath id="SVGID_51_">
			<use xlink:href="#SVGID_49_"  style="overflow:visible;"/>
		</clipPath>
		<clipPath id="SVGID_52_" class="st24">
			<use xlink:href="#SVGID_50_"  style="overflow:visible;"/>
		</clipPath>
		<rect x="1074.57" y="837.52" class="st25" width="129.43" height="248.21"/>
	</g>
	<g>
		<defs>
			<rect id="SVGID_53_" x="4.78" y="4.24" width="1483" height="1077"/>
		</defs>
		<defs>
			<path id="SVGID_54_" d="M1334.69,1080.71c-2.45,0.07-4.53-1.77-4.77-4.2l-8.3-43.41h-53.07l-7.95,43.41
				c-0.24,2.44-2.32,4.28-4.77,4.2h-31.93c-3.3,0-4.77-1.82-3.86-5.11l49.55-229.09c0.11-1.24,0.72-2.38,1.68-3.17
				c0.96-0.79,2.2-1.16,3.43-1.04h41.36c1.24-0.13,2.47,0.25,3.43,1.04c0.96,0.79,1.57,1.93,1.68,3.17l49.43,228.86
				c0.57,3.3,0,5.11-4.2,5.11L1334.69,1080.71L1334.69,1080.71z M1295.03,894.58l-18.98,103.98h38.07L1295.03,894.58L1295.03,894.58
				z"/>
		</defs>
		<clipPath id="SVGID_55_">
			<use xlink:href="#SVGID_53_"  style="overflow:visible;"/>
		</clipPath>
		<clipPath id="SVGID_56_" class="st26">
			<use xlink:href="#SVGID_54_"  style="overflow:visible;"/>
		</clipPath>
		<rect x="1214.76" y="837.28" class="st27" width="161.02" height="248.44"/>
	</g>
	<g>
		<defs>
			<rect id="SVGID_57_" x="4.78" y="4.24" width="1483" height="1077"/>
		</defs>
		<defs>
			<path id="SVGID_58_" d="M1482.41,842.53c1.31-0.15,2.61,0.31,3.54,1.24s1.38,2.23,1.24,3.53v29.77c0.15,1.31-0.31,2.61-1.24,3.53
				c-0.93,0.93-2.23,1.38-3.54,1.24h-34.09v194.09c0,3.3-1.48,4.77-4.77,4.77h-31.02c-1.31,0.15-2.61-0.31-3.53-1.24
				s-1.38-2.23-1.24-3.53V881.85h-34.09c-1.29,0.11-2.55-0.36-3.46-1.29c-0.9-0.92-1.34-2.2-1.2-3.49V847.3
				c-0.14-1.28,0.3-2.56,1.2-3.49s2.17-1.4,3.46-1.29H1482.41L1482.41,842.53z"/>
		</defs>
		<clipPath id="SVGID_59_">
			<use xlink:href="#SVGID_57_"  style="overflow:visible;"/>
		</clipPath>
		<clipPath id="SVGID_60_" class="st28">
			<use xlink:href="#SVGID_58_"  style="overflow:visible;"/>
		</clipPath>
		<rect x="1363.98" y="837.5" class="st29" width="128.23" height="248.24"/>
	</g>
</g>
</svg>
