<?xml version="1.0" encoding="utf-8"?>
<!-- Generator: Adobe Illustrator 16.0.0, SVG Export Plug-In . SVG Version: 6.00 Build 0)  -->
<!DOCTYPE svg PUBLIC "-//W3C//DTD SVG 1.1//EN" "http://www.w3.org/Graphics/SVG/1.1/DTD/svg11.dtd">
<svg version="1.1" id="Layer_1" xmlns="http://www.w3.org/2000/svg" xmlns:xlink="http://www.w3.org/1999/xlink" x="0px" y="0px"
	 width="1436px" height="1008px" viewBox="-1296.5 -1103.5 1436 1008" enable-background="new -1296.5 -1103.5 1436 1008"
	 xml:space="preserve">
<g>
	<path fill="#555555" d="M-1166.271-224.86c0,19.032-7.103,31.536-20.738,37.496l19.606,74.428c0.845,3.418-0.855,5.114-3.986,5.114
		h-29.543c-2.839,0-4.258-1.415-4.828-3.977l-19.031-72.151h-19.606v71.587c0,2.845-1.697,4.541-4.546,4.541h-29.542
		c-2.839,0-4.545-1.702-4.545-4.541v-218.182c0-2.839,1.706-4.54,4.545-4.54h71.306c26.699,0,40.909,14.205,40.909,40.903
		L-1166.271-224.86L-1166.271-224.86z M-1216.27-221.456c7.378,0,11.361-3.978,11.361-11.361v-53.412
		c0-7.384-3.983-11.355-11.361-11.355h-28.127v76.133L-1216.27-221.456L-1216.27-221.456z"/>
	<path fill="#555555" d="M-1143.564-294.182c0-26.698,14.201-40.903,40.904-40.903h31.827c26.699,0,40.899,14.205,40.899,40.903
		v145.457c0,26.691-14.2,40.902-40.899,40.902h-31.827c-26.703,0-40.904-14.211-40.904-40.902V-294.182z M-1077.94-144.468
		c7.38,0,11.361-3.698,11.361-11.365V-287.08c0-7.379-3.98-11.361-11.361-11.361h-16.475c-7.385,0-11.366,3.982-11.366,11.361
		v131.252c0,7.662,3.98,11.36,11.366,11.36H-1077.94L-1077.94-144.468z"/>
	<path fill="#555555" d="M-887.62-263.498c0,2.84-1.706,4.537-4.54,4.537h-28.405c-3.131,0-4.55-1.697-4.55-4.537v-22.731
		c0-7.384-3.972-11.355-11.357-11.355h-14.772c-7.667,0-11.361,3.972-11.361,11.355v129.555c0,7.661,3.972,11.353,11.361,11.353
		h14.772c7.385,0,11.357-3.69,11.357-11.353v-22.736c0-2.84,1.418-4.54,4.55-4.54h28.405c2.848,0,4.54,1.7,4.54,4.54v30.686
		c0,26.691-14.491,40.902-40.907,40.902h-31.818c-26.697,0-41.189-14.211-41.189-40.902v-145.458
		c0-26.698,14.492-40.903,41.189-40.903h31.818c26.421,0,40.907,14.205,40.907,40.903V-263.498L-887.62-263.498z"/>
	<path fill="#555555" d="M-767.753-107.822c-3.413,0-5.396-1.415-6.534-4.26l-35.793-84.373l-10.516,20.175v62.774
		c0,3.689-1.978,5.684-5.677,5.684h-27.277c-3.69,0-5.684-1.993-5.684-5.684v-215.901c0-3.689,1.994-5.678,5.684-5.678h27.277
		c3.689,0,5.677,1.983,5.677,5.678v88.067l43.748-89.486c1.43-2.844,3.423-4.259,6.544-4.259h29.82c4.262,0,5.969,2.839,3.971,6.815
		l-48.288,99.142l51.408,114.775c1.993,3.694,0.288,6.529-4.253,6.529L-767.753-107.822L-767.753-107.822z"/>
	<path fill="#555555" d="M-599.302-302.13c0,2.834-1.138,4.821-4.545,4.821h-71.024v56.819h54.262c2.854,0,4.545,1.706,4.545,4.828
		v28.127c0,3.126-1.705,4.827-4.545,4.827h-54.262v57.385h71.024c3.416,0,4.545,1.418,4.545,4.545v28.414
		c0,2.839-1.138,4.535-4.545,4.535h-104.539c-2.562,0-4.264-1.706-4.264-4.535v-218.181c0-2.839,1.701-4.54,4.264-4.54h104.539
		c3.416,0,4.545,1.701,4.545,4.54V-302.13z"/>
	<path fill="#555555" d="M-467.497-335.085c3.125,0,4.541,1.701,4.541,4.54v28.415c0,2.834-1.416,4.539-4.541,4.539h-32.961v185.228
		c0,3.126-1.414,4.535-4.541,4.535h-29.535c-2.85,0-4.551-1.409-4.551-4.535v-185.228h-32.94c-2.858,0-4.557-1.705-4.557-4.539
		v-28.415c0-2.839,1.706-4.54,4.557-4.54H-467.497z"/>
	<path fill="#555555" d="M-465.806-139.645c0-3.694,1.988-5.679,5.678-5.679h25.857c3.682,0,5.68,1.983,5.68,5.679v26.129
		c0,3.699-1.998,5.688-5.68,5.688h-25.857c-3.689,0-5.678-1.987-5.678-5.688V-139.645z"/>
	<path fill="#555555" d="M-286.276-263.498c0,2.84-1.721,4.537-4.551,4.537h-28.408c-3.127,0-4.541-1.697-4.541-4.537v-22.731
		c0-7.384-3.967-11.355-11.366-11.355h-14.759c-7.676,0-11.375,3.972-11.375,11.355v129.555c0,7.661,3.984,11.353,11.375,11.353
		h14.759c7.399,0,11.366-3.69,11.366-11.353v-22.736c0-2.84,1.414-4.54,4.541-4.54h28.408c2.857,0,4.551,1.7,4.551,4.54v30.686
		c0,26.691-14.491,40.902-40.914,40.902h-31.811c-26.709,0-41.191-14.211-41.191-40.902v-145.458
		c0-26.698,14.482-40.903,41.191-40.903h31.811c26.423,0,40.914,14.205,40.914,40.903V-263.498z"/>
	<path fill="#555555" d="M-182.894-330.545c0-2.839,1.709-4.54,4.538-4.54h29.261c3.414,0,4.828,1.701,4.828,4.54v218.182
		c0,2.839-1.425,4.535-4.828,4.535h-29.261c-2.838,0-4.538-1.706-4.538-4.535v-90.344h-36.363v90.344
		c0,2.845-1.703,4.541-4.541,4.541h-29.252c-3.412,0-4.826-1.702-4.826-4.541v-218.182c0-2.839,1.414-4.54,4.826-4.54h29.252
		c2.85,0,4.541,1.701,4.541,4.54v90.339h36.363V-330.545L-182.894-330.545z"/>
	<path fill="#555555" d="M-14.712-107.822c-2.572,0-3.978-1.415-4.562-3.977l-7.95-41.469h-50.568l-7.658,41.469
		c-0.562,2.562-1.985,3.977-4.549,3.977h-30.379c-3.127,0-4.562-1.702-3.711-4.822l47.176-218.464
		c0.555-2.839,2.256-3.976,4.818-3.976h39.479c2.572,0,4.273,1.137,4.836,3.976l47.166,218.464c0.564,3.12-0.571,4.822-3.977,4.822
		H-14.712z M-52.519-285.378l-18.162,99.142h36.354L-52.519-285.378z"/>
	<path fill="#555555" d="M125.606-335.085c3.125,0,4.538,1.701,4.538,4.54v28.415c0,2.834-1.413,4.539-4.538,4.539H92.665v185.228
		c0,3.126-1.434,4.535-4.551,4.535H58.567c-2.841,0-4.56-1.409-4.56-4.535v-185.228H21.076c-2.849,0-4.541-1.705-4.541-4.539
		v-28.415c0-2.839,1.701-4.54,4.541-4.54H125.606z"/>
</g>
<g>
	<path fill="#555555" d="M-194.058-762.981c0-38.407-11.49-75.221-34.15-109.457c-20.352-30.728-48.875-57.93-84.729-80.854
		c-69.275-44.245-160.316-68.617-256.345-68.617c-32.072,0-63.697,2.708-94.364,8.081c-19.021-17.811-41.297-33.83-64.857-46.496
		c-125.915-61.023-230.324-1.433-230.324-1.433s97.071,79.748,81.283,149.649c-43.433,43.084-66.973,95.045-66.973,149.126
		c0,0.166,0.016,0.344,0.016,0.52c0,0.167-0.016,0.337-0.016,0.516c0,54.088,23.541,106.045,66.973,149.121
		c15.788,69.914-81.283,149.653-81.283,149.653s104.41,59.587,230.324-1.429c23.56-12.666,45.829-28.693,64.857-46.496
		c30.674,5.361,62.292,8.074,94.364,8.074c96.027,0,187.068-24.365,256.345-68.603c35.854-22.927,64.379-50.117,84.729-80.857
		c22.66-34.231,34.15-71.062,34.15-109.453c0-0.178-0.009-0.349-0.009-0.52C-194.065-762.629-194.058-762.815-194.058-762.981z"/>
	<path fill="#FFFFFF" d="M-569.282-967.614c177.811,0,321.974,92.082,321.974,205.664c0,113.574-144.163,205.663-321.974,205.663
		c-39.597,0-77.52-4.585-112.539-12.926c-35.605,42.829-113.929,102.375-190.018,83.131c24.75-26.581,61.418-71.497,53.562-145.487
		c-45.602-35.479-72.976-80.89-72.976-130.381C-891.261-875.541-747.097-967.614-569.282-967.614"/>
	<g>
		<g>
			<path fill="#555555" d="M-569.282-798.103c23.621,0,42.771,19.146,42.771,42.771c0,23.622-19.15,42.772-42.771,42.772
				c-23.622,0-42.772-19.15-42.772-42.772C-612.055-778.957-592.904-798.103-569.282-798.103z"/>
		</g>
		<g>
			<path fill="#555555" d="M-420.579-798.103c23.625,0,42.775,19.146,42.775,42.771c0,23.622-19.15,42.772-42.775,42.772
				s-42.775-19.15-42.775-42.772C-463.354-778.957-444.204-798.103-420.579-798.103z"/>
		</g>
		<g>
			<circle fill="#555555" cx="-717.994" cy="-755.332" r="42.763"/>
		</g>
	</g>
</g>
</svg>
