<svg xmlns="http://www.w3.org/2000/svg" viewBox="0 0 1492.21 1085.76"><title>logo-rectangle-white</title><path d="M583.21,34.8a331.63,331.63,0,0,1,68.18,50.35,557.72,557.72,0,0,1,99-8.75c100.79,0,196.25,26.47,268.86,74.43a299.83,299.83,0,0,1,88.18,87.61,215.89,215.89,0,0,1,0,238.64,300.23,300.23,0,0,1-88.86,87.72c-72.61,48-168.07,74.32-268.86,74.32a558.27,558.27,0,0,1-98.53-8.52A323,323,0,0,1,583,680.94a264.66,264.66,0,0,1-241.59,1.59s102.27-86.48,85.23-162.16a231.59,231.59,0,0,1-70.23-162.84,230.79,230.79,0,0,1,70.23-161.59c16.59-75.79-85.23-162.27-85.23-162.27A264.68,264.68,0,0,1,583.21,34.8Z" style="fill:#da2320"/><path d="M504.23,488.55c-45.45-35.56-72.5-81.25-72.5-131,0-113.63,143.07-206.7,319.55-206.7s319.54,92.5,319.54,207S927.75,564.24,751.28,564.24a471.2,471.2,0,0,1-122.73-15.8l-27.61,26.71a254.35,254.35,0,0,1-51,37.84,199.15,199.15,0,0,1-72,20.45c1.36-2.39,2.61-4.89,3.86-7.39q41.59-76.35,22.5-137.5Z" style="fill:#fff"/><path d="M598.1,406.74A47.73,47.73,0,1,1,645,359a47.73,47.73,0,0,1-46.93,47.73Zm151.25,0A47.73,47.73,0,1,1,796.28,359a47.73,47.73,0,0,1-46.93,47.73Zm151.13,0a47.39,47.39,0,1,1,33.41-14.12,47.76,47.76,0,0,1-33.41,14.12Z" style="fill:#da2320"/><path d="M127.41,958a38.62,38.62,0,0,1-21.7,39.31l20.45,78.07c.91,3.53-.79,5.34-4.09,5.34h-31a4.66,4.66,0,0,1-5-4.2l-20-75.57H45.48v75a4.42,4.42,0,0,1-4.77,4.77H9.8A4.3,4.3,0,0,1,5,1075.94V847.3a4.31,4.31,0,0,1,4.77-4.77H84.69c28.06,0,43,14.89,43,42.84L127.41,958ZM75,961.62a10.67,10.67,0,0,0,11.36-11.36V893.78A10.56,10.56,0,0,0,75,882.42H45.48V962L75,961.62Z" style="fill:#fff"/><path d="M151.16,885.37c0-28,14.89-42.84,43-42.84h33.29c28.07,0,43,14.89,43,42.84v152.5c0,28-14.89,42.84-43,42.84H194.12c-28.07,0-43-14.88-43-42.84V885.37ZM220,1042.3A10.56,10.56,0,0,0,232,1030.94V892.87A10.68,10.68,0,0,0,220,881.51H202.75a10.68,10.68,0,0,0-11.93,11.36v137.5a10.58,10.58,0,0,0,11.93,11.37l17.28.56Z" style="fill:#fff"/><path d="M419.57,917.53a4.42,4.42,0,0,1-4.77,4.77H385a4.31,4.31,0,0,1-4.78-4.77V893.78a10.67,10.67,0,0,0-11.36-11.36h-16a10.56,10.56,0,0,0-11.93,11.36v135.68a10.57,10.57,0,0,0,11.93,11.94h15.91a10.58,10.58,0,0,0,11.36-11.94V1005.6a4.22,4.22,0,0,1,1.19-3.59,4.18,4.18,0,0,1,3.58-1.18h29.78a4.32,4.32,0,0,1,4.77,4.77v32.16c0,28-15.23,42.84-42.84,42.84h-33.3c-27.95,0-43.18-14.89-43.18-42.84V885.37c0-28,15.23-42.84,43.18-42.84h33.41c27.62,0,42.84,14.89,42.84,42.84v32.16Z" style="fill:#fff"/><path d="M545.25,1080.71a6.46,6.46,0,0,1-6.81-4.43l-37.62-88.52L489.46,1009v65.68a5.34,5.34,0,0,1-5.91,6h-28.3a5.33,5.33,0,0,1-5.9-6V848.44a5.34,5.34,0,0,1,5.9-5.91h28.64a5.34,5.34,0,0,1,5.91,5.91v92.39L535.25,847a7.17,7.17,0,0,1,6.82-4.43h31.37c4.43,0,6.25,3,4.09,7.16L527.87,953.55l53.41,120.23c2,3.87,0,6.82-4.43,6.82l-31.6.11Z" style="fill:#fff"/><path d="M721.85,877.08c0,2.95-1.14,5-4.78,5H642.64v59.54h56.82a4.54,4.54,0,0,1,4.77,5.12v29.43a4.53,4.53,0,0,1-4.77,5.11H642.64v60.12h74.43c3.64,0,4.78,1.47,4.78,4.77v29.77c0,3-1.14,4.77-4.78,4.77H607.41a4.31,4.31,0,0,1-4.54-4.77V847.3a4.32,4.32,0,0,1,1.16-3.44,4.38,4.38,0,0,1,3.38-1.33H717c3.64,0,4.77,1.82,4.77,4.77l.12,29.78Z" style="fill:#fff"/><path d="M860,842.53a4.32,4.32,0,0,1,4.77,4.77v29.78a4.32,4.32,0,0,1-4.77,4.77H825.94v194.09c0,3.3-1.48,4.77-4.78,4.77H789.8a4.3,4.3,0,0,1-4.77-4.77V881.85H750.94a4.44,4.44,0,0,1-4.78-4.77V847.3a4.45,4.45,0,0,1,4.78-4.77Z" style="fill:#fff"/><path d="M861.85,1047.42a5.34,5.34,0,0,1,6-5.91h27a5.35,5.35,0,0,1,6,5.91v27.38a5.35,5.35,0,0,1-6,5.91h-27a5.34,5.34,0,0,1-6-5.91v-27.38Z" style="fill:#fff"/><path d="M1050.6,917.53a4.32,4.32,0,0,1-4.66,4.77h-29.89a4.19,4.19,0,0,1-4.66-4.77V893.78A10.67,10.67,0,0,0,1000,882.42H984.46a10.44,10.44,0,0,0-11.36,11.36v135.68a10.46,10.46,0,0,0,11.36,11.94H1000a10.58,10.58,0,0,0,11.36-11.94V1005.6a4.2,4.2,0,0,1,4.66-4.77h29.89a4.32,4.32,0,0,1,4.66,4.77v32.16c0,28-15.12,42.84-42.85,42.84h-33.4c-28,0-43.19-14.89-43.19-42.84V885.37c0-28,15.23-42.84,43.19-42.84h33.4c27.73,0,42.85,14.89,42.85,42.84v32.16Z" style="fill:#fff"/><path d="M1158.44,847.3a4.38,4.38,0,0,1,1.28-3.48,4.44,4.44,0,0,1,3.49-1.29h30.68c3.64,0,5.11,1.82,5.11,4.77v228.64c0,3-1.47,4.77-5.11,4.77h-30.68a4.42,4.42,0,0,1-4.77-4.77V981.28h-38.07v94.66a4.44,4.44,0,0,1-1.29,3.49,4.38,4.38,0,0,1-3.48,1.28h-30.91c-3.53,0-5.12-1.81-5.12-4.77V847.3c0-2.95,1.59-4.77,5.12-4.77h30.68a4.43,4.43,0,0,1,4.77,4.77V942h38.07l.23-94.66Z" style="fill:#fff"/><path d="M1334.69,1080.71a4.66,4.66,0,0,1-4.78-4.2l-8.29-43.41h-53.07l-8,43.41a4.66,4.66,0,0,1-4.78,4.2h-31.93c-3.29,0-4.77-1.81-3.86-5.11l49.54-229.09a4.67,4.67,0,0,1,5.12-4.21h41.36a4.66,4.66,0,0,1,5.11,4.21l49.44,228.86c.56,3.3,0,5.12-4.21,5.12l-31.7.22ZM1295,894.58l-19,104h38.07l-19.09-104Z" style="fill:#fff"/><path d="M1482.41,842.53a4.32,4.32,0,0,1,4.78,4.77v29.78a4.32,4.32,0,0,1-4.78,4.77h-34.09v194.09c0,3.3-1.47,4.77-4.77,4.77h-31a4.31,4.31,0,0,1-4.78-4.77V881.85h-34.09a4.33,4.33,0,0,1-4.66-4.77V847.3a4.33,4.33,0,0,1,4.66-4.77Z" style="fill:#fff"/></svg>