<?xml version="1.0" encoding="utf-8"?>
<!-- Generator: Adobe Illustrator 16.0.0, SVG Export Plug-In . SVG Version: 6.00 Build 0)  -->
<!DOCTYPE svg PUBLIC "-//W3C//DTD SVG 1.1//EN" "http://www.w3.org/Graphics/SVG/1.1/DTD/svg11.dtd">
<svg version="1.1" id="Layer_1" xmlns="http://www.w3.org/2000/svg" xmlns:xlink="http://www.w3.org/1999/xlink" x="0px" y="0px"
	 width="319.025px" height="50.875px" viewBox="1.597 0 319.025 50.875" enable-background="new 1.597 0 319.025 50.875"
	 xml:space="preserve">
<g>
	<path fill="#F4F4F4" d="M27.955,24.453c0,4.297-1.603,7.119-4.681,8.465l4.425,16.803c0.192,0.771-0.192,1.154-0.898,1.154h-6.67
		c-0.641,0-0.961-0.32-1.09-0.898l-4.297-16.289h-4.425V49.85c0,0.643-0.384,1.025-1.026,1.025h-6.67
		c-0.641,0-1.026-0.385-1.026-1.025V0.595c0-0.641,0.385-1.026,1.026-1.026H18.72c6.028,0,9.235,3.207,9.235,9.235V24.453
		L27.955,24.453z M16.668,25.222c1.667,0,2.565-0.898,2.565-2.565V10.6c0-1.667-0.898-2.564-2.565-2.564h-6.349v17.187
		L16.668,25.222L16.668,25.222z"/>
	<path fill="#F4F4F4" d="M33.082,8.804c0-6.028,3.206-9.235,9.234-9.235H49.5c6.027,0,9.234,3.207,9.234,9.235V41.64
		c0,6.026-3.207,9.233-9.234,9.233h-7.184c-6.028,0-9.234-3.207-9.234-9.233V8.804z M47.896,42.601c1.666,0,2.564-0.834,2.564-2.565
		V10.408c0-1.667-0.898-2.565-2.564-2.565h-3.719c-1.668,0-2.566,0.898-2.566,2.565v29.629c0,1.73,0.898,2.564,2.566,2.564H47.896
		L47.896,42.601z"/>
	<path fill="#F4F4F4" d="M90.861,15.729c0,0.642-0.385,1.026-1.025,1.026h-6.413c-0.706,0-1.026-0.384-1.026-1.026V10.6
		c0-1.667-0.896-2.564-2.563-2.564h-3.335c-1.73,0-2.564,0.897-2.564,2.564v29.246c0,1.731,0.896,2.563,2.564,2.563h3.335
		c1.667,0,2.563-0.833,2.563-2.563v-5.132c0-0.642,0.32-1.026,1.026-1.026h6.413c0.643,0,1.025,0.384,1.025,1.026v6.927
		c0,6.027-3.271,9.234-9.234,9.234h-7.184c-6.027,0-9.299-3.207-9.299-9.234V8.804c0-6.028,3.271-9.235,9.299-9.235h7.184
		c5.964,0,9.234,3.207,9.234,9.235V15.729z"/>
	<path fill="#F4F4F4" d="M117.921,50.875c-0.771,0-1.218-0.32-1.476-0.961l-8.079-19.048l-2.374,4.554v14.172
		c0,0.834-0.448,1.283-1.282,1.283h-6.157c-0.834,0-1.283-0.449-1.283-1.283V0.852c0-0.833,0.449-1.283,1.283-1.283h6.157
		c0.833,0,1.282,0.449,1.282,1.283v19.881l9.876-20.202c0.321-0.641,0.771-0.962,1.476-0.962h6.733c0.962,0,1.347,0.642,0.897,1.539
		L114.073,23.49L125.68,49.4c0.448,0.834,0.063,1.475-0.962,1.475H117.921z"/>
	<path fill="#F4F4F4" d="M155.949,7.009c0,0.641-0.257,1.09-1.026,1.09H138.89v12.826h12.249c0.644,0,1.026,0.385,1.026,1.09v6.349
		c0,0.706-0.385,1.091-1.026,1.091H138.89v12.954h16.033c0.771,0,1.026,0.321,1.026,1.026v6.415c0,0.641-0.257,1.023-1.026,1.023
		h-23.6c-0.578,0-0.963-0.385-0.963-1.023V0.595c0-0.641,0.385-1.026,0.963-1.026h23.6c0.771,0,1.026,0.385,1.026,1.026V7.009z"/>
	<path fill="#F4F4F4" d="M185.703-0.431c0.705,0,1.026,0.385,1.026,1.026v6.414c0,0.641-0.321,1.026-1.026,1.026h-7.439V49.85
		c0,0.705-0.319,1.023-1.024,1.023h-6.67c-0.644,0-1.026-0.318-1.026-1.023V8.035h-7.438c-0.644,0-1.026-0.385-1.026-1.026V0.595
		c0-0.641,0.385-1.026,1.026-1.026H185.703z"/>
	<path fill="#F4F4F4" d="M186.084,43.69c0-0.834,0.449-1.282,1.283-1.282h5.836c0.834,0,1.282,0.448,1.282,1.282v5.899
		c0,0.836-0.448,1.283-1.282,1.283h-5.836c-0.834,0-1.283-0.447-1.283-1.283V43.69z"/>
	<path fill="#F4F4F4" d="M226.613,15.729c0,0.642-0.386,1.026-1.026,1.026h-6.413c-0.705,0-1.024-0.384-1.024-1.026V10.6
		c0-1.667-0.897-2.564-2.564-2.564h-3.335c-1.731,0-2.565,0.897-2.565,2.564v29.246c0,1.731,0.897,2.563,2.565,2.563h3.335
		c1.667,0,2.564-0.833,2.564-2.563v-5.132c0-0.642,0.319-1.026,1.024-1.026h6.413c0.644,0,1.026,0.384,1.026,1.026v6.927
		c0,6.027-3.271,9.234-9.235,9.234h-7.183c-6.028,0-9.299-3.207-9.299-9.234V8.804c0-6.028,3.271-9.235,9.299-9.235h7.183
		c5.965,0,9.235,3.207,9.235,9.235V15.729z"/>
	<path fill="#F4F4F4" d="M249.954,0.595c0-0.641,0.384-1.026,1.025-1.026h6.604c0.771,0,1.089,0.385,1.089,1.026V49.85
		c0,0.641-0.32,1.023-1.089,1.023h-6.604c-0.644,0-1.025-0.385-1.025-1.023V29.455h-8.209V49.85c0,0.643-0.385,1.025-1.026,1.025
		h-6.604c-0.771,0-1.091-0.385-1.091-1.025V0.595c0-0.641,0.319-1.026,1.091-1.026h6.604c0.644,0,1.026,0.385,1.026,1.026v20.394
		h8.209V0.595L249.954,0.595z"/>
	<path fill="#F4F4F4" d="M287.918,50.875c-0.577,0-0.896-0.32-1.026-0.898l-1.795-9.362h-11.416l-1.729,9.362
		c-0.129,0.578-0.449,0.898-1.026,0.898h-6.86c-0.705,0-1.026-0.385-0.835-1.09l10.646-49.318c0.129-0.641,0.513-0.898,1.09-0.898
		h8.915c0.577,0,0.962,0.257,1.09,0.898l10.646,49.318c0.129,0.705-0.128,1.09-0.897,1.09H287.918z M279.388,10.792l-4.104,22.382
		h8.209L279.388,10.792z"/>
	<path fill="#F4F4F4" d="M319.596-0.431c0.705,0,1.026,0.385,1.026,1.026v6.414c0,0.641-0.321,1.026-1.026,1.026h-7.438V49.85
		c0,0.705-0.321,1.023-1.026,1.023h-6.67c-0.641,0-1.025-0.318-1.025-1.023V8.035h-7.438c-0.642,0-1.025-0.385-1.025-1.026V0.595
		c0-0.641,0.386-1.026,1.025-1.026H319.596z"/>
</g>
</svg>
