<?xml version="1.0" encoding="UTF-8" standalone="no"?>
<svg
   xmlns:dc="http://purl.org/dc/elements/1.1/"
   xmlns:cc="http://creativecommons.org/ns#"
   xmlns:rdf="http://www.w3.org/1999/02/22-rdf-syntax-ns#"
   xmlns:svg="http://www.w3.org/2000/svg"
   xmlns="http://www.w3.org/2000/svg"
   xmlns:sodipodi="http://sodipodi.sourceforge.net/DTD/sodipodi-0.dtd"
   xmlns:inkscape="http://www.inkscape.org/namespaces/inkscape"
   viewBox="0 0 345 304"
   version="1.1"
   id="svg10"
   sodipodi:docname="Basis.svg"
   inkscape:version="0.91 r13725">
  <metadata
     id="metadata16">
    <rdf:RDF>
      <cc:Work
         rdf:about="">
        <dc:format>image/svg+xml</dc:format>
        <dc:type
           rdf:resource="http://purl.org/dc/dcmitype/StillImage" />
        <dc:title></dc:title>
      </cc:Work>
    </rdf:RDF>
  </metadata>
  <defs
     id="defs14" />
  <sodipodi:namedview
     pagecolor="#ffffff"
     bordercolor="#666666"
     borderopacity="1"
     objecttolerance="10"
     gridtolerance="10"
     guidetolerance="10"
     inkscape:pageopacity="0"
     inkscape:pageshadow="2"
     inkscape:window-width="1440"
     inkscape:window-height="852"
     id="namedview12"
     showgrid="false"
     inkscape:zoom="0.77631579"
     inkscape:cx="-60.008474"
     inkscape:cy="152"
     inkscape:window-x="0"
     inkscape:window-y="0"
     inkscape:window-maximized="1"
     inkscape:current-layer="g8" />
  <g
     id="g8"
     style="fill:none;fill-rule:nonzero">
    <path
       d="m 242.52111,115.02021 0.003,0.004 -0.001,-0.002 z M 125.6255,53.226651 c 6.25912,3.47742 12.17657,7.87618 17.22922,12.76565 8.1454,-1.47509 16.54411,-2.21911 25.06417,-2.21911 25.50657,0 49.68886,6.6921 68.08744,18.8398 9.52858,6.29388 17.10197,13.76123 22.50749,22.197049 6.02054,9.40016 9.07204,19.50842 9.07204,30.34008 0,10.54007 -3.0515,20.65245 -9.07204,30.05026 -5.40552,8.43994 -12.97891,15.90553 -22.50691,22.1994 -18.39916,12.14711 -42.57968,18.83568 -68.08743,18.83568 -8.52065,0 -16.91759,-0.74402 -25.06476,-2.21794 -5.05501,4.88771 -10.9701,9.28942 -17.22922,12.76566 -33.444606,16.75264 -61.179721,0.39469 -61.179721,0.39469 0,0 25.786393,-21.89543 21.593225,-41.08927 -11.537987,-11.82723 -17.788858,-26.09155 -17.788858,-41.22595 0,-14.84929 6.253228,-29.11301 17.788858,-40.942009 4.192579,-19.18913 -21.584388,-41.08044 -21.593225,-41.08751 0.0082,-0.005 27.740417,-16.357949 61.179721,0.39352 z"
       id="path2"
       inkscape:connector-curvature="0"
       style="fill:#000000;stroke:none;stroke-opacity:1;fill-opacity:1" />
  </g>
</svg>
