<?xml version="1.0" encoding="UTF-8" standalone="no"?>
<svg
   xmlns:dc="http://purl.org/dc/elements/1.1/"
   xmlns:cc="http://creativecommons.org/ns#"
   xmlns:rdf="http://www.w3.org/1999/02/22-rdf-syntax-ns#"
   xmlns:svg="http://www.w3.org/2000/svg"
   xmlns="http://www.w3.org/2000/svg"
   xmlns:sodipodi="http://sodipodi.sourceforge.net/DTD/sodipodi-0.dtd"
   xmlns:inkscape="http://www.inkscape.org/namespaces/inkscape"
   viewBox="0 0 345 304"
   version="1.1"
   id="svg10"
   sodipodi:docname="Stanzer.svg"
   inkscape:version="0.91 r13725">
  <metadata
     id="metadata16">
    <rdf:RDF>
      <cc:Work
         rdf:about="">
        <dc:format>image/svg+xml</dc:format>
        <dc:type
           rdf:resource="http://purl.org/dc/dcmitype/StillImage" />
        <dc:title></dc:title>
      </cc:Work>
    </rdf:RDF>
  </metadata>
  <defs
     id="defs14" />
  <sodipodi:namedview
     pagecolor="#ffffff"
     bordercolor="#666666"
     borderopacity="1"
     objecttolerance="10"
     gridtolerance="10"
     guidetolerance="10"
     inkscape:pageopacity="0"
     inkscape:pageshadow="2"
     inkscape:window-width="1440"
     inkscape:window-height="852"
     id="namedview12"
     showgrid="false"
     inkscape:zoom="3.5689618"
     inkscape:cx="165.36012"
     inkscape:cy="168.99201"
     inkscape:window-x="0"
     inkscape:window-y="0"
     inkscape:window-maximized="1"
     inkscape:current-layer="g8" />
  <g
     id="g8"
     style="fill:none;fill-rule:nonzero">
    <path
       style="color:#000000;font-style:normal;font-variant:normal;font-weight:normal;font-stretch:normal;font-size:medium;line-height:normal;font-family:sans-serif;text-indent:0;text-align:start;text-decoration:none;text-decoration-line:none;text-decoration-style:solid;text-decoration-color:#000000;letter-spacing:normal;word-spacing:normal;text-transform:none;direction:ltr;block-progression:tb;writing-mode:lr-tb;baseline-shift:baseline;text-anchor:start;white-space:normal;clip-rule:nonzero;display:inline;overflow:visible;visibility:visible;opacity:1;isolation:auto;mix-blend-mode:normal;color-interpolation:sRGB;color-interpolation-filters:linearRGB;solid-color:#000000;solid-opacity:1;fill:#000000;fill-opacity:1;fill-rule:nonzero;stroke:none;stroke-width:3.54330707;stroke-linecap:butt;stroke-linejoin:miter;stroke-miterlimit:4;stroke-dasharray:none;stroke-dashoffset:0;stroke-opacity:1;color-rendering:auto;image-rendering:auto;shape-rendering:auto;text-rendering:auto;enable-background:accumulate"
       d="m 91.490234,44.009766 c -1.047168,0.04633 -2.072666,0.115406 -3.075112,0.204215 -1.002447,0.08881 -1.981842,0.197348 -2.936806,0.322592 -0.954963,0.125244 -1.885496,0.267193 -2.790216,0.422822 -0.90472,0.155629 -1.783628,0.324939 -2.635344,0.504905 -0.851715,0.179966 -1.676239,0.370589 -2.472189,0.568843 -0.795951,0.198253 -1.563329,0.404139 -2.300753,0.614632 -0.737425,0.210493 -1.444896,0.425593 -2.121034,0.642276 -0.676138,0.216683 -1.320942,0.434949 -1.933032,0.651773 -0.612091,0.216824 -1.191467,0.432207 -1.736749,0.643123 -0.545281,0.210917 -1.056469,0.417368 -1.532181,0.616328 -0.475713,0.19896 -0.915951,0.39043 -1.319333,0.571384 -0.403383,0.180955 -0.76991,0.351395 -1.098202,0.508296 -0.328292,0.156901 -0.618348,0.300262 -0.868788,0.427059 -0.25044,0.126798 -0.461264,0.237032 -0.631092,0.327678 -0.169827,0.09065 -0.298658,0.161703 -0.385113,0.210148 -0.08645,0.04844 -0.130532,0.07428 -0.130852,0.07447 l -0.134888,0.08227 -0.134888,0.08228 -0.134887,0.08228 -0.134888,0.08228 -0.134888,0.08228 -0.134887,0.08228 -0.134888,0.08227 -0.134888,0.08228 -0.134888,0.08228 -0.134888,0.08227 -0.134887,0.08228 -0.134888,0.08228 -0.134888,0.08228 -0.134887,0.08228 -0.134888,0.08228 -0.134888,0.08228 0.123413,0.09876 0.123413,0.09875 0.123413,0.09875 0.123413,0.09876 0.123414,0.09875 0.123413,0.09875 0.123413,0.09876 0.123413,0.09875 0.123413,0.09875 0.123413,0.09876 0.123413,0.09875 0.123414,0.09875 0.123413,0.09876 0.123413,0.09875 0.123413,0.09876 0.123413,0.09875 c 2.75e-4,2.19e-4 0.02503,0.02126 0.07261,0.0624 0.04758,0.04114 0.118,0.102368 0.209597,0.182971 0.0916,0.0806 0.204379,0.180577 0.336694,0.299198 0.132315,0.11862 0.284164,0.255886 0.4539,0.411073 0.169737,0.155187 0.357359,0.328294 0.561221,0.518598 0.203861,0.190304 0.423961,0.397803 0.658651,0.621773 0.234691,0.22397 0.483972,0.464411 0.746195,0.720598 0.262223,0.256186 0.537389,0.528118 0.823849,0.815071 0.28646,0.286953 0.584215,0.588926 0.891616,0.905195 0.307401,0.316268 0.624449,0.646833 0.949494,0.990967 0.325046,0.344135 0.65809,0.70184 0.997485,1.07239 0.339394,0.370551 0.685139,0.753946 1.035586,1.149462 0.350447,0.395516 0.705596,0.803152 1.0638,1.222184 0.358203,0.419031 0.719461,0.849458 1.082125,1.290554 0.362664,0.441097 0.726734,0.892864 1.090563,1.354576 0.363828,0.461711 0.727414,0.933368 1.089111,1.414245 0.356296,0.473697 0.709567,0.955672 1.058389,1.445144 0.348823,0.489472 0.693198,0.986442 1.031703,1.49013 0.338505,0.503687 0.671139,1.014091 0.996482,1.530432 0.325342,0.516341 0.643393,1.038619 0.952728,1.566054 0.309336,0.527434 0.609957,1.060025 0.900442,1.596992 0.290485,0.536967 0.570832,1.078309 0.839621,1.623248 0.268789,0.544938 0.526019,1.093472 0.770268,1.644821 0.244248,0.55135 0.475516,1.105514 0.69238,1.661713 0.216864,0.5562 0.419325,1.114434 0.60596,1.673922 0.186636,0.559489 0.357445,1.120232 0.511007,1.681449 0.153562,0.561216 0.289876,1.122907 0.407519,1.684292 0.117644,0.561384 0.216618,1.122463 0.2955,1.682454 0.07888,0.559991 0.13767,1.118896 0.174945,1.675933 0.03728,0.557038 0.05304,1.112208 0.04586,1.664731 -0.0072,0.552523 -0.03729,1.102398 -0.09176,1.648845 -0.05447,0.546447 -0.133304,1.089466 -0.237916,1.628277 -0.720717,0.751429 -1.421177,1.512683 -2.101096,2.283299 -0.679918,0.770615 -1.339296,1.550592 -1.97785,2.339468 -0.638554,0.788876 -1.256284,1.58665 -1.852906,2.392859 -0.596623,0.80621 -1.172139,1.62085 -1.726265,2.44347 -0.554125,0.82262 -1.086861,1.65321 -1.597923,2.4913 -0.511062,0.8381 -1.000451,1.68371 -1.467884,2.53636 -0.467433,0.85265 -0.912909,1.71235 -1.336147,2.57863 -0.423237,0.86628 -0.824235,1.73914 -1.20271,2.61812 -0.378476,0.87898 -0.734429,1.76408 -1.067576,2.65484 -0.333148,0.89076 -0.64349,1.78717 -0.930743,2.68877 -0.287253,0.90161 -0.551418,1.80841 -0.792212,2.71994 -0.240793,0.91152 -0.458214,1.82778 -0.651981,2.74831 -0.193767,0.92052 -0.363879,1.84531 -0.510054,2.77391 -0.146174,0.92859 -0.268411,1.86099 -0.366426,2.79672 -0.09802,0.93574 -0.171811,1.87482 -0.221102,2.81677 -0.04929,0.94195 -0.07408,1.88679 -0.07408,2.83403 0,0.96425 0.02478,1.92508 0.07405,2.88207 0.04927,0.95699 0.123043,1.91015 0.221027,2.85908 0.09798,0.94892 0.220183,1.89362 0.366316,2.83367 0.146133,0.94005 0.316199,1.87547 0.509917,2.80584 0.193719,0.93038 0.411089,1.85571 0.651831,2.7756 0.240742,0.91989 0.504855,1.83434 0.792058,2.74294 0.287202,0.9086 0.597495,1.81135 0.930596,2.70785 0.3331,0.8965 0.68901,1.78675 1.067447,2.67035 0.378436,0.8836 0.7794,1.76055 1.20261,2.63044 0.42321,0.86989 0.868666,1.73272 1.336087,2.58809 0.467421,0.85538 0.956806,1.70329 1.467875,2.54335 0.511069,0.84005 1.043821,1.67224 1.597976,2.49616 0.554155,0.82393 1.129711,1.63959 1.726389,2.44658 0.596678,0.80699 1.214477,1.60531 1.853115,2.39456 0.638639,0.78925 1.298117,1.56943 1.978154,2.34013 0.680037,0.77071 1.380632,1.53194 2.101504,2.28329 0.104626,0.53895 0.183459,1.0821 0.237921,1.62868 0.05446,0.54658 0.08455,1.09658 0.0917,1.64922 0.0071,0.55265 -0.0087,1.10793 -0.04598,1.66508 -0.03732,0.55715 -0.09617,1.11616 -0.17512,1.67626 -0.07895,0.56009 -0.177996,1.12127 -0.29572,1.68275 -0.117724,0.56148 -0.254124,1.12326 -0.407778,1.68457 -0.153653,0.5613 -0.32456,1.12213 -0.511296,1.6817 -0.186736,0.55957 -0.389301,1.11788 -0.606273,1.67416 -0.216972,0.55627 -0.448349,1.11051 -0.69271,1.66193 -0.24436,0.55142 -0.501703,1.10002 -0.770605,1.64502 -0.268902,0.54501 -0.549364,1.08641 -0.839961,1.62344 -0.290597,0.53703 -0.59133,1.06968 -0.900775,1.59717 -0.309445,0.52749 -0.627603,1.04982 -0.953049,1.56621 -0.325447,0.5164 -0.658182,1.02685 -0.996783,1.53059 -0.3386,0.50374 -0.683066,1.00076 -1.031974,1.49028 -0.348908,0.48952 -0.702258,0.97154 -1.058627,1.44528 -0.36177,0.48092 -0.725584,0.95276 -1.089771,1.41476 -0.364188,0.462 -0.72875,0.91417 -1.092017,1.35576 -0.363268,0.4416 -0.725241,0.87261 -1.084252,1.29232 -0.35901,0.4197 -0.715058,0.82808 -1.066475,1.22441 -0.351416,0.39633 -0.698201,0.78059 -1.038687,1.15206 -0.340485,0.37146 -0.674671,0.73012 -1.000889,1.07524 -0.326217,0.34512 -0.644466,0.67669 -0.953079,0.99398 -0.308612,0.31729 -0.607587,0.62029 -0.895258,0.90826 -0.28767,0.28797 -0.564035,0.56092 -0.827426,0.81809 -0.263391,0.25717 -0.513808,0.49857 -0.749583,0.72346 -0.235775,0.22489 -0.456907,0.43326 -0.661729,0.62438 -0.204821,0.19112 -0.393332,0.36498 -0.563863,0.52084 -0.170532,0.15587 -0.323084,0.29373 -0.455988,0.41286 -0.132904,0.11912 -0.24616,0.21951 -0.3381,0.30041 -0.09194,0.0809 -0.162563,0.14232 -0.210201,0.18351 -0.04764,0.0412 -0.07229,0.0622 -0.07229,0.0622 l -0.118652,0.10071 -0.118653,0.10071 -0.118652,0.1007 -0.118652,0.10071 -0.118653,0.10071 -0.118652,0.10071 -0.118652,0.10071 -0.118653,0.10071 -0.118652,0.1007 -0.118652,0.10071 -0.118652,0.10071 -0.118653,0.10071 -0.118652,0.10071 -0.118652,0.1007 -0.118653,0.10071 -0.118652,0.10071 0.134033,0.079 0.134033,0.079 0.134034,0.079 0.134033,0.079 0.134033,0.079 0.134033,0.079 0.134033,0.079 0.134033,0.079 0.134034,0.079 0.134033,0.079 0.134033,0.079 0.134033,0.079 0.134033,0.079 0.134034,0.079 0.134033,0.079 0.134033,0.079 c 0,0 0.11198,0.0656 0.330293,0.18448 0.218314,0.11886 0.542961,0.29095 0.968297,0.50389 0.425335,0.21295 0.951359,0.46674 1.572424,0.74899 0.621066,0.28226 1.337174,0.59298 2.142678,0.91978 0.805504,0.32679 1.700404,0.66967 2.679055,1.01623 0.97865,0.34657 2.041052,0.69683 3.181557,1.03839 1.140506,0.34156 2.359117,0.67443 3.650186,0.98621 1.291069,0.31179 2.654597,0.6025 4.084937,0.85974 1.430341,0.25723 2.927495,0.481 4.485815,0.65892 1.558321,0.17792 3.177808,0.30999 4.852817,0.38381 1.675009,0.0738 3.405539,0.0894 5.185944,0.0344 1.780405,-0.055 3.610685,-0.18071 5.485195,-0.38938 1.87451,-0.20868 3.79325,-0.50036 5.75057,-0.88745 1.95733,-0.38708 3.95323,-0.86957 5.98208,-1.45983 2.02884,-0.59027 4.09062,-1.28832 6.1797,-2.10654 2.08907,-0.81822 4.20544,-1.7566 6.34345,-2.82755 l 0.002,-0.001 0.002,-0.001 0.002,-0.001 0.002,-0.001 0.002,-0.001 0.002,-0.001 0.002,-0.001 0.002,-0.001 0.002,-0.001 0.002,-0.001 0.002,-0.001 0.002,-0.001 0.002,-0.001 0.002,-0.001 0.002,-0.001 0.002,-0.001 0.002,-0.001 0.002,-0.001 0.002,-0.001 0.002,-0.001 0.002,-0.001 0.002,-0.001 0.002,-0.001 0.002,-0.001 0.002,-0.001 0.002,-0.001 0.002,-0.001 0.002,-0.001 0.002,-0.001 0.002,-0.001 0.002,-0.001 0.002,-0.001 c 0.3834,-0.21294 0.76531,-0.42936 1.14564,-0.64915 0.38032,-0.2198 0.75906,-0.44297 1.13614,-0.6694 0.37708,-0.22644 0.75249,-0.45614 1.12615,-0.689 0.37366,-0.23286 0.74557,-0.46888 1.11564,-0.70796 0.37007,-0.23907 0.73831,-0.48119 1.10463,-0.72626 0.36633,-0.24507 0.73073,-0.49309 1.09313,-0.74394 0.3624,-0.25085 0.72279,-0.50454 1.0811,-0.76096 0.35831,-0.25642 0.71453,-0.51557 1.06858,-0.77734 0.35405,-0.26177 0.70593,-0.52616 1.05555,-0.79307 0.34962,-0.26691 0.69699,-0.53634 1.04202,-0.80817 0.34503,-0.27183 0.68772,-0.54607 1.02798,-0.82261 0.34026,-0.27654 0.6781,-0.55538 1.01343,-0.83642 0.33534,-0.28103 0.66816,-0.56426 0.99839,-0.84957 0.33023,-0.28531 0.65787,-0.57271 0.98284,-0.86209 0.32496,-0.28938 0.64724,-0.58073 0.96677,-0.87396 0.31953,-0.29322 0.63629,-0.58832 0.95021,-0.88518 0.49932,0.0871 0.99949,0.17164 1.50048,0.2536 0.501,0.082 1.00282,0.16132 1.50544,0.23809 0.50263,0.0768 1.00605,0.15093 1.51026,0.22247 0.50421,0.0715 1.00919,0.14046 1.51493,0.20673 0.50575,0.0663 1.01225,0.12991 1.51948,0.19088 0.50724,0.061 1.0152,0.11927 1.52388,0.17489 0.50868,0.0556 1.01808,0.10856 1.52816,0.1588 0.51007,0.0502 1.02084,0.0978 1.53228,0.14259 0.51143,0.0448 1.02353,0.0869 1.53627,0.12625 0.51274,0.0394 1.02613,0.076 1.54013,0.10981 0.51401,0.0339 1.02863,0.0649 1.54385,0.0932 0.51522,0.0283 1.03104,0.0538 1.54743,0.0765 0.51639,0.0227 1.03336,0.0426 1.55088,0.0597 0.51752,0.0171 1.03558,0.0314 1.55418,0.0428 0.5186,0.0114 1.03772,0.02 1.55735,0.0258 0.51964,0.006 1.03977,0.009 1.56039,0.009 1.61359,0 3.22204,-0.0264 4.82425,-0.0789 1.60221,-0.0525 3.1982,-0.13108 4.78687,-0.23549 1.58867,-0.10442 3.17002,-0.23466 4.74298,-0.39046 1.57296,-0.15579 3.13753,-0.33714 4.69261,-0.54376 1.55508,-0.20663 3.10069,-0.43853 4.63573,-0.69542 1.53504,-0.2569 3.05951,-0.5388 4.57234,-0.84542 1.51283,-0.30662 3.01402,-0.63797 4.50247,-0.99376 1.48845,-0.35579 2.96418,-0.73603 4.42609,-1.14044 1.46191,-0.40441 2.91001,-0.83299 4.34321,-1.28546 1.4332,-0.45248 2.85151,-0.92885 4.25384,-1.42884 1.40232,-0.49999 2.78867,-1.0236 4.15795,-1.57055 1.36929,-0.54695 2.72151,-1.11724 4.05558,-1.7106 1.33408,-0.59336 2.65001,-1.20979 3.94671,-1.849 1.2967,-0.63922 2.57417,-1.30123 3.83133,-1.98575 1.25716,-0.68452 2.49401,-1.39156 3.70946,-2.12083 1.21545,-0.72927 2.4095,-1.48079 3.58108,-2.25426 0.60658,-0.40069 1.20558,-0.80617 1.79693,-1.2164 0.59134,-0.41024 1.17504,-0.82521 1.75102,-1.24489 0.57597,-0.41968 1.14423,-0.84406 1.70471,-1.27309 0.56048,-0.42904 1.11318,-0.86272 1.65803,-1.30101 0.54485,-0.4383 1.08186,-0.88119 1.61095,-1.32865 0.5291,-0.44746 1.05028,-0.89948 1.56348,-1.35601 0.51321,-0.45653 1.01844,-0.91757 1.51563,-1.38308 0.49718,-0.4655 0.98633,-0.93548 1.46737,-1.40987 0.48104,-0.47439 0.95397,-0.9532 1.41874,-1.43638 0.46476,-0.48318 0.92135,-0.97073 1.36971,-1.46261 0.44835,-0.49188 0.88847,-0.98808 1.32029,-1.48856 0.43182,-0.50048 0.85534,-1.00523 1.27049,-1.51422 0.41515,-0.50898 0.82193,-1.0222 1.22029,-1.5396 0.39835,-0.5174 0.78828,-1.03899 1.1697,-1.56471 0.38143,-0.52572 0.75436,-1.05557 1.11873,-1.58952 0.36438,-0.53395 0.72019,-1.07198 1.06737,-1.61406 0.38658,-0.60343 0.76136,-1.21005 1.12432,-1.81974 0.36296,-0.60969 0.71409,-1.22247 1.05335,-1.83823 0.33926,-0.61576 0.66666,-1.23451 0.98216,-1.85614 0.3155,-0.62163 0.6191,-1.24614 0.91076,-1.87345 0.29166,-0.6273 0.57138,-1.25739 0.83913,-1.89017 0.26776,-0.63279 0.52353,-1.26826 0.7673,-1.90632 0.24377,-0.63807 0.47554,-1.27873 0.69525,-1.92188 0.21972,-0.64315 0.42739,-1.2888 0.62298,-1.93684 0.19559,-0.64804 0.37911,-1.29848 0.5505,-1.95122 0.17139,-0.65274 0.33067,-1.30778 0.4778,-1.96502 0.14712,-0.65724 0.2821,-1.31668 0.40488,-1.97822 0.12278,-0.66154 0.23338,-1.32519 0.33175,-1.99084 0.0984,-0.66565 0.18452,-1.3333 0.25841,-2.00287 0.0739,-0.66956 0.13551,-1.34103 0.18484,-2.01431 0.0493,-0.67328 0.0864,-1.34837 0.11106,-2.02517 0.0247,-0.6768 0.0371,-1.35531 0.0371,-2.03544 0,-0.69777 -0.0124,-1.39285 -0.0371,-2.0852 -0.0247,-0.69235 -0.0617,-1.38196 -0.11107,-2.06882 -0.0493,-0.68686 -0.11097,-1.37096 -0.18486,-2.05226 -0.0739,-0.68131 -0.16004,-1.35983 -0.25841,-2.03552 -0.0984,-0.6757 -0.20898,-1.34857 -0.33177,-2.01859 -0.12279,-0.67003 -0.25777,-1.3372 -0.4049,-2.00148 -0.14713,-0.66429 -0.30641,-1.32569 -0.47781,-1.98418 -0.1714,-0.65849 -0.35492,-1.31407 -0.55051,-1.9667 -0.1956,-0.65264 -0.40327,-1.30232 -0.62299,-1.94904 -0.21972,-0.64671 -0.45148,-1.29045 -0.69526,-1.93118 -0.24377,-0.64074 -0.49955,-1.27846 -0.7673,-1.91315 -0.26775,-0.63469 -0.54747,-1.26635 -0.83913,-1.89494 -0.29166,-0.62858 -0.59525,-1.2541 -0.91074,-1.87653 -0.31549,-0.62242 -0.64289,-1.24174 -0.98214,-1.85794 -0.33926,-0.6162 -0.69037,-1.22926 -1.05332,-1.83917 -0.36294,-0.60991 -0.73772,-1.21666 -1.12428,-1.82022 l 0,-1.2e-4 0,-1.3e-4 0,-1.2e-4 0,-1.3e-4 0,-1.2e-4 0,-1.3e-4 0,-1.2e-4 0,-1.3e-4 0,-1.2e-4 0,-1.3e-4 0,-1.2e-4 0,-1.3e-4 0,-1.2e-4 0,-1.3e-4 0,-1.2e-4 0,-1.3e-4 c -0.34718,-0.5418 -0.70298,-1.07957 -1.06734,-1.61328 -0.36436,-0.5337 -0.73728,-1.06333 -1.11869,-1.58884 -0.38141,-0.52551 -0.77132,-1.046903 -1.16966,-1.564126 -0.39834,-0.517223 -0.80511,-1.030278 -1.22025,-1.539117 -0.41513,-0.508838 -0.83863,-1.01346 -1.27044,-1.513818 -0.4318,-0.500357 -0.8719,-0.99645 -1.32024,-1.48823 -0.44835,-0.49178 -0.90492,-0.979246 -1.36967,-1.462352 -0.46475,-0.483106 -0.93768,-0.96185 -1.41871,-1.436185 -0.48103,-0.474335 -0.97017,-0.944261 -1.46735,-1.409728 -0.49718,-0.465468 -1.0024,-0.926478 -1.51561,-1.382982 -0.5132,-0.456505 -1.03439,-0.908503 -1.56348,-1.355947 -0.5291,-0.447444 -1.06611,-0.890333 -1.61097,-1.32862 -0.54487,-0.438288 -1.09758,-0.871972 -1.65808,-1.301006 -0.56049,-0.429034 -1.12878,-0.853418 -1.70478,-1.273102 -0.576,-0.419684 -1.15973,-0.834669 -1.75111,-1.244907 -0.59138,-0.410238 -1.19042,-0.815729 -1.79705,-1.216424 -1.17154,-0.773509 -2.36557,-1.525068 -3.58101,-2.254397 -1.21544,-0.72933 -2.45229,-1.436431 -3.70947,-2.121025 -1.25718,-0.684594 -2.53468,-1.346682 -3.83142,-1.985986 -1.29674,-0.639304 -2.61272,-1.255824 -3.94685,-1.849283 -1.33414,-0.593458 -2.68642,-1.163855 -4.05578,-1.710912 -1.36935,-0.547058 -2.75578,-1.070776 -4.15819,-1.570877 -1.4024,-0.500101 -2.82079,-0.976585 -4.25408,-1.429175 -1.43329,-0.45259 -2.88148,-0.881285 -4.34347,-1.285808 -1.462,-0.404523 -2.93781,-0.784874 -4.42635,-1.140775 -1.48854,-0.355901 -2.9898,-0.687352 -4.50271,-0.994076 -1.5129,-0.306724 -3.03745,-0.588721 -4.57255,-0.845712 -1.5351,-0.256991 -3.08076,-0.488978 -4.63589,-0.695681 -1.55513,-0.206704 -3.11973,-0.388125 -4.69272,-0.543985 -1.57298,-0.155861 -3.15435,-0.286161 -4.74302,-0.390624 -1.58867,-0.104462 -3.18464,-0.183086 -4.78683,-0.235595 -1.60218,-0.05251 -3.21058,-0.0789 -4.82411,-0.0789 -0.52058,0 -1.04068,0.0029 -1.56028,0.0086 -0.5196,0.0057 -1.03869,0.01432 -1.55726,0.02575 -0.51856,0.01143 -1.0366,0.02569 -1.55409,0.04277 -0.51749,0.01708 -1.03443,0.03698 -1.55079,0.05968 -0.51636,0.0227 -1.03215,0.0482 -1.54735,0.07648 -0.51519,0.02828 -1.02979,0.05934 -1.54377,0.09317 -0.51397,0.03382 -1.02733,0.07041 -1.54004,0.10974 -0.51271,0.03933 -1.02478,0.0814 -1.53618,0.126198 -0.51141,0.0448 -1.02214,0.09232 -1.53219,0.142542 -0.51004,0.05023 -1.0194,0.103157 -1.52804,0.158774 -0.50864,0.05562 -1.01657,0.113921 -1.52376,0.174892 -0.50719,0.06097 -1.01364,0.124609 -1.51934,0.190896 -0.50569,0.06629 -1.01062,0.135221 -1.51477,0.206786 -0.50416,0.07156 -1.00752,0.145759 -1.51008,0.222564 -0.50256,0.07681 -1.00432,0.156221 -1.50524,0.238228 -0.50093,0.08201 -1.00102,0.166606 -1.50026,0.253778 -0.31385,-0.296989 -0.63055,-0.592196 -0.95002,-0.885515 -0.31948,-0.293318 -0.64172,-0.584749 -0.96665,-0.874186 -0.32493,-0.289438 -0.65255,-0.576882 -0.98276,-0.862227 -0.33022,-0.285346 -0.66304,-0.568592 -0.99837,-0.849635 -0.33533,-0.281043 -0.67318,-0.559882 -1.01345,-0.836412 -0.34028,-0.27653 -0.68298,-0.55075 -1.02803,-0.822556 -0.34504,-0.271806 -0.69243,-0.541198 -1.04208,-0.80807 -0.34965,-0.266872 -0.70156,-0.531224 -1.05564,-0.792951 -0.35408,-0.261727 -0.71033,-0.520829 -1.06867,-0.7772 -0.35834,-0.256372 -0.71876,-0.510013 -1.08119,-0.760819 -0.36243,-0.250805 -0.72685,-0.498775 -1.0932,-0.743804 -0.36634,-0.245029 -0.7346,-0.487117 -1.10469,-0.726159 -0.37009,-0.239042 -0.74201,-0.475037 -1.11567,-0.707881 -0.37367,-0.232844 -0.74908,-0.462537 -1.12615,-0.688973 -0.37706,-0.226435 -0.75579,-0.449614 -1.13609,-0.669431 -0.3803,-0.219817 -0.76218,-0.436272 -1.14554,-0.649259 l -0.002,-0.0011 -0.002,-0.0011 -0.002,-0.0011 -0.002,-0.0011 -0.002,-0.0011 -0.002,-0.0011 -0.002,-0.0011 -0.002,-0.0011 -0.002,-0.0011 -0.002,-0.0011 -0.002,-0.0011 -0.002,-0.0011 -0.002,-0.0011 -0.002,-0.0011 -0.002,-0.0011 -0.002,-0.0011 -0.002,-0.0011 -0.002,-0.0011 -0.002,-0.0011 -0.002,-0.0011 -0.002,-0.0011 -0.002,-0.0011 -0.002,-0.0011 -0.002,-0.0011 -0.002,-0.0011 -0.002,-0.0011 -0.002,-0.0011 -0.002,-0.0011 -0.002,-0.0011 -0.002,-0.0011 -0.002,-0.0011 -0.002,-0.0011 c -0.80163,-0.401577 -1.60023,-0.78451 -2.3955,-1.149452 -0.79528,-0.364941 -1.58723,-0.711892 -2.37555,-1.041505 -0.78832,-0.329614 -1.57302,-0.641889 -2.35379,-0.93748 -0.78077,-0.295592 -1.55762,-0.574498 -2.33025,-0.837374 -0.77262,-0.262876 -1.54103,-0.509721 -2.30491,-0.741188 -0.76388,-0.231466 -1.52324,-0.447556 -2.27779,-0.64892 -0.75454,-0.201365 -1.50426,-0.388005 -2.24887,-0.560574 -0.7446,-0.172569 -1.48409,-0.331067 -2.21816,-0.476147 -0.73407,-0.14508 -1.46272,-0.276742 -2.18566,-0.395639 -0.72294,-0.118898 -1.44016,-0.22503 -2.15137,-0.319052 -0.71121,-0.09402 -1.41641,-0.175932 -2.1153,-0.246384 -0.69888,-0.07045 -1.39145,-0.129446 -2.077415,-0.177636 -0.685962,-0.04819 -1.365314,-0.08557 -2.037756,-0.112807 -0.672442,-0.02723 -1.337976,-0.04431 -1.996301,-0.0519 -0.658326,-0.0076 -1.309444,-0.0057 -1.953056,0.0051 -0.643611,0.01076 -1.279717,0.03036 -1.908018,0.05816 z m 0.169922,3.458984 c 0.592757,-0.0248 1.193037,-0.0418 1.800574,-0.05039 0.607536,-0.0086 1.222329,-0.0088 1.84411,8.5e-5 0.621781,0.0089 1.250549,0.02674 1.886038,0.05427 0.635489,0.02753 1.277697,0.06471 1.926357,0.112149 0.648661,0.04744 1.303775,0.105146 1.965065,0.173732 0.6613,0.06859 1.32878,0.148054 2.00217,0.23902 0.6734,0.09096 1.35271,0.193429 2.03767,0.308007 0.68496,0.114579 1.37556,0.241273 2.07155,0.380698 0.69599,0.139426 1.39735,0.291584 2.10383,0.45709 0.70648,0.165507 1.41806,0.344362 2.1345,0.537184 0.71643,0.192822 1.4377,0.399609 2.16355,0.62098 0.72585,0.22137 1.45628,0.457324 2.19101,0.708477 0.73474,0.251154 1.47378,0.517507 2.21686,0.799677 0.74307,0.28217 1.49019,0.580158 2.24108,0.894579 0.75089,0.314421 1.50555,0.645276 2.26372,0.993182 0.75816,0.347906 1.51983,0.712862 2.28473,1.095487 0.38179,0.212324 0.76234,0.428193 1.14152,0.647499 0.37919,0.219307 0.75699,0.442051 1.1333,0.668125 0.3763,0.226074 0.7511,0.455478 1.12426,0.688103 0.37317,0.232626 0.74469,0.468473 1.11445,0.707435 0.36975,0.238961 0.73773,0.481037 1.10381,0.726118 0.36608,0.245082 0.73026,0.493169 1.0924,0.744155 0.36214,0.250987 0.72224,0.504871 1.08018,0.761546 0.35793,0.256674 0.7137,0.51614 1.06716,0.778288 0.35346,0.262147 0.70462,0.526978 1.05335,0.794383 0.34872,0.267405 0.69501,0.537385 1.03873,0.809832 0.34373,0.272447 0.68488,0.547361 1.02333,0.824633 0.33845,0.277273 0.67421,0.556905 1.00712,0.838788 0.33292,0.281883 0.663,0.566017 0.99012,0.852295 0.32712,0.286277 0.65127,0.574698 0.97232,0.865155 0.32104,0.290456 0.63899,0.582948 0.95371,0.877367 0.31472,0.29442 0.6262,0.590767 0.93432,0.888934 l 0.0408,0.03955 0.0408,0.03955 0.0408,0.03955 0.0408,0.03955 0.0408,0.03955 0.0408,0.03955 0.0408,0.03955 0.0408,0.03955 0.0408,0.03955 0.0408,0.03955 0.0408,0.03955 0.0408,0.03955 0.0408,0.03955 0.0408,0.03955 0.0408,0.03955 0.0408,0.03955 0.0559,-0.01013 0.0559,-0.01013 0.0559,-0.01013 0.0559,-0.01013 0.0559,-0.01013 0.0559,-0.01013 0.0559,-0.01013 0.0559,-0.01013 0.0559,-0.01013 0.0559,-0.01013 0.0559,-0.01013 0.0559,-0.01013 0.0559,-0.01013 0.0559,-0.01013 0.0559,-0.01013 0.0559,-0.01013 c 0.50238,-0.09098 1.00575,-0.179144 1.51009,-0.264495 0.50434,-0.08535 1.00965,-0.167884 1.51588,-0.247598 0.50624,-0.07971 1.01341,-0.156609 1.52147,-0.23068 0.50807,-0.07407 1.01704,-0.145318 1.52687,-0.213737 0.50984,-0.06842 1.02054,-0.134012 1.53208,-0.196772 0.51154,-0.06276 1.02392,-0.12269 1.5371,-0.179783 0.51318,-0.05709 1.02716,-0.111352 1.54192,-0.162772 0.51475,-0.05142 1.03028,-0.1 1.54655,-0.145735 0.51626,-0.04574 1.03327,-0.08863 1.55099,-0.128678 0.51771,-0.04005 1.03613,-0.07725 1.55523,-0.111596 0.5191,-0.03435 1.03888,-0.06585 1.5593,-0.09449 0.52042,-0.02864 1.04148,-0.05443 1.56315,-0.07736 0.52168,-0.02293 1.04396,-0.043 1.56683,-0.06021 0.52287,-0.01721 1.04631,-0.03156 1.57031,-0.04304 0.52399,-0.01148 1.04853,-0.0201 1.57359,-0.02584 0.52506,-0.0057 1.05063,-0.0086 1.57669,-0.0086 1.57479,0 3.14437,0.02589 4.70765,0.07734 1.56327,0.05145 3.12024,0.128468 4.66981,0.23072 1.54957,0.102252 3.09174,0.22974 4.62542,0.38214 1.53368,0.152399 3.05887,0.329709 4.57447,0.531604 1.51561,0.201894 3.02163,0.428373 4.51698,0.679111 1.49535,0.250737 2.98002,0.525733 4.45292,0.82466 1.4729,0.298928 2.93404,0.621788 4.38231,0.968254 1.44827,0.346466 2.88369,0.716538 4.30515,1.109889 1.42146,0.393352 2.82896,0.809983 4.22142,1.249568 1.39246,0.439585 2.76988,0.902124 4.13115,1.38729 1.36128,0.485166 2.70641,0.992959 4.03432,1.523054 1.32791,0.530095 2.63858,1.082491 3.93094,1.656862 1.29235,0.574371 2.56638,1.170717 3.82099,1.788712 1.25462,0.617995 2.48981,1.257639 3.7045,1.918606 1.21469,0.660967 2.40887,1.343256 3.58145,2.046542 1.17258,0.703286 2.32356,1.427569 3.45185,2.172522 0.58444,0.38604 1.1612,0.776446 1.73025,1.171167 0.56904,0.394721 1.13036,0.793758 1.68392,1.197058 0.55357,0.403301 1.09937,0.810865 1.63737,1.222643 0.538,0.411777 1.06821,0.827767 1.59057,1.247919 0.52237,0.420152 1.03689,0.844466 1.54354,1.272891 0.50665,0.428425 1.00542,0.86096 1.49627,1.297555 0.49084,0.436594 0.97378,0.877249 1.44875,1.321912 0.47497,0.444662 0.94199,0.893334 1.401,1.345962 0.45902,0.452629 0.91004,0.909215 1.35302,1.369707 0.44298,0.460492 0.87793,0.92489 1.30479,1.393143 0.42687,0.468254 0.84566,0.940362 1.25633,1.416274 0.41068,0.475913 0.81323,0.955629 1.20763,1.439098 0.3944,0.483474 0.78064,0.970694 1.15869,1.461614 0.37805,0.49092 0.7479,0.98555 1.10951,1.48383 0.36162,0.49827 0.715,1.0002 1.0601,1.50572 0.3451,0.50553 0.68193,1.01466 1.01044,1.52733 0.36601,0.57146 0.72061,1.14526 1.0638,1.72144 0.3432,0.57618 0.67498,1.15474 0.99536,1.73571 0.32037,0.58098 0.62934,1.16437 0.92689,1.75022 0.29754,0.58585 0.58367,1.17415 0.85839,1.76495 0.27471,0.5908 0.538,1.18409 0.78986,1.77991 0.25187,0.59582 0.49231,1.19418 0.72132,1.79511 0.22902,0.60092 0.4466,1.20442 0.65275,1.81053 0.20615,0.6061 0.40087,1.21482 0.58415,1.82618 0.18327,0.61137 0.35512,1.22538 0.51551,1.84207 0.1604,0.6167 0.30936,1.23608 0.44687,1.85819 0.13751,0.62211 0.26358,1.24694 0.37819,1.87453 0.11462,0.6276 0.21778,1.25796 0.30949,1.89111 0.0917,0.63316 0.17196,1.26912 0.24076,1.90792 0.0688,0.6388 0.12613,1.28044 0.172,1.92496 0.0459,0.64451 0.0803,1.29191 0.10322,1.94222 0.0229,0.65031 0.0344,1.30354 0.0344,1.95972 0,0.63738 -0.0115,1.27303 -0.0344,1.90691 -0.0229,0.63388 -0.0573,1.26599 -0.10322,1.89628 -0.0459,0.63029 -0.10322,1.25876 -0.17201,1.88538 -0.0688,0.62662 -0.14906,1.25139 -0.24078,1.87425 -0.0917,0.62287 -0.19488,1.24383 -0.3095,1.86286 -0.11462,0.61903 -0.24069,1.23611 -0.3782,1.85122 -0.13752,0.6151 -0.28648,1.22823 -0.44689,1.83932 -0.1604,0.6111 -0.33225,1.22018 -0.51553,1.82719 -0.18328,0.60701 -0.378,1.21196 -0.58415,1.8148 -0.20616,0.60283 -0.42374,1.20357 -0.65276,1.80215 -0.22901,0.59858 -0.46945,1.19501 -0.72132,1.78926 -0.25186,0.59424 -0.51515,1.18629 -0.78986,1.77611 -0.27471,0.58982 -0.56084,1.17741 -0.85838,1.76273 -0.29754,0.58531 -0.6065,1.16835 -0.92686,1.74907 -0.32037,0.58073 -0.65215,1.15913 -0.99533,1.73518 -0.34318,0.57605 -0.69777,1.14975 -1.06376,1.72104 -0.32851,0.51291 -0.66532,1.02227 -1.01041,1.528 -0.34509,0.50574 -0.69844,1.00786 -1.06003,1.50632 -0.36159,0.49846 -0.73141,0.99326 -1.10943,1.48434 -0.37801,0.49108 -0.76422,0.97845 -1.15858,1.46206 -0.39436,0.4836 -0.79688,0.96344 -1.20751,1.43947 -0.41063,0.47602 -0.82937,0.94824 -1.25619,1.41658 -0.42682,0.46835 -0.86171,0.93284 -1.30464,1.3934 -0.44293,0.46057 -0.8939,0.91723 -1.35286,1.36992 -0.45897,0.45269 -0.92593,0.90141 -1.40085,1.34612 -0.47492,0.44471 -0.9578,0.88541 -1.44859,1.32204 -0.4908,0.43663 -0.98952,0.86919 -1.49611,1.29764 -0.5066,0.42845 -1.02107,0.85279 -1.54339,1.27296 -0.52231,0.42017 -1.05247,0.83617 -1.59043,1.24796 -0.53796,0.41179 -1.08372,0.81936 -1.63724,1.22267 -0.55352,0.40331 -1.11481,0.80235 -1.68381,1.19708 -0.56901,0.39472 -1.14574,0.78513 -1.73016,1.17118 -1.12832,0.74491 -2.27932,1.46914 -3.45192,2.17236 -1.17259,0.70321 -2.36678,1.38541 -3.58147,2.04628 -1.21469,0.66086 -2.44988,1.30039 -3.70448,1.91826 -1.25461,0.61787 -2.52862,1.21408 -3.82095,1.78831 -1.29233,0.57423 -2.60298,1.12647 -3.93086,1.6564 -1.32788,0.52994 -2.67299,1.03757 -4.03424,1.52257 -1.36124,0.48499 -2.73863,0.94736 -4.13106,1.38677 -1.39242,0.43941 -2.7999,0.85587 -4.22133,1.24904 -1.42143,0.39318 -2.85681,0.76308 -4.30506,1.10938 -1.44825,0.3463 -2.90936,0.66899 -4.38225,0.96776 -1.47288,0.29877 -2.95754,0.57361 -4.45288,0.8242 -1.49534,0.25059 -3.00136,0.47694 -4.51697,0.67871 -1.51562,0.20176 -3.04082,0.37896 -4.57452,0.53126 -1.5337,0.1523 -3.0759,0.2797 -4.62551,0.38188 -1.54961,0.10218 -3.10663,0.17913 -4.66996,0.23055 -1.56334,0.0514 -3.13299,0.0773 -4.70787,0.0773 -0.52609,0 -1.0517,-0.003 -1.57679,-0.009 -0.52508,-0.006 -1.04965,-0.0143 -1.57366,-0.0258 -0.52402,-0.0115 -1.04748,-0.0258 -1.57036,-0.043 -0.52289,-0.0172 -1.04519,-0.0372 -1.56687,-0.0601 -0.52169,-0.0229 -1.04277,-0.0487 -1.5632,-0.0773 -0.52043,-0.0286 -1.04021,-0.0601 -1.55932,-0.0944 -0.51912,-0.0343 -1.03755,-0.0715 -1.55528,-0.11149 -0.51773,-0.04 -1.03476,-0.0829 -1.55104,-0.12855 -0.51629,-0.0457 -1.03184,-0.0942 -1.54662,-0.1456 -0.51479,-0.0514 -1.0288,-0.10558 -1.54201,-0.16262 -0.51322,-0.057 -1.02563,-0.11691 -1.53722,-0.17962 -0.51158,-0.0627 -1.02234,-0.12824 -1.53223,-0.1966 -0.5099,-0.0684 -1.01893,-0.13955 -1.52707,-0.21356 -0.50814,-0.074 -1.01539,-0.15084 -1.52171,-0.23049 -0.50633,-0.0797 -1.01173,-0.16212 -1.51617,-0.2474 -0.50445,-0.0853 -1.00794,-0.17338 -1.51045,-0.26429 l -0.0559,-0.01 -0.0559,-0.01 -0.0559,-0.01 -0.0559,-0.01 -0.0559,-0.01 -0.0559,-0.01 -0.0559,-0.01 -0.0559,-0.01 -0.0559,-0.01 -0.0559,-0.01 -0.0559,-0.01 -0.0559,-0.01 -0.0559,-0.01 -0.0559,-0.01 -0.0559,-0.01 -0.0559,-0.01 -0.0408,0.0394 -0.0408,0.0394 -0.0408,0.0394 -0.0408,0.0394 -0.0408,0.0394 -0.0408,0.0394 -0.0408,0.0394 -0.0408,0.0394 -0.0408,0.0394 -0.0408,0.0394 -0.0408,0.0394 -0.0408,0.0394 -0.0408,0.0394 -0.0408,0.0394 -0.0408,0.0394 -0.0408,0.0394 c -0.30831,0.29811 -0.61997,0.59441 -0.93484,0.8888 -0.31487,0.29439 -0.63296,0.58686 -0.95412,0.8773 -0.32117,0.29045 -0.64542,0.57887 -0.97261,0.86515 -0.3272,0.28628 -0.65735,0.57043 -0.99032,0.85233 -0.33297,0.2819 -0.66875,0.56156 -1.00723,0.83886 -0.33847,0.27731 -0.67964,0.55225 -1.02336,0.82474 -0.34372,0.27248 -0.69,0.5425 -1.0387,0.80994 -0.34871,0.26745 -0.69984,0.53232 -1.05326,0.7945 -0.35343,0.26219 -0.70915,0.52169 -1.06703,0.7784 -0.35788,0.25671 -0.71793,0.51062 -1.08001,0.76163 -0.36208,0.25102 -0.72619,0.49913 -1.0922,0.74422 -0.36602,0.2451 -0.73393,0.48718 -1.10361,0.72614 -0.36969,0.23897 -0.74114,0.4748 -1.11424,0.70741 -0.37309,0.23261 -0.74782,0.46198 -1.12406,0.68802 -0.37624,0.22603 -0.75399,0.44872 -1.13312,0.66796 -0.37912,0.21924 -0.75962,0.43503 -1.14137,0.64726 -1.80245,0.90155 -3.58259,1.70677 -5.33744,2.42349 -1.75484,0.71673 -3.48441,1.34498 -5.18574,1.8926 -1.70132,0.54763 -3.3744,1.01463 -5.01628,1.40887 -1.64187,0.39424 -3.25255,0.71571 -4.82906,0.97229 -1.57651,0.25658 -3.11885,0.44826 -4.624073,0.5829 -1.50522,0.13463 -2.973316,0.21223 -4.401326,0.24065 -1.42801,0.0284 -2.815935,0.008 -4.160814,-0.0544 -1.344879,-0.0621 -2.646712,-0.16547 -3.902539,-0.30233 -1.255827,-0.13685 -2.465647,-0.30716 -3.6265,-0.50307 -1.160853,-0.19591 -2.272739,-0.41741 -3.332697,-0.65665 -1.059958,-0.23924 -2.067989,-0.49622 -3.021131,-0.76307 -0.953142,-0.26685 -1.851397,-0.54358 -2.691802,-0.82232 -0.840405,-0.27874 -1.622962,-0.55949 -2.344709,-0.8344 -0.721748,-0.27491 -1.382685,-0.54397 -1.979853,-0.79932 -0.597168,-0.25536 -1.130566,-0.497 -1.597234,-0.71708 -0.466667,-0.22008 -0.866604,-0.41859 -1.19685,-0.58767 0.130954,-0.11909 0.269327,-0.24552 0.414801,-0.37941 0.145474,-0.13389 0.29805,-0.27523 0.45741,-0.42413 0.15936,-0.1489 0.325505,-0.30536 0.498118,-0.46949 0.172613,-0.16414 0.351694,-0.33594 0.536926,-0.51552 0.185232,-0.17958 0.376615,-0.36694 0.573832,-0.56218 0.197218,-0.19525 0.40027,-0.39838 0.60884,-0.60951 0.208569,-0.21112 0.422656,-0.43024 0.641945,-0.65747 0.219288,-0.22722 0.443777,-0.46255 0.67315,-0.70609 0.229373,-0.24354 0.46363,-0.49529 0.702455,-0.75536 0.238825,-0.26007 0.482217,-0.52846 0.729859,-0.80527 0.247643,-0.27682 0.499536,-0.56207 0.755363,-0.85585 0.255827,-0.29378 0.515588,-0.5961 0.778966,-0.90707 0.263378,-0.31096 0.530373,-0.63057 0.800668,-0.95893 0.270295,-0.32836 0.543891,-0.66547 0.82047,-1.01145 0.276579,-0.34598 0.556142,-0.70081 0.838372,-1.06462 0.282229,-0.36381 0.567126,-0.73659 0.854372,-1.11844 0.378536,-0.50321 0.755955,-1.01661 1.13036,-1.53953 0.374405,-0.52291 0.745795,-1.05533 1.112273,-1.59657 0.366478,-0.54125 0.728043,-1.09132 1.082799,-1.64953 0.354756,-0.55822 0.702702,-1.12457 1.04194,-1.69839 0.339239,-0.57382 0.66977,-1.1551 0.989695,-1.74316 0.319926,-0.58806 0.629246,-1.1829 0.926063,-1.78383 0.296817,-0.60094 0.581132,-1.20797 0.851045,-1.82041 0.269914,-0.61244 0.525427,-1.2303 0.764641,-1.85289 0.239215,-0.62259 0.462131,-1.24991 0.666851,-1.88128 0.204721,-0.63137 0.391245,-1.26679 0.557675,-1.90558 0.16643,-0.63879 0.312767,-1.28094 0.437112,-1.92578 0.124345,-0.64483 0.226699,-1.29236 0.305164,-1.94188 0.07846,-0.64952 0.13304,-1.30105 0.161828,-1.95389 0.02879,-0.65285 0.03179,-1.30702 0.0071,-1.96182 -0.02468,-0.6548 -0.07705,-1.31024 -0.158999,-1.96563 -0.08195,-0.6554 -0.193481,-1.31075 -0.336493,-1.96537 l -0.0067,-0.031 -0.0067,-0.031 -0.0067,-0.031 -0.0067,-0.031 -0.0067,-0.031 -0.0067,-0.031 -0.0067,-0.031 -0.0067,-0.031 -0.0067,-0.031 -0.0067,-0.031 -0.0067,-0.031 -0.0067,-0.031 -0.0067,-0.031 -0.0067,-0.031 -0.0067,-0.031 -0.0067,-0.031 -0.02222,-0.0227 -0.02222,-0.0227 -0.02222,-0.0227 -0.02222,-0.0227 -0.02222,-0.0227 -0.02222,-0.0227 -0.02222,-0.0227 -0.02222,-0.0227 -0.02222,-0.0227 -0.02222,-0.0227 -0.02222,-0.0227 -0.02222,-0.0227 -0.02222,-0.0227 -0.02222,-0.0227 -0.02222,-0.0227 -0.02222,-0.0227 c -0.704008,-0.72166 -1.387535,-1.4521 -2.050392,-2.19098 -0.662856,-0.73888 -1.305042,-1.48621 -1.926367,-2.24164 -0.621325,-0.75542 -1.221789,-1.51895 -1.801202,-2.29024 -0.579414,-0.77129 -1.137777,-1.55034 -1.674899,-2.33681 -0.537123,-0.78647 -1.053004,-1.58036 -1.547456,-2.38133 -0.494451,-0.80097 -0.967472,-1.60901 -1.418872,-2.4238 -0.451401,-0.81478 -0.881181,-1.6363 -1.289151,-2.46422 -0.407969,-0.82791 -0.794129,-1.66222 -1.158288,-2.50259 -0.364159,-0.84037 -0.706318,-1.68679 -1.026287,-2.53892 -0.319968,-0.85214 -0.617747,-1.70999 -0.893145,-2.57321 -0.275399,-0.86322 -0.528417,-1.73182 -0.758865,-2.60544 -0.230449,-0.87363 -0.438327,-1.75228 -0.623445,-2.63563 -0.185119,-0.88335 -0.347477,-1.77139 -0.486886,-2.66377 -0.139408,-0.89239 -0.255867,-1.78913 -0.349186,-2.68987 -0.09332,-0.90074 -0.163498,-1.8055 -0.210347,-2.71391 -0.04685,-0.90842 -0.07037,-1.82051 -0.07037,-2.73592 0,-0.89699 0.02353,-1.79185 0.07039,-2.68415 0.04686,-0.89231 0.117064,-1.78205 0.21041,-2.66883 0.09334,-0.88677 0.209835,-1.77058 0.349279,-2.65099 0.139443,-0.88042 0.30184,-1.75744 0.486999,-2.63066 0.185159,-0.87322 0.39308,-1.74263 0.623572,-2.60782 0.230491,-0.86519 0.483553,-1.72615 0.758994,-2.58247 0.275441,-0.85633 0.573261,-1.70801 0.893269,-2.55463 0.320008,-0.84663 0.662203,-1.68819 1.026395,-2.52428 0.364192,-0.83609 0.75038,-1.66671 1.158372,-2.49143 0.407993,-0.82472 0.83779,-1.64355 1.289201,-2.45607 0.45141,-0.81252 0.924434,-1.61873 1.41888,-2.41821 0.494446,-0.79949 1.010313,-1.59224 1.547411,-2.37785 0.537098,-0.78561 1.095427,-1.56408 1.674794,-2.33498 0.579367,-0.77091 1.179774,-1.53425 1.801028,-2.289612 0.621253,-0.755363 1.263355,-1.502748 1.926112,-2.241736 0.662757,-0.738988 1.346171,-1.46958 2.050049,-2.191359 l 0.02222,-0.02271 0.02222,-0.02271 0.02222,-0.02271 0.02222,-0.0227 0.02222,-0.02271 0.02222,-0.02271 0.02222,-0.02271 0.02222,-0.02271 0.02222,-0.02271 0.02222,-0.02271 0.02222,-0.02271 0.02222,-0.02271 0.02222,-0.0227 0.02222,-0.02271 0.02222,-0.02271 0.02222,-0.02271 0.0067,-0.03101 0.0067,-0.03101 0.0067,-0.03101 0.0067,-0.03101 0.0067,-0.031 0.0067,-0.03101 0.0067,-0.03101 0.0067,-0.03101 0.0067,-0.03101 0.0067,-0.03101 0.0067,-0.03101 0.0067,-0.03101 0.0067,-0.031 0.0067,-0.03101 0.0067,-0.03101 0.0067,-0.03101 c 0.142993,-0.65447 0.25452,-1.309666 0.336476,-1.964907 0.08195,-0.655241 0.134341,-1.310527 0.159052,-1.965175 0.02471,-0.654649 0.02175,-1.30866 -0.007,-1.961352 -0.02874,-0.652692 -0.08326,-1.304065 -0.161658,-1.953437 -0.0784,-0.649373 -0.18068,-1.296744 -0.304946,-1.941433 -0.124265,-0.644688 -0.270515,-1.286694 -0.436854,-1.925336 -0.166339,-0.638641 -0.352766,-1.273918 -0.557384,-1.905149 -0.204619,-0.63123 -0.42743,-1.258414 -0.666536,-1.88087 -0.239107,-0.622456 -0.494508,-1.240184 -0.764309,-1.852502 -0.269801,-0.612317 -0.554001,-1.219225 -0.850704,-1.820041 -0.296702,-0.600815 -0.605907,-1.195539 -0.925719,-1.78349 -0.319811,-0.58795 -0.650229,-1.169126 -0.989356,-1.742847 -0.339128,-0.573721 -0.686965,-1.139987 -1.041615,-1.698115 -0.354651,-0.558128 -0.716114,-1.108118 -1.082495,-1.64929 -0.366381,-0.541171 -0.737679,-1.073523 -1.111997,-1.596374 -0.374318,-0.522852 -0.751656,-1.036202 -1.130119,-1.539369 -0.285979,-0.38021 -0.569681,-0.75146 -0.850792,-1.113857 -0.281112,-0.362397 -0.559632,-0.71594 -0.835247,-1.060737 C 76.27272,62.59975 76.00001,62.2637 75.730519,61.936291 c -0.269491,-0.327409 -0.535762,-0.646178 -0.7985,-0.956413 -0.262739,-0.310234 -0.521943,-0.611935 -0.7773,-0.905207 -0.255356,-0.293273 -0.506865,-0.578117 -0.754212,-0.85464 -0.247346,-0.276523 -0.490531,-0.544725 -0.729239,-0.804711 -0.238709,-0.259987 -0.472941,-0.511758 -0.702382,-0.755421 -0.229442,-0.243662 -0.454093,-0.479215 -0.673639,-0.706767 -0.219546,-0.227551 -0.433987,-0.447099 -0.64301,-0.658752 -0.209022,-0.211652 -0.412625,-0.415408 -0.610495,-0.611375 -0.19787,-0.195966 -0.390007,-0.384143 -0.576096,-0.564636 -0.186089,-0.180493 -0.366131,-0.353302 -0.539811,-0.518535 -0.173679,-0.165232 -0.340997,-0.322888 -0.50164,-0.473072 -0.160642,-0.150185 -0.314608,-0.292899 -0.461584,-0.428248 -0.146975,-0.135349 -0.286961,-0.263334 -0.419642,-0.384061 0.188539,-0.0967 0.397347,-0.202041 0.626302,-0.314695 0.228956,-0.112654 0.478059,-0.232622 0.747187,-0.358577 0.269128,-0.125956 0.558282,-0.2579 0.867339,-0.394505 0.309057,-0.136605 0.638018,-0.277872 0.98676,-0.422475 0.348742,-0.144603 0.717265,-0.292542 1.105449,-0.44249 0.388183,-0.149949 0.796026,-0.301907 1.223406,-0.454549 0.42738,-0.152642 0.874298,-0.305968 1.340632,-0.458652 0.466333,-0.152684 0.952083,-0.304725 1.457126,-0.454799 0.505043,-0.150073 1.029379,-0.298178 1.572888,-0.442989 0.543508,-0.144811 1.106188,-0.286328 1.687918,-0.423225 0.581731,-0.136896 1.18251,-0.269173 1.802218,-0.395503 0.619708,-0.126331 1.258343,-0.246715 1.915785,-0.359827 0.657441,-0.113112 1.333689,-0.218952 2.02862,-0.316194 0.694932,-0.09724 1.408547,-0.185885 2.140724,-0.264604 0.732178,-0.07872 1.482917,-0.147515 2.252096,-0.20506 0.76918,-0.05755 1.556799,-0.10384 2.362737,-0.137559 z"
       id="path2"
       inkscape:connector-curvature="0"
       sodipodi:nodetypes="sssssssssssssssscccccccccccccccccccccccccccccccccssssssssssssssssssssssssssssssscssssssssssssssssssssssssssssssscssssssssssssssssssssssssssssssscccccccccccccccccccccccccccccccccssssssssssssssscccccccccccccccccccccccccccccccccssssssssssssssscssssssssssssssssssssssssssssssscssssssssssssssscssssssssssssssssssssssssssssssscccccccccccccccccssssssssssssssscssssssssssssssssssssssssssssssscssssssssssssssscccccccccccccccccccccccccccccccccsssssssssssssssssssssssssssssssscssssssssssssssscccccccccccccccccccccccccccccccccssssssssssssssssssssssssssssssscssssssssssssssscssssssssssssssssssssssssssssssscssssssssssssssscssssssssssssssssssssssssssssssscccccccccccccccccccccccccccccccccssssssssssssssscssssssssssssssscssssssssssssssssssssssssssssssscccccccccccccccccccccccccccccccccssssssssssssssssssssssssssssssscccccccccccccccccccccccccccccccccssssssssssssssssssssssssssssssscssssssssssssssss" />
  </g>
</svg>
